<?xml version="1.0" encoding="UTF-8"?><svg id="_レイヤー_1" xmlns="http://www.w3.org/2000/svg" viewBox="0 0 874.73 737.29"><defs><style>.cls-1{letter-spacing:-.04em;}.cls-2{fill:#fff;}.cls-2,.cls-3{font-size:61.23px;}.cls-2,.cls-3,.cls-4{font-family:AlfaSlabOne-Regular, 'AlfaSlabOne Regular';}.cls-3,.cls-5,.cls-6,.cls-4{fill:#231815;}.cls-6{font-family:Yellowtail, Yellowtail;}.cls-6,.cls-4{font-size:94.72px;}.cls-7{letter-spacing:-.03em;}</style></defs><path class="cls-5" d="M288.5,130.58s-24.44,12.66-48.66,6.17c-22.09-5.92-36.33-25.66-38.68-29.1l-.04.03s-.06-.11-.16-.31c-.12-.17-.19-.29-.19-.29,0,0,.04-.02.04-.02-1.81-3.75-11.79-25.96-5.87-48.05,6.49-24.22,29.67-39.06,29.67-39.06,0,0,12.66,24.44,6.16,48.66-5.09,19-20.4,32.18-26.79,37,7.37-3.12,26.44-9.78,45.44-4.69,24.22,6.49,39.06,29.67,39.06,29.67ZM156.85,144.66s.08.09.23.25c.13.18.21.28.21.28l.03-.03c2.91,2.98,20.36,19.95,43.15,21.94,24.99,2.19,46.85-14.52,46.85-14.52,0,0-18.64-20.24-43.62-22.43-19.59-1.71-37.21,8.16-43.93,12.51,5.46-5.86,18.24-21.5,19.96-41.09,2.18-24.98-14.52-46.85-14.52-46.85,0,0-20.25,18.64-22.44,43.62-1.99,22.79,11.69,42.92,14.12,46.3,0,0-.04.03-.04.03ZM120.16,189.27s-.03.03-.03.03c0,0,.1.08.27.21.16.15.25.23.25.23l.03-.03c3.39,2.43,23.52,16.11,46.3,14.12,24.98-2.18,43.62-22.44,43.62-22.44,0,0-21.87-16.7-46.85-14.52-19.59,1.72-35.23,14.5-41.1,19.95,4.36-6.72,14.23-24.34,12.52-43.93-2.18-24.98-22.44-43.62-22.44-43.62,0,0-16.7,21.87-14.52,46.85,2,22.79,18.97,40.24,21.95,43.15ZM91.73,239.62s-.03.04-.03.04c0,0,.11.06.31.16.18.12.29.18.29.18l.02-.04c3.76,1.81,25.95,11.78,48.05,5.86,24.22-6.48,39.06-29.67,39.06-29.67,0,0-24.44-12.65-48.66-6.16-19,5.09-32.18,20.39-37.01,26.78,3.13-7.38,9.79-26.44,4.7-45.43-6.49-24.23-29.67-39.06-29.67-39.06,0,0-12.65,24.44-6.17,48.66,5.92,22.09,25.66,36.34,29.11,38.68ZM72.48,294.13s-.02.04-.02.04c0,0,.12.03.33.1.2.08.32.13.32.13v-.04c4.03,1.13,27.62,7.09,48.35-2.58,22.73-10.59,33.31-36,33.31-36,0,0-26.26-8.22-48.99,2.38-17.82,8.31-28.15,25.67-31.79,32.81,1.8-7.81,5.04-27.74-3.26-45.57-10.6-22.73-36-33.31-36-33.31,0,0-8.21,26.26,2.38,48.99,9.67,20.73,31.58,31.34,35.38,33.04ZM62.99,351.15s-.01.05-.01.05c0,0,.13.01.34.04.21.05.33.08.33.08,0,0,0-.04,0-.05,4.15.41,28.42,2.19,47.16-10.92,20.54-14.38,26.55-41.25,26.55-41.25,0,0-27.29-3.53-47.83,10.86-16.11,11.28-23.26,30.17-25.61,37.83.41-8,.15-28.19-11.13-44.31-14.38-20.54-41.24-26.55-41.24-26.55,0,0-3.53,27.29,10.85,47.83,13.12,18.74,36.54,25.37,40.58,26.39ZM63.54,408.96s0,.05,0,.05c0,0,.12-.01.34-.02.22,0,.34.02.34.02,0,0,0-.05,0-.05,4.16-.31,28.37-2.78,44.54-18.95,17.73-17.72,18.99-45.23,18.99-45.23,0,0-27.49,1.26-45.22,19-13.9,13.91-17.67,33.75-18.65,41.7-.98-7.96-4.75-27.8-18.65-41.71-17.73-17.73-45.23-18.99-45.23-18.99,0,0,1.27,27.49,18.99,45.22,16.17,16.18,40.39,18.65,44.55,18.95ZM26.96,454.87c18.74,13.13,43.02,11.35,47.16,10.93,0,0,0,.05,0,.05,0,0,.12-.03.33-.08.21-.03.34-.04.34-.04,0,0-.01-.04-.01-.05,4.04-1.03,27.46-7.66,40.58-26.39,14.38-20.53,10.85-47.84,10.85-47.84,0,0-26.85,6.02-41.23,26.57-11.28,16.11-11.54,36.31-11.13,44.31-2.34-7.66-9.5-26.54-25.61-37.83-20.54-14.38-47.84-10.84-47.84-10.84,0,0,6.02,26.85,26.55,41.23ZM94.41,519.92s.01.05.01.05c0,0,.11-.06.31-.14.21-.06.33-.09.33-.09,0,0-.02-.04-.02-.05,3.8-1.72,25.71-12.31,35.37-33.04,10.6-22.72,2.38-49,2.38-49,0,0-25.4,10.59-35.99,33.33-8.31,17.82-5.06,37.76-3.27,45.56-3.64-7.14-13.97-24.49-31.79-32.81-22.72-10.6-48.99-2.37-48.99-2.37,0,0,10.59,25.4,33.31,36,20.73,9.67,44.34,3.7,48.35,2.57ZM123.8,569.71s.02.05.02.05c0,0,.1-.08.28-.19.19-.1.31-.15.31-.15l-.03-.04c3.44-2.35,23.18-16.59,29.1-38.68,6.5-24.22-6.17-48.67-6.17-48.67,0,0-23.18,14.85-29.66,39.07-5.09,18.99,1.57,38.06,4.69,45.44-4.82-6.4-18-21.69-37-26.8-24.22-6.49-48.66,6.17-48.66,6.17,0,0,14.84,23.17,39.06,29.66,22.1,5.92,44.3-4.05,48.06-5.86ZM161.38,613.64s.03.05.03.05c0,0,.09-.09.25-.24.17-.13.28-.2.28-.2,0,0-.03-.03-.03-.04,2.98-2.91,19.95-20.36,21.94-43.14,2.19-24.98-14.53-46.85-14.53-46.85,0,0-20.24,18.64-22.43,43.62-1.71,19.59,8.16,37.21,12.51,43.94-5.86-5.46-21.49-18.24-41.09-19.96-24.98-2.19-46.85,14.53-46.85,14.53,0,0,18.64,20.24,43.61,22.43,22.79,1.99,42.93-11.68,46.31-14.12ZM206.02,650.37s.03.04.03.04c0,0,.07-.11.2-.28.15-.15.24-.25.24-.25,0,0-.04-.03-.04-.03,2.43-3.38,16.11-23.52,14.12-46.3-2.18-24.97-22.44-43.62-22.44-43.62,0,0-16.7,21.88-14.51,46.85,1.71,19.59,14.5,35.23,19.95,41.1-6.72-4.36-24.33-14.23-43.93-12.52-24.98,2.19-43.61,22.44-43.61,22.44,0,0,21.87,16.7,46.85,14.52,22.79-2,40.25-18.96,43.15-21.95ZM262.56,630.17c-6.48-24.22-29.68-39.06-29.68-39.06,0,0-12.65,24.45-6.15,48.66,5.09,19,20.4,32.18,26.78,37.01-7.37-3.13-26.44-9.79-45.44-4.71-24.22,6.49-39.05,29.68-39.05,29.68,0,0,24.44,12.64,48.66,6.16,22.09-5.92,36.35-25.66,38.68-29.11,0,0,.04.04.04.04,0,0,.05-.12.15-.31.12-.18.19-.29.19-.29,0,0-.04-.02-.04-.02,1.81-3.76,11.78-25.96,5.86-48.05ZM666.66,672.06c-19-5.1-38.06,1.57-45.44,4.69,6.39-4.83,21.69-18,26.78-37,6.49-24.22-6.16-48.66-6.16-48.66,0,0-23.18,14.84-29.67,39.06-5.92,22.09,4.06,44.3,5.87,48.05,0,0-.04.02-.04.02,0,0,.07.11.19.29.1.2.15.31.15.31,0,0,.04-.03.04-.03,2.35,3.44,16.59,23.19,38.68,29.11,24.22,6.5,48.66-6.17,48.66-6.17,0,0-14.84-23.17-39.06-29.66ZM715.09,635.36c-19.59-1.72-37.21,8.15-43.93,12.51,5.46-5.86,18.23-21.5,19.95-41.08,2.19-24.99-14.52-46.86-14.52-46.86,0,0-20.25,18.64-22.44,43.62-1.99,22.79,11.69,42.93,14.12,46.3,0,0-.04.03-.04.03,0,0,.09.09.23.25.13.18.21.27.21.27,0,0,.03-.03.04-.03,2.91,2.98,20.36,19.96,43.15,21.95,24.98,2.19,46.85-14.52,46.85-14.52,0,0-18.64-20.25-43.62-22.43ZM756.42,590.8c-19.59,1.71-35.23,14.49-41.09,19.95,4.36-6.72,14.23-24.34,12.52-43.92-2.18-24.99-22.43-43.63-22.43-43.63,0,0-16.71,21.88-14.52,46.85,2,22.79,18.97,40.25,21.95,43.15,0,0-.03.04-.03.04,0,0,.1.07.28.21.16.15.25.23.25.23,0,0,.03-.03.03-.04,3.38,2.43,23.52,16.12,46.3,14.12,24.98-2.17,43.62-22.43,43.62-22.43,0,0-21.87-16.71-46.85-14.52ZM789.38,539.74c-19,5.09-32.18,20.39-37.01,26.77,3.12-7.37,9.78-26.44,4.7-45.43-6.49-24.22-29.67-39.07-29.67-39.07,0,0-12.66,24.44-6.17,48.66,5.92,22.1,25.66,36.35,29.1,38.68,0,0-.02.05-.02.05,0,0,.11.06.31.15.19.12.28.18.28.18,0,0,.02-.04.02-.05,3.75,1.81,25.96,11.79,48.05,5.87,24.22-6.48,39.06-29.67,39.06-29.67,0,0-24.44-12.65-48.66-6.15ZM812.98,483.74c-17.83,8.31-28.15,25.66-31.8,32.79,1.8-7.8,5.05-27.73-3.26-45.55-10.59-22.73-36-33.32-36-33.32,0,0-8.22,26.27,2.38,49,9.67,20.73,31.59,31.33,35.38,33.04,0,0-.02.05-.02.05,0,0,.12.03.33.1.21.09.31.13.31.13,0,0,.01-.04.01-.05,4.01,1.13,27.61,7.1,48.34-2.57,22.73-10.59,33.32-36,33.32-36,0,0-26.27-8.21-48.99,2.39ZM826.49,424.48c-16.11,11.28-23.26,30.17-25.62,37.82.41-8,.15-28.19-11.12-44.29-14.38-20.54-41.24-26.57-41.24-26.57,0,0-3.53,27.3,10.85,47.84,13.12,18.74,36.55,25.37,40.58,26.39,0,0,0,.05,0,.05,0,0,.12,0,.34.04.22.06.33.08.33.08,0,0,0-.05,0-.06,4.15.42,28.43,2.2,47.16-10.92,20.55-14.38,26.56-41.24,26.56-41.24,0,0-27.29-3.53-47.83,10.86ZM874.73,344.79s-27.49,1.26-45.22,18.99c-13.91,13.91-17.67,33.75-18.66,41.69-.98-7.95-4.74-27.78-18.64-41.69-17.73-17.74-45.23-19-45.23-19,0,0,1.26,27.5,18.99,45.23,16.18,16.17,40.4,18.64,44.54,18.95,0,0,0,.05,0,.05,0,0,.12-.01.34-.03.23.02.34.03.34.03,0,0,0-.05,0-.06,4.16-.3,28.38-2.76,44.54-18.94,17.74-17.72,18.99-45.22,18.99-45.22ZM821.93,303.48c-11.28,16.11-11.54,36.31-11.14,44.3-2.34-7.66-9.49-26.54-25.6-37.82-20.54-14.39-47.84-10.86-47.84-10.86,0,0,6.02,26.86,26.56,41.25,18.74,13.12,43.02,11.34,47.16,10.92,0,0,.01.05.01.05,0,0,.12-.03.33-.09.22-.02.34-.03.34-.03,0,0-.01-.05-.02-.06,4.04-1.02,27.47-7.65,40.58-26.39,14.4-20.53,10.85-47.83,10.85-47.83,0,0-26.86,6.01-41.24,26.56ZM800.73,290.98c-3.64-7.14-13.96-24.49-31.78-32.8-22.73-10.6-49-2.39-49-2.39,0,0,10.59,25.41,33.32,36,20.73,9.67,44.34,3.71,48.34,2.57,0,0,.02.05.02.05,0,0,.11-.06.31-.14.22-.06.33-.09.33-.09,0,0-.02-.05-.02-.05,3.8-1.71,25.72-12.31,35.38-33.04,10.61-22.72,2.39-48.99,2.39-48.99,0,0-25.4,10.59-36,33.32-8.31,17.82-5.06,37.76-3.27,45.56ZM780.96,236.78c-4.82-6.39-18-21.69-36.99-26.78-24.22-6.5-48.67,6.16-48.67,6.16,0,0,14.84,23.18,39.06,29.67,22.09,5.92,44.31-4.05,48.05-5.86,0,0,.03.04.03.04,0,0,.1-.08.28-.19.21-.1.31-.15.31-.15,0,0-.03-.04-.03-.05,3.45-2.34,23.19-16.58,29.1-38.68,6.5-24.22-6.16-48.66-6.16-48.66,0,0-23.18,14.84-29.67,39.06-5.09,19,1.58,38.06,4.69,45.44ZM710.99,166.89c-24.98-2.2-46.86,14.52-46.86,14.52,0,0,18.64,20.25,43.62,22.44,22.78,1.99,42.93-11.69,46.3-14.12,0,0,.04.04.04.04,0,0,.08-.09.24-.24.19-.13.28-.2.28-.2,0,0-.04-.04-.04-.04,2.99-2.9,19.96-20.36,21.94-43.15,2.2-24.98-14.51-46.85-14.51-46.85,0,0-20.25,18.64-22.44,43.62-1.71,19.59,8.16,37.21,12.51,43.93-5.86-5.46-21.49-18.23-41.08-19.95ZM714.95,142.67c-6.72-4.36-24.33-14.22-43.92-12.51-24.98,2.18-43.63,22.44-43.63,22.44,0,0,21.88,16.71,46.86,14.52,22.78-2,40.25-18.96,43.14-21.94,0,0,.04.03.04.03,0,0,.07-.11.2-.28.16-.16.24-.24.24-.24,0,0-.04-.03-.05-.03,2.44-3.38,16.12-23.52,14.12-46.3-2.17-24.98-22.43-43.62-22.43-43.62,0,0-16.71,21.87-14.52,46.85,1.71,19.59,14.5,35.23,19.94,41.09ZM634.9,136.76c22.09-5.92,36.34-25.66,38.67-29.1,0,0,.05.03.05.03,0,0,.05-.12.15-.31.12-.19.19-.28.19-.28,0,0-.05-.02-.06-.03,1.82-3.75,11.79-25.96,5.86-48.05-6.48-24.23-29.66-39.06-29.66-39.06,0,0-12.65,24.44-6.16,48.66,5.09,18.99,20.39,32.17,26.77,37-7.37-3.12-26.43-9.78-45.42-4.7-24.23,6.48-39.07,29.67-39.07,29.67,0,0,24.45,12.65,48.67,6.16Z"/><path class="cls-5" d="M589.7,727.26c1.44,1.89,1.68,4.43.63,6.56-1.05,2.13-3.22,3.47-5.6,3.47h-294.74c-2.4,0-4.58-1.37-5.62-3.53-1.04-2.16-.76-4.72.73-6.59l31.31-39.47c1.82-2.29,1.8-5.53-.04-7.8l-31.09-38.49c-1.51-1.87-1.82-4.44-.78-6.61,1.04-2.17,3.23-3.55,5.63-3.55h293.78c2.43,0,4.64,1.41,5.66,3.61,1.02,2.2.68,4.8-.89,6.65l-30.57,36.31c-1.88,2.24-1.96,5.48-.19,7.81l31.75,41.64Z"/><text class="cls-3" transform="translate(374.54 443.5)"><tspan x="0" y="0">1920</tspan></text><path class="cls-5" d="M437.37,214.76c-196.91,0-276.41,129.69-276.41,147.29,0,32.58,92.64,154.17,276.41,154.17s276.4-132.02,276.4-154.17c0-23.46-79.49-147.29-276.4-147.29ZM175.05,374.66c0-1.95,12.75-12.53,37.96-24.88.69,28.65,13.43,63.87,23.98,87.03-41.94-30.35-61.94-60.7-61.94-62.15ZM177.25,360.08s12.33-22.27,39.95-48.45c-1.68,6.86-2.91,13.86-3.59,21.19,34.5-19.16,59.91-25.93,67.37-28.02,0-23.45,13.04-45.37,14.81-46.19,37.14-17.13,83.88-29.52,141.57-29.52,63.67,0,115.55,15.47,155.65,34.9,1.13,5.24,2.48,34.64,2.48,34.64,28.6,6.49,61.08,20.05,61.08,20.05,0,0,.56-13.27.53-14.2,25.18,20.27,37.84,36.69,37.84,36.69-70.27-30.09-122.97-36.5-123.22-38.11-3.96-24.58-25.21-61.59-134.36-61.59s-128.26,33.68-133.7,58.12c-.99,4.48-15.21,15.36-21.61,17.01-70.63,18.25-104.81,43.47-104.81,43.47ZM566.05,313.57c0,56.54-59.02,34.89-128.68,34.89s-128.65,21.88-128.65-34.65c0-19.66,11.95-66.72,128.65-66.72s128.68,46.81,128.68,66.47ZM560.25,470.91c-35.8,16.52-77.33,28.15-122.89,28.15s-85.52-7.91-118.97-19.71c-13.34-21.71-35.58-68.7-35.58-154.78,0-.2,0-.4,0-.6,16.37-3.55,19.75-.07,20.05,2.11,6.88,48.48,62.39,33.54,134.49,33.54s132.43,16.83,135.13-40.26c.05-1.2,5.2-2.93,21.64.3-6.45,74.15-20.44,124.51-33.89,151.25ZM633,426.17c10.25-24.13,22.58-61.39,24.44-88.99,24.16,9.03,36.91,17.7,36.91,22.58,0,6.11-22.52,35.93-61.35,66.41ZM536.3,289.47c-2.37-9.12-7.28-15.41-12.98-15.41-4.07,0-7.75,3.22-10.38,8.39-4.15-.86-8.63-1.63-13.44-2.32-4.35-.63-8.27-2.95-10.9-6.47-2.35-3.14-5.2-4.98-8.29-4.98-4.12,0-7.83,3.3-10.47,8.56-3.86-.23-7.87-.41-12.02-.55-4.89-.16-9.44-2.48-12.46-6.32-2.29-2.92-5.04-4.63-8.01-4.63-4.65,0-8.78,4.2-11.44,10.71-4.23.08-8.33.2-12.29.35-4.66.19-9.18-1.6-12.45-4.92-2.01-2.05-4.32-3.21-6.76-3.21-4.59,0-8.67,4.08-11.33,10.43-4.16.49-8.1,1.03-11.84,1.62-4.94.79-9.97-.7-13.68-4.04-1.87-1.68-3.95-2.63-6.16-2.63-5.69,0-10.61,6.29-12.98,15.41-11.27,4.96-16.84,10.99-16.84,17.5,0,7.57,5.88,9.66,17.51,9.39,2.56,7.85,7.11,13.09,12.31,13.09,3.9,0,7.43-2.95,10.04-7.74,2.6-4.8,7.42-8.02,12.85-8.58,2.66-.27,5.42-.55,8.28-.82,2.62,7.1,6.95,11.75,11.84,11.75,3.51,0,6.73-2.39,9.23-6.37,2.91-4.61,7.92-7.5,13.37-7.71,2.82-.11,5.7-.2,8.64-.26,2.64,6.9,6.89,11.41,11.71,11.41,2.99,0,5.76-1.73,8.07-4.7,3.28-4.22,8.41-6.61,13.75-6.39,2.96.12,5.85.26,8.67.43,2.53,8.13,7.16,13.6,12.47,13.6,2.93,0,5.65-1.67,7.93-4.52,3.51-4.41,9.06-6.74,14.67-6.15,2.59.27,5.08.54,7.47.8,2.39,9.05,7.28,15.26,12.94,15.26,5.2,0,9.74-5.24,12.31-13.09,11.62.27,17.5-1.82,17.5-9.39,0-6.51-5.57-12.54-16.84-17.5ZM326.32,306.32c0-4.27,3.69-8.44,11.15-12.13-.36,2.41-.56,4.95-.56,7.57,0,3.9.43,7.61,1.19,10.98-7.8.13-11.78-1.43-11.78-6.42ZM351.41,321.9c-5.07,0-9.18-9.02-9.18-20.15s4.11-20.14,9.18-20.14,9.18,9.02,9.18,20.14-4.11,20.15-9.18,20.15ZM381.25,307.93c-5.79.64-11.1,1.3-15.98,1.93.41-2.56.64-5.28.64-8.1,0-5.74-.91-11.07-2.48-15.49,5.44-1.06,11.5-2,18.17-2.8-1.07,3.86-1.68,8.25-1.68,12.91,0,4.13.49,8.03,1.33,11.56ZM394.42,317.33c-5.26,0-9.52-9.39-9.52-20.96s4.26-20.96,9.52-20.96,9.51,9.38,9.51,20.96-4.26,20.96-9.51,20.96ZM424.17,304.88c-5.64.15-10.95.42-16.1.73.54-2.89.85-6,.85-9.24,0-5.54-.86-10.68-2.32-15.01,5.66-.3,11.63-.53,17.9-.65-1.04,3.81-1.63,8.13-1.63,12.73,0,4.08.48,7.95,1.31,11.44ZM437.37,314.07c-5.16,0-9.35-9.24-9.35-20.63s4.19-20.64,9.35-20.64,9.34,9.24,9.34,20.64-4.18,20.63-9.34,20.63ZM465.82,296.37c0,3.25.31,6.35.84,9.24-5.15-.31-10.46-.59-16.1-.73.83-3.49,1.3-7.36,1.3-11.44,0-4.6-.6-8.91-1.63-12.73,6.28.13,12.24.35,17.91.65-1.47,4.33-2.32,9.47-2.32,15.01ZM480.32,318.14c-5.6,0-10.13-9.75-10.13-21.76s4.54-21.77,10.13-21.77,10.13,9.75,10.13,21.77-4.54,21.76-10.13,21.76ZM508.83,301.76c0,2.82.22,5.54.63,8.1-4.88-.63-10.19-1.29-15.98-1.93.85-3.52,1.33-7.43,1.33-11.56,0-4.66-.61-9.05-1.67-12.91,6.67.8,12.73,1.74,18.17,2.8-1.57,4.42-2.48,9.75-2.48,15.49ZM523.33,321.49c-5,0-9.04-8.84-9.04-19.74s4.04-19.73,9.04-19.73,9.04,8.84,9.04,19.73-4.05,19.74-9.04,19.74ZM536.64,312.73c.76-3.37,1.19-7.07,1.19-10.98,0-2.63-.21-5.16-.56-7.57,7.45,3.7,11.15,7.87,11.15,12.13,0,4.98-3.98,6.55-11.77,6.42ZM519.24,373.51h-174.02c-11.93,0-21.63,9.7-21.63,21.63v53.93c0,11.93,9.7,21.63,21.63,21.63h174.02c11.93,0,21.63-9.7,21.63-21.63v-53.93c0-11.93-9.7-21.63-21.63-21.63ZM532.12,449.07c0,7.11-5.78,12.89-12.89,12.89h-174.02c-7.1,0-12.89-5.78-12.89-12.89v-53.93c0-7.11,5.78-12.89,12.89-12.89h174.02c7.1,0,12.89,5.78,12.89,12.89v53.93Z"/><text class="cls-6" transform="translate(275.96 602.38)"><tspan class="cls-7" x="0" y="0">F</tspan><tspan x="43.19" y="0">ootball</tspan></text><text class="cls-4" transform="translate(275.96 79.28)"><tspan class="cls-7" x="0" y="0">F</tspan><tspan x="43.19" y="0">ootball</tspan></text><text class="cls-2" transform="translate(369.86 705.53)"><tspan x="0" y="0">C</tspan><tspan class="cls-1" x="35.51" y="0">L</tspan><tspan x="62.21" y="0">UB</tspan></text><path class="cls-5" d="M477.06,123.6l-22.23,19.93,6.27,29.18-25.82-14.99-25.82,14.99,6.27-29.18-22.23-19.93,29.7-3.06,12.08-27.29,12.08,27.29,29.7,3.06ZM371.12,137.52l-7.67-17.33-7.67,17.33-18.85,1.94,14.11,12.65-3.98,18.52,16.39-9.51,16.39,9.51-3.98-18.52,14.11-12.65-18.85-1.94ZM537.8,139.46l-18.85-1.94-7.67-17.33-7.67,17.33-18.85,1.94,14.11,12.65-3.98,18.52,16.39-9.51,16.39,9.51-3.98-18.52,14.11-12.65Z"/></svg>