<?xml version="1.0" encoding="UTF-8"?>
<svg id="_レイヤー_1" data-name="レイヤー_1" xmlns="http://www.w3.org/2000/svg" version="1.1" xmlns:xlink="http://www.w3.org/1999/xlink" viewBox="0 0 963.78 963.78">
  <!-- Generator: Adobe Illustrator 30.3.0, SVG Export Plug-In . SVG Version: 2.1.3 Build 182)  -->
  <defs>
    <path id="path" d="M-195.95,482.92c0-109.89,304.17-198.97,679.38-198.97s679.38,89.08,679.38,198.97-304.17,198.97-679.38,198.97-679.38-89.08-679.38-198.97Z"/>
  </defs>
  <text>
    <textPath startOffset="100%" xlink:href="#path"><tspan fill="#231815" font-family="Ewert-Regular, Ewert" font-size="152"><tspan x="0" y="0">MIYAMOTO</tspan></tspan>
    </textPath></text>
  <text transform="translate(94.54 779.65)" fill="#231815" font-family="Arbutus-Regular, Arbutus" font-size="63.65" letter-spacing="-.03em"><tspan x="0" y="0">HOMARE tennis club</tspan></text>
  <path d="M635.68,327.05c-35.96-4.03-68.87,13.57-94.07,38.22-43.97,42.99-51.15,95.34-48.87,155.06.85,22.45-3.78,43.96-10.76,65.31-9.13-25.07-11.99-50.09-10.9-76.08.98-23.39-.84-45.89-6.02-68.65-5.8-25.46-17.69-47.73-34.84-67.18-21.5-24.38-49.78-43.08-82.49-46.78-38.9-4.41-74.63,17.85-87.93,54.74-7.61,21.11-8.04,43.57-2.23,65.76,10.66,40.74,37.83,75.56,74.39,96.39,21.78,12.41,44.31,20.18,68.31,26.99,26.35,7.48,49.76,21.72,70.06,38.53-7.91,7.95-14.34,16.09-20.65,25l-27.77,39.15-12.58,14.41c-2.66,3.05-3.49,7.01,0,9.82,3.61,2.91,8.03,5.75,12.3,7.65,8.06,3.6,7.91-7.05,16.08-18.09l31.43-42.5,12.76-19.42,15.47,23.18,27.71,37.29c3.77,5.07,6.62,10.17,9,16.04,3.3,8.17,15.31,1.63,22.35-6.64,1.68-1.97-.65-6.18-2.09-7.58-5.7-5.54-10.15-10.97-14.76-17.38l-35.1-48.75-11.06-12.27c21.02-17.03,43.77-30.9,69.68-38.28,24.49-6.97,47.51-14.86,69.67-27.67,36.25-20.95,63.07-55.71,73.55-96.28,5.92-22.94,5.29-46.29-3.33-67.97-11.39-28.66-36.67-48.6-67.29-52.03ZM405.01,552.94l-19.93.18c-.64,0-2.96-2.17-2.61-2.44-.32.24-1.74,1.31-2.26,1.72-12.01-2.35-24.07-2.79-31.91-12.43l-3.94,2.32c-12.5-5.91-27.37-14.96-37.16-24.47l-11.73-11.39-.36-2.64c-.08-.58-2.59-.89-2.97-1.42l-9.6-13.23,1.61-1.88c.21-.25.33-1.44.05-1.3l-2.83,1.35-8.72-15.55,1.49-1.43c.22-.21.35-1.36.06-1.27l-2.42.76-6.13-16.57c-.1-.28,1.35-1.77,1.52-2.01.17-.25.34-1.26.06-1.15l-2.46.92-3.92-19.75c2.73-3.55,2.24-7.57.06-11.58-.49-6.75.04-13.73,1.51-20.23,3.89-2.76,5.45-6.71,2.48-10.27,4.17-12.45,10.79-23.87,20.19-32.81l1.54,1.53c.25.24,1.32.39,1.2.06l-1.18-3.27,12.63-9.69,3.43,2.64-.88-4.19,14.2-5.73c.4-.16,2,1.84,2.16,1.44,1.45-3.61,14.65-5.02,20.43-3.94,1.65.31,4.14,3.52,5.68,3.59s4.28-1.67,5.96-2.95c5.75.91,13.61,1.73,18.68,5.11,3.45,2.3,5.5,7.25,11.06,3.78,12.34,5.97,23.73,13.71,33.62,22.95l-1.54,1.59c-.23.24-.32,1.52-.02,1.37l3.3-1.61,11.28,12.21c13.56,14.68,23.27,32.41,28.67,52.13l1.32,4.83c1.58,5.76,4.12,13.86,3.08,19.56-.87,4.77-.25,6.35.84,11.33,1.68,7.74.05,17.83-1.48,25.74l-.9,4.69c-1.25,6.46-3.53,12.91-5.88,18.93l-2.38-1.05c-.37-.17-.93,1.2-.66,1.51l1.76,2.08c-3.55,7.5-11.23,17.94-12.33,14.61-.13-.4.34,1.03.79,2.38l-13.65,9.4-3.51-3.71,1.28,4.66-15.76,4.18-3.3-3.72.49,4.14ZM475.66,600.98l-4.22-.12c-18.38-12.05-36.26-22.65-54.96-33.24-.95-1.15-2.38-2.81-2.47-3.82-.08-1,2.1-2.31,3.2-3.07,16.95-3.08,30.88-12.54,38.85-27.95,1.11-1.12,2.73-2.56,3.81-2.43,1.08.13,3.08,2.44,3.31,3.63l6.51,33.24,7.29,29.91c.21.85-.48,3.87-1.33,3.84ZM547.21,567.66c-19.03,10.8-36.89,21.42-54.96,33.2l-3.84.32c-.99.08-1.91-2.78-1.64-3.89l7.41-30.43,6.31-32.54c.23-1.16,2.03-3.42,3-3.88,1.13-.54,3.3,1.44,4.35,2.68,8.12,15.02,21.54,24.62,38.45,27.44l3.17,2.54c.86.69-1.08,3.38-2.24,4.57ZM702.61,430.59c-3.3,33.01-22.37,66.94-47.05,87.89-2.51-2.11-3.9-.9-1.22,1.35-10.27,8.98-22.42,16.74-35.62,22.69-4.58-.57-8.26.36-10.72,4.33l-23.32,5.54c-1.27.3-3.94-1.37-5.58-2.31-.02-.15.15,1.08.42,2.97l-19.74-.14c-.46,0-1.49-2.99-1.67-2.57-2.12,5.06-27.63-4.18-35.74-15.01-9.05-10.13-14.06-23.2-17.17-36.54l1.6-2.82c.24-.42-1.17-.31-2.35-.31-1.25-8.96-1.89-17.91-1.81-27.13l3.52-4.96,3.28.96-1.36-5.27c.17-.13-1.4,1.92-1.95,1.59l-2.97-1.74c2.92-27.58,13.44-53.95,31.76-75.45,5.09-5.98,9.76-11.3,15.36-15.98l14.57-12.19,4.07,2.22-2.12-3.55,15.04-8.56c1.41-.8,5.52,1.03,6.39,1.55l2.26-3.21,5.1-3.69c5.33-2.29,12.6-3.68,18.28-4.57,4.12,2.26,7.71,1.66,11.28-.86,26.03-.32,49.91,12.64,64.09,34.24-.11.48-.41,1.7-.44,1.69-.05-.02.96.11,1.86.22l7.59,15.91c1.08,2.27-.07,5.73-1.17,8.38.33,1.26,2.7,3.4,4.27,4.51,2.11,10.15,3.73,17.83-2.34,26.49l3.6,4.33Z"/>
</svg>