<?xml version="1.0" encoding="UTF-8"?>
<svg id="_レイヤー_1" data-name="レイヤー 1" xmlns="http://www.w3.org/2000/svg" viewBox="0 0 384.06 851.02">
  <defs>
    <style>
      .cls-1 {
        fill: #221f20;
      }
    </style>
  </defs>
  <path class="cls-1" d="M241.08,386.34l-3.3,9.29,35.64,9.33c-30.04,51.5-34.64,121.68-43.69,178.97-9.36,59.37-23.69,81.76-23.69,81.76-2.75-17.6-6.79-33.13-11.36-46.6-1.1,1.69-1.82,2.55-1.98,2.74l-.68.78-.95.5-11.99,6.35c16.29,76.08-21.33,123.58-21.33,123.58l52.69-5.26s38.33-19.29,78.27-155.38c24.97-85.08,48.57-123.36,62.73-140.1l25.79,29.24,6.82-7.12c-28.2-82.83-3.91-140.63-3.91-140.63l-.58-.36-10.54-6.5-.58-.36s-40.71,47.68-127.37,59.77h0ZM143.76,648.17c-10.34,57.9-40.59,133.92-121.14,202.85,0,0,114.56-69.59,136.31-210.89l-15.17,8.04h0ZM37.21,428.89c116.66,106.12,83.38,220.65,83.38,220.65l64.08-33.92s38.64-44.28,18.84-237.44c-12.36-120.74-2.26-181.47,7.04-210.04l47.82,23.73,4.95-12.55C184.76,88.9,185.63,3.08,185.63,3.08l-.93-.15L167.98.16l-.93-.16s-26.91,81.48-130.52,141.63l.64,13.48,50-6.6c-11.46,80.82,19.01,172.16,37.2,249.46,18.85,80.08,12.25,115.89,12.25,115.89-52.75-87.62-115.89-117.77-115.89-117.77l-18.85,7.53s128.14,187.49-1.88,440c0,0,139.81-188.73,37.21-414.73h0Z"/>
</svg>