<?xml version="1.0" encoding="UTF-8"?>
<svg id="_レイヤー_1" data-name="レイヤー 1" xmlns="http://www.w3.org/2000/svg" viewBox="0 0 926.09 572.07">
  <defs>
    <style>
      .cls-1 {
        fill: #060001;
      }
    </style>
  </defs>
  <path class="cls-1" d="M912.64,535.58c-5.61-4.53-11.2-14.72-5.61-18.12,5.61-3.4,19.05-14.72,19.05-14.72,0,0-43.7-65.68-50.42-70.21-6.72-4.53-64.98-86.06-81.79-112.1-4.48-22.65-15.69-45.29-26.89-57.75-6.72-13.59-15.68-23.78-16.81-27.17-1.12-3.4-10.08-37.37-10.08-37.37,4.48-15.85,2.23-44.16-3.36-49.82-5.6-5.66-17.92-24.91-23.53-35.1-2.03-3.7-5.25-6.2-8.52-7.89,5.03-4.28,5.41-8.28,1.37-6.26-6.77,3.39-25.45-3.81-25.45-3.81.44-2.72,3.19-6.34,5.92-12.62,1.75,2.17,4.88,4.68,10.26,5.22,4.14.44,10.59,1.56,17.12,3.41,1.28,1.96,2.62,4.11,4.02,6.34,2.86,4.57,6.1,9.76,9.51,14.53,5.06,7.01,11.06,14.27,18.1,17.31.06.14.13.28.19.42,2.48,5.18,5.09,9.06,7.99,11.88.64.62,1.3,1.17,1.97,1.7-.11.61-.12,1.1.02,1.32.56.85,3.67,3.11,5.64,3.39.59.08,1.08-.5,1.48-1.35,1.01.2,2.03.31,3.08.31h.03c.18,0,.37,0,.54-.01.35,0,.63-.3.62-.65l-.09-3.38c-.01-.35-.33-.63-.67-.63h-.4c-.66,0-1.28-.06-1.91-.17.08-.53.13-.89.13-.89,0,0-3.95-3.1-5.64-2.82-.28.04-.56.23-.83.5-.24-.22-.49-.43-.73-.67-2.01-1.93-3.8-4.49-5.41-7.38,1.16.19,2.34.4,3.57.62,5.3.94,11.33,2.01,16.63,2.02h0c4.52-.01,7.79-.77,10.3-2.36.71-.44,1.34-.98,1.9-1.58.55.26,1.05.34,1.36.11.74-.56,1.14-3.83,1.34-6.04.09-.67.16-1.35.15-2.06,0-1.55-.2-3.22-.62-5.1-.04-.16-.14-.31-.28-.4-.1-.07-.23-.1-.35-.1-.04,0-.09,0-.13.02l-3.3.73c-.35.07-.56.42-.49.76.31,1.41.47,2.69.5,3.8-.95,1.31-2.25,3.35-1.88,4.45.07.2.17.42.31.66-.32.32-.66.6-1.01.84-1.62,1.06-4.29,1.62-7.69,1.62h-.13c-4.77,0-10.41-.99-15.85-1.96-1.89-.34-3.73-.66-5.46-.93-.46-.07-.94-.18-1.41-.32-2.3-5.21-4.14-10.84-5.69-15.59-.83-2.54-1.62-4.94-2.35-6.89-2.36-5.95-8.7-10.61-19.94-14.69-1.37-.49-2.77-.94-4.16-1.36-.74-1.1-1.46-2.16-2.15-3.11-6.28-8.48-16.74-12.04-24.33-13.53,1.71-7.76,2.6-17.89,1.39-31.37,4.61-8.83,7.53-21.46,4.7-25.63-4.36-6.43-22.04-1.05-38.94-3.13-16.11-1.99-30.44-.17-33.89,3.03-2.72.28-6.88,1.01-11.45,2.88-8.29,3.37-16.36,13.13-18.6,36.77-.15,1.63-.3,3.27-.41,4.9-.75,10.42-.61,20.86,2.52,29.21,2.7,7.29,7.98,12.85,16.52,14.75-.86,3.12-3.01,10.56-4.33,12.34-1.68,2.26-13.44,13.59-17.37,16.99-3.92,3.4-16.81,9.63-19.6,10.76-2.8,1.13-16.25,9.62-18.74,11.32-2.49,1.7-15.43,8.49-22.15,9.06-6.72.57-8.96,5.1-8.96,5.1l-8.96,4.53s-3.37-4.53-4.49-2.26c-1.12,2.26-26.89,18.12-30.81,20.95-3.92,2.83-7.85,2.27-12.89,1.13-4.33-.97-13.22,4.33-15.62,8.72-.46-.68-1.17-1.11-2.29-.79-2.71.78-4.13,7.54-4.13,7.54,0,0-3.4-.45-4.04-1.7-.65-1.25-2.74-.48-3.38-1.1-.64-.62-7.04,1.44-7.04,1.44,0,0-11.07-1.53-15.33-3.12-4.26-1.59-28.36-3.01-32.45-3.1-4.1-.08-52.11-5.55-53.36-5.54-1.24.01-2.64-1.48-7.6-1.44-3.28.03-20.99-2.01-33.87-3.56,2.79-1.56,5.89-3.17,7.88-3.86,4.38-1.52,24.35-16.1,27.65-18.7,3.3-2.6,44.77-29.55,45.75-30.36.97-.82,3.03-.55,6.93-3.81,3.9-3.28,36.9-24.3,40.72-26.67,1.71,1.06,3.6-1.85,4.9-1.28,0,0,2.13-.62,2.55-2.3,1.79.15,2.66-2.57,3.52-3.12.86-.56,50.65-31.66,50.65-31.66.93.71,8.05-4.25,11.23-6.6,3.18-2.33-.3-7.88-2.58-7.63-2.28.25-11.23,4.43-12.58,5.4-1.35.97.1,1.9.1,1.9l-1.12.44c-1.13.44-31.16,17.48-31.16,17.48,0,0-2.73,1.3-3.82,2.37-1.09,1.08-18.85,11.98-20.37,11.93,0,0-2.25.89-4.72,2.3-2.47,1.4-1.8,2.01-1.8,2.01l-.34.78c-3.33,1.96-116.85,67.72-117.71,68.27-.86.57-3.19,2.34-5.88,4.27-2.7,1.93-17.8,12.42-17.8,12.42l-2.61-1.13s-3.03.54-3.07,2.07c0,0-.64.84-.96,1.81-.48.15-.91.26-1.22.23-.12-.01-1-.13-2.47-.32-1.65-1.75-3.93-3.92-4.61-3.25-.77.76-.45,1.84-.59,2.57-15.74-2.07-50.21-6.63-50.21-6.63-.27-1.13-8.73-1.8-12.58-2.02-1.17-.07-2.04.48-2.65,1.31-6.26-3.43-11.55-6.02-13.19-6.02-4.65,0-5.42,4.64-5.42,4.64,0,0-10.07-6.19-14.71-7.74-4.65-1.55-12.39-6.97-17.04-11.62-4.65-4.64-17.81-12.39-17.81-12.39,0-11.61-6.97-21.68-6.97-21.68l-5.42-18.58c6.19,0,10.84-.77,13.16-5.42,2.32-4.65-3.87-1.55-10.07-1.55-4.06,0-5.37-1.99-5.79-3.37.23-.17.3-.31.17-.4-.11-.08-.24-.39-.37-.87,9.8-.81,16.12-5.92,19.61-13.07,3.82-7.71,4.74-17.63,4.75-27.58,0-1.57-.02-3.14-.06-4.7-.54-22.63-8.07-32.46-16.3-36.23-4.54-2.1-8.74-3.06-11.51-3.52-3.29-3.28-17.82-5.99-34.45-5.22-17.44.83-35.14-5.51-40.07.3-3.2,3.77-1.16,15.96,2.9,24.68-2.83,16.1-1.84,27.33.2,35.39-3.94,4.81-9.17,13.6-9.68,26.75-.05,1.24-.07,2.57-.07,3.99,0,4.05.18,8.83.45,14.05-.57,4.18-.95,8.61-.96,13.51,0,3.06.15,6.31.49,9.8.98,9.8.82,22.56.98,34.55.11,7.08.31,13.86.96,19.72-.68,5.23-1.19,10.11-1.19,14.85,0,6.76,1.07,13.28,4.2,19.91,1.71,3.64,2.34,7.73,2.34,11.65,0,3.77-.58,7.37-1.24,10.27-.22.02-.39.09-.46.26,0,0-.43,2.42-.81,3.01-.33.5-.08.86.09,1.02-.1.3-.19.59-.27.83-.3.86-.72.89-.47,1.3l3.72,2.11s.53.22,1.23-.43c.22-.2.51-.87.83-1.92.15,0,.25-.04.29-.12.33-.64,1.4-4.23,1.13-4.77-.05-.1-.16-.17-.29-.23.4-2.4.72-5.32.85-8.55l3.36.24s.12.04.38-.69c.04-.1.06-.23.08-.36.14,0,.26,0,.35,0,.54-.05.22-3.49.16-3.75-.02-.11-.25-.15-.51-.14-.08-1.09-.16-2.21-.16-3.15.02-13.87-3.16-20.94-7.05-32.12-.83-2.36-1.43-5.52-1.86-9.18.36-2.71.76-5.53,1.17-8.53.39-2.89.55-6.51.55-10.7,0-10.79-1.04-25.39-2.01-39.43l.6.12c4.4-23.35,7.69-36.68,10.05-44.13.51,2.89,2.05,6.57,5.84,9.71-1.88,3.43-3.38,8.24-3.38,8.24,0,0-2.32,7.74-5.42,11.61-3.1,3.87-.78,20.14-3.1,25.56-2.32,5.41-2.32,19.35-.77,24,1.55,4.64-.77,23.23-1.55,30.97-.78,7.74,10.06,7.74,10.06,7.74-2.32,19.36,3.1,44.13,3.1,44.13l-19.36,41.03,6.2-.77-1.55,24.78h5.42s-3.1,22.44-3.87,28.65c-.78,6.19-13.94,98.33-13.16,116.92.77,18.58-13.16,82.07-13.16,82.07,5.42,6.19,19.36,4.65,19.36,4.65.77,7.74,4.65,4.64,10.84,3.86,6.2-.77,15.48.77,25.55,3.88,10.07,3.1,12.39,2.32,17.81,0,5.42-2.32-.77-6.2,2.32-6.2s10.07-1.54,13.16-3.86c3.1-2.33,11.62,0,11.62,0,0,0-4.64,17.8.77,20.9,5.42,3.1,20.13,0,30.97.78,10.84.77,27.1,5.42,33.29,4.64,6.19-.77,3.87-1.54,6.97-3.1,3.1-1.54,5.42-1.54,6.19-4.64,2.32-6.97-4.64-5.42-6.97-5.42s-19.35-3.87-29.42-8.51c-10.07-4.64-9.29-10.84-9.29-10.84l22.45-1.55s10.84,11.61,14.71,9.29c3.87-2.32,1.55-6.19,2.32-9.29.77-3.1,17.81,3.1,17.81,3.1l4.64-3.88c4.65-3.86-5.42-34.84-6.97-43.36-1.55-8.51-8.52-58.07-13.16-78.98s-34.07-103.76-34.07-103.76c0,0,10.07,2.32,12.39-.77,2.32-3.11-25.55-37.95-23.23-37.17,2.32.78,30.2,42.6,30.2,42.6,0,0,3.87,3.09,9.29,0,5.42-3.11,4.64-3.88-2.32-9.3-6.97-5.42-35.62-46.46-37.17-48.78-1.55-2.32,2.32-3.87,2.32-3.87l11.62,10.07s-.98,1.32-.6,2.66c-.3.21-.49.35-.56.43-2.18,2.16-1.45,6.19,1.22,8.6,1.76,1.57,4.53,1.72,7.58.56,2.1,3.34,4.4,6.74,7.07,7.89,5.42,2.32,15.48-3.1,20.9-10.84,6.97-2.32,7.74-12.39,6.19-16.26-.24-.59-.4-1.23-.52-1.89,9.89-6.12,21.16-13.01,31.85-19.49,1.86,1.94,3.98,3.56,5.84,3.56,4.65,0,11.62-3.09,11.62-3.09,0,0,13.94-2.32,20.91-9.29,3.45-3.45,2.91-8.78.37-13.96,1.72-.91,2.73-1.35,2.82-1.22.59,1.5,3.56,4.66,4.17,3.99.67.6,3.23,3.27,4.89.88,1.65-2.38-1.51-8.68-1.51-8.68,0,0,2.98-1.85,4.28-1.28,1.31.56,2.47-1.41,3.37-1.33.22.02.6-.31,1.06-.81,22.51,3.73,126.18,20.97,127.08,21.08.99.12,3.85.21,7.08.44,3.23.22,21.13,1.69,21.13,1.69l1.3,2.49s2.64,1.48,3.61.34c0,0,2.22-.52,2.81-1.78l1.63.74s.2,8.14,1.68,8.01c1.48-.14,1.69-2.14,2.81-1.78.87.28,2.62-3.53,3.36-5.24,2.88,3.3,9.4,8,13.66,7.14,2.37-.48,5.33-2.58,7.97-5.01,11.99,1.65,27.63,3.8,43.09,5.9.12.65.28,1.3.48,1.94,3.36,10.76,11.21,14.72,17.37,14.72s1.12-3.96,3.92-3.96,8.4-6.8,8.4-6.8c0,0,3.32-.38,6.93-.92,12.89,1.69,21.95,2.82,22.74,2.74,2.97-.28,4.87-3.81,4.29-7.32-.08-.47-.23-.91-.44-1.34,9.55-2.2,19.35-4.46,21.38-5.05,3.92-1.13,3.36-6.23,3.36-6.23l6.16,1.13s4.48,5.09,7.84,3.96c3.36-1.13,18.49-3.4,20.73-3.96,2.24-.57,8.96,2.26,8.96,2.26-.56,12.46,6.72,30.01,7.84,31.71,1.12,1.69,5.6,4.53,5.6,4.53,0,0-10.64,22.08-13.45,26.61-2.8,4.53-30.25,35.67-30.25,35.67l7.28,4.53s-16.81,10.19-20.73,14.72c-3.92,4.53-14,24.91-14,24.91,0,0-7.85,36.24-7.85,41.9s11.2,42.47,12.88,42.47,15.13,20.38,15.13,20.38l9.52,9.63,8.4,4.53,7.84,3.4,4.48,13.58,2.24,1.7c.56,1.7,4.48,15.85,2.24,17.55-2.24,1.7-3.92,6.79-4.48,9.06-.56,2.27-10.08,5.09-14.56,7.36-4.48,2.27-14.57,5.66-17.93,5.66s-4.48,3.39-4.48,3.39c-2.8.57-3.92,5.67-1.12,6.23,2.8.57,5.04-1.7,5.04-1.7,3.92,2.83,8.4,0,25.77,1.7,17.37,1.7,21.29,1.7,28.01-1.14,6.72-2.83,3.36-13.59,2.24-19.81-1.12-6.23,4.49-24.35,6.73-25.47,2.24-1.14,34.17-5.66,36.41-4.53,2.24,1.14,36.41,32.27,36.41,32.27l22.41-2.83s31.93,28.88,35.85,30.58c3.92,1.69,12.88,1.13,12.88,1.13l21.85.56-2.24-6.23,12.89-3.4s14.57-9.05,15.68-10.75c1.12-1.7,7.84-10.2,11.2-13.59,3.36-3.4,11.76-5.1,14.01-3.96,2.24,1.14,6.72,7.36,7.28,11.32.56,3.97,4.48,9.62,3.92,11.89-.56,2.26-8.96,11.88-8.96,11.88-8.41,2.27-8.97,3.97-7.28,6.23,1.68,2.27,4.48,2.27,7.28,1.14,0,0,5.04,5.1,8.4,1.7,1.12,2.83,4.49,3.4,8.41,1.13,1.68,2.27,6.16,1.14,7.85-2.26,19.6-24.34,7.28-28.31,1.68-32.83ZM736.61,104.96c.71,1.86,1.46,4.17,2.34,6.85,1.01,3.11,2.17,6.66,3.52,10.26-3.5-2.83-7.28-7.08-11.23-12.67-3.29-4.61-6.33-9.48-9.28-14.18-.36-.57-.71-1.14-1.07-1.7,8.42,3.16,14.26,7.38,15.71,11.44ZM689.24,75.13c5.31,1.05,14.79,3.75,20.48,10.22-4.74-1.09-9.14-1.8-12.43-2.15-4.9-.54-6.86-2.91-7.9-4.63-.31-.54-.55-1.07-.73-1.56.2-.61.39-1.23.58-1.87ZM28.51,222.2c-.41-1.51-.94-3.01-1.63-4.49-2.8-5.95-3.75-11.65-3.76-17.94,0-.13.01-.27.01-.4,2.87,8.08,4.9,13.72,5.38,22.83ZM29.65,82.91c-1.77,5.96-3.95,14.74-6.62,27.69-.06-1.04-.12-2.06-.17-3.07,1.14-8.12,3-15.53,4.13-24.26.68-5.29,1.9-9.46,3.19-12.65.73,1.76,1.46,3.29,2.1,4.64-.76,1.84-1.59,4.28-2.62,7.65ZM99.15,10.62c1.69.31,3.83.82,6.2,1.64l-6.55.46c.13-.83.25-1.51.35-2.1ZM98.5,14.83l11.19-.77c1.2.6,2.39,1.38,3.55,2.35l-15.03.92c.09-.9.19-1.74.29-2.5ZM98.01,19.43l17.26-1.05c.66.74,1.3,1.57,1.91,2.48l-19.43,2.04c.08-1.24.16-2.39.26-3.47ZM97.65,25.01l20.73-2.16c.65,1.19,1.26,2.51,1.81,3.97l-22.65,1.3c.03-1.08.06-2.12.11-3.1ZM97.49,30.21l23.4-1.34c.29.93.57,1.9.82,2.94l-24.23,1.98c0-1.24,0-2.43.01-3.58ZM97.5,35.88l24.67-2.02c.25,1.26.48,2.59.68,4l-25.23,2.59c-.05-1.58-.09-3.11-.12-4.58ZM97.85,45.16c-.05-.89-.1-1.76-.14-2.6l25.38-2.61c.17,1.63.31,3.37.4,5.2l-25.5,2.35c-.05-.78-.1-1.55-.14-2.33ZM98.12,49.58l25.46-2.36h0c.03,1.23.04,2.46.05,3.69l-25.24,2.64c-.09-1.32-.17-2.64-.26-3.98ZM98.53,55.64l25.09-2.63c0,1.33-.04,2.65-.09,3.95l-24.77,1.9c-.08-1.06-.15-2.13-.23-3.21ZM98.91,60.93l24.53-1.87c-.09,1.46-.22,2.89-.38,4.29l-23.83,1.59c-.11-1.31-.21-2.65-.32-4.01ZM99.4,67.03l23.4-1.57c-.19,1.27-.39,2.51-.64,3.72l-22.44,1.55c-.1-1.2-.21-2.44-.32-3.7ZM99.91,72.82l21.72-1.5c-.38,1.48-.81,2.9-1.33,4.23l-20.04,1.03c-.12-1.2-.24-2.45-.36-3.75ZM100.48,78.65l18.89-.97c-.05.11-.09.24-.15.35-.45.87-.92,1.7-1.44,2.49l-16.97,1.25c-.11-.99-.22-2.03-.33-3.12ZM101.34,86.16c-.09-.72-.19-1.49-.29-2.31l15.06-1.11c-.95,1.11-2.02,2.09-3.22,2.95l-11.55.47ZM101.63,88.25l6.97-.28c-1.98.74-4.22,1.23-6.79,1.42-.06-.36-.12-.73-.17-1.14ZM244.5,193.51c1.45.18,3.1.41,4.81.66-.6.37-1.3.8-2.1,1.29-.89-.73-1.8-1.38-2.71-1.95ZM230.02,191.52c-7.62.9-14.92,3.34-16.31,2.41-.86-.57-6.06-3.79-12.51-7.62,2.52.56,19.89,3.64,28.82,5.22ZM180.41,236.51c-5.42-4.64-12.39-2.32-15.48-.77-3.1,1.55-6.19-.77-6.19-.77l.77-11.61s3.1-1.55,10.07-.77c6.97.77.77-9.29.77-9.29,0,0,19.36,3.87,23.23,3.87,2.29,0,8.35,1.89,12.93,3.44-8.63,5.34-17.57,10.88-25.93,16.07-.06-.05-.1-.1-.16-.15ZM589.41,183.98c-1.68,2.83-.56,10.19-.56,11.89s-13.45,6.8-13.45,6.8c0,0-2.8-1.7-4.48-2.84-1.68-1.13-27.45,11.33-31.93,11.89-4.48.56-14.57,0-17.93,0-1.78,0-4.99,3.19-7.1,7.8-12.02-1.7-24.4-3.51-35.03-5.13,3.33-1.88,8.55-3.86,12.45-4.93,6.16-1.69,21.29-9.62,23.53-11.88,2.24-2.27,13.45,0,13.45,0l4.48,2.26c4.48,2.27,10.08-3.39,13.45-5.66,3.36-2.26,22.97-10.19,25.21-10.19s20.17-5.66,20.17-5.66c0,0-.56,2.83-2.24,5.66ZM623.16,16.86c.06.61.12,1.34.19,2.21l-6.34-.94c2.36-.69,4.49-1.07,6.15-1.28ZM612.65,19.71l10.83,1.6c.04.8.07,1.68.1,2.64l-14.55-2.02c1.2-.94,2.42-1.66,3.63-2.21ZM614.61,99.09c-2.48-.38-4.62-1.05-6.49-1.96l6.75.78c-.08.42-.17.8-.25,1.17ZM615.3,95.77l-11.2-1.31c-1.1-.98-2.06-2.09-2.91-3.32l14.57,2.22c-.16.85-.31,1.65-.46,2.41ZM616.15,91.2l-16.4-2.51c-.44-.86-.84-1.77-1.21-2.71-.04-.12-.08-.25-.11-.37l18.29,2.35c-.2,1.13-.38,2.21-.57,3.24ZM617.08,85.79l-19.41-2.48c-.4-1.43-.71-2.95-.97-4.52l21.01,3.1c-.21,1.35-.43,2.65-.63,3.9ZM618.05,79.73l-21.69-3.2c-.16-1.28-.27-2.6-.34-3.93l22.62,3.28c-.2,1.32-.4,2.6-.6,3.86ZM618.97,73.7l-23.05-3.34c-.04-1.49-.06-2.99-.04-4.52l23.71,3.68c-.21,1.42-.41,2.81-.61,4.18ZM619.89,67.36l-23.94-3.72c.05-1.37.12-2.75.21-4.14l24.2,4.52c-.16,1.12-.31,2.24-.47,3.34ZM620.66,61.84l-24.35-4.54c.1-1.28.21-2.57.33-3.85h0s24.57,4.25,24.57,4.25c-.18,1.39-.37,2.78-.55,4.14ZM621.81,53.09c-.1.81-.21,1.63-.32,2.43l-24.62-4.27c.23-1.9.49-3.7.79-5.4l24.48,4.52c-.1.89-.21,1.79-.33,2.72ZM622.39,48.19l-24.33-4.49c.29-1.47.62-2.83.96-4.14l23.83,3.85c-.13,1.53-.29,3.12-.46,4.77ZM623.03,41.22l-23.41-3.78c.32-1.06.66-2.06,1.02-3.02l22.65,3.05c-.07,1.2-.15,2.45-.26,3.74ZM623.41,35.28l-21.92-2.95c.65-1.49,1.34-2.83,2.06-4.03l19.99,3.72c-.03,1.04-.07,2.13-.13,3.26ZM623.59,29.8l-18.74-3.49c.66-.92,1.35-1.74,2.05-2.47l16.7,2.32c0,1.13,0,2.34-.02,3.64Z"/>
</svg>