<?xml version="1.0" encoding="UTF-8"?>
<svg id="_レイヤー_1" data-name="レイヤー 1" xmlns="http://www.w3.org/2000/svg" viewBox="0 0 703.57 882.95">
  <defs>
    <style>
      .cls-1 {
        fill: #040000;
        fill-rule: evenodd;
      }
    </style>
  </defs>
  <path class="cls-1" d="M654.69,469.52c-3.49-6.33-16.25-35.7-14.89-47.64l.27-1.19,4.58-8.81c45.37-75.26,75.97-182.43,48.51-287.89L660.87,0l1.39,127.24c-1.71,74.09-305.68,100.21-297.63,318.49h-25.69C346.99,227.45,43.02,201.33,41.31,127.24L42.7,0,10.41,123.99c-27.46,105.46,3.14,212.63,48.51,287.89l4.58,8.81.27,1.19c1.37,11.94-11.39,41.32-14.89,47.64-22.93,41.85-36,23.91-27.74,54.36l37.99,136.3,13.84,11.5c50.89,24.28,96.33,56.18,133.47,87.54,56.69,47.89,93.38,93.44,100.57,108.87,8.43,18.16,23.07,14.57,44.78,14.57s36.35,3.59,44.78-14.57c7.19-15.43,43.88-60.98,100.56-108.87,37.14-31.37,82.58-63.27,133.47-87.54l13.84-11.5,37.99-136.3c8.26-30.45-4.81-12.51-27.73-54.36ZM671.61,226.58c-1.54,24.6-5.8,47.72-11.41,68.67-14.2,52.99-31.93,80.99-45.5,105.63-14.72,26.75-25.3,40.49-48.08,57.19l-6.52,4.58-3.98,2.61-4.02,2.51-6.8,4-1.37.77-5.51,3-6.93,3.57-5.56,2.74c-8.99-14.15-15.06-28.76-14.02-45.81l.17-2.23,2.72-13.1.71-2.14,1.63-4.25,9.08-16.73,4.34-6.18,4.78-6.17,56.86-57.73c31.92-31.13,59.3-60.58,79.4-100.92ZM601.26,470.39l-5.09,16.81c-15.03,41.03-38.52,58.49-77.08,84.97l-38.07,27.55-26.07,23.06-1.3,1.3-3.91,3.99-2.6,2.75-2.59,2.81-3.89,4.35-3.88,4.51-.99-46.9c.05-41.63,38.69-56.43,80.16-74.63l.06.08c33.14-15.05,59.06-27.22,85.24-50.64ZM43.37,295.24c-5.61-20.95-9.87-44.06-11.41-68.67,20.1,40.35,47.48,69.79,79.4,100.92l56.86,57.73,4.78,6.17,4.34,6.18,9.08,16.73,1.63,4.25.71,2.14,2.72,13.1.17,2.23c1.04,17.05-5.03,31.66-14.02,45.81l-5.56-2.74-6.93-3.57-5.51-3-1.37-.77-6.8-4-4.02-2.51-3.98-2.61-6.52-4.58c-22.78-16.7-33.35-30.44-48.08-57.19-13.57-24.65-31.29-52.65-45.5-105.63ZM267.78,595.58l-.99,46.9-3.88-4.51-3.89-4.35-2.59-2.81-2.6-2.75-3.91-3.99-1.3-1.3-26.07-23.06-38.06-27.55c-38.56-26.48-62.06-43.94-77.08-84.97l-5.09-16.81c26.18,23.42,52.11,35.59,85.24,50.64l.06-.08c41.48,18.21,80.11,33,80.17,74.63ZM65.22,566.37l-13.24-49.02c6.22-6.1,14.68-15.79,22.58-29.36l6.32,17.8.88,2.11,13.74,25.54c-14.15,6.48-24.15,18.63-30.28,32.92ZM88.55,644.22c-2.14-22.12-4.15-55.31,10.72-73.55l5.24-5.28,12.59-5.88,49.66,38.64c33.38,22.9,69.2,47.51,101.68,100.57l46.3,98.53,15.16,47.85c-44.46-68.66-150.67-157.14-241.36-200.87ZM359.07,787.1l-7.29,21.53-7.28-21.53-32.92-75.78-14.32-25.6c-2.01-8.96,5.32-81.56.41-108.75-8.46-46.87-50.88-64.52-90.89-81.91,18.76-30.76,27.16-60.92,9.98-95.16-34.31-68.34-133.26-115.07-165.7-210.06,20.07,14.44,45.86,27.62,73.65,41.83,85.12,43.51,191.51,97.91,182.35,221.2-2.16,29.46,19.59,24.37,44.72,24.37s46.89,5.09,44.72-24.37c-9.16-123.29,97.23-177.69,182.35-221.2,27.79-14.21,53.58-27.39,73.65-41.83-32.44,94.99-131.4,141.72-165.7,210.06-17.19,34.23-8.78,64.4,9.98,95.16-40.01,17.39-82.44,35.04-90.89,81.91-4.9,27.18,2.43,99.79.41,108.75l-14.32,25.6-32.92,75.78ZM615.02,644.22c-90.69,43.73-196.9,132.22-241.36,200.87l15.16-47.85,46.3-98.53c32.48-53.06,68.3-77.67,101.68-100.57l49.66-38.64,12.59,5.88,5.24,5.28c14.87,18.25,12.86,51.43,10.72,73.55ZM638.35,566.37c-6.14-14.29-16.13-26.44-30.28-32.92l13.74-25.54.88-2.11,6.32-17.8c7.89,13.57,16.36,23.26,22.58,29.36l-13.24,49.02Z"/>
</svg>