<?xml version="1.0" encoding="UTF-8"?>
<svg id="_レイヤー_1" data-name="レイヤー 1" xmlns="http://www.w3.org/2000/svg" viewBox="0 0 860.2 565.39">
  <defs>
    <style>
      .cls-1 {
        fill: #040000;
        fill-rule: evenodd;
      }
    </style>
  </defs>
  <path class="cls-1" d="M574.25,258.21c1.75-.12,3.49-.28,5.25-.38.27-4.81-2.47-6.38-1.42-9.63,1.19,1.27,1.02,3.95,2.36,4.96,1.06.38,2.12.88,3.18,1.27-4.13,4.45-4.21,13.72-7.01,18.22-1.53,1.1-3.09,2.25-4.63,3.36-.2,2.17-.44,4.33-.65,6.58-1.23,1.7-3.61.63-5.36,1.8-6.1,4.1-15.61,12.16-17.69,20.95,5.2-.1,6.68-3.45,10.3-3.68,2.53-.2,1.54,1.92,3.68.8-1.77-2.23-1.53-1.83-2.32-4.96.35-.25.69-.57,1.03-.78,1.34.73,2.71,1.48,4.05,2.25-3.71,6.48-1.66,11.08-9.79,12.76-1.41,13.13-15.57,14.37-23.37,20.87.13.35.23.65.37,1,12.93,1.48,30.53,3.48,37.23,6.48,3.77-.03,7.58-.15,11.4-.27,9.17-.63,18.83,2.85,25.97,5.43,26.9,9.68,52.62,23.12,80.49,33.05,19.4,6.95,41.55,7.38,62.93,9.56-.56,2.85-1.75,4.81-3.91,5.8-8.51,3.68-17.71,1.6-26.21,2.11.92,3.8,5.16,5.61,7.19,8.74-.76,1.18-1.52,2.38-2.3,3.55h-.45c-7.83-1.22-10.12-6.96-16.6-9.19-4.68-.37-9.39-.68-14.1-.97-7.93-2.7-15.87-5.36-23.81-8.06-11.53-1.42-23.07-2.86-34.6-4.35-24.4-6.51-50.16-11.44-69.33-16.82-15.02-1.02-30.09-2.05-45.13-3.06-2.51,1.28-3.19,4.9-8.8,2.93-2.49-.92-2.39-2.83-3.83-4.13-5.48-.73-10.91-1.45-16.39-2.15,3.86,7.46.21,8.45,1.92,14.37,1.26,4.01,3.82,3.91,7.45,5.96-1.12-.08-2.22-.18-3.28-.35-2.63-.48-3.91-1.45-4.9-3.26-.47-.83-3.86-16.49-3.92-17.44-2.33-.62-4.66-1.1-6.95-1.67,1.02,5.48,2.04,10.93,3.1,16.39.08,4.96-4.34,5.85-5.61,8.93-1.43,3.43-.51,7.1-1.5,10.26-2.05.62-2.87.68-4.04,2.45-1.84-2.03-3.42-1.22-6.15-.1,2.16-2.8,5.2-1.77,7.15-5.03-.3-.2-.62-.35-.87-.53-1.82.7-4.54,1.62-6.27.78-.27-.18-.55-.35-.9-.55.08-.15.08-.3.08-.48,2.7-.32,5.43-.75,8.14-1.08.41-1.07.85-2.15,1.26-3.18-.12-.17-.27-.37-.41-.5-1.57.88-1.78,1.53-3.41,1.1,2.22-.82,2.73-1.57,3.28-4.43-.13-.18-.31-.3-.44-.52-3.87-.05-4.79-.97-8.34-1.78-.35.6-.76,1.22-1.1,1.78,1.1,6.13,1.68,14.46.51,18.5-1.75-1.71-2.84-2.32-2.9.67-.45,1.53-.92,3.05-1.42,4.6-.75-.07-1.57-.2-2.33-.25-.44-.33-.85-.7-1.32-1.05.23-2.38.47-4.73.72-7.03.34,1.52.25,1.52,1.17,2.48.14-7.1-7.01-15.46-14.4-17.07,0,.13-.04.32-.04.5.55.65,1.14,1.4,1.68,2.03.99,2.8,2.6,3.95,3.04,7.4h-.44c.03-.37.08-.65.08-.95-2.61-4.06-5.19-8.13-7.82-12.17-.3,0-.61-.05-.88-.05-4.33,5.68-11.57,11.26-14.17,18.44-1.85,5.16-1.26,10.01-2.94,15.32,6.25,1.68,5.47,10.64,9.55,13.77,3.23,2.43,5.98,1.78,10.03,3.8,4.72,2.43,9.04,6.9,12.79,9.31,4.96,2.38,9.96,4.83,14.92,7.19,5.72,4.53,6.95,11.84,12.14,15.86,5.83-1.23,18.83,2.5,26.53,4.46,19.5,3.88,39.01,7.7,58.5,11.58,9.77,2.56,22.33,6.41,34.44,5.75,28.12-1.6,47.13-8.14,77.03-8.44,36.92-.45,59.81,19.79,96.4,16.16,3.41-.3,4.88-2.8,7.46-3.5,5.01-.32,10.11-.62,15.22-.87,13.03-3.46,24.68-19.14,41.71-15.27,3.21.7,15.97,13.86,18.69,17.01-.28,1.23-.59,2.47-.87,3.71-2.56,4.13-5.91,5.3-10.19,7.46-2.47,2.43-4.9,4.91-7.36,7.35-9.44,1.57-18.93,3.18-28.41,4.76-8.82,2.48-21.1,5.55-30.96,6.86-5.23.73-9.48-2.62-13.35-3.68-6.29-.32-12.56-.62-18.84-.97-17.13,2.3-34.24,4.51-51.33,6.78-10.45.73-20.95,1.38-31.42,2.08-5.49-.37-10.99-.75-16.46-1.15-16.56,1.48-31.69,5.85-47.18,8.08-23.83,1.43-47.61,2.88-71.4,4.3-19.15.48-38.32.95-57.45,1.4-6.68-.78-13.38-1.63-20.08-2.43-10.62,2.05-14.07,7.86-21.19,13.04-12.53,9.06-43.76,13.86-63.03,15.49-14.72.15-29.42.25-44.11.33-8.04.57-19.98,1-29.19-1.4-11.84-3.13-27.76-8.86-42.29-7.53-5.51,1.35-11.02,2.72-16.55,4.05-13.15.88-26.33,1.8-39.54,2.72-7.44.82-16.87,3.35-26.56.68-21.24-5.96-39.37-14.64-59.3-22.49-6.82-2.66-17.49-11.08-27.96-8.91-7.73,1.6-11.37,10.38-20.99,10.73-3.52-2.43-7.09-4.81-10.61-7.23-1.47-2.85-2.9-5.63-4.37-8.46-8.35-7.4-28.55-4.1-34.8-2.03-2.53.82-14.11-5.45-14.41-7.58,8.04-1.08,13.18-9.23,19.23-12.81,4.31-2.55,31.01-6.71,37.64-7.15,16.09-.92,30.42,6.23,42.58,9.91,20.63,6.25,49.48,7.61,72.41,9.58,14.82,1.47,29.66,2.95,44.51,4.41,11.22-1.37,21.26-7.84,30.42-10.73,4.28-.35,8.54-.78,12.86-1.08,10.31-2.18,20.64-4.26,30.95-6.41,16.56-4.55,34.35-15.06,56.01-11.53-1.61-4.65-1.88-13.69-5.4-17.07-2.02.1-1.98.25-3.17-1.28,3.45-5.6-12.84-45.05-12.08-59.39.99-18.54,3.8-39.49,8.38-55.95.92-6.08,1.82-12.13,2.73-18.22,3.75-7.35,7.47-14.69,11.2-22.07,2.29-10.48,4.61-20.99,6.92-31.48,3.14-11.29,1.36-25.22.61-34.98-1.17-15.04,9.26-69.75,13.68-75.8-1.13-4.48,1.23-12.64,1.88-19.2,1.68-15.29,3.4-30.58,5.03-45.92,3.09-10.94,10.06-22.82,10.63-35.83.56-12.36-27.31-39.79-22.75-47.24.93.1,1.88.2,2.81.3,5.96,3.9,8.22,10.64,13.66,15.11.64-.48,1.37-.88,2.02-1.28,1.53-3.03,2.93-9.81,5.1-13.21-1.48-6.38-1.85-23.38,1.85-28.18.17,0,.3.05.47.05,1.36.7.55.03,1.26,1.03.77,2.85-.2,6.15,2.1,7.83.86-3.4,2.36-5.43,4.92-6.65.39.65.83,1.35,1.24,2.03-1.13,3.1.37,5.56.17,7.6-1.78,5.45-3.6,10.98-5.4,16.51.14,0,.31,0,.48.05.85-.73,1.7-1.43,2.57-2.15.13,0,.31.07.47.07.77.25,1.52.43,2.26.7,0,.15,0,.3-.03.45-7.63,18.37,3.76,43.44,1.78,67.87-1.47,18.25-.93,37.23.07,56.81.58,11.78-4.99,22.42-6.47,31.98-1.32,8.59.14,17.42-2.19,26.75-.74,5.93-1.5,11.89-2.22,17.79,1.82,6.95,4.07,15.96,5.72,23.29,3.01,13.32-1.78,23.45,4.9,32.2,6.09-2.8,9.26-20.79,7.46-28.12-3.11-12.73-13.94-21.02,1.19-30.65.61-1.37,1.2-2.73,1.81-4.05,1.96-2.38,9.72-3.05,13.58-3.45,1.21-3.05,1.17-5.93,4.05-7.13,6.1-1.27,10.65,7.23,18.4,5.1,5.21-1.4,8.85-5.05,16.16-5.45,5.59-.3,8.6,3.13,11.88,4.43,5.02.53,9.99,1.02,14.98,1.53,7.02,2.27,12.02,4.5,19.37.43-.27-.43-.51-.95-.78-1.43-2.26-1.38-2.63-2.91-2.23-6.4.18.05.32.05.48.05-.07,4.38,4.52,6.95,7.25,7.78,2.3-1.82,2.5-14.31,5.2-18.87.48.05.93.12,1.42.17-2.26,2.31-4.56,6.01-2.85,9.21.92-1.42.55-1.08,2.08-1.73-.2,2.05-.41,4.06-.61,6.13,2.29.45,2.49.57,4.27-.05.87-2.33,1.72-4.6,2.57-6.9-.85-1.02-1.68-2.05-2.53-3.06,1.23-1.28,2.47-2.6,3.71-3.9-2.96-.57-3.91-.47-6.62-.17.38-.45.75-.9,1.09-1.3,2.06-.17,4.11-.27,6.17-.37.57-1.83,1.24-4.6,2.94-5.35.14,1.4.31,2.82.51,4.26,2.26-.7,4.56-1.45,6.82-2.17.1-2.48-.65-2.07,1.27-3.18-.07.65-.12,1.27-.17,1.87.51-.4,1.02-.85,1.53-1.25-.72-4.15,1.34-5.71,2.32-9.23,9.62-.25,11.6-7.88,17.9-13.36-2.28,12.92-4.31,18.57-8.83,27.02.24.37.55.73.86,1.03,3.36-1.68,6.23-.1,9.99-.85.07-.67.13-1.28.2-1.93-2.57-1.03-1.94-1.53-1.5-3.9.86-.87,1.75-1.71,2.64-2.6.17,0,.3,0,.44.07-.44,7.03,3.68,4.9,5.23,9.51-1.94-.35-4,.37-4.62,3.28.24.83.49,1.62.73,2.5.17,0,.3,0,.47.05.76-1.88.97-2.33,2.67-3.08,3.01-.57,3.36,0,6.02,1.05.17.22.32.33.45.57-.89,2.82-1.41,1.7-.89,4.15,1.23.4,2.42.85,3.66,1.28.51-.58,1.06-1.13,1.6-1.7.28.15.59.35.9.57.1,1.72.03,1.4.68,2.43,2.15-1.23,4.35-2.43,6.5-3.66-1.27,2.86.88,4.6,2.57,7.41.34-.15.68-.27.99-.42.1-.75.17-1.52.24-2.33.3.23.62.37.91.57-.22.45-.39.92-.61,1.35-1.77,4.71-4.69,10.29-7.59,14.39-.54-2.03.21-1.1-1.68-2.03.22.97.46,1.92.66,2.86-1.23,3.71-2.36,7.83-5.75,10.36-.92-.12-1.87-.22-2.82-.3.64.08,1.26.13,1.9.18.38-2.05.68-1.8-.17-3.31-1.19.78-2.39,1.65-3.56,2.48-.62,6.88-3.97,20.22-3.08,26.7-2.07-.25-3.02.62-4.56,2.38-.04.45-.07.92-.1,1.37,1.74-.15,3.46-.27,5.25-.4.78-2.68,1.56-2.95,2.04-6.45ZM562.51,166.66c.15.3.28.67.35,1.02-.07-.35-.2-.72-.35-1.02ZM550.65,181.6c-.68.25-1.34.47-1.99.78-.08.6-.13,1.2-.21,1.8.47.25.92.43,1.37.67.51-.62,1.05-1.18,1.58-1.77-.28-.52-.53-.97-.75-1.48ZM553.4,182.38c-.39,2.12-.77,4.28-1.12,6.45.13,0,.32.07.45.07.34-.13.67-.27.99-.35.21-.47.41-.92.61-1.38-.3-1.62-.64-3.23-.93-4.78ZM571.78,187.48c.64,1.25.47.1-.13,1.42-.28-.35-.54-.72-.86-1.08.34-.08.68-.23.99-.33ZM548.79,185.65c-.34.17-.66.25-1,.42-.1,1.05-.19,2.18-.31,3.21.97-.35,1.95-.7,2.94-1.1.05-.45.1-.9.15-1.38-.59-.4-1.2-.73-1.78-1.15ZM572.88,200.37c-.03,1.52-.22.93.68,2.43.37-.15.68-.25,1.03-.4,0-.15.03-.28.03-.45-.58-.53-1.17-1.08-1.75-1.58ZM562.86,201.3c-1.1,1.77-2.22,3.51-3.36,5.3.42.52.87,1.02,1.27,1.57h.48c.38-.55.72-1.17,1.09-1.77-.09.97-.17,1.9-.28,2.85,2.83-1.38,3.71-2.7,5.31-5.65-.15-.5-.25-1-.36-1.45-1.36-.3-2.76-.6-4.16-.85ZM571.18,203.53c.23.75.47,1.6.69,2.41.17,0,.29,0,.46.05.05-.5.1-.98.15-1.42-.27-.37-.56-.68-.86-1.05h-.44ZM514.81,198.87c-.14,1.55-.32,3.13-.44,4.68.12-1.55.3-3.13.44-4.68ZM576.13,205.9c-.95,2.98-1.71,1.87-2.43,5.41.72,2.98-.17,3.73,2.33,5.41.14.05.27.05.44.1-.72-5.61-.34-5.11,1.48-10.28-.58-.27-1.24-.47-1.82-.65ZM523.54,201.64c.47,0,.96.05,1.4.12-.38.45-.72.85-1.09,1.32-.49.08-.95.23-1.44.33.37-.6.75-1.2,1.13-1.77ZM521.42,203.78c.07.95.65.53-.59,1.35.21-.45.41-.92.59-1.35ZM567.72,209.78c-.7,1.43-.9,1.83-.82,3.25.51-.25,1.02-.57,1.5-.82.06-.75.13-1.55.24-2.32-.31-.05-.65-.05-.92-.12ZM570.97,210.08c-.34.47-.72.85-1.07,1.35,1.48,2.95.46,1.92.46,4.8.2,0,.34,0,.47.03.69-.43,1.33-.78,2.02-1.27-.31-1.57-.63-3.18-.93-4.78-.3-.05-.64-.05-.95-.13ZM511.4,204.68c.4,1.48.64,1.35-1.62,2.17.17-.45.37-.9.62-1.28.96-.63.27-.07,1-.88ZM509.3,206.85c.11.32.24.67.38.97-.13-.3-.27-.65-.38-.97ZM582.47,223.04c-.97,2-1.98,3.95-2.96,5.88.63.1,1.24.17,1.88.2.68-.68,1.42-1.43,2.12-2.15-.34-1.27-.71-2.6-1.05-3.93ZM569.89,235.1c-.51.42-1.02.82-1.53,1.25,0,1.73-.02,3.46-.02,5.16.33-.07.65-.18,1-.33.64-1.97,1.32-3.95,1.97-5.98-.44,0-.92-.1-1.42-.1ZM565.32,243.14c-1.27.22-2.53.35-3.84.55-.87,3.05-2.26,3.81.88,5.33,1.24-2.18,2.67-2.15,4.19-3.85-.44-1.13-.42-1.22-1.23-2.03ZM572.07,256.62c.31,0,.6.05.92.05-.32,0-.62-.05-.92-.05ZM577.81,260.45c-.34.18-.65.25-1,.43.76,1.05-.03.3,1.34,1.05.02-.45.07-.92.13-1.37-.17-.03-.31-.03-.47-.12ZM574.35,266.74c-.75,1.22-1.5,2.43-2.22,3.56.13,0,.28.05.45.05.34-.12.65-.23.99-.33.58-1.07,1.17-2.13,1.73-3.18-.32,0-.6-.05-.95-.1ZM575.59,268.76c-.29,1.1-.55,2.18-.83,3.27.18.02.32.02.49.02.13.05.3.05.47.05.1-1.1.21-2.17.31-3.28-.14,0-.31,0-.44-.05ZM570.29,274.37c-.62,1.38-1.24,2.73-1.85,4.11-.54-.52-1.12-1.07-1.72-1.55-.58,3.73-2.02,4.56-3.56,7.18,2.63-.53,5.99-1.93,7.95-3.45-.08-2.18-.08-5.26-.82-6.3ZM544.21,303.54c-3.85,9.51-10.95,8.41-16.01,13.59-.08.43-.1.9-.18,1.38,1.58.47,3.09.92,4.6,1.38,2.22-2.5,3.51-5.38,6.41-7.41,2.61,1.42,4.84,2.08,8.42,1.33.2-.47.37-.9.62-1.35-.35-3.26-1.33-7.39-3.86-8.93ZM556.39,304.75c.88,1.1,1.27,1.15,2.76.77-.91-.27-1.84-.52-2.76-.77ZM550.1,306.03c-.67.38-1.31.78-1.98,1.2.1.6.17,1.27.27,1.93,2.12,0,3.28,1.72,3.61-2.95-.63-.1-1.24-.15-1.89-.18ZM558.51,307.32c.76,1.02-.03.32,1.3,1.08-.76-1.08.02-.32-1.3-1.08ZM555.6,308c.11.45.21.95.31,1.47.54-.47,1.05-.87,1.58-1.32-.66-.07-1.27-.13-1.89-.15ZM508.74,312.33c-.44.13-.91.22-1.39.32.24.67.48,1.3.72,2-.76-.23-1.53-.48-2.3-.75-.07.67-.13,1.27-.17,1.88,2.47.47,2.37.32,4.72,0,.24-.62.44-1.22.68-1.83-.31-.18-.61-.33-.92-.53-.41-.37-.88-.73-1.34-1.08ZM538.32,315.28c-.25.77-.49,1.52-.71,2.28,1.26-.03,2.52-.03,3.78-.1.62.25,1.2.43,1.82.67.2-.48.41-.93.61-1.4.04-.13.04-.3.08-.43-1.88-.35-3.74-.65-5.58-1.02ZM516.83,316.94c-.66.2-1.31.45-1.95.7.1.52.2.97.34,1.47.14,0,.27,0,.44.05.51-.08.96-.18,1.48-.3.3-1.62.61-.65-.32-1.92ZM520.28,320.59c-.21.45-.41.92-.61,1.3.51-.38,1.02-.78,1.54-1.25-.31,0-.63-.05-.93-.05ZM473.85,359.05c1.34,5.16,2.02,11.29,2.5,17.72.66-.07,1.31-.15,1.92-.25.37-.6.78-1.22,1.12-1.78-1.84-3.83-.99-10.96-2.73-15.42-.92-.1-1.87-.22-2.81-.27ZM468.04,360.38c.27.62.51,1.32.78,1.97-.08.32-.08.57-.1.92.61.05,1.23.1,1.85.2.2-.52.41-.9.61-1.37.04-.15.04-.37.04-.45-1.04-.45-2.09-.87-3.18-1.27ZM509.3,364.45c.42.7.82,1.35,1.2,2,3.14.77,6.46,1.73,8.55-.08,0-.17.04-.32.04-.48-3.26-.48-6.55-.97-9.79-1.43ZM472.17,361.73c-1.23,2.72-.85,4.63.83,6.2.34-.28.64-.53.98-.83v-4.75c-.58-.2-1.19-.47-1.82-.62ZM463.92,363.71c-.34.17-.64.25-.98.42.05.92.13,1.87.2,2.82.14,0,.31.07.48.07.47-.1.95-.22,1.44-.37-.39-.95-.8-1.92-1.14-2.93ZM479.73,366.69c-.19,3.05.35,4.26,1.78,5.88.49-.08.97-.22,1.44-.33.07-.63.14-1.23.17-1.9-1.1-1.22-2.29-2.42-3.39-3.65ZM468.72,368.03c-.14,1.07-.24,2.17-.34,3.23.47.07.95.1,1.41.15.05-.62.13-1.27.17-1.87-.42-.5-.79-1.02-1.23-1.52ZM464.85,368.58c-.22.9-.48,1.83-.72,2.75.62-.12,1.27-.17,1.92-.27.06-.82.16-1.58.23-2.4-.47-.03-.96-.03-1.43-.08ZM472.37,369.28c-.67,1.98-1.36,4-2,6,.16,0,.3.03.44.03,2.25-.65,2.83-.92,3.24-3.95-.24-.67-.51-1.3-.75-1.98-.3-.02-.61-.02-.93-.1ZM495.78,371.61c.34.05.61.05.95.1-.2.47-.39.92-.61,1.38-.1-.52-.21-.97-.34-1.48ZM465.98,371.52c-.51.52-1.02,1.15-1.57,1.7.1.67.22,1.32.27,2h.49c.99-.75,2.01-1.4,3.04-2.1-.14-.45-.2-.95-.34-1.42-.61-.05-1.24-.12-1.88-.18ZM453.28,370.69c-1.5,4.68,1.2,11.84,3.62,16.06.34-.17.68-.3.99-.47.9-5.5-.23-11.83-3.21-15.44-.47-.05-.95-.08-1.4-.15ZM449.71,373.22c.14,1.88.29,3.78.42,5.75.62.03,1.24.08,1.85.13-.03-2.61-.44-4.63-2.27-5.88ZM468.85,376.05c-.47.43-1.02.83-1.55,1.28.29.37.59.67.85,1.02.83-.42,1.67-.77,2.48-1.17-.58-.42-1.2-.77-1.78-1.13ZM473.37,378.39c-1.17.72-2.36,1.32-3.54,2.01.42.38.9.73,1.32,1.08,1.1.1,2.19.23,3.29.32.03-.18.03-.28.03-.48-.15-1.87-.08-1.9-1.1-2.93ZM501.9,381.72c.32.03.63.08.97.08-.34,0-.65-.05-.97-.08ZM462.01,378.7c-.07.45-.11.92-.13,1.37.23.05.57.12.89.12-.46-1.48.07-.57-.76-1.48ZM467.1,379.19c-.78,1.38-.31-.03-.61,1.83.64-.23,1.3-.48,1.95-.75-.44-.33-.89-.7-1.34-1.08ZM444.42,379.32c-.27,1.57-.57,1,.2,2.4.9,1.43.87,1.28,3.15,1.73-.37-2.48-1.05-3.26-3.35-4.13ZM452.32,385.31c.69,1.75.27,1.27,2.19,2.08-.27-.65-.51-1.28-.78-1.97-.48,0-.97-.07-1.41-.12ZM461.97,388.1c.03,1.48-.17,1.65,1.17,3,.04-.6.1-1.27.17-1.85-.43-.37-.9-.72-1.33-1.15ZM476.9,390.6c-.15,1.27-.28,2.46-.39,3.68.14.07.31.07.49.07.16.07.26.07.47.07.17-.43.37-.88.58-1.35-.38-1.2-.38-1.65-1.16-2.46ZM463.69,394.94c.03,1.12.1,2.25.1,3.35,1.57-.88,1.82-.72,2.66-2.6-.93-.25-1.88-.5-2.76-.75ZM450.95,394.14c.14.35.28.65.38,1.02-.1-.37-.23-.67-.38-1.02ZM451.3,395.62c.1.3.24.65.38,1-.14-.35-.28-.7-.38-1ZM468.93,399.24c.3.07.61.07.96.12-.86.35-.17.4-.96-.12ZM464.89,406.45c.34,0,.63.05.92.1-.82.33-.11.38-.92-.1Z"/>
</svg>