<?xml version="1.0" encoding="UTF-8"?>
<svg id="_レイヤー_1" data-name="レイヤー 1" xmlns="http://www.w3.org/2000/svg" viewBox="0 0 466.13 911.58">
  <defs>
    <style>
      .cls-1 {
        fill: #070001;
      }
    </style>
  </defs>
  <path class="cls-1" d="M368.57,420.42c4.88.32,9.49.45,12.33.09,8.45-1.06,14.79-32.76,12.68-44.39-2.01-11.05-23.11-3.96-38.81.4,2.07-21.22,10.87-46,16.59-72.3,10.71-2.95,18.78-12.59,19.74-21.16,28.91-38.4,3.38-73.95,6.75-93.37,3.37-19.41,23.95-33.69,28.65-83.26,1.38-14.61-.51-27.67-4.98-39.16,7.59-8.62,14.91-19.54,12.64-24.12-4.07-8.2-25.17-7.17-25.17-7.17l-8.17-6.16S393.97.98,387.2.02c-3.41-.49-11.41,8.29-18.19,17.87-4.91-2-10.03-3.74-15.31-5.18-44.1-12.08-72.9,12.49-72.9,12.49,0,0-22.34-6.12-29.61,15.69-5.13,15.38,1.76,27.24,6.28,32.93-1.79,5.11-2.95,10.01-3.38,13.65-.18,1.55-.45,2.98-.76,4.35-2.59-.37-5.4-1.5-7.63-4.3,2.55,4.13,4.86,6.27,6.77,7.34-1.75,5.16-4.71,8.96-9.46,11.87-7.14,4.36-15.72,8.89-2.81,16.33,4.13,2.38,2.74,6.7,1.27,7.82-2.6,1.99-2.73,7.45,3.91,10.54,0,0-9,1.55-5.64,6.63,4.7,7.1-11.08,14.18,13.07,24.95,22.64,10.09,37.84,17.28,34.37,32.35-4.49,1.09-7.21,1.94-7.21,1.94,0,0-22.43-2.87-33.06-.38-10.74,2.5,2.97-2.7-16.24,4.03-8.86,3.1-19.59.21-24.59-7.15-4.99-7.35-15.81,2.89-10.14,11.85-.71.29-1.38.63-2.04.99-9.33-4.7-17.96-8.82-22.2-10.23-11.83-3.95-55.8-47.41-71.58-67.14-15.78-19.72-9.2-24.99-11.84-39.46-2.63-14.46-3.94-14.46-7.89-14.46s-6.4,5.64-4.61,10.75c4.44,12.7,1.09,12.29-5.08,10.79-4.62-1.12-15.3-13.65-23.19-25.49-7.89-11.83-15.78-18.41-19.72-11.83-3.95,6.58,8.17,16.57,11.55,21.65,3.38,5.08.85,7.62-2.54,4.23-3.39-3.39-15.24-18.62-18.62-22.85-3.39-4.23-12.66.43-3.35,11.44,9.31,11,11.82,18.19,11.82,18.19,0,0-3.56,1.49-8.47-2.54-6.55-5.37-9.31-16.93-15.24-15.24-5.92,1.7-2.33,6.6,5.08,16.08,7.44,9.54,14.26,10.23,12.69,14.39-2.71,7.21-15.58-11.82-17.94-10.56-4.36,2.31-2.71,5.56,6.1,15.64,21.83,24.98,53.35,25.2,59.92,33.65,11.85,15.24,43.16,59.24,59.25,68.56,8.54,4.95,33.36,19.23,56,31.01-5.06,3.96-4.44,11.66,1.55,14.1,6.84,2.78,53.35,25.58,53.35,25.58,0,0,10.76,24.48,6.77,66.19-3.99,41.71-87.24,79.05-122.98,124.64l6.34,12.04s-38.87,34.89-41.53,41.33c-2.66,6.44,12.7,24.08,41.04,37.65,28.34,13.56,56.88,8.35,74.89,19.54,12.1,7.52,38.2,18.24,62.47,23.38l4.25,17.11s12.63,39.49,25.26,78.97c6.76,21.14,16.07,52.56,18.22,82.52-2.3,13.21-7.17,25.02-15.76,34.03-20.71,21.74-21.81,38.91-11.37,45.45-18.34,27.37-1.84,43.55,27.73,32.15,42.71-16.46,36.62-44.57,49.24-54.75,8.63-6.96,5.25-23.9,2.25-33.92,10.86-11.03-1.47-40.78-1.47-40.78,0,0-11.83-80.2-13.46-98.1-.79-8.67.98-35.51.54-65.8,15.79-.66,29.98.37,37.63,5.28,16.4,10.52,58.4-13.64,74.72-25.77,16.04-11.94-52.05-127.91-95.16-173.62ZM386.18,381.4c-2.66,5.33-19.56,7.3-31.72,8.03-.1-1.69-.14-3.4-.12-5.14,11.39-3.15,35.34-9.88,31.84-2.89Z"/>
</svg>