<?xml version="1.0" encoding="UTF-8"?>
<svg id="_レイヤー_1" data-name="レイヤー 1" xmlns="http://www.w3.org/2000/svg" viewBox="0 0 622.62 889.92">
  <defs>
    <style>
      .cls-1 {
        fill-rule: evenodd;
      }
    </style>
  </defs>
  <path class="cls-1" d="M605.53,52.55h2.5v.7c-1.1-.03-2.25-.04-2.86.37-.27.42-.26.59-.34,1.41,1.59,3.64-1.56,14.41,1.06,18.51,2,1.29,8.22.42,11.04.37v.35h.35v1.08c2.09,0,4.64.73,5.35,2.14h-2.49c-.71-.63-11.4-1.52-13.18-1.43v.71c-.63.98-.33,2.46-.36,3.56h-1.07c-.61,1.69-2.45,3.04-3.21,4.64-.89,1.89-.54,3.55-1.42,5.32-.03.07-1.42,1.43-1.42,1.43-1.1,1.93-.48,4.1-1.8,5.7-1.16,1.45-3.57,2.41-4.26,4.27v2.51c-2.26,9.52,4.35,17.83,1.42,27.76-1.94,6.58-4.76,12.51-6.76,19.24-1.58,5.28-1.01,10.54-2.5,15.65-2.84,9.77-4.59,20.43-7.48,30.28-1.61,5.51-1.5,10.84-3.22,16.01-1.63,5.01-4.09,9.6-6.05,14.25-6.07,14.45-6.53,31.77-20.65,38.47.48,1.66,1.68,2.71,2.14,4.25,1.2,4.2-.22,9.17.35,13.19.42,2.95,2.23,5.83.35,8.9-.6.99-1.77,1.34-2.49,2.13-.59.65-.55,1.79-1.07,2.52-1.41,1.98-3.61,4.26-5.34,6.04-1.49,1.5-3.92,2.36-4.28,5.01-1.08,1.75.14,4.38-.71,6.76-.43,1.2-1.93,2.56-2.49,3.9-.36,1.9-.72,3.8-1.08,5.71-.58,1.74-1.87,4.02-2.49,5.71-.72,1.93.59,3.2,0,5.32-1.11,4.11-1.83,8.71-3.2,13.2-1.39,4.49-5.72,13.48-4.98,18.11.7,4.54-4.49,11.68-3.57,16.73.45,2.55-1.01,3.58-1.43,5,.13,1.53.24,3.08.36,4.63-.58,2.53-.75,6.17-1.07,8.88-.19,1.5-2.01,5.18-1.07,6.08-1.68,2-2.24,5-3.91,7.13-.72.85-2.42,2.14-2.86,3.18-.05.15.46,1.13.36,1.81-.49,3.55,1.02,8.05-.36,11.74-1.55,4.15-8.7,7.74-9.26,10.67-2.32,3.52,3.49,10.94-3.56,13.9-.38.26-.34.22-1.07.35.26,7.88-2.93,10.66-5.68,15.31-1.12,1.88-1.37,3.86-2.49,5.68-1.4,2.33-3.38,4.74-4.63,7.15-2.86,5.43-4.34,11.05-6.77,16.73-3.3,7.76-7.63,15.78-11.03,23.51-1.82,4.12-3.95,8.47-5.33,12.44-.62,1.79.7,5.95,1.06,7.47.1,1.78.24,3.58.35,5.35,2.14,7.62,7.38,14.77,3.56,23.51-6.35,14.54-20.44,26-30.98,36.68-4.04,4.11-3.98,12.08-7.12,17.06-6.62,10.65-15.5,19.78-20.3,32.08-2.57,6.57-1.06,16.06-2.47,24.22-.42,2.32.32,7.76-.37,10.69-.82,3.53.38,8.26-.35,11.37-.11,3.32-.24,6.66-.34,10-1.24,5.37-1.14,11.31-2.51,17.05-.11,4.78-.24,9.53-.34,14.28-1.24,7.32.51,15.31-1.08,22.07v7.46c0,6.97.69,16.85-.71,22.8v6.78c0,4.61-.14,10.47-.71,13.5-.24,4.99-.47,9.97-.71,14.96v6.06c-.86,3.85.16,9.83-1.79,12.82-.86,1.32-3.42,1.75-4.27,3.21-2.36,4.01-3.56,9.38-3.56,15.64-1.22.75-2.58,1.41-4.28,1.78-1.56.39-3.55-.31-4.63.39-.85,1.02-1.2,2.59-2.13,3.56-1.1,1.07-2.93,1.66-3.92,2.83-1.13,1.34.05,2.79-1.78,3.55-1.81,1.23-4.74.8-7.13,1.44-5.46,1.43-12.96,1.43-19.58,1.43h-9.61c-.85.3-1.83,1.49-2.85,1.79-3.44.96-10.06.79-11.39-1.44-.49-.35-.64-.69-1.08-1.08.04-1.67.4-2.57.71-3.92h-1.42c-1.75,1.14-4.39.54-6.76,1.08-5.78,1.35-12.86,1.43-20.3,1.43-.83-2.49-2.42-2.48-2.5-6.07h.36v-.34c3.63-.33,5.95-2.14,8.53-2.85,1.03-.29,2.08.55,3.56,0,3.3-1.14,6.36-2.4,9.25-3.58,2.5-.97,4.18.75,6.78,0,2.56-.67,7.65-.5,9.62-1.06,1.3-.33.74-.91,3.19-1.05v-.36h-.34c-.68-.29.7-.35.7-.35,1.72,1,4.75-.83,6.42-1.07,5.42-.86,16.98,1.32,18.87-3.92,1.08-1.25,2.78-7.08,3.22-8.93-1.55-.82-4.08-2.04-4.99-3.57-1.36-2.21-.51-4.99-1.42-8.19-2.07-7.08-2.54-16.2-.72-23.82v-4.31c.87-3.51,1.61-6.99,2.86-10.29.27-.73,1.33-2.11,1.42-2.88.07-.62-.93-1.97-1.07-2.49-.88-3.18.59-8.34,1.07-11.04.14-.84-.76-1.32-.71-1.41.91-1.42,2.65-11.47,1.78-14.25-.8-2.53-2.5-5.11-3.21-7.83-.95-3.63.78-7.66,1.43-9.97.56-2.11-.41-4.61-.71-6.08-.29-1.18.53-2.07.36-2.83-.24-1.03-1.58-1.77-2.14-2.48-1.46-1.86-2.45-5.58-3.2-7.82-2.57-7.71-.21-14.35.36-21.75h-.72c-1.18.79-3.38.25-4.64,1.09-1.27.81-1.27,1.57-3.56,1.77-.69-.57-1.72-.54-2.48-1.08-1.1-.75-1.17-2.18-2.5-2.83-1.87,1.54-4.06,2.48-7.47,2.48-2.32-2.26-5.54-3.42-8.2-5.34-1.95-1.39-7.15-7.87-8.54-9.99-2.6-3.9-2.53-8.63-3.93-13.85-1.9-7.26-4.57-15.38-4.98-23.51-.74.14-.68.08-1.06.34-2.04.67-3.1,2.45-4.64,3.59-1.46,1.07-3.24,1.64-4.62,2.83-1.13.96-1.78,2.55-2.86,3.57-1.14,1.08-4.08,2.32-3.55,3.94.32,1,1.09,2.13,1.77,2.81-1.37,5.64-8.39,5.91-12.46,8.93-1.89,1.37-2.05,4.23-4.98,4.6-.43-.74-.99-1.72-1.79-2.12-1.8,2.68-4.42,3.52-7.13,5.31-.83.6-1.33,1.94-2.12,2.52-5.99,4.16-13.62,7.03-23.5,7.13-.3,1.16.17.52-.72,1.04-.41-.27-.59-.26-1.42-.35-.22.48-.46.96-.7,1.44-1.21-.6-2.63-1.58-3.57-2.5-1.63.64-.05.82-1.42,1.41-1.96-2.84-3.2-.01-4.27-.68-1.96-1.33-4.44-3.66-6.77-4.3-.15,1.29.16.93-.71,1.42-.81-1.3-2.67-3.42-3.92-4.24-.53-.36-1.06.08-1.43-.37-.67-.83-1-2.68-1.42-3.55-4.16,0-3.75-1.5-5.35-3.92-.18-.31-2.13-1.81-2.5-2.51-.23-2.98-.46-5.93-.71-8.9-.28-1.61-1.66-6.3-1.06-8.19.64-2.05,2.18-5.07,2.85-7.47.2-.75-.44-1.96-.36-2.15.15-.39,1.2-.95,1.42-1.44.87-1.92.66-3.6,1.43-5.68.56-1.57,1.8-2.63,2.13-4.63h1.08c.37-3,2.01-5.74,2.48-8.93h1.08c4.3-6.3,12.13-8.12,20.29-10.69,2.06-.63,3.31-2.08,5.69-2.45.11-1.21.24-2.37.35-3.6,5.64-1.12,9.19-3.72,14.25-4.97,3.08-.75,5.73.3,6.77,1.77,1.41-.41,3.37-1.28,4.97-1.77-.24-.71-.36-1.66-.36-2.83-2.79-.58-5.08-1.57-6.4-3.55-2.03-3.06-.5-7.25-6.05-7.48-2.99,1.88-7.92-1.2-9.27-2.5-5.33-5.21-10.08-12.64-13.16-19.95-1.26-2.95-3.55-3.04-3.56-7.48.92-1.17,1.72-3.43,2.12-4.97-1.26-.73-2.46-2.22-3.55-2.82-1.54-.13-3.09-.25-4.64-.37-1.54-.58-1.71-1.9-3.91-2.12-1.02,1.5-2.69,1.93-3.92,3.19-7.32.43-15.58-7.85-18.16-13.54-10.65-.5-16.25-13.84-19.94-21.73-12.42-1.42-16.48-9.8-24.21-15.67-7.3-5.51-12.8-13.14-19.22-19.56-5.24-5.25-11.39-10.31-15.32-16.76-2.2-3.59-3.93-7.95-5.33-12.08-.56-1.67.77-2.13,0-3.58-2.08-3.88-12.45-6.53-12.82-11.38,1.22-1.4,2.66-3.42,3.2-5.34-2.16-1.32-3.81-3.37-5.69-4.99-2.17-1.83-5.22-2.59-7.48-4.27-2.6-1.94-4.43-5.23-7.13-7.15-7.62-5.27-15.71-9.4-23.51-14.6-3.11-2.07-5.58-5.33-8.52-7.45-1.86-1.3-4.15-1.66-6.08-2.85-2.33-1.48-4.7-3.51-7.12-4.98-5.64-3.46-11.99-6.76-17.8-9.63-2.64-1.3-5.19,0-5.33-3.88.82-.63.83-.55,1.05-1.82-5.33-3.61-7.63-14.31-9.62-21.69-3.81-14.22-2.53-35.39,1.08-50.57,1.86-7.89.99-16.77,3.21-23.88.23-2.97.48-5.93.71-8.89,1.21-5,2.18-10.35,3.91-14.61,1.02-2.51,1.28-6.32,3.55-7.48,2.33-1.3,13.17,2.1,15.31,2.85,1.26.45,2.53-.47,4.28,0,2.49.7,5.14,2.2,7.48,2.85.63.17,3.97,0,4.99.71.89.61,1.24,1.99,2.49,2.49,6.77,2.68,10.9,1.42,10.68,11.4,3.27.81,5.42,3.8,8.19,4.99,1.68.73,3.18-.01,4.64.73,1.49.72,2.92,2.39,4.27,3.17,1.42.84,2.73.73,4.27,1.43,1.78.81,3.61,2.67,5.33,3.54,1.44.74,2.82.44,4.29,1.11,2.41,1.04,4.27,3.42,6.4,4.6,2.86.85,5.71,1.68,8.55,2.52,2.39,1.19,4.6,3.39,6.76,4.63,2.14.56,4.27,1.17,6.42,1.76,2.1.9,3.6,3.11,5.68,3.92,1.47.58,4.28.05,5,.38,7.63,3.6,16.52,6.76,24.21,9.94,2.46,1.04,4.74,1.11,7.11,2.14,17.2,7.46,31.46,17.99,49.49,24.55,2.81,1.05,5.83.32,8.91,1.09,6.73,1.69,15.05,1.47,22.43,3.22,1.41.32,3.47-.45,4.29-.35,4.58.41,11.06.67,15.65,1.74h11.41c1.46.26,6.86.3,9.61-.35,4.88-1.14,11.21.18,15.31-.7,10.33.36,20.66.7,30.98,1.05,4.55-1.4,10.26-2.6,15.3-3.91,14.28-3.67,36.13-2.43,47.73-8.56,2.09.2,5.99-.64,8.18-1.77,5.48-2.78,10.15-8.16,14.62-12.11,2.5-2.19,5.5-3.66,8.18-5.69.12-.37.24-.71.36-1.08,1.46-1.14,3.49-1.39,4.62-2.85,4.45-5.69,9.19-11.49,13.17-17.45,1.9-2.81,2.99-5.74,4.98-8.53,5.42-7.62,11.08-15.44,16.04-23.49,4.19-6.88,7.32-14.36,11.39-21.03,3.22-5.29,4.6-11.41,7.84-16.72,4.32-7.12,8.21-15.17,12.82-22.09,1.11-1.68,1.11-3.67,2.13-5.34,9.35-15.33,17.95-31.04,26.7-47.03,2.83-5.17,6.66-10.31,9.62-15.31.13-.7.24-1.43.36-2.12,3.04-4.4,7.61-8.1,10.69-12.45,2.74-3.92,4.75-8.21,7.83-11.75,3.59-4.12,6.99-8.43,10.33-12.84,1.25-1.63,3.72-2.29,4.62-4.26.87-1.9,2.65-6.33,2.14-8.19-.34-1.35-1.95-2.99-2.49-4.28-.65-1.56-.21-2.82-.71-4.63-.92-3.4-1.96-6.28-3.2-9.99-.31-.9-1.6-2.22-1.77-3.19-.79-4.08,3.91-14.21,4.62-18.16.64-3.65-.74-7.58-1.42-10.32v-5.37c-.3-1.22-1.32-3.21-.71-4.27-.31-2.45-2.45-5.53-3.2-8.16-1.95-6.77,2.45-16.19,5.7-18.53,3.32-2.41,8.33-2.63,12.82-3.92,7.61-2.19,19.39-2.74,23.85,2.15,1.86,2.02,1.29,5.83,2.14,8.89,2.11,7.46,1.78,18.87.36,26.35-.32,1.66.72,4.27,1.06,5.72-.12,2.59-.23,5.21-.36,7.82ZM45.76,340.61v1.08c-2.11.85-.78.85-1.77,2.49-.57.91-2.22.96-2.86,1.78-1.17,1.53-1.34,3.32-2.48,4.98-.61.88-2,1.36-2.49,2.51-1.14,2.58-.11,4.85-1.42,6.03-.46.18-1.57-.03-2.5,0-.38,2.28-.95,3.75-1.77,5.33-1.08.13-2.15.26-3.2.38.46,5.92.8,13.9-.73,17.81,3.97.27,6.36,4.68,6.77,8.53,2.01-.14,4.16-.69,5.71.36,2.32.77,7.61,5.72,9.97,7.46.46.61.94,1.2,1.42,1.78,1.78.11,3.58.27,5.33.4,2.92.88,3.25,2.75,7.48,2.82.49-.44.64-.46,1.42-.72.12-.34.25-.68.36-1.05h-.36c-.89-3.23-3.68-4.29-6.04-6.05-1.54-1.8-3.09-3.57-4.62-5.36,0-1.76.36-2.27.7-3.55,1.42-.44,1.91-.98,3.92-1.06,1.87,1.34,4.59,1.46,6.4,2.85,2.6,1.98,3.58,6.04,6.07,8.17,1.91,1.69,4.21,2.13,6.76,3.22,3.3,1.4,7.14,4.77,9.25,7.49,3.12,3.92,1.8,11.77,6.05,14.57,1.64,1.08,3.52.88,5.35,1.79,5.72,2.84,12.34,4.69,18.88,7.13.36-1.22.8-1.83,2.15-2.16,2.73,2.84,8.93,6.97,12.45,8.92,2.42,1.36,5.73-.27,7.83,1.06,2.75,1.75,5.11,4.86,7.83,6.78,4.09,2.85,8.52,4.89,12.82,7.5,6.53,3.88,12.42,9.48,18.88,13.5,4.99,3.12,11.64,3.54,16.38,6.77,3.18,2.18,6.29,5.53,9.63,7.46,3.69,2.2,7.32,3.27,10.68,5.71,2.53,1.83,5.08,4.31,7.83,6.05,1.92,1.22,4.72,1.19,6.76,2.52,1.76,1.12,1.69,2.8,2.85,4.6.86,1.35,2.77,3.04,3.92,4.3,2.39,2.57,5.35,4.95,8.18,7.12,2.04,1.56,3.59,4.16,5.7,5.69,1.98,1.4,4.26,2.31,6.05,3.9,2.29,2.11,4.51,5.42,7.13,7.17,4.46,2.91,11.02-.14,14.95-1.79,2.38-1.02,4.27-.55,7.13-1.44,1.26-.41,3.4-1.72,4.64-2.15,2.43-.85,4.23.9,6.39-.34,1.99-1.17,3.36-4.02,5.34-5.34,2.73-1.85,5.2-2.67,6.06-6.41-1.81-1.14-2.86-2.36-2.86-5.34.29-.36.13-.09.36-.72,3.92-1.19,4.52-4.27,5.35-8.55,5.86-2.39,8.66-8.76,15.31-11.4,4.68-1.85,10.45,2.14,13.15.37,1.24-.37,1.84-.79,2.15-2.16-3.84-4.8,5.14-10.91,8.55-11.74v-1.41h-1.08c-.68-1.11-1.03-1.23-1.06-3.21.72-.49.73-.49,1.06-1.43-4.98-.3-7.94-4.11-10.67-6.75v-1.78c1.2-1.05,2.97-2.27,3.56-3.93-.3-.45-.52-1.94-.73-2.49-1.2.32-2.69,1.23-4.62.73-1.98-.51-4.43-2.64-7.12-2.14-2,.35-4.96,1.15-7.83.72-.58-.1-2.12-.75-3.2-.38-2.09.82-1.94,1.78-5.69,1.8-1.04-1.34-4.19-4.06-6.78-3.55-.97.18-2.22,1.07-3.91.68-2.13-.48-4.86-1.74-6.76-2.12-1.77-.37-4,.62-6.04,0-4.4-1.34-9.42-5.37-13.55-4.61-2.59.43-3.15-2.49-6.05-1.82-6.13,1.48-10.53,8.48-18.52,6.43-4.41-1.13-8.68-6.28-11.03-9.62-1.12-1.58-1.48-4.03-3.56-4.64-1.62-.93-4.64.25-6.77-.34-1.52-.44-3.8-1.37-5.33-1.79-2.38-.11-4.76-.22-7.13-.36-7.74-2.2-13.82-6.56-21.01-9.58-2.95-1.28-6.44-.59-9.61-1.81-2.88-1.09-4.08-4.2-6.42-5.68-1.58-1-3.96-.7-5.69-1.43-2.81-1.17-6.85-3.3-9.63-4.99-4.37-2.64-9.06-5.05-13.52-7.83-2.36-1.46-4.59-4.23-7.13-5.34-1.58-.69-7.54-.16-9.62.33h-7.12c-3.15.7-8.83.84-12.11,0-4.41-1.07-9.89-1.68-14.24-2.79-2.97-.28-5.93-.51-8.91-.74-1.01-.33-1.75-1.44-2.49-1.77-3.67-.5-7.35-.96-11.04-1.43-5.05-1.46-10.89-3.11-16.38-4.3-1.06.13-2.13.23-3.21.39-1.22-.3-3.18-1.53-4.98-1.09-1.34.35-1.81.84-3.22.71-.9-4.37-1.08-9.48-1.05-14.22h-.72v.32c-2.22,2.45-4.46,9.12-5.35,12.84h-.7c-.23-.63-.07-.34-.34-.72.71-1.4,1.7-3.84,2.12-5.33v-2.84c1.29-3.88,4.11-7.71,5.35-11.77.23-3.57.46-7.1.7-10.67-.83.06-1,.06-1.42.35-6.6,3.01-7.56,15.01-12.82,17.06v-.31c-1.11-.44-.81-.17-1.06-1.44,2.99-4.31,4.07-9.62,6.4-14.61,1.06-2.25,3.43-3.92,4.29-6.42.12-.21-.33-2.36-.37-3.91h-1.07ZM326.36,869.78h.71v.35c-.64-.23-.35-.09-.71-.35Z"/>
</svg>