<?xml version="1.0" encoding="UTF-8"?>
<svg id="_レイヤー_1" data-name="レイヤー 1" xmlns="http://www.w3.org/2000/svg" viewBox="0 0 844.49 766.25">
  <defs>
    <style>
      .cls-1 {
        fill-rule: evenodd;
      }
    </style>
  </defs>
  <path class="cls-1" d="M510.82,314.69c3.13,1.72,8.39.52,11.56,1.28,4.54,12.04,15.23,4.1,22.62,6.8,2.57,8.53,24.27,11.65,34.18,14.56,10.37,3.02,22.92,2.57,34.58,4.24,14.3,2.1,29.77,6.48,44.86,6.43,6.56-.03,15.86,4.84,22.6,4.27,1.57-.12,23.11,1.58,24.39,2.13,3.9,1.68,5.3,3.98,11.08,2.57,1.1-2.68,3.13-4.99,1.74-7.7.57.17,1.14.28,1.69.43.65-5.47,2.37-7.52,3.87-13.67,14.73.58,25.96-1.79,32.42-10.24h2.15c.05,1.02.05,1.72,0,2.24.64-1.87,3.91,2.58,3.01-3.09,1.36-.51,1.13-.62,2.11-1.31,6.42,2.13,11.88-2.25,18.38-.43,2.29,1.32,4.56,2.59,6.86,3.85,13.07,3.73,31.77-10.94,38.83-16.24,7.27-5.44,19.31-13.46,16.25-27.3-5.02-22.84-54.74-14.45-77.73-11.54.56-1.85,1.12-3.71,1.69-5.59-.14-.27-.3-.55-.41-.84-4.05,1.51-3.82,4.89-6.84,6.42-6.81,3.46-21.14,1.16-28.59,2.09-2.54,2.13-4.32,4.2-7.27,6.03.41.56.86,1.14,1.25,1.68-8.17-5.37-11.34-.21-21.77-2.97-11.94-3.19-26.58-4.07-40.58-7.26-8.42-.3-16.8-.56-25.2-.87-11.12-.41-22.21-.83-33.34-1.28-7.37-3.54-14.8-7.1-22.18-10.64-15.56-6.77-31.36-11.2-49.58-15.39-6.91-1.61-20.86-3-27.3-.86-7.65-1.94-15.5-3.91-24.39-3.85-6.5.3-13.09.6-19.64.87-38.35-8.03-80.12-13.87-111.92-26.51-8.83-3.48-17.03-5.88-23.48-9.37-1.23-.68-8.53-3.25-7.68-3.85-7.3-2.78-27.98-14.87-30.31-18.78-4.58-7.75-7.21-15.54-11.55-23.06-4.25-7.44-10.98-15.11-12.78-24.79h1.69c6.2,8.19,16.52,16.58,25.61,21.8,3.55,1.58,7.11,3.14,10.68,4.74,3.84,3.95,7.68,7.95,11.53,11.9,3.04,1.68,6.74.28,9.4,2.14,7.72,5.42,7.91,28.1,19.66,32.91,8.82,3.6,33.73-10.97,36.75-15.38,2.2-3.23,1.59-6.67,1.69-10.24,5.83,1.13,11.43-5.21,18.36-5.13,4.2.05,17.51,4.17,19.65,3.85,15.61-2.51,51.81-25.73,52.12-41.84-9.29-19.13-15.15-10.7-37.17-10.7h-10.23c-1.93-.84-3-3.5-5.57-4.26-3.66-1.09-19.29-2.01-20.1,0-3.67-2.05-11.23-4.98-15.37-3.02-2.38-10.02-34.25-23.49-45.25-30.75-16.26-10.7-32.65-22.13-49.13-32-10.43-5.44-20.75-10.84-31.19-16.25-15.03-9.78-30.07-20.57-45.68-29.91-14.76-8.76-37.31-17.35-52.55-4.25-12.88,11.04-15.73,32.54-11.56,55.5,7.11,39.29,13.62,73.5,26.51,106.8,3.75,9.72,12.39,12.98,14.5,24.78-4.38,2.68-3.57,9.99-1.25,14.5-6.61,8.85-7.51,21.16-11.11,32.9v17.53c-1.69,3.11-3.43,6.25-5.12,9.36-2.03,6.77-1.21,10.81-3.4,18.37-4.96,16.91-20.42,35.07-27.8,52.54-7.98,18.84-8.84,41.19-12.39,62.81-2.94,18.18,1.5,41.6,4.3,58.07,1.79,10.76-1.75,38.33-4.3,46.56-3.22,10.41-13.72,10.22-23.48,14.09-14.28,5.69-26.83,12.98-38.01,21.77-9.93,8.98-19.92,17.95-29.88,26.93-6.37,4.47-18.17,10.19-21.8,17.06-3.75,7.18-.16,21.7-2.11,30.35-3.76,16.38-2.57,42.66-2.6,62.79v20.91c-.58,7.26-1.11,14.53-1.68,21.8-1.95,7.21-4.67,14.18-2.14,22.63-2.19,1.93-4.32,2.67-5.99,5.14.4.86.85,1.7,1.27,2.55,16.99,6.83,50.43,3.03,67.49-.43,8.41-1.69,18.9,2.2,27.76.43.77-1.66,1.62-3.4.86-4.28-.67-1.91-1.32-2.48-2.97-2.13-.59-1.99-5.78.09-2.98-1.28-5.44-2.22-10.99-.37-16.69-2.96-7.45-3.48-17.54-9.94-25.19-11.98.29-3.69.58-7.4.85-11.1-2.71-8.7-7.51-29.73-4.27-47.4,2.72-9.99,5.42-19.95,8.12-29.91,2.61-9.48,4.64-33.2,10.65-38.03,5.68-4.52,13.28-3.71,20.94-6.83,7.83-4.25,15.64-8.54,23.52-12.81,2.69-2.15,5.39-4.26,8.08-6.41,4.7.3,9.41.57,14.08.85,7.92,1.53,18.45-.38,23.94-2.57,13.36-5.28,19.77-14.41,29.92-22.18,8.01,1.29,20.47.12,26.48,3.81,4.96,12.33,17.54,20.31,25.15,30.34-.11.58-.24,1.13-.4,1.7-2.16,1.99-4.25,4-6.4,5.98,1.42,5.09,2.78,6.13,5.95,6.87v.84c-5.11-.17-10.21-.29-15.34-.44-2.14,1.97-4.31,3.97-6.4,5.98.15-.44.27-.87.43-1.26-.56.26-1.13.54-1.72.82-1.2,3.26-2.92,4.34-1.71,8.12,1.18.15,2.3.3,3.43.43-.27.28-.56.59-.86.86-.93,1.32-1.53.97-2.98,1.7h1.69c-.4.42-.82.85-1.28,1.26-1.13.16-2.26.31-3.4.43v1.29c4.84-.58,4.82.94,7.66.85-.83,1.16-1.69,2.3-2.55,3.42h-.43c-1.87-1.38-3.36-2.86-5.95-3.42,1.57,1.41,3.13,2.87,4.67,4.28-.86.88-1.71,1.7-2.56,2.56h.43c1.13-.43,2.26-.86,3.4-1.28v1.28c-.56.42-1.14.85-1.69,1.28.87.72,1.69,1.42,2.57,2.16-1.9,1.53-3.71,3.11-5.56,4.66.39.43.84.88,1.28,1.32,6.09-4.44,9.63,13.88,16.55,11.2,1.66-.67,3.06-1.84,3.86-.86,10.42,11.71,3.01,18.08,5.54,28.61-.68-.44-1.43-.85-2.13-1.26v2.1c2.46,6.66,21.56,6.78,28.29,10.63,33.09,7.6,54.11-6.45,73.88-19.25,4.25-2.26,8.55-4.56,12.81-6.82,8.29-9.29,11.32-34.15,8.12-50.81-2.03-10.56-6.99-18.57-10.23-27.78v-5.12c-2.2-5.83-11.17-3.93-11.14-11.54-1.36.32-.93,1.2-1.71,0-3.15-5.18-5.21-10.07-9.82-13.67-4.14-3.12-8.25-6.25-12.39-9.43-2.09-3.39-4.25-6.8-6.39-10.21-3.59-2.9-13.66-8.85-12.83-12.86,1.41-.95,2.81-1.95,4.26-2.94,7.19,5.46,11.62,12.41,20.93,16.2,6,1.86,11.97,3.72,17.94,5.54,3.71.6,7.44,1.15,11.14,1.71,7.64,9.12,15.33,18.26,23.04,27.35,10.59,11.51,29.11,17,37.6,30.31,7.16,11.29,5.49,29.85,8.54,44.86,2.02,9.91,11.65,38.06,9.82,48.69-.99,5.54-.6,12.06-2.15,18.37-1.55,5.38-3.15,10.81-4.7,16.24-.11,5.4-.26,10.81-.42,16.21-12.31-.26-19.61,7.43-23.91,14.96,2.12,6.77,12.39,1.81,16.2.87.99,2.48,2.74,4.11,4.72,5.53,23.48.75,53.54-2.99,83.75-2.98,1.04-1.99,1.44-2.96.39-5.13-14.93-.37-23.15-8.89-36.75-11.53-.13-9.39-2.54-23.14-3.81-30.75.11-4.13.27-8.28.43-12.4-.93-3.46-2.57-8.97-1.75-14.54,2.44-15.74,1.97-34.29-.42-49.11v-20.5c-1.72-9.84-3.44-19.66-5.13-29.48-7.84-9.55-15.64-19.09-23.48-28.63-17.92-21.74-28.2-49.16-50.39-66.64-17.53-13.51-35.06-27.01-52.56-40.55-6.31-8.91-9.35-20.38-14.1-30.75-5.99-13.12-13.17-24.54-17.94-39.74-1.53-5-10.34-22.3-4.25-26.47,4.64-1.86,9.95,2.16,15.38-1.3,3.83-2.43,10.7-8.21,11.93-12.83.67-2.37-1.94-5.93.86-8.96,3.73-4.04,11.97-4.3,17.53-7.26,2.02-2.42,3.97-4.82,6-7.28,9.78.93,11.54-4.53,18.78-6.83,3.94-1.24,10.89,1.97,14.54,2.57,6.19,1.03,17.62-1.34,24.73-.84,5.86-.7,11.69-1.41,17.54-2.13,17.42-3.24,28.36-2.32,43.97-4.29,9.03-1.1,23.19.27,33.34,1.7,3.39-.12,6.85-.27,10.26-.4,3.59.87,4.66,4.08,7.24,5.56Z"/>
</svg>