<?xml version="1.0" encoding="UTF-8"?>
<svg id="_レイヤー_1" data-name="レイヤー 1" xmlns="http://www.w3.org/2000/svg" viewBox="0 0 675.33 844.57">
  <defs>
    <style>
      .cls-1 {
        fill: #040000;
      }
    </style>
  </defs>
  <path class="cls-1" d="M434.75,768.84c-8-15.33-19.85-18.25-35.09-23.72-8.24-2.95-37.84-11.61-37.45-22.62.48-13,8.91-26.37,5.12-39.54-4.52-15.72-18.98-26.06-15.14-43.66,3.43-15.72,22.16-22.68,36.4-23.24,7.62-.28,15.27-.17,22.88.31,1.94.12,4,7.64,4.67,9.21,4.8,11.35,9.12,19.4,4.87,31.12-2.45,6.78,4.18,9.35,9.4,7.42,8.72-3.21,14.09-12.24,17.03-20.54,5.6-15.83,7.32-28.28,17.02-42.27,9.56-13.79-.13-36.38-6.99-49.64-4.28-8.26-25.4-20.91-21.71-31.17,3.98-11.05,17.45-20.14,25.53-28.08,8.78-8.64,10.36-17.53,15.81-28.29,6.05-11.95,18.83-22.47,29.19-30.76,14.37-11.5,30.09-16.6,48.11-19.22,14.07-2.05,32.75-1.5,45.08-9.61,3.72-2.45,8.49-7.15,9.1-11.76.5-3.74-5.2-6.54-3.49-9.85,5.01-9.74,21.21-16.18,29.2-23.45,9.85-8.97,17.94-20.54,25.82-31.21,2.92-3.95,17.95-20.74,14.8-26.47-13.06-23.88-46.82,31.93-52.5,39.65,4.37-8.6,8.47-17.42,11.64-26.53,2.13-6.13,7-34.69-4.45-33.9-5.84.4-25.28,53.84-25.28,53.84.07-5.29,2.61-39.82-5.64-36.42-5.71,2.35-18.64,42.4-18.64,42.4-1.47-7.23-3.54-14.32-8.82-19.71-6.83-6.97-14.6,6.52-16.39,12.05.53-5.97-1.59-10.88-7.69-12.44-10.34-2.64-8.24,7.71-13.94,7.61-5.51-.11-10.57-3.23-16.16-3.08-8.93.25-8.83,15.51-13.99,21.14-4.21,4.6-12.94,2.24-18.8,2.78-8.02.74-15.28-8.36-19.99.42-3.16,5.88-4.17,12.84-5.61,19.28-1.22,5.44-1.22,8.45-5.4,3.56-5.16-6.03-14.93-11.55-22.24-5.68-7.03,5.65-3.58,15.95-7.3,23.17-1.66,3.23-4.7,4.14-7.25,6.47-3.16,2.88-4.41,6.89-6.85,10.28-5.15,7.12-13.02,4.33-20.06,6.46-12.55,3.8-15.9,27.77-28.31,34.9-8.63,4.96-13.6,11.29-15.93,21.18-1.07,4.55-.84,22.35-9.5,16.9-9.08-5.68-10.37-18.69-16.74-26.79-8.25-10.48-14.52-21.43-16.89-34.68-2.27-12.74-15.05-15.25-22.65-24.46-6.74-8.18-11.46-17.96-15.11-27.82-4.57-12.31-13.25-22.68-13.75-36.31-.45-11.77.75-23.87,1.71-35.58.67-8.14,4.1-16.56,3.54-24.73-.5-7.33,1.44-14.37-1.47-21.45-.7-1.69-5.01-17.2-8.61-11.15-1.36,2.28-7.31,18.98-9.3,19.13-6.88.55-4.01-39.99-2.15-45.63,5.59-16.93,12.96-33.6,17.24-50.98,4.05-16.41,9.84-33.3,15.99-49.07,1.87-4.8,22.27-42.14,9.25-43.27-12.65-1.73-21.06,20.7-26.1,29.85-5.96,10.85-9.58,21.85-13.91,33.4-2.34,6.22-5.1,16.62-11.04,20.59-11.88,7.9-5.99-20.31-5.65-25.08,1.19-16.06,7.85-31.12,13.95-45.76,4.42-10.63,32.1-66.17,13.72-70.55-13.73,7.17-23.66,34.01-30.22,48.06-4.62,9.87-9.5,19.81-12.7,30.26-2.47,8.08-2.79,19.65-8.27,26.27-4.75-7.15-1.28-21.13-1.31-29.1-.05-13.31,2.23-25.19,4.82-38.15,2.02-10.03,9.95-47.27-1.61-53.15-16.67,3.84-18.11,31.33-18.83,45.18-.89,17.09-5.95,34.89-4.65,52.02-16.2-4.92-3.76-49.9-17.94-50.08-8.66,6.14-8.76,10.85-8.77,21.03-.01,4.12,4.34,27.37-2.26,23.6-8.38-4.79-8.63-9.37-8.49-18.8.06-4.21-14.3-24.49-18.86-20.06-9.5,9.22,7.21,26.69-.14,32.14-6.84,5.04-12.94-2.6-19.48-1.84-4.29.5-3.63,13.26-3.69,16.01-.12,5.08-.53,9.67-5.9,11.87-1.73.71-3.77-4.2-5.02-.24-3.92,12.47,6.35,22.44,6.26,34.51-.08,9.71-8.21-.68-12.71,1.63-5.11,2.61,6.26,17.41-4.91,13.96-16.19-5-11.56,15.62-21.76,24.61-4.32,3.79-5.64,8.83-5.4,14.48.26,6.15,12.38,11.3,10,17.03-1.98,4.76-5.45,5.79-10.7,5.36-6.4-.52-3.94,8.1-4.31,12.26-.91,10.26-3.05,18.49-2.55,29.03.44,9.36,1.2,18.91,3.68,27.98,1.66,6.08,8.85,13.95,7.47,20.15-1.79,8.06-9.72,4.22-13.35,9.85-5.16,7.97-2.68,19.95-2.67,28.89.02,13.85-3.57,27.06,1.28,40.26,6.4,17.43,16.78,32.4,21.08,49.78,3.46,13.98,15.69,16.15,27.39,20.69,6.96,2.69,14.27,9.27,18.26,15.49,3.67,5.71-1.35,14.1,6.26,17.16,9.43,3.8,3.99,4.88,10.69,11.45,3.58,3.5,4.49,9.13,9.13,11.46,5.46,2.73,14.83.21,19.25,3.64,4.25,3.31-1.62,12.13,1.55,16.55,9.4,13.11,38.31-24.67,34.8,3.86-1.16,9.49-1.17,25.1-11.66,29.6-4.82,2.07-9.92,4.33-14.97,5.79-9.27,2.67-18.94.57-28.26,2.76-27.1,6.41-55.08,6.05-82.9,9.68-7.45.98-15.01,1.75-21.42,6.05-4.78,3.19-8.27,7.22-13.46,9.89-4.92,2.53-10.98,5.83-10.53,12.3.49,7.18,7.65,6.19,9.19,11.01.99,3.08-4.84,13.21-4.9,17.28-.1,6.71-1.09,11.97,4.1,17.12,5.48,5.43,12.97,11.63,20.35,14.3,8.2,2.96,7.6,2.14,12.59,9.2,4.38,6.21,11.61-3.06,16.58-.72,5.48,2.58-1.31,7.72,1.47,11.01,1.47,1.72,14.03,6.85,14.03,6.91.14,2.62-5.4,10.01-1.17,11.08,9.38,2.38,21.38-12.59,25.55-2.46,1.94,4.72.75,10,2.58,14.58,2.49,6.23,15.81,2.46,20.28,1.61,3.79-.72,7.23-1.99,10.97-.48,4.59,1.86,11.17,7.73,16.36,6.61,4.17-.91,8.82-6.11,10.63-9.86,1.59-3.28,11.12,2.48,13.13,3.21,5.66,2.07,7.48,5.03,11.54,8.57,2.29,1.99,12.62-6.2,14.3-7.31,7.05-4.71,22.79-22.24,20.61-3.66-1.77,15.14-11.43,25.89,4.83,35.2,7.07,4.06,14.61,7.32,22.13,10.43,1.95.8,11.57,3.03,12.56,4.94,1.11,2.16-4.44,14.37-4.94,17.19-1.56,8.79,3.43,8.04,10.14,10.79,11.23,4.59,6.33,13.91,7.85,22.56,1.5,8.53,10.81,14.55,17.93,18.23-6.62-12.85-5.42-24.62-3.83-38.51,9.5,8.83,18.18,15.68,31.07,18.62l-10.15,17.53c10.49,4.28,17.77,4.34,20.08-7.71,2.08-10.89,4.75-24.68-8.84-28.32,9.36-13.2-10.47-14.87-18.41-20.47-2.55-1.81-25.49-17.45-24.49-19.66,5.43-11.97,10.37-24.24,9.69-37.56-.3-5.79-4.81-34.45,4.65-35.51,16.3-1.83,16.91,18.65,22.99,28.78,4.85,8.06,12.3,12.85,20,17.89,3.48,2.28,14.54,6.6,16.56,10.34,2.58,4.75.02,10.01-2.92,13.97-5.66,7.67-5.45,12.85-1.82,21.63,5.42,13.1,17.33,23.84,31.15,12.34-23.16,2.04-23.26-16.76-14.08-31.47,12.74-20.41,29.06,15.29,16.84,20.31,7.62-3.14,18.87-6.65,17.35-21.18,8.07,3.33,16.03,6.14,24.64,7.62,7.73,1.31.66,9.88-1.29,14-2.62,5.58-3.46,10.51,3.53,4.75,7.68-6.34,17.94-11.61,13.32-22.86"/>
</svg>