<?xml version="1.0" encoding="UTF-8"?>
<svg id="_レイヤー_1" data-name="レイヤー 1" xmlns="http://www.w3.org/2000/svg" viewBox="0 0 863.34 775.08">
  <path d="M349.92,71.78c-4.42-.76-8.82-1.53-13.21-2.3v-.59h4.61c2.67.59,5.35,1.18,8.03,1.74.19.39.37.77.57,1.15Z"/>
  <path d="M12.25,374.43c1.58-1.25,4.31-1.28,7.46-1.13,8.59,7.85,17.22,15.69,25.84,23.53,6.28,2.94,11.88,3.06,17.21,6.31,1.93,1.19,3.01,4.71,4.6,5.77,12.45.19,24.89.37,37.33.58,30.74.09,50.84,5.69,60.29,26.38,20.23,5.93,49.58-3.27,65.47-7.46,24.91-6.54,54.31-6.42,78.13-12.61,11.26-2.95,29.49-1.82,37.35-8.64,11.62-10.11,18.39-31.69,35.59-35.6,2.7-9.17,4.15-13.3,9.78-18.96.75-5.94-1.68-12.41-2.89-17.21-1.76-7.21,1.62-17.22,0-22.98-.71-2.56-4.66-5.63-5.74-9.18-1.14-6.32-2.28-12.64-3.43-18.95-1.61-1.12-33.18,14.88-37.9,17.8-33.09,20.48-99.94,18.11-110.27,60.87-6.31,3.16-11.88,2.09-19.53.57-7.34-10.23-6.5-15.77-6.32-28.71,8.17-5.56,16.09-12.67,24.69-17.21,5.53-2.89,16.16-1.96,21.82-4.6,18.19-9.55,36.38-19.16,54.56-28.71,7.7-2.97,18-3.45,24.72-6.89,16.15-8.33,26-27.62,45.35-32.72,2.11-6.51,4.23-13.04,6.31-19.55-2.51-1.18-4.32-1.09-6.31-2.29-1.39,2.44-1.92,3.31-5.16,4.01.76-1.72,1.51-3.44,2.3-5.17-.21-.56-.38-1.15-.61-1.7-.75-.59-1.5-1.16-2.28-1.73-1.34,3.44-2.7,6.89-4.02,10.34-.57.19-1.16.38-1.72.59-.77-.4-1.52-.78-2.31-1.18-2.24-10.05-6.56-15.4-9.77-23.53,1.16-4.8,2.3-9.57,3.45-14.36-.39-.19-.77-.39-1.16-.57-3.6,2.8-5.68,8.07-5.73,14.35-.19-1.15-.38-2.29-.57-3.44h-.58c-2,2.29-1.63,5.02-1.14,8.62h-.57c-1.17-1.92-2.3-3.85-3.45-5.76,1.09-9.69,6.68-14.72,8.05-24.68-2.88-3.83-5.76-7.67-8.62-11.5-10.41-.03-28.46,5.66-32.16,14.94-.76.57-1.54,1.17-2.31,1.71.58-1.32,1.17-2.66,1.73-4v-.6c-2.08,1.54-4.22,3.08-6.3,4.6,1-2.53,2.37-4.38,4.57-5.75,1.26-2.39,2.27-1.17,0-2.85,1.73-.94,3.44-1.91,5.17-2.85v-1.75c-3.95-2.08-6.42-.46-12.05,0v-.56c2.67-.58,5.37-1.16,8.05-1.73.19-.39.38-.78.56-1.16-18.89-22.92-12.42-30.66-4.03-55.12,1.35.39,2.7.78,4.03,1.16,1.14-1.54,2.3-3.07,3.44-4.6v-.57h-4.59c2.94-3.85,9.43-6.36,14.35-8.04.76-1.35,1.54-2.67,2.3-4.04h-6.3c-1.12-7.48,5.06-15.15,8.6-20.66,1.69-1.68,17.22-2.78,18.96,1.71,6.95-.98,14.64-3.39,23.54-4.01,5.69-.38,9.36,3.36,12.62,2.86,5.36-.79,6.99-4.66,14.37-4.59,1.97-2.94,4.13-4.65,4.57-9.19-4.24-4.8-8.69-8.08-14.36-11.49-.18.19-.38.38-.55.57,3.38,5.11,6.28,8.73,6.3,16.08h-.57c-2.83-18.94-24.07-35.12-45.93-35.03,8.6-4.2,18.57,1.85,27,4.03-1.69-5.86,2.59-10.57,5.16-16.66.37-.2.77-.38,1.14-.59-.37,4.6-.77,9.21-1.14,13.8,1.74.39,3.44.77,5.17,1.15-1.04-4.06-3.05-7.95-1.15-12.05v-1.15c3.46,9.72.55,16.72,11.48,18.94-.18-5.16-.37-10.33-.57-15.51-.95-2.47-3.64-3.53-4.59-6.89-1.09.81-.35.04-1.14,1.15-3.09-3.3-5.3-10.49-5.75-16.08h.57c1.53,8,6.39,10.95,9.18,17.23.39.2.77.39,1.15.59-2.69-6.73-5.36-13.42-8.03-20.11h1.73c4.39,5.16,8.79,10.33,13.2,15.49.19.39.38.78.57,1.17,2.14-2.8,2.12-4.95,1.73-9.2.57.77,1.16,1.54,1.72,2.3.96-1.53,1.92-3.08,2.89-4.6.16,3.45.38,6.9.56,10.33.77-4.39,1.52-8.81,2.29-13.21.21-.39.39-.76.59-1.15v12.63h.56c1.5-1.65,2.68-2.09,3.45-4.58,2.4.89,1.41-.11,2.29,2.29.98-.77,1.93-1.53,2.87-2.29.08,7.96,7.47,13.6,11.49,18.38h.57c-2.49-7.08-4.97-14.18-7.47-21.25,12.95,3.25,17.19,29.02,14.35,45.93-.47,2.86-4.03,5.62-2.86,10.34,2.86,11.62,10.06,32.92,6.32,46.52h2.86c-1.58,8.4,3.02,11.5.58,21.84-2.37,9.99-8.07,15.4-13.21,22.38,5.18,11.82,11.64,28.16,12.04,42.5.39.38.77.78,1.17,1.16,18.09-1.36,29.61-10.98,43.05-17.22,13.04-5.75,26.06-11.49,39.06-17.25,17.98-10.58,12.34-17.45,41.92-13.21,4.34.65,10.56-1.26,14.93.59,3.62,1.74,1.18,2.93,3.45,5.76,2.18,2.67,11.74,5.86,8.6,13.19-1.41,3.37-2.57.82-3.99,6.9-2.2,1.2-2.01,1.21-4.61,1.15v6.87c-.97,1.16-1.93,2.31-2.87,3.46h6.31c1.73,1.11.99.1,1.7,2.3-2.85,3.44-5.72,6.9-8.6,10.34-4.39-1.35-8.8-2.69-13.2-4.04-1.42-2.69-1.12-7.14-2.89-10.32-2.29-1.92-4.57-3.83-6.87-5.75-37.08,5.04-61.57,38.15-92.46,49.96v.57c11.64,15.33,25.25,27.78,31.57,48.83,5.49,18.24-4.41,33.56-1.14,52.83,2.83,16.71-1.22,32.89-4.03,49.39-3.25,30.81-6.5,61.62-9.77,92.47.19.38.38.76.58,1.14,8.42,1.34,16.01,6.24,24.12,8.62,23.11,6.72,42.09,10,62.59,17.8,9.59,4.59,19.16,9.19,28.71,13.79,15.99,5.83,38.37,5.39,51.12,14.91,12.1,9.05,15.44,34.25,23.55,47.12,12.46,19.68,29.17,35.65,44.24,52.81,13.49,15.44,25.93,33.74,42.47,45.96,9.41,6.9,19.81,11.76,29.3,18.36,16.36,11.4,28.07,28.13,42.52,41.35,10.02,9.2,26.57,20.47,28.7,36.76-7,4.1-17.28,3.09-23.56-.57-3.24.95-6.48,1.93-9.76,2.86-2.3-2.37-2.3-5.99-4.59-8.59-12.83-7.68-25.66-15.33-38.47-22.99-8.73-2.94-18.13-.19-24.7-4.59-8.53-5.71-6.49-15.5-10.35-26.39-2.55-7.25-10.82-16.48-16.65-20.69-24.62-17.83-54.1-30.16-77.54-49.41-10.18-8.38-25.17-30.79-32.15-42.49-3.79-6.35-4.45-19.49-10.9-22.98-20.93-11.24-52.9-4.42-80.42-9.17-26.02-5.35-52.07-10.75-78.1-16.08-21.35-5.08-50.8-13.04-66.03-23.57-8.42-5.75-12.86-24.52-20.7-26.97-8.29-2.62-27.67.91-39.61-1.14-34.23-5.93-70.95-6.02-104.54-11.5-20.28-.57-40.58-1.14-60.87-1.7-21.47-4.03-28.1-16.19-43.08-25.3-5.55-2.08-11.09-4.19-16.66-6.31-10.32-5.75-20.67-11.49-31-17.22-18.45-8.52-39.05-2.49-54.56-13.2-16.25-11.2-29.95-35.57-6.88-49.98Z"/>
  <path d="M332.12,163.11c-4.62.52-8.95,2.45-11.49,5.16,3.83-1.73,7.66-3.44,11.49-5.16Z"/>
  <path d="M330.38,160.23h-4c-1.52,1.54-3.07,3.07-4.6,4.6,2.89-1.53,5.74-3.06,8.6-4.6Z"/>
  <path d="M314.89,105.08c.19.19.37.39.57.59,1.08-.82.94-.55,1.72-1.73-.75.39-1.52.76-2.29,1.14Z"/>
  <path d="M321.78,133.79h1.75c2.85-1.64,4.84-4.44,5.72-8.04-2.85,1.35-6.51,4.81-7.47,8.04Z"/>
  <path d="M326.95,80.97v1.16c2.96.39,6.13.37,8.03-1.74-2.67.21-5.35.38-8.03.58Z"/>
  <path d="M337.86,136.69c-9.07.53-10.97,1.71-18.37,4.01.57,1.15,1.13,2.29,1.73,3.44-7.14,1.69-11.86,1.88-10.92,12.06-.58-.39-1.14-.77-1.73-1.15,1.41,5.77,3.94,7.65,6.9,11.48h2.29c5.28-8.45,10.09-19.26,20.1-22.96,1.26-2.43,1.28-4.47,0-6.88Z"/>
  <path d="M338.42,149.89c-2.68,1.73-5.35,3.44-8.04,5.16v1.74c.76.94,1.55,1.91,2.32,2.86,1.72-.39,3.43-.77,5.16-1.15,1.6-1.31.9-6.55.56-8.62Z"/>
  <path d="M345.31,201.58c3.35-4.49,7.5-12.57,7.47-19.54-2.48,6.53-4.98,13.03-7.47,19.54Z"/>
  <path d="M383.23,37.33c-1.35-.38-2.67-.76-4.01-1.15h-2.88c-.19.59-.38,1.15-.57,1.73,3.78,5.24,8.31,8.48,14.37,11.48.96-1.24,1.02-1.53,1.14-4.01-1.97-2.68-4.97-6.54-8.05-8.04Z"/>
  <path d="M428.6,39.03c.38.2.76.39,1.15.58h.57c-.54-5.94-3.17-10.41-6.32-13.8h-1.15c1.93,4.44,3.83,8.82,5.75,13.21Z"/>
  <path d="M411.38,58.58h.55c-.16-6.43-2.72-12.39-6.3-15.51-.9-.37-.66-1.06-1.16,0-1.33-3.45-2.67-6.9-4.03-10.35h-2.29c.21,13.55,7.49,15.84,11.47,24.7.59.4,1.16.78,1.75,1.17Z"/>
  <path d="M407.93,64.9c-.38-.59-.76-1.18-1.14-1.73-.21.55-.39,1.14-.59,1.73h1.74Z"/>
  <path d="M349.92,209.61h-.57c-.19-1.34-.38-2.67-.57-4h1.14v4Z"/>
</svg>