<?xml version="1.0" encoding="UTF-8"?>
<svg id="_レイヤー_1" data-name="レイヤー 1" xmlns="http://www.w3.org/2000/svg" viewBox="0 0 394.71 867.35">
  <defs>
    <style>
      .cls-1 {
        fill-rule: evenodd;
      }
    </style>
  </defs>
  <path class="cls-1" d="M373.7,73.36c2.62-20.5,14.44-42.05,12.32-63.21-6.88,5.08-12.65,11.66-16.69,19.19-2.29,4.27-2.52,12.77-7.13,15.24.01-14.19,6.02-27.55,5.44-44.27-17.85,7.59-18.79,31.77-26.61,49.21-1.59-14.6,4.49-37.16-.51-49.52-17.69,10.29-15.64,39.92-21.77,61.53-1.68-18.93-.2-41.09-6.46-55.35-9.08,4.41-10.66,17.8-12.83,26.41-2.49,9.88-.55,20.32-1.92,30.34-5.09-2.94-6.17-18.07-7.78-23.29-2.34-7.6-5.03-15.83-10.37-21.92-9.74,6.98-7.81,26.22-9.03,38.41-3.03-4.07-7.12-22.13-15.44-13.98-5.81,5.68-6.07,17.54-3.91,24.79-6.45-.68-8.57-1.93-13.16,4.21-3.42,4.58-5.06,10.31-4.32,16.02-11.94-8.86-23.91,7.38-17.49,18.45-14.09.26-8.43,13.57-12.63,21.1-3.99,7.15-18.45,7.4-11.72,19.24-5.2,1.82-13.24,2.29-14.21,8.64-1.02,6.68-5.19,4.34-10.24,6.24-3.64,1.37-7.86,4.56-7.14,9.02.73,4.54,7.1,4.29,10.09,6.39-4.75,1.64-9.92,4.97-11.46,10.06-.67,2.42-.53,4.81.43,7.15-2.14,1.01-4,2.39-5.58,4.15-3.97,4.63-1.37,8.79-5.45,12.78-3.71,3.63-5.18,9.54-1.63,13.86-5.68,2.01-9.37,10.02-4.56,14.79-1.87,3.28-5.77,4.79-7.07,8.48-1.46,4.11-18.93,13.36-12.16,19.8,1.88,1.8,4.5,1.9,5.99,4.27-1.41,2.08-2.19,4.36-2.35,6.87-.15,6.63,3.09,6.24-.71,12.89-2.58,4.52,1.67,6.67-.57,11.64-1.38,3.08-4.15,7.21-1.33,10.41,6.49,7.36,4.72,8.56-1.19,15.81-2.44,3-2.99,9.35-8.74,7.21-3.66-1.37-6.17-5.43-9.63-7.33-11.83-6.53-23.2-13.91-34.08-21.93-7.86-5.79-18.47-15.88-27.76-6.98-.14,6.14,1.53,7.52-4.15,9.55-2.04.74-3.66,2.01-4.84,3.81-3.23,4.8-.67,8.99-6.67,10.15-11.2,2.15-6.08,12.98-14.52,16.88-6.98,3.22-4.77,6.95-6.42,13.04-1.3,4.82-4.11,9.12-5.2,13.99-1.29,5.73,2.87,6.8.5,11.67-1.94,4-.91,9.07,1.4,12.67,3.06,4.76-2.42,7.73,1.46,12.18,4.42,5.08,1.6,6.32,3.88,11.69,1.5,3.55,5.59,4.94,8.68,6.65.78,3.72-2.27,5.41-2.27,8.87,7.04,9.76,29.41.07,37.96-2.46,14.36-4.28,29.46-8.92,44.44-10.17,2.82,4.89-1.89,17.92-5.83,20.96-3.6,2.78.25,8.59-3.65,12.35-3.88,3.74-4.17,4.26-4.02,9.16.13,4.15-3.1,6.98-5.04,10.28-2.35,3.99.33,8.05-.25,12.28-1.06,7.62-3.51,14.47-5.89,21.25-2.05,5.85.14,9.97-2.73,14.81-2.34,3.96-.2,9.19.27,13.33.59,5.07-3.5,6.91-4.01,11.46-.45,4.06,1.68,7.36,2.48,11.17-3.79,3.07-3.92,8.23-3.06,12.61,1.32,6.76.22,6.61-.82,12.97-.77,4.64.29,9.81,2.51,13.93-1.56,1.85-5.48,1.12-5.85,4.19,1.85,2.87,7.3,2.07,7.73,6.4-3.7.02-7.22-2.02-10.61-.48.13,12.31,7.46,17.19,19.64,18.67-7.25,2.86-10.95,14.31-6.47,20.75,3.6,5.19,4.63,2.63,1.78,9.54-1.84,4.46-3.56,9.21-3.58,14.11-.04,6.38,4.11,7.86,1.39,13.48-1.53,3.14-2.6,6.57-3.1,10.04-.99,6.75.98,14.05,9.06,14.04-1.86,5.62-3.14,11.84-2.43,17.77,1.1,9.07,6.08,4.19,9.78,9.28-6.38,9.55-10.95,23.1-6.14,34.25,9.77,1.59,9.48-6.67,17.03-7.25-2.07,13.87-16.78,36.12-6.57,50.17,10.22-4.58,17.35-20.35,26.86-25.63-3.78,10.55-6.26,21.56-8.51,32.52-1.34,6.54-5.44,15.85.79,21.22,12.65-11.35,17.96-29.88,28.45-43.32-1.79,13.05-20.72,50.98-5.85,61.37,10.76-11.75,10.06-36.07,22.53-45.04-1.44,17.36-9.53,42.22,1.16,56.01,10.36-13.39,9.6-37.68,17.73-53.24-.27,15.92-6.99,41.19,4.67,52.41,4.92-10.63,6.95-22.48,8.95-33.93,1.46-8.33,1.25-21.96,6.92-28.71,2.55,9.11.07,23.35,7.36,27.63,6.12-11.04,4.83-30.05,7.2-45.46,3.01,3.64,8.03,12.49,11.32,11.68,5.24-19.89,2.53-41.63,2.32-61.92-.21-20.72-.87-40.91-2.42-61.54-1.56-20.8,4.9-42.88,6.85-63.6,1.86-19.82-2.87-36.5-4.33-55.96-1.65-22.11-.1-44.52,4.51-66.2,3.26-15.37,6.29-35.69,17.98-47.01,7.93-7.67,15.49-8.74,26.11-10.19,7.4-1.01,14.26-4.63,21.85-3.95,8.85.78,17.49,3.22,26,5.63,7.77,2.2,14.73,8.03,23.07,8.01,1.64-7.72-2.73-13.53-7.54-18.98-1.88-2.12-3.8-4.26-5.19-6.74-1.78-3.16-.79-7.92-2.97-10.67-10.26-12.96-27.77-16.89-39.2-28.49-17.73-.61-21.41-30.67-18.97-44.34,3.56-19.96,11.91-40.45,21.15-58.4,4.91-9.53,10.33-19.09,17.28-27.29,6.15-7.25,13.03-13.78,17.23-22.44,9.15-18.85,13.01-40.9,25.43-58.02,11.99-16.59,20.79-37.5,29.18-56.11,8.21-18.25,15.02-37.25,18.61-56.99-9.86,1.84-14.37,13.91-21.01,20.86Z"/>
</svg>