<?xml version="1.0" encoding="UTF-8"?>
<svg id="_レイヤー_1" data-name="レイヤー 1" xmlns="http://www.w3.org/2000/svg" viewBox="0 0 639.71 871.55">
  <defs>
    <style>
      .cls-1 {
        fill: #040000;
        fill-rule: evenodd;
      }
    </style>
  </defs>
  <path class="cls-1" d="M492.54,203.43c.5.18,1.09.24,1.62.33-2.58,8.32,6.72,21.14,4.24,34.85-4.39,24.25-20.38,51.63-47.88,51.52.46,4.95-.78,4.6-3.26,7.73,7.81.59,18.78-.48,25.4,1.98,14.05,5.18,24.8,17.3,42,18.88,5.84-2.88,9.54-6.86,17.59-7.17,3.92,2.31,2.08,2.59,4.21,4.89.99,1.02,4.8,1.87,5.89,2.59-.13,1-.23,1.99-.3,2.93.95,0,8.9,3.37,9.42,3.93,1.04,1.92,1.32,4.11,1.32,7.15-6.57,4.92-15.38,11.7-25.43,12.67-.52-1.08-1.07-2.15-1.61-3.26-4.32,2.19-13.01-1.98-18.88-2.26-7.83.54-15.65,1.07-23.46,1.62-8.95-1.62-18.78-3.67-28.66-4.51v.3c2.39,10.78,4.78,21.5,7.17,32.23,2.44,8.06,6.84,15.09,9.14,24.46,3.28,13.07,2.64,28.6,6.21,40-.23-.14-.45-.19-.69-.32-2.88-7.19-10.88-11.58-13.34-18.24-3.49-9.54,1.47-13.94-6.5-19.84-.21,7.53,1.32,15.48,0,23.46-.87,4.97-1.74,10-2.6,14.94,2.15,4.93,5.92,8.58,7.15,14.99h-.31v-.67c-2.14-2.88-7.88-11.31-8.49-14.64-.21.13-.42.18-.64.32-1.57,5.27-4.57,13.76-8.47,16.91,1.44-4.07,2.83-8.23,4.23-12.31-.18.09-.43.15-.64.29-3.09,10.04-10.63,22.41-20.53,25.37,3.45-4.31,6.57-7.1,6.51-15.27-5.78,4.83-12.16,24.58-26.02,18.88h.63c6.07-3.68,12.34-6.99,16.63-12.4-8.94,2.65-13.33,10.53-20.53,14.7-2.39.19-4.78.43-7.17.58-3.81,1.21-7.6,2.44-11.37,3.63,3.44,5.65,8.49,13.41,13.97,16.94,2.18.73,4.33,1.52,6.52,2.26,4.11,4.16,8.25,8.24,12.37,12.4.98,3.02,1.96,6.08,2.94,9.13,16.66.48,21.26,13.62,30.93,21.13,17.98,14.06,36.13,28.39,54.71,41.34-.13-12.89.51-22.47,5.18-30.26,4.47-4.34,8.92-8.65,13.37-13.03v-5.88c.98-3.68,1.93-7.34,2.93-11.01.11-6.45.23-12.85.32-19.25-2.45-6.87-10.59-10.74-5.86-19.84,6.47-2.59,18.71-7.13,28.66-5.52,3.4.27,6.74.66,10.11.92.73.67,1.5,1.34,2.22,1.95,4.17-.48,8.28-1.01,12.42-1.54,2.71.01,5.4.18,8.15.27,2.47-1.72,4.97-3.51,7.48-5.21,5.49-3.22,12.65-3.93,20.17-5.21,14.26-2.41,27.2,5.97,28.03,16.94-7.84,16.55-19.54,23.33-19.57,48.18-21.96,7.12-30.12,25.37-37.09,47.56-3.86,12.25-16.01,28.8-24.43,37.06-3.47,2.97-6.93,5.85-10.43,8.81-7.29,9.05-13.47,17.29-26.7,20.51-9.35,2.25-28.57-.67-35.46-2.59-28.51-7.85-48.18-21.7-69.35-36.5-19.54-8.33-39.06-16.67-58.62-25-26.02-13.4-52.1-26.78-78.13-40.1-4.65-1.14-12.13,3.87-15.62,5.23-12.81,4.68-25.62,9.39-38.44,13.99-12.77,1.81-25.59,3.72-38.4,5.55-30.38,6.05-63.49,8.39-95.07,12.66,6.05,5.56,12.15,11.11,18.22,16.67,11.2,16.2,14.09,40.57,22.13,59.92,9.78.06,19.56.15,29.31.27,9.1,5.99,18.22,11.98,27.34,17.92,4.01,8.7,8.04,17.37,12.05,26.04,4.99,5.85,9.98,11.72,15,17.57.04,13.47.09,24.4-2.29,36.5-1.01,5.45-1.96,10.86-2.94,16.24,3.93,9.69,7.8,19.35,11.77,29.03,1.82,7.27,1.64,47.71-.7,53.65-5.09,7.09-10.19,14.13-15.28,21.2-3.58-.85-7.16-1.68-10.76-2.59.39-23.7-7.17-39.07-16.94-52.74-2.48-2.24-5-4.54-7.48-6.82-8.04-6.52-15.08-15.33-19.86-25.08,1.94-4.08,3.93-8.24,5.86-12.37-3.59.29-7.18.64-10.76.98-2.37-4.76-4.76-9.54-7.15-14.36-5.79-11.32-11.81-22-19.2-31.91-9.47-10.3-18.9-20.6-28.33-30.93-20.7-25.66-41.56-51.09-59.93-79.07-8.69-13.62-17.36-27.17-26.02-40.76-2.66-4.16-7.58-14.34-6.22-21.76,2.05-11.08,15.53-29.49,23.8-34.2,9.62-2.95,19.3-5.9,28.97-8.78,12.99-4.29,26.02-8.51,39.05-12.72,12.36-2.32,24.75-4.58,37.11-6.84,23.14-5.04,48.18-9.14,72.29-12.74,1.73-4.86,3.47-9.74,5.23-14.61-.24-2.58-.45-5.17-.64-7.85,2.24-3.78,4.54-7.57,6.84-11.32,3.05-10.12,1.64-44.7-2.61-51.11-7.09-3.83-14.14-7.6-21.19-11.46.11-.29.24-.58.33-.96,1.6-2.78,3.26-5.61,4.9-8.46,8.47-9.47,16.91-18.83,25.41-28.34,4.63-13.14,9.3-26.27,13.98-39.37,3.79-4.97,7.59-10,11.39-15,2.51-5.73,4.99-11.51,7.51-17.23,1.09-3.31-1.98-8.58-2.62-12.07-1.71-9.21-.32-17.86,3.58-24.14,7.37-11.87,23.88-21.14,37.1-27,4.69-2.03,9.36-4.08,14-6.19,1.74-2.89,3.48-5.85,5.22-8.73,6.21-10.19,14.66-20.39,16.62-34.55-3.71-15.51-7.41-31.05-11.1-46.55-4.78-20.74-9.56-41.49-14.31-62.22-2.62-3.84-21.92-14.81-27.69-16.27-4.45-.18-8.87-.4-13.33-.61-2.72-.59-5.44-1.14-8.16-1.67-1.39,4.2-12.1,23.89-15.31,25.08-4.97.88-9.97,1.76-14.96,2.62-1.6,5.27-4.69,10.39-11.07,11.06-.64-.54-1.31-1.1-1.96-1.6.15-6.42,2.14-8.7,3.93-12.74-1.25-.63-2.4-1.25-3.6-1.92-.79-8.52,1.08-22.04,6.2-27.05-.76-1.52-1.35-2.7-.67-3.89.76-1.09,1.52-2.16,2.27-3.26,3.71-.18,6.72.75,8.78-1.6,2.39-4.63,4.82-9.13,7.19-13.7,7.09-4.65,17.44-1.88,27.7-3.89,2.46-.76,4.96-1.54,7.44-2.25,5.55.85,11.1,1.67,16.65,2.59,12.58,2.77,31.4,4.8,40.69,11.03,8.66,5.86,11.54,22.55,15.28,33.21,4.95,14.02,8.84,29.52,12.71,45.27,1.6,9.33,3.25,18.69,4.87,28.04,4.7,10.89,9.31,21.84,14.02,32.84,1.62,6.41,3.25,12.78,4.88,19.24,2.44,11.96-2.09,27.4,4.9,34.47.22-.23.39-.41.63-.67,9.79-3.58,14.7-11.11,16.6-22.78-.12-3.11-.21-6.26-.32-9.38,1.02-2.82,5.98-7.82,11.39-5.93,2.09,1.57,4.15,3.08,6.21,4.56,5.25,1.96,6.67.58,10.72,3.59,2.2-.2,10.38-1.81,11.37-2.22.83-2.17,2.11-3.51,3.6-4.9,10.64.11,12.34,12.56,18.91,17.24h.31c.32-.95.64-1.93.97-2.96.55-.11,1.09-.18,1.66-.32-.34.2-.68.46-1,.67.54,1.1,1.09,2.17,1.62,3.27,12.88-1.73,17,9.35,25.73,15.62.78-.28,1.51-.41,2.29-.66v1.59ZM429.05,283.59c-3.17,1.59-6.31,3.27-9.43,4.88v.32c5.85,2.04,11.69,4.08,17.55,6.19.08-2.64.15-8.34-1.27-9.8-2.29-.52-4.59-1.07-6.84-1.59ZM376.29,317.12c-3.24,1.31-6.53,2.57-9.78,3.91-9.23,5.12-17.91,12.27-23.42,21.14-5.27,8.47-9.57,37.07-4.87,49.8,1.93,3.37,3.92,6.76,5.84,10.16,2.84,7.09,5.65,14.28,8.44,21.43,2.61,3.41,5.22,6.95,7.84,10.41,4.28,6.05,17.12,29.79,24.44,30.28.86-9.71,7.89-34.2,4.87-42.01-1.29,6.5-2.59,13.02-3.9,19.55.18-9.01,2.28-16.92,3.26-23.79-1.02-5.12-1.95-10.19-2.95-15.31,2.5-3.79,5.01-7.6,7.49-11.37,2.58-7.44,1.01-16.9,3.58-25.11,2.74-5.7,5.4-11.45,8.12-17.24,2.21-6.93,4.37-13.85,6.53-20.8-11.3-4.29-22.14-9.63-35.5-11.06ZM411.79,338.55v.65-.65ZM411.46,339.6v.59-.59ZM411.13,340.56c-2.14,12.58-8.64,21.99-9.78,36.75h.34c3.16-12.25,6.31-24.53,9.43-36.75ZM396.15,403.64c-2.72,4.18-5.03,5.52-5.84,12.1h.32v-.64c1.83-3.83,3.69-7.58,5.53-11.45ZM461.28,449.28c.12.23.23.44.32.63-.09-.19-.2-.4-.32-.63Z"/>
</svg>