<?xml version="1.0" encoding="UTF-8"?>
<svg id="_レイヤー_1" data-name="レイヤー 1" xmlns="http://www.w3.org/2000/svg" viewBox="0 0 773.43 891.95">
  <defs>
    <style>
      .cls-1 {
        fill: #070001;
      }
    </style>
  </defs>
  <path class="cls-1" d="M388.86,728.65c-.95,14.97,135.11,139.63,112.67,155.75-22.44,16.1-181.98-23.66-249.16-75.04C120.98,708.85,3.56,656.01.12,649.65c-3.45-6.36,67.75-79.51,70.35-91.98-2.42-9.17.8-16.3.8-16.3,0,0,6.79-34.55,7.04-44.04.25-9.49,25.79,1.06,38.39,4.99,12.62,3.93,11.66,18.9,11.66,18.9,0,0-6.35,3.44-8.55,7.74-20.19,26.35,199.89,156.8,289.81,159.91,0,0-19.79,24.81-20.76,39.77ZM519.96,484.91c2.05,6.85,4.41,14.75-3.52,21.12-14.51,11.7-9.33,33.38-5.67,52.4,3.67,19.02-14.35,43.22-43.56,35.04-29.2-8.17-96.44-9-127.13,36.37-30.69,45.38-213.3-98.99-213.3-98.99,0,0,17.13-28.83-15.35-73.87-5.59-7.76-15.34-24.25-24.74-45.82-20.68,7.32-33.21,11.78-33.21,11.78,0,0-51.44,22.46-15.43-66.72,12.15-30.06,3.6-34,16.05-126.78,11.99-89.28,107.85-163.65,107.85-163.65,0,0-17.99-.46-31.25-9.82-13.24-9.35,41.43-34.89,41.43-34.89l40.11,14.56L208.22,0l39.42,2.17s1.18,11.94,4.95,39.03c119.6-21.62,194.81,30.73,238.3,82.09,0,0,.04,0,.04,0,0,0-.01.02-.01.02,35.42,41.85,49.82,83.03,49.82,83.03,0,0,66.74,28.77,66.38,42.26-.24,9.05-56.35,23.26-100,30.1-2.16,16.35.42,20.04.42,20.04,0,0,48.13,83.31,60.97,93.66,12.85,10.35.99,20.53-23.36,27.21-24.37,6.67-13.86,25.36-13.86,25.36,0,0,.78,16.48-6.77,24.22,1.07.15,2.11.27,3.24.49,31.04,5.99,84.63,28.1,123.6,69.57,2.62,2.79,5.01,5.12,7.26,7.21,4.69-6.36,9.1-11.1,13.55-12.82,5.49-2.11,10.43-.73,14.11,2.56,1.4-6.39,3.87-12.61,8.24-16.1,8.23-6.59,32.86-4.91,47.86,4.15,25.14,15.2,29.24,27.93,26.19,41.44-1.48,6.59-7.21,22.78-18.2,37.08,3.91,10.9,3.5,21-2.86,24.55,12.64,13.44,22.67,36.02,9.23,48.65,7.85,18.67-26.33,81.32-51.08,87.46,0,0-39.05,21.81-91.28-25.86,2.6-9.15-1.81-39.98-1.81-39.98,0,0-21.44-75.13,4.57-97.33,7.62-6.51,14.21-14.44,20.12-22.53-9.6-15.97-18.38-32.15-29.49-42.63-19.57-18.46-57.43-46.48-87.8-50.21ZM713.53,536.73c8,6.54,12.74,8.57,12.74,8.57,13.77,8.31,32.3,10.13,33.33,5.61,1.01-4.5-12.98-18.08-23.49-21.87-10.52-3.8-21.54-5.34-21.54-5.34,0,0,3.98,7.53-1.04,13.02ZM750.72,797.09c4.03-12.14,5.38-36.39-6.74-32.35-26.95,52.57-87.62,31-115.92,14.82-28.32-16.17-25.62-29.65-25.62-29.65-18.75-14.35,12.16,103.78,14.83,133.44,40.45,20.23,141.55,0,153.68-12.14,12.13-12.12-24.28-61.98-20.23-74.12Z"/>
</svg>