<?xml version="1.0" encoding="UTF-8"?>
<svg id="_レイヤー_1" data-name="レイヤー 1" xmlns="http://www.w3.org/2000/svg" viewBox="0 0 681.83 681.88">
  <defs>
    <style>
      .cls-1 {
        fill: #231815;
        fill-rule: evenodd;
        stroke: #231815;
        stroke-linejoin: bevel;
        stroke-width: .25px;
      }
    </style>
  </defs>
  <path class="cls-1" d="M280.79,681.75c-24.91.28-46.89-15.13-65.14-50.37,44.79,12.34,75.43,3.47,75.01-51.99v-188.21H102.5c-55.48-.41-64.35,30.23-52.03,75.05C15.22,447.94-.21,426.01.13,401.09c.21-16.96,7.71-35.29,21.18-54.74l3.99-5.39-3.99-5.43C7.84,316.09.34,297.76.13,280.8c-.34-24.92,15.09-46.86,50.34-65.14-12.32,44.82-3.45,75.47,52.03,75.05h188.17V102.51c.41-55.48-30.23-64.35-75.01-51.99C233.9,15.27,255.88-.15,280.79.13c16.96.21,35.29,7.72,54.73,21.23l5.4,3.94,5.44-3.94C365.8,7.85,384.08.34,401.04.13c24.91-.28,46.89,15.14,65.14,50.38-44.79-12.35-75.43-3.49-75.01,51.99v188.21h188.17c55.48.41,64.38-30.23,52.03-75.05,35.24,18.28,50.67,40.22,50.34,65.14-.21,16.96-7.71,35.29-21.18,54.74l-3.99,5.43,3.99,5.39c13.47,19.45,20.98,37.77,21.18,54.74.34,24.92-15.1,46.85-50.34,65.14,12.35-44.82,3.45-75.47-52.03-75.05h-188.17v188.21c-.41,55.46,30.23,64.34,75.01,51.99-18.25,35.24-40.22,50.66-65.14,50.37-16.96-.21-35.24-7.71-54.69-21.24l-5.44-3.94-5.4,3.94c-19.44,13.53-37.77,21.03-54.73,21.24Z"/>
</svg>