<?xml version="1.0" encoding="UTF-8"?>
<svg id="_レイヤー_1" data-name="レイヤー 1" xmlns="http://www.w3.org/2000/svg" viewBox="0 0 903.21 270.62">
  <defs>
    <style>
      .cls-1 {
        fill: #070001;
      }
    </style>
  </defs>
  <path class="cls-1" d="M35.87,60.39c31.43-4.46,50.31-.07,50.31-.07C142.55,6.38,200.11,14.97,207.36,14.63c7.26-.34,13.12,3.24,17.85,3.59,4.72.35,20.72-1.83,27.05-.54,6.33,1.27,15.42,6.69,21.52,6.12,6.11-.57,8.3.47,13.36,2.08,5.07,1.62,13.02,3.83,20.15,4.06,7.13.24,20.83,6.58,28.78,5.79,7.94-.8,32.59-10.22,38.58-4.22,5.98,6,50.4,20.32,89.89,26.47,39.49,6.15,172.61-3.61,183.9-6.13,11.29-2.53,54.7-9.96,73.36-10.4,14.03-.33,72.09-37.5,115.95-41.25,14.36-1.23,25.13,3.75,31.22,6.17,23.23,9.23,30.24,27.75,26.44,47.24,0,0,4.81,20.72,7.55,45.83,2.74,25.1-18.23,41.2-33.21,49.01-17.4,9.08-72.1,19.95-83.63,25.7-11.98,5.98-18.79,15.99-18.79,15.99,0,0,3.91-1.6,15.32-4.71,3.34-.91,11.19-2.25,20.84-3.76.23-1.21.66-2.1,1.27-1.97.55.11,1,.75,1.35,1.56,1.36-.22,2.77-.44,4.2-.66.25-.88.64-1.46,1.13-1.36.43.08.78.48,1.08,1.03,1.73-.26,3.47-.52,5.22-.79.25-.75.61-1.24,1.07-1.14.38.07.69.39.97.84,1.98-.3,3.96-.6,5.96-.9.21-1.45.66-2.6,1.37-2.46.64.13,1.14.99,1.52,2.02,1.1-.17,2.21-.34,3.3-.51.19-1.54.66-2.8,1.39-2.64.69.14,1.21,1.09,1.58,2.2,1.29-.2,2.56-.4,3.81-.6.26-.94.65-1.59,1.17-1.48.45.09.83.53,1.14,1.12,1.1-.17,2.21-.35,3.27-.52.26-.84.62-1.39,1.12-1.3.39.08.74.45,1.03.96,1.42-.23,2.78-.45,4.09-.68.14-1.76.65-3.3,1.44-3.14.77.16,1.33,1.34,1.72,2.6,1.04-.18,2.03-.35,2.98-.52.23-1.26.67-2.2,1.3-2.07.55.11.99.75,1.34,1.57,1.39-.27,2.63-.52,3.68-.75.14-1.73.64-3.27,1.43-3.11.72.14,1.25,1.16,1.63,2.31.12-.05.23-.08.34-.12,8.41-3.1,11.62,10.73-.83,13.01-12.43,2.29-93.97,17.63-177.7,40.91-16.33,4.54-36.37,8.13-58.42,10.86-12.93,11.68-41.8,28.44-78.31,34.71,0,0-7.35-5.07-.43-21.65,1.34-3.22,0-5.38-1.92-7.13-73.27,2.33-147.65-2.68-178.38-13.56-54.78-19.41-61.34-28.51-66.97-30.24-5.65-1.74-9.68-5.54-37.41-25.49-27.72-19.95-36.45-48.06-80.29-68.26-24.79-11.42-83.35-14.36-83.35-14.36-12.28,72.98-41.31,86.3-53.89,104.14-12.56,17.83-22.13,17.7-18.66,12.41,20.06-28.3-5.55-88.55-7.04-99.03-1.48-10.48,7.96-18.76,7.96-18.76-16.01,5.16-14.6-10.73-20.48-11.3-5.87-.58-8.29,2.52-10.02,2.17-1.73-.34,4.43-14.77,35.6-19.19Z"/>
</svg>