<?xml version="1.0" encoding="UTF-8"?>
<svg id="_レイヤー_1" data-name="レイヤー 1" xmlns="http://www.w3.org/2000/svg" viewBox="0 0 769.65 838.88">
  <path d="M766.18,344.89c.66-.33,1.32-.67,1.98-.98-4.47-1.66-8.9-3.32-13.35-4.94.24-1.37-.04-.59.99-1.97-4.28-3.47-8.57-6.92-12.84-10.4,6.81,1.13,12.06,3.08,20.26,2.98v-.5c-10.56-3.97-21.09-7.91-31.64-11.88-.16-.31-.33-.65-.49-.98,4.46.16,8.91.33,13.36.5,3.82.17,11.44,1.03,12.85-1.49h1.48c-1.48-.34-2.97-.66-4.46-1v-.48c.33-.66.67-1.31.98-1.97,2-.18,3.97-.34,5.92-.5v-.5c-2.92-3.01-6.97,1.92-11.85.99-6.9-1.65-13.83-3.32-20.77-4.96-3.45-2.95-6.89-5.91-10.35-8.89-4.46-.98-8.91-1.98-13.35-2.97-3.3-2.47-6.59-4.95-9.89-7.39-1.48-.18-2.96-.35-4.46-.5-4.29-5.28-8.57-10.55-12.82-15.83-2.69-2.41-9.04-2.41-11.89-4.45-3.45-2.78-6.92-5.59-10.38-8.38-1.3-2.3-2.62-4.62-3.93-6.93-4.63-2.31-9.27-4.61-13.84-6.92-5.37-3.97-11.96-16.83-13.35-24.22h-2.49v-2.95c-8.45-.8-9.21-8-14.82-11.38-5.27-1.64-10.54-3.3-15.81-4.94-1.11-1.77-1.45-2.03-1.01-4.44-1.64-.65-3.29-1.33-4.93-1.97.23-6.98-6.41-9.2-3.44-14.35-5.77-8.73-11.58-17.46-17.31-26.19-4.47-1.96-10.12-4.08-14.84-6.41.82-1.65,1.64-3.31,2.46-4.96-4.28-.14-6.49-1.13-9.37-2.47-1.33-6.58-2.65-13.18-3.98-19.76-2.79-.35-5.6-.65-8.37-1-2.64-4.94-5.27-9.87-7.94-14.84-4.24-2.4-12.1-6.05-18.27-8.38-.82.31-1.66.65-2.49.98,4.03,3.49,8.63,3.97,10.88,9.39v1.49c-.31.49-.67.98-.98,1.49-5.24-4.12-9.05-8.14-18.79-7.93-3.8,4.14-7.57,8.24-11.36,12.37-15.33,7.74-30.65,15.49-45.97,23.23,7.23-17.7,20.83-24.6,35.09-35.09,12.65-9.33,20.35-24.96,34.6-32.63,10.85-2.3,21.74-4.6,32.63-6.91,14.97-5.6,29.97-11.21,44.94-16.8,20.88-6.81,43.99-18.54,70.7-13.36.16,1.3.33,2.64.5,3.95,17.16,6.95,28.66,22.3,48.43,25.21,1.66-1.59,2.65-2.36,3.45-4.93-3.82-5.7-10.46-11.85-18.78-12.86-.49-.65-.99-1.32-1.49-1.98.19-.49.35-.96.5-1.48,9.71.66,20.98,3.33,26.7,8.41,2.58,2.28,3.12,6.17,5.94,8.39.98-.82,1.97-1.64,2.98-2.47,4.09,6.51,4.99,10.71,14.79,11.87-.46-2.61-.57-1.94,1.51-3.96-7.15-17.57-22.51-35.29-37.56-44.49-4.44-1.47-8.91-2.95-13.35-4.43-6.3-4.03-9.6-10.16-18.29-12.36-15.84-4.04-34.72,1.93-49.42,4.44-37.39,6.39-71.72,6.16-105.78,15.31-8.18,2.21-15.6,8.29-22.24,12.38-20.66,12.66-38.45,25.97-56.84,40.51-10.87,9.9-21.74,19.76-32.62,29.67-13.34,11.19-26.7,22.39-40.04,33.6-6.26,5.93-12.53,11.86-18.78,17.81-13.35,9.12-37.13,5.78-49.45,15.31-8.27,6.41-10.69,15.96-16.79,24.71-3.12,4.47-9.93,5.02-12.36,10.39-2.64,8.08-5.26,16.15-7.89,24.22-39.21-13.37-81.62-15.98-122.08-28.18-10.05-5.77-20.13-11.53-30.16-17.29-2.95-6.13-1.03-15.77-2.47-23.23-3.23-16.48-6.4-32.77-11.37-46.47-1.56-.97-1.67-1.34-4.46-1.48-6.32,10.47-.75,19.94,0,32.63-16.07-13.53-1.89-31.85-1.48-50.42-.98-.33-1.97-.66-2.96-.98-3.3,5.42-6.61,10.87-9.89,16.32-.48.32-.98.63-1.48.97-.31-6.59-.65-13.17-.98-19.77v-.98c-.67-.16-1.33-.33-1.98-.49-10.71,8.4-2.6,32.25-4.95,46.95-.99,5.77-1.98,11.53-2.98,17.31,2.65,5.58,5.29,11.19,7.92,16.79,4.33,10.82,5.9,23.01,12.35,31.65,8.9,11.87,31.69,15.32,45.99,21.74,9.21,5.61,18.42,11.19,27.67,16.81,18.57,10.97,48.7,24.46,73.14,27.68v.49c-4.25,10.78-15.68,52.11-23.73,55.86-.35,1.95-.61,1.32,1.01,2.49-2.15,1.79-4.28,3.61-6.43,5.43v4.46c1.3,1.3,2.63,2.61,3.94,3.95-10.11,9.35-7.35,21.32-10.87,36.57-12.19,1.35-25.72,4.01-36.1,7.91-1.96-1.15-3.93-2.31-5.92-3.48-1.89,1.51-2.57,2.87-2.96,5.93-2.64-.64-5.26-1.31-7.92-1.96-9.05,1.26-34.71,12.27-40.02,17.8-.65,2.62-1.3,5.27-1.96,7.91-1.6,3.66-9.5,6.89-12.87,8.9-22.66,13.39-69.53,27.8-79.58,51.9-11.72,28.09,13.94,73.47,20.75,95.88,4.62,15.98,9.24,31.99,13.86,47.96,9.13,23.39,18.4,48.89,24.71,74.14,2.47,22.39,4.95,44.81,7.42,67.22,1.15,6.54-.79,9.34,1.49,15.3,4.95,13.06,12.06,27.44,21.25,36.59,6.41,6.4,18.64,11.46,20.76,21.73,6.75,1.66,13.5,3.29,20.27,4.95h34.59c2.27.5,7.15,2.89,10.38.98,2.32-1.36,3.34-7.26,3.95-10.37-8.44-11.25-41.6-28.84-45-39.04-7.63-23.04,22.05-61.98-8.4-66.24-.33.98-.64,1.97-.98,2.96.98,1,1.96,1.98,2.96,2.98-1.02,2.96-2.91,1.65-5.94,1,.03-3.36.53-4.84,1.48-6.94-.31-.17-.65-.33-.97-.48-2.83.65-5.61,1.31-8.42,1.96-.15.33-.33.66-.48,1,2.13.65,4.27,1.32,6.41,1.97-.34,1.49-.65,2.96-.98,4.44-.84-.34-1.67-.65-2.47-.99.04,2.35-1.93,3.59-2.96,6.43-.34.17-.67.34-.99.5.16-1.81.33-3.61.48-5.44-1.97-1.48-3.94-2.95-5.92-4.44-1.83-4.27,1.3-9.27,1.98-12.83-.34-16.81-.65-33.62-.99-50.43-.31-8.9-.67-17.79-.99-26.7-2.15-13.18-4.29-26.36-6.43-39.54-.16-9.56-.33-19.11-.48-28.67-4.01-17.79-13.36-37.7-23.24-50.91-.16-.49-.34-.99-.5-1.48,18.99-11.46,52.39-5.18,79.6-4.94-.18,40.05-.34,80.06-.5,120.12-.58,3.11-2.72,6.14-3.46,8.4v24.22c-.46,2.08-2.61,5.66-1.48,9.39,1.4,4.61,6.74,5.68,8.4,10.86,1.81.18,3.63.35,5.43.5,1.63,5.93,1.77,11.85.99,18.78,3.26,1.26,5.5.66,8.42-.48.54-4.96-1.43-11.34,1.47-16.81v-1c25.37,17.64,50.76,35.27,76.09,52.9,31.63,19.89,69.12,33.06,100.87,52.88,17.28,12.02,34.56,24.07,51.88,36.08,22.8,7.55,52.86,11.14,79.57,6.42,16.33-2.87,29.47,1.35,42.02-3.95.99-5.11,1.97-10.22,2.96-15.33v-.5c-7.74-2.81-15.49-5.61-23.24-8.41-21.86-6.68-41.35-9.25-55.33-23.22-8.8-8.79-10.72-27.37-21.28-34.13-.67-.74-1.47-2.91-1.96-.96-2.61.37-.69.29-2.98-1.5-.49.66-1.01,1.31-1.48,1.98-1.6-1.45-1.93-2.23-4.46-2.98-2.96,2.17-7.55,3.51-9.37,6.43-1,2.63-2,5.27-2.97,7.91-.33-.5-.67-.98-.99-1.48-.97,3.12-1.97,6.27-2.95,9.38-2.3.54-3.99.04-10.41,0-.65,2.82-1.32,5.62-1.97,8.41-.31.16-.65.34-.96.5.13-3.63.31-7.24.47-10.87-1.48.33-2.96.65-4.46,1,1.09.84,1.35.88,3.48.97v3.48c-1.85,1.36-4.51.37-6.44-1.01-2.43-2.14-5.91-7.9-7.89-10.86-1.2-1.75-5.29-2.62-6.93-3.96v-2.95c1.64-.16,3.27-.34,4.92-.5.18-.34.35-.65.52-.98-.66-.51-1.3-.99-1.97-1.48-2.28.09-2.12-.1-2-3.48-1.14-.31-2.3-.64-3.44-.97v1.97c-.99-.17-2-.33-2.98-.49.65-1.32,1.3-2.64,1.98-3.95-2.5-3.44-5.41-5.39-9.89-6.92.49-.98.99-1.98,1.48-2.96-17.28-12.98-27.18-34.26-44.49-47.48-6.81-5.17-20.34-8.44-24.22-16.28-1.33-2.59,5.99-13.61,5.45-20.78,2.49-.96,4.93-1.96,7.42-2.95.49-3.95.99-7.91,1.49-11.87,3.6-1.64,7.23-3.27,10.86-4.93,2.49-3.58.41-8.42,3.97-10.87,3.61-1.32,7.25-2.64,10.87-3.96,2.3-3.13,4.62-6.26,6.93-9.39h12.35c10.2-5.43,20.45-10.87,30.65-16.3,4.57-6.18,26.67-12.72,40.02-13.35,11.51-17.71,14.37-11.34,36.59-8.87,1.96-3.12,1.98-6.79.49-10.9.82-.16,1.64-.31,2.46-.5.18-9.38.34-18.77.5-28.16-3.75-1.95-9.18.77-14.81-.5-6.47-1.45-7.77-7.28-12.88-9.39-2.95-.66-5.94-1.31-8.89-1.97-2.96-4.62-5.94-9.25-8.91-13.82-11.26-14.29-24.39-27.38-35.08-42.52-8.03-11.39-27.63-48.44-41.53-50.44,2.65-11.17-4.18-27.73,1.49-36.57-2.96-5.72-6.72-12.48-9.88-17.78,2.36-6.07-1.37-9.72,0-17.3,1.52-8.53,7-19.15,3.94-28.68,6.59-3.95,13.18-7.91,19.77-11.86,10.48-7.98,14.81-20.85,33.14-21.25-3.17,20.29-16.63,31.05-22.27,48.43-4.67,14.5-2.39,29.73-16.79,35.12-.49.65-.98,1.3-1.48,1.95,1.64-.34,3.3-.65,4.95-.98.16.17.33.33.49.49-1.48,1.64-2.96,3.29-4.44,4.94.16.34.34.67.49.98.35.16.65.34.99.51.83-.82,1.66-1.65,2.47-2.48-.33.98-.65,1.97-.99,2.97,8.48-4.08,10.61-16.68,15.81-24.23,5.76-7.24,11.53-14.48,17.31-21.74,3.33-5.2,3.34-13.33,8.91-16.32.31-.32.65-.66.96-.99-6.77,15.8-31.5,57-24.22,73.17h.49c16-13.44,18.65-44.74,36.11-58.35.15.18.31.35.49.5-7.23,21.27-27.16,44.89-21.26,73.16,7.01-5.92,8.45-17.05,15.81-22.73.18.16.34.33.49.48-2.11,7.76-4.29,15.49-6.41,23.23.72,4.44,4.13,5.55,4.44,11.86,5.22-5.17,8.33-20.63,10.87-27.68.65-.48,1.3-.96,1.98-1.47.31,8.14-1.21,15.23-2.47,22.23v41.04h.49c.65-2.83,1.3-5.63,1.98-8.43v-.98c.98,1.64,1.97,3.29,2.95,4.94.34.19.67.35,1.01.49,3.27-11.61,8.98-22.92,9.37-36.57v11.87c0,11.49.58,23.67,5.46,30.64v.98c2.13-7.72,4.28-15.47,6.41-23.22,9.32,8.25,4.16,32.17,9.89,43.98.19.35.33.65.5,1,.83-10.03,1.64-20.1,2.46-30.15h.49c2.66,18.67,9.21,28.06,21.26,36.09.18-15.98.34-31.97.49-47.98.34-.14.65-.31.99-.49,9.4,19.62,18.79,39.23,28.18,58.84,2.81.65,5.61,1.33,8.41,1.97h.49c-1.26-8.15-11.43-10.96-14.33-18.29-1.6-4.04,1.25-10.24.49-12.85-1.64-8.41-3.29-16.82-4.95-25.21,5.94,10.88,11.87,21.74,17.78,32.63.34.15.69.32,1.01.49.15-.34.33-.66.5-.99-.82-2.62-1.66-5.28-2.49-7.91v-.5h1.49c5.24,4.52,9.4,10.51,16.81,12.86-2.84-3.57-6.43-5.37-7.4-10.87.67.32,1.29.66,1.96.99-1.29-2.32-2.63-4.62-3.94-6.92-.31-1.74-.66-.51.97-1.98-.49-1.32-.97-2.65-1.48-3.96-1.24-1.1-.27-.65-1.97-.48-1.4-2.29-2.09-3.83-1.97-7.93.65.99,1.32,2,1.97,2.96h.49c2.31-2.81-2.17-11.7.5-17.3v-1c8.14.61,8.89,9.84,7.92,17.82.47-.67.99-1.32,1.47-1.96,4.35.84,6.3,3.3,7.42,7.41.33.15.67.31.98.48h.5c-.5-1.67-.98-3.31-1.48-4.95,5.5,4.1,9.23,15.68,11.87,22.24.3.17.65.33.99.51-5.42-22.36-10.72-45.15-20.76-63.27,2.54,2.13,34.36,42.35,34.58,43.5.16-.66.34-1.34.5-1.99,2.81,1.82,5.6,3.63,8.42,5.44-3.16-4.29-7.28-6.51-7.43-13.82-1.36.58-.82.32-1.98.47-.31-.82-.66-1.65-.98-2.47.67.17,1.32.33,1.97.5-2.8-6.32-3.56-7.46-5.94-14.84v-.48c1.66.18,3.29.33,4.94.48-4.1-10.21-8.23-20.43-12.36-30.63-2.13-3.31-4.28-6.6-6.43-9.89,7.74,7.25,15.5,14.5,23.24,21.74-.18-.5-.34-.99-.49-1.48,3.37,1.69,4.86,3.59,7.42,5.93-3.85-19.31-19.17-28.24-18.8-53.38,3.81,5.77,7.59,11.53,11.39,17.29,11.51,15.35,31.93,34.51,39.03,52.41,1.66,1.47,3.3,2.93,4.96,4.43-.5-.98-1.01-1.98-1.48-2.96.47-.17.98-.33,1.48-.49,1.75,1.3,2.15,2.66,4.46,3.45-.68-1.14-1.32-2.29-2-3.45h.99c.33-.33.66-.67,1-.98,4.36,2.26,10.81,4.83,10.88,12.34,1.44-.98,2.95-1.98,4.43-2.95.23-1.71-.19-2.24-.99-3.96.33-.34.65-.65.99-1h0c.33-.31.67-.65,1.01-.98,6.26,4.09,10.96,10.5,18.27,13.34-.84-1.49-13.29-18.06-13.84-18.29-.33-.5-.65-.98-.98-1.49.33-.33.65-.66.98-.98,3.87,2.69,7.06,5.62,8.41,10.87.31.17.64.32.98.49-.16-.67-.34-1.31-.5-1.97,1.18.83,2.32,1.65,3.46,2.48-1.77-6.76-11.21-10.98-4.93-15.33.49.82.99,1.64,1.47,2.47,2.72-3.43-7.21-17.47-9.86-21.74v-.5h.49c9.11,4.87,13.69,15.36,27.18,15.34v-.5c-3.21-.73-7.36-1.45-8.9-3.96-.48-1.93-.05-.88,1.48-2.96-3.23-4.37-8.94-7.76-10.87-12.86.64.16,1.3.35,1.96.5-.49-.64-.98-1.32-1.48-1.99.16-.3.34-.65.5-.98,12.7-1.69,18.22,10.09,26.21,13.85-.65-1.65-1.32-3.3-1.98-4.94,4.58-.65,9.74-.67,10.38.5.34.33.67.66.99.98.49-.65.97-1.32,1.5-1.97-9.12-12.1-24.29-18.78-36.11-28.16-10.32-8.23-18.34-25.15-24.7-37.1,8.42,2.89,12.89,9.94,19.26,14.84,12.53,8.72,25.07,17.47,37.56,26.21,8.56,6.15,8.97,12.65,23.73,12.34-.5-1.32-.98-2.63-1.47-3.93v-.51c4.59.82,9.21,1.64,13.82,2.47-5.65-17.78-12.92-13.63-26.68-21.25-4.27-3.62-8.56-7.25-12.84-10.87v-1.96c14.14-.77,26.7.57,40.53,2.45v-.48c-3.14-3.89-9.27-7.11-15.83-7.43v-2.45c1.17-.33,2.31-.67,3.45-.98.19-.34.34-.66.5-.99-4.7-3.29-10.81-3.51-14.33-7.91h-.98v-.5c24.25-2.15,42.14,11.29,58.8,19.27.34-.65.65-1.31.99-1.96,5.62,1.96,11.21,3.95,16.81,5.94,3.74,1.58,5.13,5.23,9.4,6.41-1.15-1.32-2.31-2.62-3.46-3.95ZM263.5,658.25c-6.25-2.31-12.53-4.62-18.78-6.93-1.82-6.79-2.64-14.44-2.46-23.71,8.38,6.23,17.48,16.98,21.23,27.67v2.97Z"/>
  <path d="M517.06,427.91c-.31-.3-.65-.66-.99-.96-.16.3-.34.66-.49.96h1.48Z"/>
  <path d="M764.21,329.56h-.99c.88.43.12.49.99,0Z"/>
  <path d="M626.82,416.05h-1.01c.83.46.12.49,1.01,0Z"/>
  <path d="M425.63,451.65c.33.17.65.33.99.48-.08-3.43-.77-5.69-2.47-7.4.48,2.3.99,4.6,1.48,6.92Z"/>
  <path d="M613.47,420.48c-.18-.96-.34-1.96-.52-2.94-.82-.5-1.64-.99-2.45-1.49-.18.35-.34.66-.52,1,1.17,1.15,2.32,2.31,3.48,3.44Z"/>
  <path d="M385.61,763.52c.15.35.3.66.49,1.01,1.47.3,2.96.65,4.44.98-1.14-2.32-2.45-2.66-4.44-3.95-.19.65-.34,1.31-.49,1.96Z"/>
  <path d="M375.22,746.23h-1.48c.18.32.34.66.5,1.01.31-.35.64-.69.98-1.01Z"/>
  <path d="M396.95,399.25h-.98c.88.44.12.48.98,0Z"/>
  <path d="M381.15,759.08c-.34-1.14-.68-2.32-.98-3.46-.35,1.14-.68,2.32-1.01,3.46h1.98Z"/>
  <path d="M658.44,256.9h-.98c.86.45.12.47.98,0Z"/>
  <path d="M367.32,738.82h-1.51c.16.32.33.66.5.99.33-.33.65-.67,1.01-.99Z"/>
  <path d="M364.35,315.72c-.16.33-.34.64-.52.98,1.49-.63.61.02,1.49-.98h-.98Z"/>
  <path d="M384.6,761.56c-.67-.83-1.3-1.65-1.97-2.48.18.83.33,1.65.48,2.48h1.49Z"/>
  <path d="M393.52,766.51h-1.01c.88.44.14.47,1.01,0Z"/>
</svg>