<?xml version="1.0" encoding="UTF-8"?>
<svg id="_レイヤー_1" data-name="レイヤー 1" xmlns="http://www.w3.org/2000/svg" viewBox="0 0 817.16 739.03">
  <defs>
    <style>
      .cls-1 {
        fill-rule: evenodd;
      }
    </style>
  </defs>
  <path class="cls-1" d="M815.52,371.13c-1.97-4.49-12.67-12.57-18.93-15.52-4.08-1.92-12.88-5.29-23.86-5.68-6.04-3.79-15.62-9.43-26.23-12.49-7.99-2.32-13.81-30.04-13.81-30.04,0,0,8.22-7.88-2.85-13.92,3.78-5.86,3.54-11.81-3.49-13.02,1.3-4.22-2.99-7.89-2.99-7.89,0,0,8.19-3.83,3.83-7.87-4.3-4.06-9.96-6.67-9.96-6.67,0,0,1.19-4.62-2.2-8.04-3.4-3.39-4.08-7.29-4.08-7.29,0,0-1.73-2.91-3.37-1.04.9-6.09-2.54-9.91-8.19-7.76-.45-9.5-7.63-48.32-11.56-70.86-3.98-22.52-7.31-43.99-14.72-61.12-7.39-17.14-4.65-29.23-9.05-47.29-4.39-18.04-9.41-43.37-23.1-50.1-13.68-6.74-31-4.92-63.59-1.21-32.63,3.69-122.34,14.99-155.72,21.24-33.35,6.18-107.05,45.15-107.05,45.15,0,0-35.47,5.41-53.12,10.11-2.8-9.13-5.06-17.57-18.17-21.66-13.16-4.13-13.02-14.56-26.18-21.07-13.14-6.51-19.24-7.04-29.09-8.54-9.85-1.46-26.9-6.39-34.79-4.93-7.87,1.45-12.78,5.02-17.57,11.47-4.79,6.46-3.24,32.83,5.46,43.77-11.88,5.26-14.15,6.03-25.15,7.19-11.03,1.12-46.04,18.45-61.17,28.32-15.1,9.82-25.52,14.44-33.25,20.63-7.69,6.15-29.17,23.12-18.76,43.71,10.43,20.63,11.75,35.24,31.62,36.55,19.86,1.34,46.7-.96,64.79-2.92,18.08-1.98,50.31-.81,67.45-5.81,17.17-5,24.21-10.62,30.56-10.92-5.37,30.96-4.44,45.64-13.59,71.25-9.12,25.62-10.21,71.91-11.3,93.29-1.04,21.43-20.12,29.17-15.35,65.57,4.76,36.41,45.01,47.96,74.21,94.82,9.48,15.16,11.81,12.33,11.27,27.61-.53,15.3,2.15,28.49-5.82,28.7-7.93.21-26.82,2.26-31.86,7.65-5.04,5.4-2.59,12.77-.35,15.39,2.31,2.6-6.53,7.13-2.17,11.51-2.79,4.69-2.07,6.97-.22,9.03,1.86,2.1.98,5.85.98,5.85,0,0-7.67-.79-9.65,6.48-2.02,7.28,5.78,14.32,10.64,17.94,4.83,3.7,10.05,9.4,8.32,14.81-1.8,5.42-3.49,9.32-.39,18.4,3.09,9.06,7.51,20.61,14.31,25.13-1.27,3.2-.4,6.38,5.99,11.87,6.35,5.46,37.79,23.72,65.65,16.44,27.82-7.27,45.66-22.38,54.43-39.25,8.77-16.88,7.78-36.19,7.78-36.19,0,0,5.97,1.64,7.38-2.51,1.37-4.15.27-1.88,2.4-5.23,2.1-3.37,3.31.03,2.97-3.52-.29-3.6-1.02-.72-.29-3.6.71-2.81.61.25.71-2.81.03-2.99,5.13-1.5,4.62-4.38-.52-2.92-.71-4.07-.71-4.07,0,0,9.54-1.99,12.54-10.66,10.14-8.94,3.85-15.63,3.85-15.63,0,0,2.52-11.59,7.88-17.04,5.37-5.44,9.22-8.8,7.31-16.58,6.49-9.27,2.25-19.61,2.25-19.61,0,0,11.81-11.4,9.68-23.64,7.79-5.27.83-14.3.83-14.3,6.65-6.54-2.58-11.22-2.58-11.22,0,0,3.88-3.39,1.2-6.85,7.02-4.51,7.7-14.24,6.06-20.26,0,0,19.95-23.37,33.29-32.86,13.37-9.57,33.07-27.44,33.07-27.44,0,0,17.69-5.47,35.4-14,17.76-8.5,71.04-37.07,93.1-51.74,22.06-14.67,48.63-24.11,48.63-24.11,0,0-.72,20.85-1.85,30.37-1.26,10.5,1.01,29.88,28.55,22.63,4.94-1.28,10.84.41,14.63-6.78,13.63,5.69,41.2,1.8,54.15,4.17,15.71,2.84,40.04,1.68,45.43.39,8.72-1.13,6.9-5.02,4.93-9.48ZM474.75,341.99c-16.08,5.86-27.23,9.28-39.89,22.61-12.71,13.36-24.71,20.25-24.71,20.25,0,0-2.52-9.46-11.2-8.86-3.87-3.5-8.65-3.32-8.65-3.32-2.31-8-13.2-6.7-13.2-6.7.88-8.85-8.28-11.47-12.21-9.86-2.48-3.78-7.56-3.8-9.16-2.59-8.39-4.87-16.36-2.28-18.49.8-3.73-.83-7.12.66-7.12.66,0,0-3.14-23.21-6.03-36.23-2.85-13.01-6.55-40.88,10.56-59.84,17.13-18.89,23.4-24.19,23.4-24.19,0,0,66.74-13.5,69.07-82.67,11.58-2.65,26.97-10.74,29.59-16.28,17.13-3.34,46.77-12.71,71.22-24.18,24.37-11.47,52.39-24.8,62.84-26.97,3.36,31.29,1.12,59.62,11.34,83.69,10.2,24.03,29.26,47.12,31.73,57.81-7.33,9.43-10.36,19.85-15.51,23.17-5.14,3.27-15.06,11.67-33.1,23.53-18.09,11.86-52.18,29.82-73.04,44.61-20.85,14.72-21.32,18.72-37.45,24.54ZM620.67,307.16c-14.11,8.51-40.39,18.19-40.39,18.19,0,0,17.61-16.3,27.49-24.96,9.94-8.64,17.22-13.2,22.06-11.35,4.82,1.86,17.18,2.1,17.18,2.1,0,0-12.18,7.55-26.34,16.02Z"/>
</svg>