<?xml version="1.0" encoding="UTF-8"?>
<svg id="_レイヤー_1" data-name="レイヤー 1" xmlns="http://www.w3.org/2000/svg" viewBox="0 0 666.33 842.69">
  <defs>
    <style>
      .cls-1 {
        fill: #221f20;
      }
    </style>
  </defs>
  <path class="cls-1" d="M666.33,708.07v-13.03s-221.46-58.62-280.09-255.67h-94.44s35.97,81,35.99,175.36l-38.44-7.62,78.16,91.19,78.18-91.19-36.84,7.28c-.53-22.65-2.66-71.19-11.2-96.86,0,0,53.73,84.69,143.3,131.91,0,0-50.97-10.67-111.44-12.51l-62.82,72.1-52.78-59.97c-9.43,2.9-18.46,6.36-26.75,10.57,9.77-164.74-120.58-329.46-39.4-494.21l65.26,40.97L262.02,0,89.02,123.52l71.14,10.62c-112.12,220.96,196.23,441.91,76.8,662.87-4.57,7.79-9.48,14.9-14.66,20.72l16.84,24.97s186.19-136.25,427.19-134.62h0ZM92.91,400.92l44.27,4.51-79.22-93.82,7.43,70.62-7.43-70.62L0,419.85l39.57-12.7c-1.52,145.93,223.37,179.92,208.88,332.27,31.21-153.89-155.34-200.13-155.54-338.5h0Z"/>
</svg>