<?xml version="1.0" encoding="UTF-8"?>
<svg id="_レイヤー_1" data-name="レイヤー 1" xmlns="http://www.w3.org/2000/svg" viewBox="0 0 811.22 737.12">
  <defs>
    <style>
      .cls-1 {
        fill: #221f20;
      }
    </style>
  </defs>
  <path class="cls-1" d="M238.04,289.03c-5.02,243.41,138.51,443.06,138.51,443.06,47.4-15.72,94.76-31.45,142.12-47.16-50.47-152.12-56.85-313.98-20.5-467.46-9.85,316.54,123.7,519.65,123.7,519.65,47.38-15.72,94.78-31.43,142.12-47.16-57.83-174.32-57.83-361.41-1.98-534.05,16.39,5.33,32.8,10.62,49.22,15.95-28.65-51.52-52.38-108.44-69.84-169.92.24-.45.45-.89.69-1.34-.34.12-.65.24-.96.36-.09-.33-.17-.65-.27-.96-.24.43-.45.88-.65,1.32-59.72,23.03-118.95,53.17-176.35,90.5,18.56,6.01,37.15,12.01,55.7,18.01-48.37,149.44-61.02,308.16-37.14,463.25-74.86-143.49-69.05-411.51-69.05-411.51l-144.04-41.05c-48.72,159.41-57.16,328.74-24.25,492.62-113.59-194.15-88.9-397.62-88.9-397.62l-108.78-31c-38.39,125.59-43.67,259.34-14.93,388.05C27.56,459.16,0,273.53,0,273.53c2.87,236.77,152.84,372.81,152.84,372.81,35.8-11.86,71.56-23.73,107.34-35.61-34.71-104.57-41.81-215.26-22.13-321.7h0Z"/>
</svg>