<?xml version="1.0" encoding="UTF-8"?>
<svg id="_レイヤー_1" data-name="レイヤー 1" xmlns="http://www.w3.org/2000/svg" viewBox="0 0 768.24 863.42">
  <defs>
    <style>
      .cls-1 {
        fill: #040000;
        fill-rule: evenodd;
      }
    </style>
  </defs>
  <path class="cls-1" d="M422.08,775.08c-.93,11.28-1.87,22.64-2.82,33.97,2.17,12.05,7.68,22.71,11.9,32.82,2.43,5.91,8.43,15.98,2.26,21.54-13.81-2.2-37-26.55-42.5-37.94-7.85-16.3-6.13-36.62-15.28-50.4-2.09.72-4.17,1.45-6.25,2.22-5.44-10.07-18.67-22.2-15.88-37.33,5.86-3.81,11.71-7.62,17.58-11.36,2.84-.77,5.65-1.51,8.48-2.26,4.93-3.76,6.02-12.35,10.79-15.89,6.53-4.84,13.84-5.59,19.24-11.31,0-19.22,13.15-23.87,22.69-33.43,15.48-15.49,28.36-33.56,41.93-50.97,4.92-6.39,13.6-11.68,15.28-21-12.94-9.27-26-24.54-33.42-39.09-.4.21-.75.4-1.14.56.65,23.71,9.89,52.92-2.26,70.84-28.84,42.4-125.51,18.23-180.75,27.76-12.12,2.1-28.66-.06-38.51,5.1-3.43,3.01-6.84,6.06-10.21,9.08-9.9,6.44-19.8,8.67-24.38,20.38-4.72,12.11-11.23,40.19-24.91,41.33-8.85-4.56-12.07-28-9.64-43.06,2.61-16,7.24-27.57,15.32-37.92,7.14-9.24,18.95-15.12,20.95-29.48-1.32-.92-2.65-1.91-3.95-2.84,4.36-9.51,10.41-25.05,19.81-29.45,7.27-1.86,10.29,3.36,15.86,3.98,5.15.49,10.99-4.86,19.27-2.85,13.23,3.22,27.18,9,42.47,10.2,16.62-5.5,33.25-10.93,49.89-16.44,9.01-2.74,20.08-2.38,27.73-6.22v-.56c-4.86-16.88-4.81-40.86-10.2-58.91-10.06-33.78-22.91-60.1-24.91-103.19h-.58c-3.83,1.32-7.43.77-9.64-.56-3.18-4.68-6.43-9.4-9.62-14.13,5.51-6.69,16.16-7.92,22.09-14.18-1.32-10.93-2.64-21.88-3.97-32.87.8-6.77,8.13-11.92,9.64-17.54,1.24-4.62-1.12-17.54-1.12-24.36-2.84-3.01-5.68-6.01-8.52-9.03-23.84,1.96-47.21.06-69.11,4.51-8.53,2.1-17,4.16-25.48,6.25-4.73,2.61-9.49,5.29-14.17,7.95-6.05-1.18-12.09-2.28-18.12-3.41-17.54,16.81-51.37,27.01-67.45,2.82-11.34,4.59-29.38,13.61-41.36,13.61-2.45-4.35-4.88-8.68-7.38-13.02-.53.16-1.09.33-1.67.56-.53,2.17-.15,3.17-2.84,4.51-8.84,3.22-17.73,6.39-26.61,9.63-8.22,3.7-15.22,15.34-26.64,13.62-.59-.76-1.12-1.5-1.7-2.28.19-.57.37-1.13.58-1.71,6.41-4.73,12.8-9.43,19.23-14.17-.17-.38-.34-.76-.56-1.13-1.12-.19-2.28-.37-3.41-.56-5.16,3.36-16.84,13.46-23.77,11.89-1.13-.56-2.27-1.15-3.39-1.72.75-8.76,15.19-12.11,20.95-16.4-.38-.4-.75-.77-1.15-1.13-10.27,4.61-19.76,16.75-31.71,18.1-.79-.57-1.54-1.13-2.29-1.69v-4.51c5.36-6.68,27.77-16.43,30.05-22.12h-1.16c-6.09-1.16-24.3,11.89-33.4,13.61-.75-.59-1.5-1.16-2.26-1.72,3.06-14.55,44.96-25.32,56.1-36.27-5.85-6.77-21.02-9.29-18.7-22.1.93-.19,1.88-.35,2.83-.53,7.41,6.64,15.57,8.35,26.63,11.87,5.1,3.24,10.21,6.42,15.29,9.66,15.34-2.88,31.97-14.52,44.16-21.53,21.22-12.16,45.85-19.36,64.61-33.97,5.86-7.22,11.7-14.37,17.57-21.53,6.24-6.09,12.48-12.12,18.7-18.2,17.38-21.83,36-42.05,57.81-59.46,4.34-4.73,8.68-9.41,13.02-14.17,2.48-1.49,4.91-3.01,7.35-4.53,4.18,3.04,8.33,6.03,12.44,9.08,23.93,9,47.01-3.05,43.65-21-2.34,0-3.08.65-2.25-.57,1.43-1.6,1.48-1.04,1.67-2.8.24-1.64.65-.94-.53-2.3-.56-.51-1.14-1.1-1.72-1.66-1.51.72-3.01,1.49-4.53,2.25.93-1.31,1.9-2.64,2.84-3.94,1.23-1.21,1.1-1.97,1.1-4.53-2.95-11.38-.26-34.57-5.11-40.78-.72.17-1.47.33-2.23.55v-.55c4.78-13.95,11.51-23.13,21.52-31.76-.57-.21-1.12-.37-1.69-.55,12.16-3.43,24.86-15.02,41.33-11.94,3.59,1.52,7.19,3.01,10.78,4.53v.57c-1.5-.33-3.02-.73-4.51-1.11.75,1.11.06.38,1.12,1.11,0,0,18.79,6.72,19.82,6.84v.55h-3.42c1.25,1.12,1.83,1.3,3.98,1.71v.6c-.97.17-1.89.33-2.82.53,5.11,5.54,10.08,10.79,14.7,16.99-.43,3.82-2.04,5.65-5.07,6.8,2.51,4.62,4.37,35.99,0,47.59-1.07,2.76-4.36,2.5-5.68,4.57-.76,3.16-1.52,6.41-2.27,9.62,1.35-.18,2.68-.38,3.97-.55.39-1.16.74-2.31,1.14-3.41.41.17.75.35,1.16.55.61,2.8.75,3.08.54,6.23h1.72c.36-.18.74-.35,1.12-.55.19-1.13.36-2.27.56-3.38h.58v2.25c-1.15,1.5-2.26,3.02-3.43,4.51h1.16c6.76,2.9,18.14.62,23.77,4.55,7.18,5.04,6.06,18.32,13.04,23.23,17.88,10.57,40.28,11.46,55.51,23.8,10.95,8.86,15.11,25.03,22.68,37.4,3.35,5.44,8.52,8.73,13.05,13.02.54-.4,1.08-.73,1.68-1.13,1.94-2.14,1.59-5.58,4.01-7.38,3.9-3.12,9.07-3.94,13.01-1.1.26,3.3.92,4.64,2.83,6.2,7.8-2.84,12.1-10.5,18.7-14.71,19.4-12.44,38.74-25,57.78-35.71,4.57-2.58,4.08-11.88,6.23-17.03.82-1.89,18.53-26.71,19.25-27.16.97-.22,1.9-.4,2.86-.57,1.12,1.35,2.25,2.66,3.39,3.94.03,9.31-4.65,9.15-6.81,15.33h.57c9.65-2.64,19.27-5.25,28.91-7.92,1.14-3.83,2.06-6.9,3.97-9.66,3.06.23,3.43.97,4.52,0,1.86-4.02,5.3-12.16,10.21-6.2-1.51,3.75-3.06,7.53-4.57,11.31,9.3-1,19.1-6.28,26.64-1.71v2.84c-30.34,9.9-57.52,40.72-73.63,62.31,1.18,2.28,2.26,4.56,3.39,6.8-8.31,6.25-16.61,12.44-24.91,18.69-18.12,13.54-34.78,29.1-54.38,41.33-6.81,3.82-13.6,7.58-20.41,11.35-2.09.41-4.17.77-6.26,1.16-12.25,10.2-22.97,51.8-37.92,56.66v-3.98c1.67-5.27,8.7-36.3,7.92-37.38-6.55-6.6-14.63-12.51-22.09-18.12-20.44,4.99-37.21,13.9-54.41,22.07,3.15,21.16,0,52.93-6.77,69.7,5.62,7.33,13.24,12.56,18.68,20.37,9.42-2.8,18.87-5.62,28.34-8.48v.59c-3.36,8.09-6.79,16.24-10.21,24.35-5.68,8.11-11.33,16.22-17,24.4-6.88,21.99,16.93,50.42,25.51,62.27,17.96,24.91,24.01,61.84,34,94.08,3.4,11.01,12.78,25.93,10.19,39.09-2.65,13.54-10.72,20.37-17.58,29.45-11.93,15.82-25.1,30.04-37.38,45.33-10.75,10.79-21.53,21.54-32.3,32.32-14.35,15.7-28.72,31.34-43.02,46.99-4.26,4.45-8.85,14.21-15.9,15.34ZM424.33,7.36c.58.18,1.16.35,1.74.57-.59-.22-1.16-.39-1.74-.57ZM427.16,8.46c-.17.96-.33,1.92-.55,2.84h5.68c-1.19-2.25-1.84-2.62-5.13-2.84ZM432.84,12.46c.58.34,1.16.77,1.72,1.13-.57-.37-1.14-.79-1.72-1.13ZM435.13,14.71c.37.17.76.38,1.11.6-.35-.22-.74-.43-1.11-.6ZM439.64,15.31h1.13-1.13ZM447.03,30.57c.56.2,1.12.4,1.68.57-.56-.17-1.12-.37-1.68-.57ZM449.3,31.67c-.21.75-.39,1.52-.58,2.31.77-.39,1.51-.79,2.28-1.16h-1.16c-.18-.41-.36-.76-.54-1.16ZM449.84,34.55c-.36.73-.75,1.49-1.12,2.25,1.12-1.19,1.63-.79,1.12-2.25ZM443.03,95.73h1.16-1.16ZM443.03,101.94c-.37.77-.75,1.52-1.11,2.27,1.25-.84,1.39-1.06,2.26-2.27h-1.16ZM380.73,117.81c.77,1.1.07.37,1.1,1.16-.33-.39-.74-.76-1.1-1.16Z"/>
</svg>