<?xml version="1.0" encoding="UTF-8"?>
<svg id="_レイヤー_1" data-name="レイヤー 1" xmlns="http://www.w3.org/2000/svg" viewBox="0 0 884.69 753.63">
  <defs>
    <style>
      .cls-1 {
        fill-rule: evenodd;
      }
    </style>
  </defs>
  <path class="cls-1" d="M881.37,223.99c.69-1.88,1.06-5.55,0-8.32-3.73-.87-7.47-1.66-11.21-2.5-16.51-7.01-27.25-18.42-50.7-19.54-1.13-2.56-1.89-5.65-4.57-6.63h-7.88c-8.98-2-17.91-6.54-26.19-8.32-6.51-.84-13.04-1.65-19.54-2.5-4.17-1.79-9.08-5.74-14.13-7.46-5.28-1.11-10.52-2.22-15.77-3.32-4.22-2.21-7.72-7.77-14.16-7.91-2.59-.05-5.09,2.52-9.11,1.65-4.48-.95-9.08-3.39-15.79-2.47-3.18.26-6.38.55-9.57.82-2.2-1.22-4.41-2.48-6.64-3.74-4.3-.26-8.59-.54-12.87-.81-3.34-1.27-6.66-2.51-9.99-3.75-6.22-.83-12.46-1.67-18.7-2.5-2.89-1.79-5.8-3.59-8.74-5.39-2.23-1.26-4.33-.34-7.47-1.26-3.32-2.21-6.66-4.43-9.97-6.66-3.73-1.09-7.46-2.21-11.21-3.3-1.67-2.24-3.32-4.46-4.98-6.65-4.5-5.79-13.46-13.87-21.61-15.36-8.62-1.62-16.35,8.6-22.03,11.19-11.18,4.85-16.48-8.58-19.1-14.54,5.59-1.35,24.43-11.85,27.42-15.79,7.01-9.16,18.85-28.86,13.31-44.03-2.08-5-4.18-9.99-6.26-14.97-4.45-7.43-14.2-7.01-17.43-16.62-.85.83-1.66,1.67-2.49,2.5-2.3-2.68-3.77-6.89-7.88-5.38-.43-1.27-.87-2.5-1.27-3.78-2.26-1.23-3.39.19-5.81-.41-5.78-1.38-10.16-5.79-19.95-6.22-2.77,3.63-5.56,7.2-8.32,10.8-6.64,4.01-13.3,5.36-19.11,9.97-2.75,2.18-2.65,6.15-4.98,8.71-4.48,4.93-14.13,2.28-17.45,8.75-.15.81-.29,1.65-.42,2.5,1.25,1.93,2.5,3.88,3.75,5.79-2.03,1.4-2.08,3.97-4.17,5.42.7,1.65,1.41,3.31,2.09,4.99-5.5,1.31-7.02,17.23-5.4,22.44,4.5,2.93,15.47,3.96,18.69,8.3,2.12,2.8,1.63,6.07,2.93,9.95,5.77,17.23-3.63,33.85-20.78,38.25-25.78,6.6-29.22-13.66-47.37-17.86-11.95-2.76-34.6-6.77-38.63-15.81-.41-.36-.85-.81-1.26-1.25,4.58-4.29,11.46-14.35,16.21-17.01,5.39-1.8,10.79-3.6,16.21-5.44,6.39-3.91,21.67-25.77,17.84-38.19-3.99-13.17-12.54-10.54-22-17.05-7.03-4.83-12.37-11.69-20.77-15.36-23-10.06-45.04-2.45-54.44,14.54-1.57,2.75-1.98,8.29-2.93,10.8-1.97.34-2.02-.12-3.72-.85.66,1.37,1.14,2.03.83,3.35-1.48,2.3-7.14,4.18-9.97,5-2.09,3.95-.38,7.71,1.65,10.79-2.74,3.52-5.33,13.57-4.15,18.68-2.3,2.63-3.9,2.93-3.75,8.3,1.82,1.99,3.59,3.89,5.4,5.85,6.59,3.26,13,.97,16.63,7.07,2.28,3.86,1.57,27.81-.86,32.42-1.82,3.5-5.68,6.47-9.53,7.9-9.62,3.49-37.2-6.35-51.11-8.73-6.37.15-12.75.29-19.12.42-4.17-2.21-8.33-4.43-12.48-6.64-14.94-4.59-29.91-9.17-44.87-13.7-7.76-4.43-15.51-8.88-23.27-13.32-15.09-6.33-30.91-8.54-46.97-14.57-3.87-2.06-7.77-4.13-11.6-6.21-11.8-4.17-23.55-8.33-35.36-12.48-9.54-2.62-19.09-5.26-28.67-7.89-5.24-2.63-10.54-5.29-15.79-7.88-4.31-1.58-12.83-5.76-16.64-4.18h-.81c.79,5.85,11.3,10.08,16.18,11.65.16.27.31.53.44.82-6.42-.11-15.63.08-20.79-1.65-.12.95-.27,1.93-.42,2.91,11.5,3.72,22.99,7.47,34.49,11.21.3.97.55,1.94.85,2.93-6.51.39-13.02.81-19.54,1.23-.69,1.53-1.38,3.06-2.08,4.56v.43c5.35,3.95,13.06.93,20.36,1.66,4.67.47,8.75,2.07,12.45,2.89,8.3,1.91,18.84-1.93,26.21,1.66,4.57,3.49,9.13,6.96,13.7,10.41,15.11,8.29,30.21,16.61,45.29,24.92,14.2,8.26,30.53,10.99,46.13,17.47,11.97,4.95,23.81,11.17,36.56,16.63,16.06,6.84,40.91,20.14,58.58,22.84.47,2.11.55,4.28,2.1,6.23-.14,2-.84,2-2.1,3.75,3.12,7.94-1.84,15.94.85,24.49.79,2.52,3.12,4.22,3.74,7.52v11.61c1.22,2.8,4.43,2.95,5.39,7.09,1.55,6.51-.93,7.92-.82,11.19.1,3.27,4.04,14.87,5.4,18.3-10.91,6.77-17.08,16.94-12.04,31.15,7.75,3.5,27.31,1.91,29.49,10.82,1.81-.44,3.58-.82,5.39-1.27.55,2.37,1.12,4.73,1.67,7.09-9.65,12.71-19.73,25.7-29.92,38.22-4.96,4.15-9.96,8.31-14.96,12.47-12.29,15.74-25.46,30.7-34.91,49.03-5.33,10.37-14.81,13.67-16.21,28.27,2.78,1.1,5.53,2.21,8.33,3.31.36,2.62-1.4,5.76-2.5,8.33v.4c1.93-.12,3.89-.27,5.81-.4,1.12,1.95,2.22,3.87,3.34,5.8,1.15.51,9.21.85,12.44,1.67,2.75-2.65,4.2-6.16,7.9-7.9.81-.84,1.67-1.65,2.48-2.5.86,1.67,1.66,3.33,2.52,5h.41c1.79-3.33,3.59-6.64,5.39-9.96,1.64-.73,4.79.07,7.07-.86,1.64-1.36,3.32-2.75,4.97-4.15.41-.4.84-.81,1.27-1.23.56.8,1.1,1.64,1.67,2.48,0,0,12.02-4.64,14.52-6.22,1.54-2.78,3.06-5.55,4.58-8.33,3.59-3.05,7.22-6.09,10.8-9.14,1.11,1.53,2.21,3.05,3.32,4.56,1.32.66,1.49-2.93,1.67-4.56,1.4.97,2.76,1.95,4.16,2.91,1.94-2.63,3.88-5.26,5.81-7.88v-.84c1.1.84,2.23,1.67,3.32,2.49.84.83,1.67,1.69,2.5,2.48,1.38-3.59,2.77-7.22,4.17-10.78,1.34,1.63,1.91,5.63,2.06,8.29h.83c1.94-4,3.82-7.05,3.75-13.72,1.22,1.68,2.47,3.34,3.72,4.99.41.27.83.54,1.27.84,1.69-4.5,2.76-8.99,5.39-12.44.14-.33.27-.58.41-.89.4,2.53.84,5,1.25,7.51,2.77,1.39,5.55,2.79,8.31,4.13,2.22-3.31,4.44-6.64,6.65-9.96.27-.14.57-.25.83-.39,4.63,14.64,14.2,23.75,20.76,36.13-15.08,16.37-24.36,40.44-34.88,61.11-5.54,10.78-12.98,21.61-15.38,34.89-3.11,17.14,7.15,31.7,11.21,43.61,8.62,25.32,11.34,54.18,19.13,79.39,3.1,10.03,10.89,35.88,7.46,50.68-2.43,10.49-6.55,20.65-14.55,25.77-8.44,5.39-29.96,10.78-34.07,19.13-.12,1.92-.27,3.84-.42,5.8v.4c6.64,4.99,17.62,2.13,28.26,3.74,21.07.84,42.12,1.65,63.18,2.5,2.35-2.5,4.7-4.99,7.05-7.51,4.63-11.68-4.6-23.52-7.05-30.74-1.4-7.18-2.78-14.37-4.17-21.59.15-5.81.27-11.63.41-17.44-.41-10.83-.83-21.63-1.25-32.42,1.84-11.04,4.43-26.95,2.08-39.89-4.83-26.47-15.25-44.69-20.78-67.74,8.52-11.48,22.51-16.12,34.06-24.53,5.13-4.45,10.25-8.87,15.37-13.3,4.29,5.15,8.6,10.26,12.88,15.38,9.35,11.69,19.69,20.32,25.36,36.15,2.48,9,4.98,18,7.47,27.03,9.3,22.04,20.45,44.2,25.76,69.78.41,9.74.84,19.39,1.26,29.09,3.02,10.54,6.08,21.08,9.13,31.61,2.92,3.59,5.84,7.19,8.73,10.79,8.84,12.88,14.62,29.2,29.09,36.15,7.2,5.39,18.82-5.21,20.77-9.14-2.74-5.63-2.73-13.74-5.4-19.95-3.87-6.51-7.75-13.02-11.63-19.52-3.6-12.45,2.81-23.77,2.5-33.68-3.41-4.53-8.16-13.16-13.72-15.38-2.52-1.2-4.33.16-5.39,1.67-1.8-.55-3.61-1.11-5.4-1.67-4.63-4.51-2.06-20.3-3.33-27.83-2.08-24.91-4.16-49.87-6.24-74.79-9.31-37.87-40.23-58.62-53.6-93.49,7.3-10.6,24-34.82,36.56-38.65,6.61,4,11.58,15.06,16.22,21.21,9.25,12.28,21.31,26.12,33.23,35.73,20.02,16.14,36.36,35.94,54.45,54.01,9.78,9.78,21.93,17.09,30.35,28.24,10.34,13.79,15.76,31.25,26.58,44.48,4.15,3.06,8.3,6.1,12.47,9.15,9,8.72,18,17.45,27.01,26.18,4.58,5.38,9.13,10.79,13.7,16.22,4.94,6.75,8.37,15.34,13.29,22.01-2.22,5.38-1.45,15.17,1.67,20.36,3.06,5.09,11.31,6.99,16.22,10.41,5.65,3.93,9.42,11.22,13.71,16.6,2.74,3.5,7.57,5.04,10.38,8.32,3.06,4.15,6.1,8.33,9.16,12.46,6.63,3.45,29.41,7.94,34.9.42,3.94-5.41-.71-23.91-3.34-29.08-6.96-13.78-22.25-19.3-34.47-27.84-7.81-5.45-11.72-15.48-17.44-22.85-13.49-17.29-21.27-39.66-31.19-60.68-13.28-22.87-26.58-45.71-39.88-68.56-7.95-11.54-22.7-16.45-31.16-27.41-7.2-11.93-14.42-23.86-21.59-35.74-3.33-7.92-6.67-15.83-9.99-23.7-7.49-12.6-14.96-25.23-22.42-37.81,6.06,3.03,12.17,6.08,18.25,9.14,23.69,8.53,51.86,6.99,73.56,16.63,8.71,3.85,13.76,13.13,20.78,16.6,2.5.56,4.98,1.1,7.48,1.65,5.96,2.66,11.93,5.29,17.87,7.92,6.25.27,12.45.54,18.69.82,14.16,2.38,50.63,10.25,59.44-.82,3.67-4.65,2.65-14.57,2.08-21.19-18.9-9.61-38.56-13.87-63.59-18.31-7.99-1.42-15.62-.1-22.87.85-6.22-1.41-12.43-2.77-18.68-4.16-4.56-2.5-9.13-5-13.71-7.48-22.44-11.68-41.9-26.33-64.82-36.99-14.37-6.69-29.91-9.99-47.79-13.71-9.4-1.97-20.23-.95-24.5-7.89-1.96-7.34-3.9-14.69-5.84-22.04.43-3.45.84-6.92,1.26-10.38-3.18-10.72-14.21-17.61-19.12-26.6-.14-3.88-.29-7.77-.43-11.64-1.88-6.86-5.44-9.81-1.23-16.62-5.07-9.51-3.28-9.32.83-17.85,2.04-4.24.38-12.12,2.91-15.81,5.26-7.73,13.86-12.29,16.62-22.83,2.89,3.03,5.8,6.09,8.71,9.1,4.31,1.56,8.59,3.08,12.88,4.59,6.46,2.66,10.41,9.08,19.12,9.14,5.37-5.45-5.09-11.87-10.38-13.28-.84-.98-1.68-1.95-2.5-2.91,3.43-1.38,10.16-.22,14.54-.44,7.01,6.62,17.16,10.81,23.27,18.3h4.16c.82-.56,1.65-1.11,2.5-1.67v-1.25c-4.87-4.15-9.71-8.31-14.56-12.48v-1.63c5.65,1.19,9.62,4.12,16.2,3.75.71-.97,1.4-1.96,2.09-2.91-3.48-1.42-6.93-2.76-10.4-4.19.56-1.1,1.12-2.23,1.68-3.31-4.75-4.98-16.89-2.93-24.51-5-11.99-3.22-22.87-12.04-36.18-14.53-.68-1.81-1.37-3.59-2.08-5.39,2.65-.98,5.27-1.96,7.9-2.91,4.26,4.71,13.48,8.69,20.37,10.37h13.71c9.93,1.86,20.91,5.4,29.91,7.47,7.45,1.77,22.94.84,26.19-2.07,9.68,3.32,19.38,6.65,29.07,9.98,11.09-.26,22.18-.56,33.26-.81,16.53,2.66,38.74,1.75,58.59,1.64,3.59,3.89,7.2,7.77,10.79,11.65,3.76.96,7.5,1.94,11.24,2.89,3.45,2.36,6.9,4.72,10.38,7.07,2.93,2.17,8.12,8.4,13.71,4.98,1.31-.75,1.38-1.15,2.08-2.48-3.19-7.83-10.32-11.23-16.62-15.77.51-3.85,1.97-5.84,4.99-7.08,10.94-4.06,30.69,19.94,46.52,16.62.45-.97.84-1.93,1.25-2.9-1.1-.56-2.21-1.12-3.32-1.66ZM406.41,244.77c-7.93,1.25-14.94,2.06-24.1,1.65,9.98-12.59,28.37-15.05,41.56-24.51.41-.14.83-.29,1.25-.42,2.71,4.55-1.39,8.89,0,14.54.88,3.56,3.87,5.55,4.17,10.4-7.63-.55-15.25-1.1-22.87-1.65Z"/>
</svg>