<?xml version="1.0" encoding="UTF-8"?>
<svg id="_レイヤー_1" data-name="レイヤー 1" xmlns="http://www.w3.org/2000/svg" viewBox="0 0 882.65 367">
  <defs>
    <style>
      .cls-1 {
        fill: #040000;
        fill-rule: evenodd;
      }
    </style>
  </defs>
  <path class="cls-1" d="M862.89,283.08c-4.45-1.77-9.11-.4-14.07-.92-16.99-1.84-27.76-2.65-44.5,1.68-15.96,4.09-31.25,12.72-46.98,16.39-19.91,4.61-40.59,2.38-60.47,5.91-14.16,2.52-37.18,7.94-51.03,4.86-10.17-2.27-19.64-6.86-29.87-8.14-13.63-1.71-28.32.67-42.12-1.55-6.03-2.36-12.07-4.75-18.07-7.13-15.53-3.42-29.22-3.42-44.41-1.96-3.33.36-5.85-2.16-9.3-.88-1.23-2.13-2.08-2.77-4.37-3.4-.19-5.76,17.02-35.68,21.89-43.53,3.57-3.96,7.03-7.87,10.57-11.81,10.74-18.53,28.31-32.29,39.64-52.12,3.1-5.35,9.6-23.9,14.51-26.89,8.09-1.93,16.2-3.91,24.29-5.84,18.69-6.99,35.38-17.09,53.85-24.62,4.41-1.84,9.28-1.39,13.28-2.99,9.84-3.91,18.51-10.66,27.87-17.56,13.69-10.07,25.04-20.28,38.96-29.95,5.47-3.78,12.54-3.87,18.61-7.74,5.41-3.48,16.61-14.27,17.35-20.62.4-1.85-.11-2.27-1.3-3.31-.26-1.84,1.64-3.15,2.48-5.15.17-1.98-2.31-6.47-3.25-8.21-1.62-.09-2.26-.11-3.88.79-.14-1.06-.31-2.07-.48-3.08-.59-.52-1.16-1.08-1.77-1.57-5.49,1.48-14.74,6.12-19.61,10.05-.48-.07-.95-.14-1.4-.23-4.14-5.67,2.71-10.97-5.85-18.96-1.59.02-1.91-.02-3.55,1.58,1.61,5.19.32,31.88-5.81,36.2-3.18,1.4-6.36,2.77-9.57,4.2-10.53,5.37-20.22,11.35-30.54,15.13-8.51,2.88-17.05,5.67-25.57,8.48-6.11,3.53-12.84,10.86-16.62,13.81-4.04,1.37-8.07,2.72-12.1,4.07-8.74,3.26-16.46,8-25.39,11.74-13.35,5.73-28.38-.99-42.02.76-5.85.74-12.81,3.73-18.35,7.47-2.22,1.87-4.48,3.76-6.68,5.66-3.82-.05-7.67-.11-11.53-.14-16.98-15-9.75-39.3-3.68-55.85,2.35-6.48,6.31-12.14,7.69-17.52,1.61-6.34-2.87-18.28-7.02-24.84-4.45-7.02-7.34-11.94-13.72-14.93-1.75-1.77-1.86.07-4.27-.56.45-.72.87-1.39,1.31-2.09-2.08-.63-2.93.74-4.75.59-5.65-.61-9.93-5.51-15.39-5.35-.58-.99-1.08-2-1.6-2.97-3.58,1.06-6.87,2.09-10.31.86-.51.97-1.04,1.95-1.52,2.85-2,.23-1.55.22-3.17-1.22-.9.22-.19.2-1.1.11-1.9,1.93-1.15,2.49-2.26,4.86-.62-.9-1.22-1.77-1.84-2.68-.07.09-.18.18-.25.29-.57,3.04-.87,6.27,1.92,9.17-.5,3.37-13.37,25.14-16.61,28.66.5,2.47,1.04,4.97,2.61,6.59-2.39,4.25-4.77,8.47-7.13,12.72.81,2.88,1.96,3.69,5.02,4.5-.99,2.47-1.97,4.97-2.94,7.42-.31,3.26,6.12,20.96,9.77,24.12,3.43.02,7,1.26,10.36-.25.42.36.8.67,1.2,1.03-.83,2.27-1.64,4.59-2.4,6.86-9.15,3.57-20.91,2.88-30.43-2.22-8.62-4.59-13.76-9.96-21.65-10.81-9.73-1.1-20.57-1.03-30.24.04-5.83.61-12.57,3.12-18.42,1.55-5.06-2.04-10.12-4.07-15.2-6.14-8.77-2.58-18.24-4.5-26.76-6.88-8.97-2.56-17.74-11.55-26.3-14.52-9.22-3.21-19.4-3.64-28.6-5.35-12.33-2.34-27.05-7.74-38.89-14.1-9.52-5.1-3.76-28.92-19.88-38.92-.36.02-.75.02-1.12.02-.69,1.01-1.39,1.98-2.05,2.95,2.04,5.2,4.12,10.39,6.16,15.63.13,1.08.24.36-.47,1.71-12.07-5.37-39.76-8.14-50.83-2.52-.53.81-1.05,1.58-1.58,2.38,3.04,4.38,30.39,24.84,37.47,28.13,3.65,1.49,7.27,2.99,10.91,4.45,23.94,13.22,45.55,29.74,69.72,38.96,21.72,8.27,43.55,11.82,65.36,20.71,18.85,7.64,26.95,10.1,44.96,11.46,4.12.32,10.64.95,13.23,6,3.16,6.16,1.27,14.43,1.45,20.95.63,20.91-.6,40.24-4.66,61.58-.85,8.14-1.72,16.25-2.57,24.31-1.81,5.73-7.42,8.48-9.92,12.3-3.33,5.03-6.2,10.1-9.23,15.08-10.02,4.86-20.41-3.44-30.87-5.24-6.96-.9-13.94-1.82-20.87-2.76-8.11.4-16.26.77-24.33,1.1-2.42.54-4.83.99-7.19,1.53-12.88-1.48-26.86-3.73-40.99-6.39-10.1-1.86-26.35,2.95-36.98.97-10.2-2.25-20.42-4.45-30.63-6.66-5.08-1.86-10.15-3.71-15.18-5.62-18.14-3.12-36.64-9-54.67-15.4-18.55-6.54-35.48-22.01-53.49-28.64-14.88-5.55-27.48-5.96-41.59-7.47-9.82-1.12-17.71-6.65-27.39-3.22-2.19,2.25-2.37,3.03-1.36,5.12,2.85,5.65,9.17,2.88,12.27,4.65.35.16,10.21,6.81,10.51,7.24,1.37,1.73,3.87,6.48,7.47,8.25,4.95,3.19,9.89,6.39,14.84,9.55,4.11,4.48,11.4,21.92,20.46,25.2,6.43,2.34,11.18-3.89,17.42-4.63,5.78-.67,14.73,2.79,20.48,5.57,10.39,5.04,19.86,13.72,30.82,20.12,10.99,6.41,22.24,11.42,32.64,16.97,7.69,4.05,12.52,8.57,19.4,10.95,9.74,3.35,22.51,7.76,32.4,7.69,8.91-.02,18.18-2.86,27.08-1.8,16.5,2,31.19,13.83,48.17,19.15,17.2,3.49,34.41,7.02,51.6,10.57,15.52,4.97,31.03,9.98,46.53,15.04,11.89,2.04,24.61-3.37,36.09-1.19,4.61.85,8.52,4.74,13.29,7.1,7,3.31,15,4.81,22.22,6,14.42,2.45,29.98-2.61,44.42-2.2,19.49.5,41.06,2.2,60.2-1.42,14.63-2.81,28.92-7.6,43.42-10.01,11.46-1.96,23.67,4.18,35.4,6.12,11.92-.31,23.87-.59,35.83-.92,8.75-1.53,16.75-5.47,25.57-8.45,11.28-3.82,23.65-6.63,35.29-10.37,9.78-4.03,19.53-8.01,29.27-12.03,5.08-1.51,14.14-3.82,19.28-1.93,6.27,2.29,10.55,9.82,16.98,8.32,10.69-2.61,17.3-18.06,23.7-22.39,2.03-.52,4.03-.99,6.06-1.44,9.78-3.58,18.84-11.74,28.73-12.57,4.51-.34,7.21,3.04,11.85,1.01,1.43-.63,2.2-1.98,2.35-3.22.57-8.09-15.57-10.14-19.75-11.74Z"/>
</svg>