<?xml version="1.0" encoding="UTF-8"?>
<svg id="_レイヤー_1" data-name="レイヤー 1" xmlns="http://www.w3.org/2000/svg" viewBox="0 0 435.29 865.15">
  <defs>
    <style>
      .cls-1 {
        fill-rule: evenodd;
      }
    </style>
  </defs>
  <path class="cls-1" d="M377.02.18c1.86,3.87-.59,7.03-.69,10.7-.09,3.34.22,7.28.35,11.39.17,6.01,3.23,12.24,4.49,18.29.84,4.06,1.25,8.61,1.73,12.77.43,3.83,1.63,9.06-1.73,12.08-2.03,1.52-3.5-.91-5.87-.34-2.44.57-4.25,6.54-4.82,10.7-.76,5.45-1.13,23.49,1.72,26.92,1.5,1.8,4.54.98,5.52,2.76-.26,13.41,5.25,24.19,7.93,35.55,2.65,11.22,3.74,22.58,5.87,33.83,2.42,12.77,2.91,27.33,4.83,39.69,1.6,10.35-.53,19.73-1.38,28.65-.22,2.22.08,4.45-.35,6.56-.56,2.79-2.38,5.18-1.73,9.66.22,1.45,1.25,2.8,1.73,4.49.45,1.63.37,3.61.69,5.18,2.59,12.54,3.86,27.02,4.49,42.11.31,7.52,1.05,15.18.69,22.78-.55,11.53-1.33,21.5-3.45,31.06-.32,1.41-1.31,2.7-1.73,4.14-1.56,5.47-2.24,8.94-4.49,14.49-1.28,3.18-3.78,7.14-3.79,9.66-.01,2.35,2.28,5.52,3.11,8.63,5.43,20.47,9.82,41.74,14.15,64.54,1.06,5.62,2.6,11.3,3.45,16.91.97,6.32.05,12.36.69,17.95,1.07,9.28,6.14,16.45,8.62,24.85.38,1.25.35,2.76.7,4.15.53,2.15,1.8,4.33,2.06,6.21.26,1.72-.19,3.69,0,5.18,1.25,9.76,6.97,13.64,11.39,20.36.06,1.69-2.54,1.95-.69,3.45,1.04.35.61-.77.69-1.38,1.26.61-.22,3.84,1.04,5.17-.27,1.77,2.61.38,2.42,2.07,2.5,10.17-3.34,18.07-2.08,25.88-2.26,7.63-4.61,16.15-8.62,22.44-7.91,12.38-21.47,18.55-31.07,30.37-6.67,8.22-9.99,17.57-15.18,25.89-7.33,11.71-18.15,20.55-30.37,27.27-8.87,3.3-20.83,5.64-31.75,4.83-11.88-.88-22.56-4.68-31.76-8.28-3.76-1.47-7.28-3.18-10.7-4.48-10.87-4.16-16.87-2.22-27.27,1.37-4.43,1.53-11.99-.69-16.91-.69-2.52,0-5.96.44-8.97.69-2.81.23-8.04.16-9.32,1.73-1.43,1.75-.17,5.64,0,8.29.79,12.84,1.48,25.93,2.07,39,.61,13.3.92,26.97.35,40.72-.55,13.08-2.08,26.22-2.08,39s-.65,25.84-3.1,37.62c-14.47,4.6-32.5.17-49.35,1.38-12.48.9-25.83.28-38.66.35-3.74.02-8.18.95-11.05-1.38.04-2.14,3.01-2.36,4.49-3.1,4.3-2.17,10.62-6.59,16.91-7.25,1.98-.21,4.98.58,7.25.69,9.04.42,16.36-1.2,24.51-3.45,1.36-.37,2.65-1.35,4.14-1.72,1.84-.46,4.02-.15,5.86-.69,3.25-.96,8.84-5.82,10.35-8.63,2.61-4.84,2.08-15.39,2.07-23.47,0-2.39.87-5.03.35-6.9-.73-2.59-3.55-2.2-2.08-6.9-2.35-1.93-3.89-6.43-7.59-5.87-1.06,3.08,3.01,3.85,4.15,5.87-.24,3.68.34,8.39,0,11.04-2.41,3-7.43,4.12-11.05,4.83-14.13,2.78-31.51-2.06-46.59.69-3.11.57-6.49,1.29-9.32,2.07-3.3.9-6.44,3.04-10.01,4.14-4.08,1.27-9.04,1.81-13.12,2.76-1.87.44-3.23,1.49-4.82,1.73-13.59,2.01-30.27.89-41.42-2.42-6.73-2-13.74-5.82-20.7-9.66-6.85-3.78-13.46-7.81-17.26-12.77-5.14-6.72-7.53-26.22-1.04-33.14,7.06-7.51,21.94-10.41,33.47-13.46.58-2.28-1.3-2.43-1.38-4.83-.07-2.09,1.99-5.43,2.42-7.25,1.99-8.43,3.05-17.84,4.48-26.92,1.59-10.03,2.51-22.7,4.14-32.44,1.85-10.95,1.33-23.97,5.52-31.06,2.43-4.11,8.43-8.45,13.46-12.08,14.19-10.25,27.56-18.1,45.91-24.16,6.41-2.12,14.16-3.72,21.05-6.22.94-5.24,1.01-11.01-.35-16.22-.68-2.62-2.81-4.15-3.79-6.56-.93-2.25-.82-5.49-1.73-7.94-.59-1.58-2.03-2.77-2.41-4.14-.92-3.21-.79-6.97-1.73-10.35-2.39-8.61-5.46-18.73-2.76-30.72,4.31-14.75,17.45-22.42,29.69-30.03,9.63-6,20.63-9.92,28.64-16.57.4-2.24-1.39-3.76-.35-5.52,1.36-.95,4.99.39,5.87-1.04.97-3.71-.76-7.78-2.08-11.04-3.41-8.44-7.26-12.76-14.49-17.26-2.63-1.64-5.37-3.88-7.93-4.83-1.47-.54-3.35-.42-4.83-1.03-3.43-1.4-6.55-5.25-9.67-8.29-3.15-3.06-7.27-5.6-9.32-8.62-2.16-3.18-2.87-7.05-6.9-8.63-1.6-3.58-4.28-6.07-5.18-10.35-7.48-9.86-14.29-25.45-10.7-40.72,2.13-9.06,7.79-18.59,14.15-24.51,5.97-5.54,9.97-8.79,18.99-12.08,8.3-3.03,16.17-5.65,28.64-4.49,7.92.74,14.78,4.46,21.74,7.25,8.92,8.77,21.18,19.56,27.27,32.79,2.11,4.58,5.48,8.87,6.91,13.12.81,2.41.29,5.07.68,7.59.52,3.32,1.38,7.47,2.42,10.7,1.54,4.83,7.02,11.15,5.86,18.98-.25,1.69-1.68,3.19-1.72,4.84-.09,3.49,3.55,9.13,4.48,12.42,17.63,1.82,31.56-4.21,43.5-10.7,7.94-4.32,16.01-8.64,21.39-14.84-2.52-11.09-4.1-27.17-3.45-40.03.16-3.1,1.38-6.15,1.04-9.32-1.02-9.42-3.66-18.36-5.19-27.61-1.01-6.18.56-13.5,2.08-19.67,3.64-14.75,10.03-30.41,15.88-44.52,4.33-10.43,8.17-20.07,10.35-33.14,3.06-18.28,3.55-39.75,5.18-60.74.37-4.64,1.44-9.15,1.73-13.81.89-14.35-.5-29.54-2.42-42.11-.27-1.73-1.08-3.7-1.04-5.18.05-1.91,1.53-3.44,1.72-5.52.43-4.5-.87-9.19-1.72-13.81-10.63-3.06-9.02-18.36-17.95-23.13-9.14,1.5-11.44-3.85-20.02-2.42-3.92.66-7.51,3.57-12.42,2.07-5.59-1.71-14.1-12.05-15.53-17.25-3.3-11.96,8.2-19.53,14.83-23.82,3-1.93,6.31-3.57,9.66-5.17,5.12-2.44,8.44-3.53,14.15-5.18,1.32-.38,2.41-1.15,3.45-1.38,2.44-.53,6.02.23,7.94-.69,2.06-.99,1.95-3.68,3.45-5.87,15.28-8.77,34.69-17.05,57.98-15.53Z"/>
</svg>