<?xml version="1.0" encoding="UTF-8"?>
<svg id="_レイヤー_1" data-name="レイヤー 1" xmlns="http://www.w3.org/2000/svg" viewBox="0 0 751.66 832.94">
  <defs>
    <style>
      .cls-1 {
        fill: #040000;
      }
    </style>
  </defs>
  <path class="cls-1" d="M740.72,276.41s35.07-61.9-20.38-81.53c0,0-47.58-24.06-71.87,29.6,0,0-6.36,11.25-5.66,14.96,0,0-23.2,14.37-9.36,24.14l-11.64,19.03s-20.98-24.05-25.9-27.75c-4.96-3.71-51.75-37.93-68.78-42.06-17.03-4.13-19.2-14.71-20.64-17.36-1.46-2.61-39.84-27.79-45.8-28.61-5.92-.82-11.93-5.84-11.43-9.46.47-3.53,15.82-49.28,22.92-48.32,0,0,9.52,1.28,11.89,1.6,2.43.36,8.89-3,13.62,2.51,4.7,5.45,20.31,15.46,22.08,2.35,0,0-8.91-14.5-17.41-18.71,0,0-10.78-5.7-10.05-11.05.73-5.35,1.54-15.56,15.16-22.16,0,0,34.08-23.87,30.91-31.53,0,0-5.86-5.66-12.81.67,0,0-26.35,24.86-28.91,16.68,0,0,34.25-33.5,32.5-38.59,0,0-5.58-8.01-16.33,4.48l-14.08,14.42s-15.03,16.73-13.88,8.36c0,0,24.91-31.75,20.21-37.21,0,0-7.25-4.57-12.5,7.36,0,0-4.63,7.29-10.02,11.38-5.4,4.11-16.49,27.43-21.22,13.52,0,0,.19-10.37-.78-16.5-1.01-6.19-2.34-27.56-9.06-9.11,0,0-1.45,10.7.11,16.97,1.56,6.26-2.15,24.55-4.83,30.85-2.66,6.27-7.5,15.31-8.4,21.87-.89,6.52-2.47,13.58-5.45,18.02-3.06,4.44-21.59,20.71-22.52,22.97-.95,2.3-33.35,57.82-11.7,77.12,0,0,10.88,8.82,19.09,11.09,8.1,2.31,13,6.6,17.8,11.51,4.75,4.87,37.44,26.94,45.52,30.44,7.98,3.46,37.6,17.22,27.82,31.02-9.7,13.81-71.77,73.81-90.11,74.95,0,0-98.7-13.39-125.25,84.1,0,0,.88,6.77-2.08,10.64-2.96,3.82-17.32,29.1-20.38,60.84,0,0-13.09,20.57-20.44,25.63-7.37,5.08-29.92,28.64-35.74,39.93-5.77,11.34-24.98,14.78-29.8,18.95-4.82,4.24-114.48,66.83-124.81,84.83,0,0-65.7-19.87-59.97,31.23,0,0,1.68,19,12.5,32.57,10.89,13.55,14.15,29.76,16.87,41.04,2.72,11.27,40.25,78.13,89.22,33.93,0,0,11.82-19.61,2.12-42.1v-4.27s26.1,8.42,33.88-8.66c7.76-17.15,20.63-45.05,55.61-53.01,35.05-7.97,50.3-22.21,55.95-28.11,5.63-5.9,53.2-39.44,55.31-41.63,0,0,14.37,14.75,19.09,15.37,4.77.65,18.38,16.48,23.33,24.38,5.01,7.95,52.5,54.98,74.65,30.14,0,0,7.09-16.58-3.44-28.3-10.48-11.74-9.39-28.57-9.39-28.57l5.86-20.96s15.44-15.49,26.55-16.97c11.1-1.55,72.79-41.01,89.35-51.47,0,0-31.63,81.07-33.16,96.6-1.52,15.57-7.3,53.53-9.23,59.36-2.02,5.73,3.36,33.16,5.04,38.25,1.76,5.04.39,10.9,28.83,15.39,28.44,4.45,23.31-6.55,35.63-3.6,12.32,2.84,35.68,4.82,33.15-3.38l-3.95-2.37s16.81,5.9,19.43-.36c0,0,3.38-6.78-9.77-8.04,0,0-35.7-9.07-44.11-5.36-8.4,3.71-24.39-7.55-23.74-12.32.62-4.75,18.22-80.48,23.24-86.5,5.1-5.93,19.81-38.46,20.46-43.2.62-4.72,2.09-11.18,11.19-24.54,9.07-13.28,27.15-39.33,28.5-49.44,0,0,6.22-1.55,13.61-10.85,7.28-9.32,24.48-33.03,32.25-40.96,7.7-8.14,14.48-62.29,12.28-72.89,0,0,.48-3.55-5.6-12.24-6.05-8.65-17.3-29.01-11.23-46.38,0,0,12.51-16.47,16.92-17.65,4.41-1.22,19.58-6.42,20.55-8.72.9-2.3,20.27-15.41,20.94-20.17.64-4.73,6.33-11.23,6.33-11.23,0,0,4.7-12.06,5.32-16.82Z"/>
</svg>