<?xml version="1.0" encoding="UTF-8"?>
<svg id="_レイヤー_1" data-name="レイヤー 1" xmlns="http://www.w3.org/2000/svg" viewBox="0 0 892.79 416.06">
  <defs>
    <style>
      .cls-1 {
        fill: #040000;
        fill-rule: evenodd;
      }
    </style>
  </defs>
  <path class="cls-1" d="M891.68,180.9s.31-4.8-1.3-5.83c-1.59-1.03-7.87,2.48-14.55,3.36-6.69.87-12.22,2.16-18.63,2.47-6.4.26-10.46.84-16.99,1.61-6.56.72-12.35,3.75-22.12,6.65-9.75,2.93-21.22,7.74-21.22,7.74,0,0-5.98-5.83-11.2-11.5-5.24-5.69-7.14-12.8-8.88-13.98-1.75-1.15-3.5,2.33-6.41,5.71-2.92,3.31-6.82,3.77-10.63,6.1-3.76,2.3-10.91,15.37-14.24,17.6-3.36,2.16-4.79,2.74-13.09,5.36-8.3,2.62-15.57,11.51-15.57,11.51,0,0-2.76,1.29-5.95,2.74-3.21,1.44-8.87,2.04-13.53,2.04s-5.39,3.05-9.48,4.35c-4.07,1.32-6.37,1.18-14.11,1.46-7.67.27-15.4,1.47-15.4,1.47,0,0-5.11-1.92-8.72-1.92s-7.44.6-7.44.6c0,0-4.49-1.17-6.68-1.3-2.16-.17-4.36.45-7.44,1.01-3.03.58-5.33.58-18.89.87-13.49.27-24.29-6.7-48.72-6.7s-40.28,5.96-45.07,7.56c-4.81,1.63-4.51-.86-4.09-3.92,7.43-8.12,14.27-24.88,16.72-30.65,2.5-5.84,4.95-6.73,13.97-23.15,9.02-16.43-1.31-28.65-7-34.05-5.65-5.36-27.92-22.53-35.46-27.33-7.6-4.8-20.09-13.26-20.09-13.26,0,0,0-4.49.6-9.13.57-4.63,2.74-10.18,2.74-10.18,0,0,2.19.27,6.41.1,4.22-.1,3.2-5.93,4.08-7.68.89-1.75,1.46-1.9,3.04-7.99,1.62-6.1-1.59-9.48-1.59-9.48,0,0,.14-2.6,1.44-5.65,1.3-3.05.75-7.59.75-7.59,0,0,.27.89,3.62,4.37-2.9-3.17-6.55-16.57-10.45-26.46-3.95-9.9-16.02-10.32-16.72-10.88-.75-.62-1.03-2.78-1.03-2.78,0,0-5.68-.74-9.18-3.22-3.5-2.47-18.33.58-18.33.58h4.22s-11.03,2.64-13.97,4.64c-2.9,2.06-8.87,7.16-8.87,7.16l.75.41s-6.57,7.85-9.34,16.72c-2.74,8.88-.71,14.87,0,19.91-2.03-.39-2.3,1.61-2.48,4.25-.13,2.62.61,5.5.61,8.29s.71,7.42,2.01,10.16c1.34,2.76,3.8,1.46,6.99-.15,1.89,11.21-1.61,17.91-1.61,17.91,0,0-17.14,8.31-24.85,12.08-7.72,3.75-16.9,7.13-21.24,9.75-4.35,2.62-11.48,5.79-17.6,9.75-6.13,3.92-10.16,7.4-13.1,16.98-2.9,9.61,7.86,28.84,11.35,36.94,3.5,8.16,5.52,20.8,7.14,24.47,1.58,3.62,4.34,4.49,9.15,12.37,4.78,7.85,11.33,19.91,11.33,19.91l-2.74,3.05s-11.37-4.39-37.11-7.27c-25.75-2.93-34.93,2.72-40.74,3.19-5.82.41-13.51-.46-18.75,0-5.22.41-19.79-1.59-23.99-1.59s-4.37-1.18-7.74-1.3c-3.32-.15-8.43,2.33-12.05,2.33s-7.27-2.21-10.17-3.07c-2.93-.86-3.5-.6-6.28-.74-2.75-.12-3.92,0-8.13-1.46-4.22-1.44-9.89.46-12.23.15-2.31-.29-3.62-2.62-11.5-4.95-7.85-2.31-17.74-6.87-23.53-12.65-5.82-5.83-3.36-2.78-8.45-4.64-5.09-1.9-13.4-7.88-16.14-10.06-2.78-2.16-4.51-5.21-5.81-5.83-1.32-.56-2.04-1.71-7.28-3.77-5.25-2-5.09-10.16-7.11-10.62-2.06-.43-6.13,2.06-10.2,8.46-4.06,6.39-10.2,14.7-10.2,14.7,0,0-10.16-7.9-22.82-11.98-12.65-4.03-18.33-7.69-22.11-8.72-3.77-.98-4.95-.87-12.95-1.18-7.97-.26-17.73-1.71-25.29-2.11-7.59-.46-12.8.56-12.8.56,0,0-4.95-2.33-7.87-.74-2.9,1.61-.45,5.53-.45,5.53,0,0,.15,2,.15,3.77s4.21,3.03,4.21,3.03l3.35,2.79s2.6,3.46,5.99,4.23c3.32.67,4.94,1.7,4.94,1.7,0,0,1.73,2.23,3.19,3.36,1.46,1.17,6.1,3.77,6.1,3.77,0,0,2.05,1.32,3.33,2.35,1.32,1.01,4.65,1.58,4.65,1.58,0,0,1.91.45,4.1,2.48,2.19,2.04,4.21,1.32,4.21,2.36,0,.98,5.69,5.21,5.69,5.21,0,0,2.17,1.17,8.12,9.9,5.99,8.72,13.4,15.11,20.66,15.99,7.28.87,11.65-3.77,11.65-3.77,0,0,.58-.6,2.47-.87,1.89-.31,1.46-1.59,2.6-1.59s1.92,1.29,6,1.15c4.04-.14,4.04,1.01,8.28,3.19,38.4,22.14,62.4,34.78,81.58,41.04,19.21,6.24,37.1,2.6,58.33,6.53,21.25,3.92,38.69,11.5,68.21,22.26,29.53,10.78,77.54,16.3,77.54,16.3,0,0-7.3,11.34-10.92,15.27-3.62,3.92-6.55,8.74-8.87,13.52-2.33,4.8-5.81,8-9.74,11.36-3.95,3.31-4.67,3.5-8.44,5.23-3.77,1.73-10.03,5.5-12.06,6.68-2.06,1.15-6.85,3.51-6.85,3.51l-4.8.41s-3.63.31-.87,3.51c5.4,5.36,12.8,1.59,19.79-1.03,6.99-2.62,7.4,1.13,7.4,1.13,0,0-.56,1.18-2.72,4.54-2.21,3.36-7.3,9.44-10.64,12.95-3.36,3.46-5.66,3.34-8.3,6.66-2.61,3.34,4.67,3.19,8.3,1.32,3.62-1.9,9.01-5.83,11.49-7.57,2.48-1.75,4.79-5.95,6.26-5.05,1.45.87-.58,4.33-3.22,7.54-2.6,3.19-4.5,4.49-7.25,8.14-2.79,3.62,4.21,2.64,4.21,2.64,0,0,8.71-5.83,11.5-8.02,2.75-2.19,3.33-7.73,3.33-7.73,0,0,4.23.46,7.27-1.01,3.07-1.41,5.38-5.23,5.38-5.23,0,0,2.32,1.47,3.95,1.47s1.59-.75,3.76-2.04c2.21-1.34,3.65-7.73,5.83-16.47,2.16-8.7,1.18-17.27,1.18-17.27,0,0,6.38-8.48,16.41-17.34,10.05-8.82,15.42-16.57,15.42-16.57l5.39-1.13s7.7,12.9,12.49,18.57c4.83,5.65,6.85,9.18,6.98,17.63.15,8.43,2.34,12.9,2.21,16.98-.15,4.08-1.46,7.18-4.81,13.83-3.36,6.72-8.02,10.49-10.05,14.1-2.01,3.67,1.16,4.08,3.06,3.92,1.9-.12,4.79-4.33,7.13-7.23,2.33-2.95,7.27-6.87,7.27-6.87,0,0-.42,2.79-1.17,5.11-.73,2.33-2.31,4.95-2.31,4.95,0,0-1.89,1.46-3.48,4.97-1.63,3.46,1.59,4.47,4.36,3.6,2.73-.87,5.8-7.42,8.56-11.91,2.77-4.49,3.51-8.16,3.92-10.21.44-2.02,2.48-1.29,2.48-1.29,0,0,0,2.33-.15,7.01-.14,4.64-.44,7.08-1.46,11.76-.99,4.64,1.32,4.51,3.21,4.21s4.22-5.4,4.94-10.61c.74-5.26,1.76-14.39,1.76-14.39,0,0,.27-.62,2.17-1.34,1.89-.74,3.36-.57,3.36-.57,0,0,1.01,7.27,1.01,12.06s4.8,3.92,6.55.41c2.91-5.06-.45-15.52-.73-18.3,1.17-1.87.27-5.07.42-7.56.15-2.47,6.42-3.51,8-3.07,1.62.45,8.16,4.66,9.04,5.11.85.45,2.74,4.21,5.38,5.24,2.61.98,8.25,2.09,9.17-1.49.56-2.33-3.21-3.31-5.55-4.2-2.32-.87-.71-2.47-3.05-5.11-2.3-2.6-6.97-5.24-9.88-7.68-2.9-2.52-4.66-4.66-9.44-6.14-4.83-1.44-10.5-6.65-16.44-13.37-5.95-6.72-11.66-21.42-11.8-20.8-.15.57,8.01-.46,13.52-.46s11.5-2.47,43.94-7.25c32.43-4.78,50.19-8.58,65.03-14.1,14.82-5.53,14.08-6.1,32.98-10.62,18.94-4.51,41.48-7.13,62.56-7.13s28.23-7.13,33.9-10.47c5.68-3.36,17.17-9,35.78-18.34,18.62-9.29,29.52-11.19,29.52-11.19,0,0,3.92.43,8.15-.72,4.23-1.18,7.71,3.34,11.64,5.06,3.92,1.75,8.42.33,17.01-4.78,8.56-5.09,10.32-13.07,10.32-13.07,0,0,1.72-2.64,3.65-3.79,1.89-1.18.27-3.03,2.01-4.35,1.78-1.32,3.67-3.79,3.67-3.79,0,0,2.04-.86,4.49-2.06,2.48-1.13,4.37-3.2,4.37-3.2,0,0,1.32-1.3,3.64-1.85,2.34-.62,4.94-2.66,4.94-2.66,0,0,1.61,0,3.77-1.17,2.19-1.15,2.79-4.8,2.79-4.8,0,0,3.32-.84,5.81-2.76,2.47-1.88,3.17-2.78,3.17-2.78,0,0,1.34,0,3.48-.55,2.23-.6,2.38-2.07,2.38-2.07,0,0,1.74-.41,4.79-1.85,3.06-1.47,1.88-5.26,3.33-6.72,1.47-1.44-.58-3.62-.58-3.62Z"/>
</svg>