<?xml version="1.0" encoding="UTF-8"?>
<svg id="_レイヤー_1" data-name="レイヤー 1" xmlns="http://www.w3.org/2000/svg" viewBox="0 0 683.99 900.93">
  <defs>
    <style>
      .cls-1 {
        fill-rule: evenodd;
      }
    </style>
  </defs>
  <path class="cls-1" d="M123.42,0c5.54,1.6.91,6.52-.87,8.66,1.16-.87,2.31-1.73,3.47-2.6.72.29,1.44.59,2.16.87v2.15c-4.38,6.53-12.01,10.55-16.03,17.34,1.74,5.11,3.11,7.93,5.63,11.68h1.75c2.56-3.62,5.76-9.74,11.24-10.38.73.28,1.47.57,2.19.85.28.59.56,1.17.87,1.74-1.59,9.08-17.82,20.56-22.96,26.84-2.34,7.04,15.34,27.86,19.04,32.95,7.37,10.06,14.12,24.89,24.27,32.05,9.39,3.61,18.78,7.22,28.15,10.84,9.11,4.62,18.21,9.22,27.3,13.86,2.45,1.73,4.9,3.47,7.37,5.19,5.22,1.8,21.14,2.91,26.42,3.48v-.44c-2.84-7.07-10.79-11.6-17.76-14.29-.6,1.49-.58,1.33-1.74,2.16-9.85-3.05-34.9-43.45-25.12-56.33,5.22-6.88,11.49-8.91,22.09-10.83,23.12-4.13,38.6,16.08,43.76,32.95-4.67,5.04,4.56,12.59,7.37,17.31,5.63,9.46,7.99,22.12,19.05,25.98h7.8c2.34.59,3.99,3.13,7.38,2.61,9.22-2.61,18.47-5.19,27.71-7.8,10.1-2,18.9,2.94,29.46.88,12.57-3.19,25.12-6.35,37.69-9.55,8.21-4.75,16.46-9.51,24.68-14.29,12.13-4.33,24.26-8.67,36.39-13,9.27-3.99,18.29-8.78,27.73-13.41,1.86-1.74,3.77-3.47,5.64-5.22,6.72-2.76,39.29-1.61,41.59,2.17.12.73.28,1.45.43,2.17-.31.31-.59.58-.88.88-7.06.16-14.15.28-21.23.43.28.44.59.85.86,1.29,5.38,1.79,10,5.31,13.44,9.1-.11,1.96-.31,2.34-.88,3.45-.72.15-1.45.29-2.16.44-2.68-2.13-5.83-4.24-9.53-5.2,1.3,1.44,2.59,2.88,3.89,4.32-.41,1.89-.59,2.04-1.73,3.05-2.16-.71-4.34-1.46-6.49-2.17.06,2.93-.37,4.02-1.3,5.62-6.87-.92-13.41.39-19.5-2.15-6.05,4.18-12.15,8.37-18.2,12.56-14.85,9.23-29.75,18.48-44.61,27.72-5.72,3.1-13.39,1.91-20.8,3.89-19.2,5.49-38.41,11-57.61,16.48-.16.27-.31.58-.45.85,3.58,7.03-2.41,15.44,3.04,21.66,1.11.98.19.46,2.17.44-.28,4.82,3.77,9.65,6.49,12.98-2.57,7.59,10.21,28.9,15.18,31.19,14.53-8.81,19.55-23.37,32.03-35.5,14.45-10.55,28.89-21.08,43.33-31.62-2.14.31-1.17,1.31-2.16-.45.41-.28.85-.57,1.29-.85,3.45.79,1.3-1.26,3.9-3.03.63.83-.03.7,1.73.44.15-.44.29-.88.43-1.31-1.18-.51-.21-.14,0-1.31,1.6-1.29,3.19-2.59,4.77-3.9.72.31,1.44.59,2.19.86v-4.3c3.8-.54,4.07-2.32,7.35-3.04.53,1.88.89,2.44,2.17,3.47,1.62-1.61,3.27-2.52,4.77-4.34.43.42.84.87,1.29,1.29,0,.57,1.23,2.73,2.61,6.51h.45c-.29-.72-.6-1.44-.88-2.16.16-.16.27-.29.43-.44.45.14.87.28,1.29.44-.17,4.63.67,5.72,1.74,9.52.88-.84,1.73-1.72,2.61-2.59-2.04,12.71-24.36,24.27-26.86,32.48,1.27.53-2.63,4.16-3.47,5.64,3.05.24,2.41.69,3.89,2.16,10.71-5.14,19.16-13.29,29.9-17.75,9.5-3.95,18.94-5.9,26.87-11.27,10.82-7.35,19.23-17.66,30.31-25.13,12.71-8.59,27.07-14.91,38.11-25.12,11.93-11.04,19.47-25.38,33.38-34.64,6.4-4.28,44.71-23.2,52.41-22.11,2.26.32,3.28,1.93,4.77,3.05,2.02,3.88,4.04,7.79,6.06,11.69-2.15,12.31-30.91,24.15-40.73,31.21-3.73,2.67-6.12,8.64-10.82,10.38-1.17-.13-2.32-.29-3.47-.43-1.89,1.16-3.76,2.31-5.63,3.46-3.93.87-4.38-3.38-7.81-1.29-8.11,3.46-14.19,13.79-19.48,20.35-12.13,13.73-24.26,27.45-36.4,41.15-18.24,19.68-48.11,26.55-69.32,43.33-11.88,9.41-19.08,24.12-29.44,35.09-11.65,12.34-26.22,23.26-36.83,36.39-9.83,12.18-20.66,24.94-36.39,31.18-.18,17.9-3.33,37.01-6.51,53.72-1.23,6.49.46,13.99,1.3,19.07,1.96,11.65-.46,23.82-2.17,34.23v20.79c-2.02,7.37-4.04,14.73-6.06,22.08-2.01,11.1,2.33,22.18,3.91,31.64,1.95,11.77-3.03,32-5.2,42.03-3.45,15.79,1.51,32.39,4.76,41.16,2.1,5.64-1.63,9.79-.42,16.01,3.08,16.03,3.01,59.31-7.38,69.32-1.3.29-2.6.58-3.9.86,17.38,13.32,7.34,40.92,1.29,58.49-3.1,9.06.58,19.12-.42,29.89-1.79,18.99-15.12,53.23-6.93,74.08-1.13.19-.25-.41-1.28.44,2.68,1.08.69,1.49,3.01,2.14-.28,2.76-.57,5.52-.86,8.25,1.94,6.4,7.78,18.52,4.77,27.29-4.11,11.97-32.38,10.04-39.44,2.16,0-7.55,1.06-6.09,3.06-9.94,2.29-4.49,4.04-28.09,3-35.97-5.5-42.71-18.44-76.28-1.28-117.37-3.56-2.93-7.29-8.34-12.12-11.29-5.22-1.73-10.4-3.46-15.61-5.2-9.08-4.34-18.2-8.65-27.29-12.98-16.96-9.11-31.77-21.89-47.64-32.08-19.84,15.12-30.19,40.03-49.4,55.45-8.44,6.8-16.57,11.47-26.42,17.33-12.7,9.81-25.42,19.63-38.11,29.46-6.27,5.1-9.18,13.11-13.87,19.93-5.78,6.64-11.56,13.27-17.33,19.92-12.97,16.13-34.3,27.68-36.82,52.83,5.48.71,17.81,8.8,13.41,14.75-3.45,6.31-65.05,21.87-59.34-3.9,2.07-9.31,8.35-8.7,12.56-13.84,2.59-3.17,2.22-5.44,4.34-9.56,1.22-2.32,6.4-6.9,8.22-9.93,16.77-27.94,25.8-62.38,47.25-87.52,13.83-16.23,36.96-23.49,49.8-40.73,4.9-8.95,9.82-17.9,14.72-26.85,8.24-12.13,16.47-24.26,24.71-36.4,3.86-6.94,6.27-14.57,10.82-20.79-3.11-17.6,1.3-30.37,6.5-42.88-1.77-.03-1.3-.06-3.03.43v-1.75c3.83-8.13,29.54-22.06,30.34-32.47-.72-1.75-1.45-3.46-2.17-5.18-.95-4.11,1.17-6.67-.44-9.98-1.66-3.38-8.24-11.35-10.83-15.59-2.9-4.76-2.01-17.51-5.63-23.39-2.47-2.47-4.91-4.91-7.37-7.37-.87-3.88-1.75-7.81-2.61-11.71-2.37-3.24-7.4-4.04-9.53-7.79-.58-2.73-1.14-5.5-1.74-8.22-7.21-12.05-6.97-26.08-.43-38.58-9.34,1.76-19.02,7.91-26.84,11.72-1.27-2.27-2.8-2.76-6.5-2.61.16.45.28.87.43,1.28-8.9-1.64-11.82-6.73-16.03-12.97-10.62-15.74-20.08-26.39-9.54-47.65,2.19-4.4.61-6.14,3.48-9.97h.41c.32,1.98-.74,1.1,1.31,1.72-.66-8.3,2.52-24.45,15.18-21.65,3,1.02,6.06,2.01,9.08,3.01,1.89-.71,3.76-1.41,5.63-2.14,7.38-1.77,13.6-.23,19.07.87,7,1.4,12.1-7.55,19.07-2.6-.02,2.83.39,5.53,1.31,7.37,4.94,1.56,2.67,2.3,5.2,4.31,4.73,3.78,17.11,2.37,17.76,10.41.4,4.99-2.02,11.8-1.73,18.19,4.22-.78,7.91-1.34,10.81-1.28.2-2.2,2.18-5.37,4.77-6.51v.44c-.72.85-1.44,1.73-2.16,2.6,7.9-5.07,10.17-17.17,17.35-22.97,2.48-2.03,7.2-1.5,9.94-3.47-.59-.85-1.16-1.71-1.72-2.58,1-1.93,1.66-2.67,3.02-5.18-1.06-.86-.18-.27-1.3-.45,3.79-7.96,8.55-13.54,12.56-20.37,2.02-5.49,4.03-10.97,6.06-16.45,2.6-2.44,5.21-4.91,7.8-7.37.88-4.63,1.74-9.23,2.6-13.85,3.56-9.45,8.84-22.13,14.74-29.91-.78-11.73-10.07-28.48-17.34-33.36-3.33-1.29-6.63-2.6-9.96-3.88-7.6-5.85-12.8-16.94-21.22-21.67-7.24-2.89-14.45-5.77-21.66-8.67-6.94-5.63-13.86-11.24-20.8-16.86-5.33-2.48-10.7-4.93-16.03-7.4-26.88-16.37-51.33-31.9-66.27-60.66-4.91-9.43-8.89-20.03-13.87-29.87-2.59-4.34-5.21-8.67-7.81-12.99-1.21-7.77,5.84-31.57,9.53-36.81-2.04-6.83-4.98-14.56-6.06-22.53.15-.16.29-.31.43-.45h3.91c2.03,5.49,4.04,10.98,6.06,16.48.41-.3.86-.58,1.29-.88,3.31-7.3,11.01-11.56,15.61-17.76ZM330.49,374.73c-.72,3.6-1.45,7.23-2.16,10.81-1.8-2.06-2.34-6.08-3.9-8.21-.88.56-1.73,1.14-2.6,1.73-.28,2.3-.59,4.62-.86,6.93-.73-.44-1.45-.87-2.16-1.3.76,4.44-2.06,6.23-4.34,6.94v-5.21c-.29.15-.59.29-.88.44-.14,1.45-.28,2.88-.43,4.31-.56-.72-1.15-1.44-1.73-2.15v.86c-.72,1.74-1.45,3.46-2.16,5.2-3.51.3-3.35.96-5.65,2.59v-5.18c-.11.72-.27,1.43-.42,2.15-.3-.12-.57-.28-.86-.43,1.26-3.1,2.11-4.52,1.73-7.35-.3.14-.56.27-.87.43-1.14,3.88-2.31,7.8-3.46,11.68h-.43c-2.5-1.11-2.57-1.79-2.62-4.33-.41.44-.84.88-1.29,1.33.57-1.76,1.17-3.48,1.74-5.23h-.45c-1.12.45-.71.7-1.72.44-.19-1.11.41-.23-.45-1.29-.27.29-.56.57-.84.85-.22,1.48.44.58-.88,1.75-1.21-2.94-2.28-2.63-3.9-.45.63,1.83.62.5-.85,1.75-.59-.44-1.17-.87-1.76-1.3-.15,1.15-.28,2.3-.43,3.48-1.7-.5-1.51-.25-3.9.41v-2.59c-.85,1.87-1.72,3.75-2.6,5.64h-.87c.19-3.56.35-4.84-1.29-6.94-4.74,3.56-2.56,7.11-6.06,10.38.14-1.44.29-2.88.43-4.33-.74.59-1.46,1.15-2.17,1.74-6.34,8.66-12.69,17.31-19.05,25.99,12.84,21.14,25.76,45.52,32.93,71.48,2.44,18.63,4.91,37.26,7.35,55.88,1.61,5.21,3.2,10.42,4.77,15.6,2.29,3.69,10.2,11.05,9.97,15.15h-.43c-6.29-4.37-11.09-13.04-19.07-15.15-.15.14-.29.29-.43.43-.45,11.69-8.13,32.41-5.2,43.77,1.84,7.15,12.98,10.75,19.93,14.26,12.32,6.3,24.59,18.05,33.36,28.19,2.16,2.52,10.51,14.28,12.58,13.85.23-11.04-1.15-24.56,2.14-33.79,3.42-9.53,8.33-25.38,6.49-35.93-4.05-23.36-9.23-43.34-14.28-66.3-1.68-7.56-5.08-16.99-3.47-27.28,2.51-16.22,4.41-32.05,7.35-46.36,3.65-17.82-4.47-42.69-8.23-57.2-1.86-9.38-3.76-18.76-5.63-28.14Z"/>
</svg>