<?xml version="1.0" encoding="UTF-8"?>
<svg id="_レイヤー_1" data-name="レイヤー 1" xmlns="http://www.w3.org/2000/svg" viewBox="0 0 513.61 869.36">
  <defs>
    <style>
      .cls-1 {
        fill-rule: evenodd;
      }
    </style>
  </defs>
  <path class="cls-1" d="M141.76,606.57c-2.02-.21-2.07-1.03-3.22-1.94,0-5.63.45-11.45-.34-16.78-.57-3.96.45-8.76-.33-12.25-.76-3.46,0-7.43-.64-10.33-.82-3.63.24-10.8-.97-12.89v-14.84c-.88-1.98-5.27-5.4-7.1-6.76-2.2-1.65-4.1-4.01-6.15-5.82-3.56-3.16-7.39-5.86-10.95-9.02-10.46-9.31-19.11-20.82-30.64-29.04-2.05-1.44-4.47-2.01-6.78-3.22-4.71-2.45-9.78-5.06-14.18-8.06-3.32-2.27-6.35-5.53-9.67-7.75-1.19-.4-2.38-.85-3.55-1.27-.49-.32-1.08-1.38-1.63-1.62-2.45-1.05-6.97-.73-9.67-1.61-7.4-2.4-12.98-5.35-17.41-10.65-1.46-1.72-2-5.67-3.25-7.74-.67-1.14-2.16-1.84-2.9-2.91-2.21-3.21-3.4-6.61-5.48-10-1.62-2.6-3.5-5.36-4.51-8.7-.33-3.13-.65-6.24-.97-9.36-5.44-22.1,5.49-42.2,14.85-54.82,7.49-10.15,19.32-18.23,31.59-23.54,7.61-3.31,16.08-5.11,23.56-8.41,1.76-.76,3.56-2.25,5.16-3.21,1.87-1.14,3.86-1.56,5.8-2.58,3.55-1.84,7.37-4.02,10.94-5.8,11.27-5.63,22.7-10.48,33.56-16.13,5.37-2.8,10.78-4.61,16.44-7.1,4.48-1.96,8.62-4.97,12.59-7.41,1.8-1.12,3.69-1.45,5.49-2.58,3.5-2.2,4.53-7.42,8.05-9.69-.04-6.29-2.23-12.33.64-16.76,2.19-3.36,5.69-3.53,9.36-5.49,3.15-1.67,6.18-4.42,9.02-6.44.47-.34,1.33-.19,1.63-.66.21-.97.42-1.93.64-2.91,2.53-4.31,6.16-9.4,9.68-12.89.73-.76,1.93-1.07,2.58-1.95.98-1.31,1.85-2.66,3.23-3.53,3.06-2.04,7.36-3.55,10.95-4.82,1.18-.23,2.36-.44,3.54-.67,2.69-1.34,4.78-4.21,7.42-5.48,3.7-1.76,7.11-2.91,10.32-5.16,1.87-1.3,3.1-3.53,4.86-4.84,1.04-.8,2.76-1.22,3.54-2.26,1.42-1.86,2.18-3.96,3.55-5.81,3.12-4.2,7.84-7.35,11.61-10.96,1.09-1.06,3.02-3.76,3.55-4.19,4.16-3.51,10.09-4.06,17.74-4.19,1.19-.11,2.37-.22,3.54-.31,1.63.4,3.34,1.42,4.84,1.92,2.23.73,4.98,1.13,5.81,3.22,4.08-.73,4.58-5.95,6.13-9.36,2.84-6.32,6.39-13.41,10.32-19.03,1.44-2.04,3.49-3.99,4.84-6.11,1.35-2.15,1.82-4.64,3.22-6.78,1.81-2.76,4.29-5.65,6.12-8.38.64-.95.65-2.01,1.3-2.91,1.13-1.56,4.57-5.36,6.13-6.46,1.04-.72,2.33-.81,2.91-1.94.65-1.29.3-2.35.96-3.54,2.16-3.91,5.48-7.47,7.75-11.3,2.04-3.46,2.46-7.63,4.5-10.95,1.33-2.2,3.44-4.46,4.53-6.77,1.86-4.06,2.75-8.25,4.83-12.26,1.56-3.03,3.98-6.43,5.49-9.34,1.34-2.67.71-6.76,1.92-9.69-3.27-2.18-.75-2.63-1.61-4.83-.29-.74-1.59-1.29-1.93-2.27-1.91-5.35-2.57-14.34-1.3-20.63.38-1.83-.56-2.7-.98-4.2.22-2.99.44-6.02.66-9.02,1.48-1.46,2.58-3.49,4.52-4.52,3.31-1.78,7.75-1.97,11.92-2.91h5.17c3.44-.75,10.1-.73,13.54,0,7.2-.1,14.39-.2,21.61-.31,9.26,0,17.52-1.51,24.85-3.55,2.5-.7,5.61-.42,8.06-.96,4.39-.98,14.74-.52,18.69.31,2.26.11,4.53.22,6.78.33,4.84,1.12,10.51,1.18,15.47,2.59,7.36,2.06,13.81,4.83,19.67,8.04.14,12.59-3.85,15.92-13.21,18.07-3.74.84-9.98-1.27-12.58,0-.22.42-.44.86-.65,1.29-1.59,1.1-5.36,2.48-7.08,3.21-4.24,1.78-8.57,1.72-13.24,3.23-3.12,1.05-5.81,3.43-9.68,3.54v.98c-3.9,1.74-8.65,6.87-13.54,2.9h-.33v.65c.8.77.93,1.26,2.27,1.61-.77,1.85-4.51,4.9-7.12,5.15-1.08.11-1.74,1.42-2.88,2.27-1.31.95-3.21,1.2-4.52,2.25-.76.63-.69,1.41-1.28,2.27-.34.09-.65.2-.98.31-.64.86-1.28,1.72-1.93,2.58-.66.11-1.3.21-1.93.32-.33.55-.65,1.08-.98,1.61h-2.58c.49.79.16.51,1.29.63-.49,1.5-1.99,2.5-3.21,3.25v.31c7.18.04,13.29.89,18.05,3.56,2.26,1.27,3.79,3.93,5.81,5.49.17,2.94.42,5.6-1.6,7.09-.7.51-1.08.32-1.61.96-2.46.1-5.19,1.44-8.07.66-3.26-.9-5.83-3.67-9.36-4.2.86,5.48,3.37,10.94,5.17,15.8.64,2.37,1.29,4.74,1.94,7.1-.22,1.01-.06.79-.65,1.28v.34h-.33c-3.65-5.54-4.39-15.22-8.71-19.99v-.33h-.32c.27,1.47-.15,5.5.65,6.78v3.22h-.33v-.34c-1.75-.81-1.46-12.23-2.9-14.5-.06-2.09-.96-2.79-2.57-3.23-.39-.26-.55-.26-1.29-.33v1.95c-.4.37-.7.8-.98,1.28-.94.02-1.76.02-2.27-.32-2.56.53-2.36,3.21-3.54,5.17-.43.2-.86.42-1.28.65.1.3.21.64.31.96-.75.82-1.45,1.25-2.25,2.26.52,8.29,7.62,10.32,11.95,14.83,2.62,2.72,4.05,6.73,5.47,10.64.23,1.18.42,2.36.64,3.55.78,1.55,2.88,2.52,3.89,3.87,2.65,3.59,6.48,7.25,6.44,13.22-2.27,2.36-4.53,4.73-6.76,7.1-8.71,6.6-16,15.06-24.84,21.62-4.2,3.09-8.36,6.39-12.6,9.34-1.35.95-3.59,1.53-4.51,2.91-.88,1.32-.67,2.92-1.29,4.5-.96,2.53-2,5.69-3.22,8.39-1.35,2.94-4.26,5.09-5.8,7.75-2.07,3.56-2.36,7.92-3.88,11.93-.71,1.84-2.15,3.74-2.9,5.49-2.66,6.21-4.77,13.78-10.01,17.41-.21,3.65-.41,7.31-.63,10.96-1.47,3.59-5.7,6.27-6.79,10.32-.73,2.76,1.15,5.09.33,8.08-2.37,8.6-6.79,13.76-11.29,19.98-1.68,2.3-3.48,6.21-6.46,7.11,2.13,2.41,1.13,3.77,2.25,7.09.17.45.93,1.83,1.32,2.25h.64c.88,1.34,0,2.87.64,4.52.39,1.02,2.13,2.88,2.91,3.88,1.67,2.16,6.04,1.36,8.39,2.91.54.35.53,1.12.96,1.61,3.78,4.2,8.04,8.15,10.32,13.87,1.14,2.81.66,6.88,1.29,10-.11.97-.22,1.92-.33,2.89,1.32,7.77,5.35,15.11,12.58,17.09.41,2.03-.44,5.78.32,8.06,2.51,7.57,6.88,13.85,7.74,22.91,3.69.12,3.21-1.83,7.11-2.58,2.21-.42,4.5,1.19,6.14,1.62v.63c-1.95-.95-6.32-2.28-8.39-.31-.93.37-.6.03-.96.97h-.34c1.28,1.18,3.17,1.78,4.21,3.21,1.03-.26,1.49-.38,1.91-1.29.25.35.21.28.33.97,1.69.03,3.53.04,4.52-.64,0,0,1.27-.08.67-.33h-.33v-.33c.79.48.37-.07.64.98,1.99-.16,5.22-1.95,5.8-3.54,1.08.09,2.15.2,3.23.31.48.49,2.38,3.07,2.59,3.23,1.18.92,2.3.77,3.21,1.94.64.29-.18.12.34.63.31.96.88,1.72,1.61,2.27-.08,1.8-.42,3.28-.97,4.51,4.69-2.25,9.66-4.58,15.17-6.11,3.11-.33,6.23-.66,9.34-.99,20.39-5.03,37.5,5.76,47.42,15.5.91.87.81,2.5,1.61,3.53.31.11.65.21.96.32.49.71,1.33,2.03,1.61,2.59,1.48,2.94,2.65,7.18,3.53,10.32.49,1.7.06,2.8.65,4.51,5.01,14.35,6.92,35.35.99,50.32-1.06,2.56-1.19,5.28-2.6,7.41-3.11,4.74-12.77,9.38-19.04,11.29-2.96.9-5.54.33-8.71,1.29-2.39.74-5.88,1.59-8.71,2.26h-2.89c-2.01.5-3.67,1.53-6.14,1.61v.32h-.3c.57,1.87,1.74,3.27,2.56,4.84,1.67,3.19,3.16,6.84,4.54,10,1.82,4.2,3.21,9.03,4.5,13.21v1.94c.26.61,1.36.79,1.63,1.31.47.98-.53,1.94-.33,2.57.12.34,1.12,1.17,1.29,1.61.55,1.4.98,3.01,1.3,4.2.76,2.81-1.28,3.6.33,5.8-.39,3.67-4.28,4.19-6.78,5.8-1.2.76-2.06,2.09-3.55,2.57.21,3.74,1.79,5.97,2.57,9.02,1.56,6.11-4.53,11.58-9.35,11.61.02,5.59-1.02,11.72-4.19,14.19.24,1.06.64,1.36,1.3,1.96v.63c-.7-.45-1.18-.93-1.64-1.61-3.38.53-5.33,2.58-9.33,2.58v.31c2.22,1.48,4.5,4.69,7.09,5.48.14,1.78.14,2.73,0,4.52-1.04.99-1.81,2.28-3.22,2.92-1.43.61-3.02.46-4.19,1.28h-.64v-.65c.83-.38,1.71-.2,2.9-.63,1.33-.5,2.45-1.92,3.87-2.6-.05-2.14-.72-2.34-2.9-2.26.34-.25.29-.2.97-.33v-.95c-2.14-1.1-5.13-3.51-6.45-5.49-1.55.42-1.39,1.59-2.26,2.59.62,2.92,4.62,2.13,6.76,3.54h.33v.31c-2.34-.18-6.55-1.08-7.75-2.56-4.71,1.72-5.79,6.75-11.61,7.42.21.71.23.84.65,1.27v1.28h-.32c-.9-2.88-4.38-2.91-6.79-4.17v-1.3c1.72-.25,5.61.42,6.79-.65-.06-.24.08-.22-.64-.64-.35-.2-2.41-.07-4.19.31v-.31h-.32c.13-.87.38-3.13.66-3.57.87-.56,2.2-.28,3.19-.31-.68-1.4-1.64-4.2-.31-5.8v-.32c-1.15.58-2.68,2.57-3.55,3.54h-.97c.9-1.48,2.12-3.06,3.22-4.52-1.86-1.23-4.48-.96-6.13-2.25-.39.58-.71,2.03-.96,2.58-2.59-.03-3.53-.69-5.49-.97v-.33h-.32v-1.28c.76.42,1.05,1.28,1.62,1.61.89.51,2.14.16,2.9.64h.32c-.32-.84-.67-.49-.95-.97-.59-.92-.4-3.13-.98-4.18-.36-.71-.82-.39-1.28-.33.11-.32.21-.64.32-.97-.68-.96-2.07-2.16-2.59-3.22-.92-1.91-1.1-10.58,0-12.26.83-1.24,2.79-1.49,4.21-1.62-.28-1.16-.47-1.67-1.3-2.25v-.31c.79.24,1.1.44,1.63.95h.3c-.68-1.93-2.32-2.74-2.9-4.83-.77.42-.22-.15-.64.64h-.96c.28-.66.87-1.46.64-1.61v-.95c-.91.36-.61.03-.97.95h-.62c.41-1.31.6-2.37.96-3.87h-.34c-.32-.27-.08-.13-.62-.3-.76.8-1.49,1.41-2.92,1.58v.97h-.32v-.31h-.32c.28-1.83,1.4-1.73,2.26-2.9.86-.3-.27-.51-.63-.66v-.65c.85,1.4,3.08-.48,3.53-.64v-1.93c-1.22-.04-2.77-.12-3.53-.65-1.24.3-1.14.31-1.31,1.62-.26-.34-.02-1.16-.32-1.62-1.1-1.64-3.91-.33-3.22-3.87-1.34.07-1.47.23-2.25.64.02,20.75,4.1,47.31-.66,66.1-.22,2.82-.43,5.61-.64,8.4-.88,3.07-2.08,6.41-3.24,9.04-1.06,2.41-.8,4.8-1.93,7.1-1.29,2.63-2.82,5.66-4.51,8.06-.45.31-.86.64-1.3.97-.83,1.47-.85,5.62-.97,7.09-1.74-.07-2-.47-2.58-1.62-2.15.2-5.59,1.84-7.08,2.92-1.71,1.25.6,2.41-3.24,2.56-.2.85-.47,1.68-.96,2.26,1.07,2.94,5.33,4.43,6.45,8.08.83,2.74-1.06,4.93-1.61,6.43-.73,2.07-.62,6.17-1.61,8.07-.44.32-.86.64-1.3.96-.77,1.38-.7,2.72-1.62,3.88-.81,1.04-2.27,1.3-2.9,2.58-1.85,2.93.33,6.72.96,9.03.54,1.93.34,5.12-.64,6.44-.33.11-.64.22-.98.33-.87,1.83.51,5.71,0,6.77.41,2.43,3.24,5.38,4.51,7.08.61.81.44,1.76.98,2.59.51.77,1.74,1.52,2.26,2.25.32,1.2.64,2.37.96,3.55.47.79,1.55,1.64,1.94,2.59.54,1.41.09,2.3.63,3.87.29.76,1.32,1.81,1.62,2.56,2.01,5.26,2.94,10.95,4.85,16.14.2.57.97,6.68.96,6.77-.08.35-.79.14-.66.97.22,1.25,1.83,1.96,2.26,2.9.31.66.05,1.48.31,1.93-.18.85-1.59,2.29,0,4.2.41.76,1.05,1.04,1.94,1.28.17,1.59-.47,3.51-.31,4.19.4,1.86,2.04,4.83,2.57,6.45.72,2.14.21,3.79,1.3,5.49.32.09.64.21.96.32,1,1.52.25,3.76,1.3,5.16.16.2,1.14.41,1.29.63.79,1.22.24,2.61.96,3.88.01.04,2.1,2.01,2.26,2.26.44,1.3.85,2.58,1.28,3.87.43.6,1.59.88,1.94,1.61,1.32,2.69,1.99,8.14,5.49,8.38.37.78,1.48,2.18,1.61,2.92.15.9-.61.43-.65.64-.16.85.54.61.65.98.2.67-.44.99-.33,1.29.65.53,1.3,1.06,1.93,1.61v2.57c.55.43,1.1.86,1.62,1.28.82,1.16,1.09,2.46,1.93,3.56.53.32,1.07.65,1.61.95-.4.58-.31.81,0,1.29v.32c.21-.11.45-.2.64-.32.59,1.29,1.23,2.2,1.94,3.24h5.81c.53-.23,1.12-1.35,1.6-1.63,1.12-.62,3.52-.36,4.53-.96,1.92-1.2,4.2-3.56,7.1-1.29,1.75.55,2.87,3.2,1.61,4.83.05.84.13,1.1.31,1.6h6.46c.97-.22,2.67-1.12,3.56-1.29,1.72-.32,3.26,1.19,5.49.65,2.82-.68,8.95-2.3,11.6-1.29.32.11.64.21.97.32.3,1.49.2,3,0,4.52-2.91,2.08-6.45,5.16-10.32,6.12v.96c2.56.61,5.46,1.59,8.07,2.26,1.7.22,3.44.44,5.14.65,1.74.64,3.92,1.97,5.8,2.59,2.63.85,6.74.45,8.07,2.58,1.63,2.58-.82,5.73-1.61,7.09-4.75,1.18-16.95,1.53-21.62.65-2.68-.52-7.47-1.06-9.68-.65-2.53.47-6.49.23-9.35.95-5.18,1.35-10.75,2.92-16.44,4.2h-3.87c-4.22.93-11.56,1.24-16.13.32-2.09-.42-6.45.23-8.38.66-4.15.89-7.54-.87-10.97-.98-2.27-4.79-3.64-9.89-6.45-14.19-1.28-1.95-3.36-3.88-4.83-5.81-.23-.26-1.14-.38-1.3-.64-.54-.8-.17-1.87-.64-2.59-.81-1.18-2.37-2.1-3.23-3.21-3.75-4.87-6.81-10.07-10.32-15.15-1.41-2.07-3.73-3.84-5.15-5.81-.68-.95-.65-1.99-1.3-2.91-9.49-13.51-18.03-28.62-25.8-43.86v-1.3c-.91-2.22-2.81-4.41-3.88-6.45-2.41-4.55-3.33-9.07-5.16-14.18-1.81-5.01-4.85-10.03-6.47-15.5-1.01-3.49-1.59-8.31-1.6-12.24,0-2.41.67-6.98-.31-8.73-.84-1.52-2.74-1-4.54-1.6-2.33-.81-4.8-2.76-7.09-3.55-1.62-.56-2.68-.15-4.19-.65-2.81-.95-5.24-3.09-7.74-4.19-6.51-2.85-13.3-4.91-16.12-11.29-2.34-5.31.43-12.8-.96-19.02-2.68-11.96-2.77-25.88-5.48-37.41-1.01-4.22.04-11.42-1.94-14.52-.06-3.8-3.05-2.91-5.81-3.88-5.06-1.76-10.86-3.04-15.8-5.15-1.82-.77-5.04-3.25-7.09-3.21-4.99.06-11.3,4.3-16.76,3.21-9.65-1.9-16.19-6.57-23.23-10.97-4.04-2.52-7.73-4.15-10.34-8.05-2.32.89-3.43,4.43-5.47,5.81-1.32.87-3.44,1.78-4.85,2.24-.87.1-1.72.23-2.58.33-1.1.65-.12,1.92-.65,3.22-.18.51-.95.82-1.28,1.3-3.1-.02-5.23-1.13-8.38-.32-1.16.3-3.77,1.22-4.84.64-.32-.1-.63-.22-.97-.31v-1.3c-.89,0-1.48,0-1.92-.31ZM422.02,71.83h-3.55c.38,1.62.93,3.78,1.94,4.84.79,1.56,3.26,1.78,4.52,2.9,3.6-.38,3.79-3.83,5.49-6.14v-.32c-1.65-.35-4.29-.68-5.49-1.62-1.07-.01-2.32-.07-2.91.33ZM433.32,73.44c-.67,3.21-1.53,5.59-3.89,7.1.53,1.38,3.08,2.82,4.54,3.23,2.9,1.91,6.17-.85,8.38-1.61.1-.89.24-2,.64-2.58-.4-4.26-5.34-4.17-8.06-6.14h-1.6ZM281.4,362.41c.8-2.84,2.75-6.09,3.87-8.71.64-1.92,1.28-3.85,1.93-5.81,1.14-2.33,4.16-5.9,1.62-9.01.04-1.95.52-5.81-.31-7.09-.29-.23-1.03-.46-1.3-.67-5.31.08-6.31,2.71-9.36,4.84-5.86,4.15-11.5,8.68-17.4,12.59-7.28,4.85-15.14,9-22.58,13.55-2.36,1.45-4.99,1.8-7.44,3.23-2.01,1.19-4.26,2.92-6.43,3.86-6.26,2.73-13.42,4.47-19.37,7.12v2.56c3.62.1,6.33.66,8.7-1.61,2.88.08,3.94,1.93,4.85,3.87,3.31-.47,4.42-4.41,5.82-6.76,9.74-.17,8.12-2.73,13.55-6.14,1.6-1.03,5.49-1.97,7.41-.63,1.71.79,1.19,2.41,2.26,3.85.68.93,2.18,1.03,2.91,1.94,2.3-.11,4.17-1.09,6.43-1.62h4.2c.93-.39,1.89-1.92,2.89-2.24,2.3-.77,5.02,2.05,7.75,1.28,3.47-.97,5.84-4.13,10.96-4.19-.21-1.4-1.47-2.33-.96-4.2ZM393,507.55c.34-.71-.23-1.8-.32-3.23-.33-.1-.65-.21-.97-.32-.39,1.09-.63,2.45-.64,3.89.88-.02,1.48-.02,1.94-.34ZM386.23,505.29c-.13.22-.22.42-.33.64-.22.31.04.72-.33,1.29v.32c1.52-.27,1.67-.83,1.92-2.25h-1.27ZM389.76,506.9v-.32h-.3v.32c-.89.52-1.23,1.87-1.95,2.58v1.28c1.06-.39.73-.67,1.95-.96.04-1.42.47-2.52.3-2.9ZM390.4,508.19c-.4,1.12-1.1,2.15-1.27,3.88-.57-.22-.33-.07-.65-.33h-.64c.25,1.47,1.53,3.15,2.91,3.55.47.21.12.41.64,0,.9-.04,1.38-.12,1.94-.31-.24-2.65-.77-3.79-.66-6.46-1.08-.05-1.45-.19-2.27-.33ZM385.9,515.61c-.25,1.39-.06,2.12,0,3.86h.95c-.26,1.29-.34,2.74,0,3.24.28,1.29.73,1.61,1.95,1.93.34.26.08.11.65.31.44-.8.63-1.13.63-2.57.56-.21.32-.08.67-.33,1.33.18.92-.24.95.98.44-.11.87-.23,1.3-.32v-6.13c-2.16.32-4.46-.39-5.15,1.93h-.65c.11-.96.21-1.93.3-2.9h-1.6ZM390.75,520.77c-.51.21-.15.42-.67,0,.05-.31.74-1.15,1.62-1.61-.25.62-.56,1.15-.95,1.61ZM389.45,525.94c-1.01.15-.77.2-1.61,0-.15.68-.32,1.47-.65,1.93v.64c.53.11,1.06.23,1.61.32-.28-1.05.17-.49-.65-.97v-.32h1.3v-1.61ZM389.45,529.48c-.34-.3-.04.03-.32-.34-1.03.11-1.03.3-1.63,0h-.65c.36,1,.8,1.17,1.3,1.95h1.3v-1.61ZM393,554.64v.64c-.32-.21-.65-.43-.97-.64.13-.67.08-.63.32-.98.3.77.11.53.65.98ZM407.51,556.26c-.11-.33-.21-.66-.32-.98-2.29.05-5.55.65-6.13.32h-.64c.31,2.91,2.67,3.15,3.86,5.16,1.16-.42,2.23-2.07,2.58-3.23h.99c-.08-.74-.08-.91-.34-1.28ZM404.28,557.22c-.18.49-.23.53-.33,1.28-.64-.08-1.29-.2-1.92-.33.14-.73.28-.35,0-.95.4-.94.11-.27.97-.65.5.58.26.46,1.28.65ZM447.5,558.17v-.3h-.66c-.23,1.19-.4,1.99.34,2.9-.18,3.49-1.88,1.7-4.2,2.9-1.15.61-1.88,1.95-3.23,2.59v1.61h-.96v.32h-.34c.28,3.76,3.19,4.74,5.83,6.13-.11.55-.23,1.08-.32,1.63,8.37-.63,9.62-13.8,3.54-17.77ZM443.96,560.13c-.43-.22-.86-.45-1.3-.66-.28.38-.27.38-.65.66v1.27c.65-.09,1.29-.22,1.95-.32v-.95ZM395.27,562.69v.34h-.67c.2-.73.23-.86.67-1.29.13.72.25.34,0,.95ZM404.93,574.63c.09,2.54,1.03,2.75,1.61,4.53.57.21.32.06.65.31.96-1.24.68-3.86,1.6-5.15-.24-.74-.33-.71-.64-1.3-1.28.54-2.01,1.1-3.22,1.61ZM423.63,577.22c-.48-.34-.64-.49-.98-.98-1.14.24-.89-.03-1.29.98h-.31c.36.46.65.69.96,1.28h1.61v-1.28ZM406.22,581.4c-.55-.86-.02-.45-.97-.32,0-.88,0-1.47-.32-1.93-.37-1.01-.88-1.32-1.93-1.61-.44.39-.56.45-1.3.64.37.89-.13,2.71.33,3.86.76,1.92,2.07,2.23,3.23,3.89h1.61c.04-1.8.1-3.58-.64-4.53ZM436.53,578.83v.32c.58.4,1.16,1.09,1.62,1.61h.65c-.14-.67-.09-.63-.34-.98-.27-.68-.26-.45-.64-.95h-1.29ZM434.27,578.83c.3.7.3.46.65.95h.65c-.29-.68-.28-.45-.65-.95h-.65ZM421.37,581.74v.64c2.16-.26,1.4-1.25,2.92-1.94-.06-.82-.16-1.09-.33-1.61-1.06.1-2.14.21-3.22.32,0,1.34.04,1.93.64,2.59ZM409.44,579.78v.34h.33v2.26h.64c-.21-1.12-.21-1.49,0-2.59h-.97ZM437.18,580.76c-1.09-.08-1.93-.17-2.57-.65h-1.63c-.57,2.6-.36,3.76.33,5.81,1.59-.37,2.4-1.34,4.18-1.62.42-1.88.65-1.92-.32-3.54ZM413.32,581.09v1.62h.96v-1.62h-.96ZM410.4,586.25v.65c1.31-.13,1.61-.27,2.27-.96.18-.3.1-1.06-.32-1.62-.26-.39,0,.12-.32.33h-.32v-.33c-.18-.3.17-1.63,0-1.93-.23-1-.22-.67-.66-1.29-.87,1.24-.87,4.7-.64,5.16ZM443.96,584.95v-.31c-.36-.31-.05.02-.32-.33h.65c-.22.56-.07.32-.32.64ZM436.86,587.85c.7.3.46.28.95.65.43-.93.76-2.34.98-3.56-.35-.29-.03.04-.34-.31-1.13.25-.77.42-1.93.64.52,1.02.22.4,1.29.32-.1.33-.2.65-.31.97-.75.19-1.01.37-1.61.65-.11-.32-.21-.65-.31-.97-.34.29-.03-.03-.32.32-.33.12-.64.21-.98.33v.96c.34-.1.65-.21.98-.31.18.49.22.54.32,1.28h1.29v-.96ZM419.12,589.48c.52,1.22,1.69,1.14,2.57,1.92.66-.8.9-1.85,1.62-2.59-.01-2.22-.48-2.33-1.29-3.54-1.57.86-1.59,3.08-2.9,4.21ZM416.86,586.25c-.16,1.3.3,1.53-.98,1.93.13.44.21.86.34,1.3.65-.14.6-.09.96-.34.08-.07.77-1.82.98-2.57-.27-.34-.11-.08-.34-.64-.32.09-.64.21-.97.32ZM432.34,588.18c-.29.46-.21,1.48-.96,2.26v.64c1.5.05,2.48.04,3.23-.64h.64c-.49-1.37-1.51-1.53-2.26-2.58-.57.22-.32.08-.65.33ZM399.12,589.14h-.33c.21-.55.08-.32.33-.63v.63ZM427.51,589.8v.31h-.34c.44.8-.13.23.66.65.32.26.08.11.64.32.18-.47.23-.55.32-1.28h-1.28ZM411.7,593.34c-.33.97-.66,1.94-.97,2.91.52.53.76,1.07.97,1.94,1.78-.28,2.77-1.32,3.55-2.59.39-.54.34-.74.63-1.62-.47-.18-.53-.21-1.27-.32.36-1.1.38-.56.31-1.61-1.36.47-1.49,1.13-3.22,1.3ZM417.51,592.37v.97h1.61v-.97h-1.61ZM440.41,594.31h-.31c.12-.67.07-.63.31-.97v.97ZM421.69,599.45c.33-.73.09-.75-.63-1.27v-.33c.65.13.61.08.96.33.95-.53,1.52-2.23,1.93-3.22-.88-.47-1.4-.8-1.93-1.62-1.44.48-2.16,1.47-3.55,1.94.21,1.61.43,3.23.65,4.83,1.34,0,1.93-.04,2.57-.66ZM412.98,595.28v.31h-.31c.28-.76.13-.52.66-.97-.21.55-.08.33-.35.66ZM428.47,595.92c.9,2.51,3.74,3.19,5.17,5.17h1.29v-.67c-1.75-1.63-4.03-2.81-5.8-4.5h-.65ZM411.37,596.57c.41-.15.4-.5,1.3-.65-.38.42-.7,1.38-1.3.65ZM414.62,598.51c.09.74.13.78.31,1.29,1.08.03,1.46.16,2.26.31v-.31h.32c-.23-.99-.43-1.94-.65-2.9-1.18.43-1.21,1.1-2.24,1.61ZM402.35,599.45v-.31h.65c-.34.28-.08.13-.65.31ZM399.44,601.09c.37-.39.28-.15.98-.33-.56.45-.19.77-.98.33ZM426.54,609.77h-.33c.11-.72.16-.78.33-1.28h1.29c-.04.93-.43.5-1.29,1.28Z"/>
</svg>