<?xml version="1.0" encoding="UTF-8"?>
<svg id="_レイヤー_1" data-name="レイヤー 1" xmlns="http://www.w3.org/2000/svg" viewBox="0 0 819.32 822.29">
  <defs>
    <style>
      .cls-1 {
        fill: #231815;
      }
    </style>
  </defs>
  <path class="cls-1" d="M797.74,267.91c18.75,55.42,24.45,112.36,20.3,170.26-2.85,39.68-11.95,78.23-26.4,115.5-12.87,33.21-28.95,64.5-50.44,93.03-12.76,16.94-28.79,30.2-45.43,42.89-29.88,22.79-59.21,46.23-86,72.66-18.33,18.09-36.67,36.19-50.64,58.09-.28.43-.98.59-3.36,1.95-2.39-9.28-4.85-17.6-6.65-26.06-3.69-17.28-4.98-34.82-3.79-52.43,3.14-46.44,17.74-88.63,46.44-125.79,13.64-17.66,30.4-32.11,46.34-47.37,35.83-34.3,63.3-73.98,80.14-120.74,14.58-40.47,19.74-82.21,16.87-125.14-1.93-28.8-5.89-57.27-12.62-85.27-8.23-34.25-18.65-67.81-39.11-97.16-12.4-17.78-28.6-31.22-48.64-39.67-7.17-3.02-14.85-4.26-23.47-3.23,1.45,1.68,2.66,3.68,4.39,4.99,29.93,22.52,46.62,53.63,56.77,88.65,11.13,38.38,15.52,77.69,14.87,117.67-.49,30.51-5.29,60.24-13.36,89.59-18.31,66.54-54.17,122.41-103.19,170.29-16.32,15.94-34.99,28.91-53.8,41.65-24.93,16.88-48.4,35.39-67.24,59.17-.67.84-1.69,1.4-3.44,2.83-.25-2.4-.83-3.86-.47-5.03,8.92-29.22,17.66-58.56,34.66-84.43,7.65-11.64,15.77-22.97,23.86-34.31,14.3-20.05,27.14-40.92,35.28-64.3,3.37-9.69,5.77-19.73,8.39-29.67.46-1.74-.18-3.77-1.01-5.88-8.49,19.4-20.03,35.94-38.31,47.01-13.69,8.29-21.76,11.72-30.15,12.34.24-1.22.15-2.49.71-3.3,12.73-18.42,20.1-39.21,26.92-60.28,8-24.72,16.13-49.39,24.36-74.04,5.27-15.78,14.59-29.16,25.45-41.57,12.82-14.65,24.25-30.25,32.06-48.22,9.93-22.83,12.25-46.71,9.22-71.22-2.71-21.95-6.49-43.7-12.67-64.98-5.25-18.07-11.58-35.68-21.5-51.81-11.6-18.86-28.31-29.36-50.46-31.04-.6-.05-1.22-.06-1.8.07-.57.13-1.09.46-2.34,1.01.75,1.45,1.1,3.36,2.24,4.16,20.44,14.42,30.62,35.43,37.49,58.45,9.98,33.46,12.83,67.74,10.94,102.49-1.24,22.84-8.8,43.67-19.81,63.55-12.42,22.43-30.16,40.02-49.36,56.47-11.49,9.85-22.51,20.25-33.8,30.35-1.27,1.14-2.85,1.92-4.64,3.1-3.26-3.86-2.41-7.71-1.26-11.38,6.06-19.33,12.31-38.6,18.38-57.93,10.27-32.71,15.46-66.17,11.71-100.37-4.95-45.14-22.48-85.16-51.76-119.99-17.3-20.58-36.99-38.28-60.61-51.39-23.8-13.21-47.79-10.76-71.64-.46-8.34,3.6-8.64,6.2-4.74,14.06,9.4,18.94,18.59,37.99,27.92,56.96,2.37,4.83,1.31,9.1-.86,13.82-14.58,31.65-38.53,53.85-69.11,69.51-33.14,16.97-66.32,33.86-99.39,50.96-5.61,2.9-10.74,6.73-16.12,10.09-1.46.91-3,1.69-5.91,3.31,0-3.45-.27-5.67.04-7.81,3.63-24.75,14.46-46.03,31.26-64.39,1.63-1.78,3.24-3.59,4.78-5.45.34-.41.3-1.12.71-2.83-2.89,1.29-5.41,1.98-7.44,3.38-21.47,14.89-42.36,30.43-56.82,52.89-1.16,1.8-3.16,3.07-6.28,6.03,2.57-13.8,7.05-24.67,11.61-35.43,30.86-72.87,84.43-124.51,152.55-162.36,28.74-15.97,59.5-27.16,91.33-34.71C382.1,2.06,414.97-1.16,448.21.37c23.68,1.09,47.15,3.7,70.18,9.11,29.53,6.94,57.95,17.19,84.98,31.11,44.63,23,84.2,52.55,117.06,90.68,34.82,40.4,60.21,86.08,77.31,136.64ZM8.27,694.1c-9.75-15.37-9.98-32.05-5.31-49.06,5.1-18.59,14.76-35.12,24.18-51.68,19.51-34.3,34.91-70.43,48.95-107.22,17.47-45.75,34.71-91.6,53.07-136.99,9.62-23.8,21.37-46.74,32.24-70.02,3.85-8.24,10.18-14.07,18.09-18.52,26.89-15.11,53.96-29.92,80.37-45.82,14.47-8.71,28.13-18.92,41.5-29.29,13.48-10.46,23.83-23.91,32.43-39.51,1.81,1.5,3.45,2.33,4.29,3.66,10.36,16.39,25.58,26.3,43.38,32.76,6.82,2.47,13.63,5.04,20.62,6.95,7.79,2.13,9.61.41,9.95-7.77,1.4-33.75-11.05-61.92-34.01-86.15-16.36-17.27-34.41-32.11-56.97-42.28,3.48-3,6.58-1.7,9.05-.71,9.21,3.7,18.83,6.86,27.28,11.92,42.53,25.47,72.78,61.71,90.2,108.02,11.37,30.22,14.58,61.63,9.86,93.88-3.48,23.8-10.16,46.63-17.5,69.41-4.26,13.22-7.57,26.77-10.73,40.31-1.72,7.4-1.99,15.08,2,22.14.88,1.56,1.81,3.16,3.01,4.48,7.82,8.56,16.6,9.37,25.58,1.86,9.06-7.58,17.71-15.64,26.6-23.42,2.17-1.9,4.56-3.55,8.27-4.37-1.2,4.14-2.16,8.36-3.62,12.4-9.07,25-18.26,49.96-27.41,74.93-12.08,32.95-36.6,51.47-69.59,60.46-14.13,3.85-28.07,4.02-42.12.08-7.76-2.18-14.31-1.64-20.56,4.97-35.76,37.81-67.87,78.19-89.93,125.75-9.62,20.75-16.15,42.34-16.98,65.45-.21,6-1.48,12.02-2.79,17.91-1.94,8.75-7.61,14.8-16.21,16.55-8.52,1.73-17.36,1.98-26.08,2.53-5.68.35-11.4.07-19.03.07,6.76-25.62,6.42-50.75,21.98-73.17-9.12,1.25-13.72,5.82-17.9,10.74-7.66,9.01-10.28,20.42-14.24,31.17-1.57,4.26-2.81,8.65-4.56,12.82-3.22,7.68-8.83,11.73-17.51,12.01-32.13,1.01-61.77-6.54-88.52-24.71-12.73-8.65-23.14-19.58-31.33-32.49ZM290.87,332.9c-6.89,1.83-8.86,8.08-11.78,13.07-10.57,18.05-26,29.08-46.37,33.43-3.45.74-6.86,1.7-10.28,2.56,31.31,9.14,64.86-10.33,68.43-49.06ZM154.3,449.93c.57.35,1.15.69,1.72,1.04,3.22-4.52,6.52-8.99,9.66-13.57,11.78-17.22,23.57-34.42,35.21-51.73,4.77-7.09,11.19-10.69,19.7-10.9,9.86-.24,18.97-3.43,27.83-7.46,8.02-3.65,14.11-9.4,17.81-17.36,2.27-4.89,4-10.05,5.67-15.18,2.65-8.13,4.02-9.34,12.67-10.08,3.55-.31,7.43.06,9.43-4.52-16.94-3.12-33.14-6.49-49.47-8.9-5.78-.85-12.15-.23-17.83,1.28-9.77,2.6-15.48,10.15-19.03,19.27-5.59,14.34-10.38,29.02-16.65,43.05-7.5,16.78-16.23,33.01-24.37,49.5-4.18,8.49-8.23,17.04-12.34,25.56ZM51.32,675.7c10.8,7.17,21.58,14.39,32.74,20.97,5.4,3.19,8.24,2.16,11.48-2.92,4.05-6.36,8.16-12.78,11.22-19.63,3.71-8.31,6.59-17.05,1.77-26.14-5.89-11.11-15.22-17.55-27.35-20.13-.55-.12-1.34.92-3,2.14,2.15,2.36,4.03,4.5,5.99,6.56,3.53,3.72,7.34,7.2,10.61,11.13,4.01,4.82,4.12,10.14,1.58,15.41-.72.08-1.43.16-2.15.24-.88-1.88-1.87-3.72-2.63-5.66-4.81-12.27-17.21-21.04-30-21.19-3.17-.04-6.49.27-7.52,3.73-2.57,8.62-4.92,17.31-6.97,26.07-.9,3.86,1.04,7.32,4.21,9.43Z"/>
</svg>