<?xml version="1.0" encoding="UTF-8"?>
<svg id="_レイヤー_1" data-name="レイヤー 1" xmlns="http://www.w3.org/2000/svg" viewBox="0 0 544.7 859.19">
  <defs>
    <style>
      .cls-1 {
        fill-rule: evenodd;
      }
    </style>
  </defs>
  <path class="cls-1" d="M222.71,704.7c.18,1.38,1,3.19.61,4.05-1.38,2.51-3.1,2.64-7.18,2.48-1.16-.95-11.95-5.41-12.48-5.3-2.44.56-5.88.17-6.55,2.51,1.72,2.6,1.76,6.52,2.81,9.67,1.43,4.27,3.25,8.73,4.67,13.09.84,3.45,1.66,6.86,2.5,10.3,1.77,4.37,3.04,9.19,4.98,13.73.98,2.23,2.78,4.32,3.76,6.55,1.39,3.15,2.53,6.37,3.73,9.34,1.84,4.42,1.99,9.18,3.75,13.73,1.61,4.2,4.91,7.91,7.19,11.54,1.57,2.55,1.99,5.43,3.43,8.11,1.22,2.29,3.94,5.24,5.6,7.48,1.61,2.17,4.92,2.83,6.87,4.69,6.11-1.2,11.07-3.86,16.23-6.24,1.25-.57,3.69-3.47,5.28-2.5,3.85,2.19,7.72,4.37,11.56,6.56,2.26.73,4.21,0,6.23.6,4.92,1.52,10.33,2.94,15.9,4.39,3.23.2,6.45.42,9.67.62,1.51.64,2.37,1.93,4.69,2.49h7.16c3.86,1.09,6.5,4.13,9.99,5.3,1.46.11,2.92.21,4.37.31,2.37.69,4.66,2.6,6.86,3.43,1.27.51,2.15.14,3.44.63,1.19.47,2.31,1.55,3.42,2.2.11.83.2,1.66.31,2.48-.23.87-1.59,3.1-1.57,3.11.64,1.33,2.53,2.94,1.89,4.38-.47,2.19-1.23,2.66-4.05,2.49-1.53.93-3.64-.3-5.32,0-4.11.77-9.13.78-13.1,1.58v.31c2.83.1,10.05,2.62,10.92,4.36.76.94,1.09,2.55,1.25,4.05-2.88.65-9.46,2.46-13.11,1.86-3.12-.49-7.21-1.89-10.29-2.8-3-.42-6.02-.83-9.05-1.24-2.18-.43-4.36-.83-6.55-1.26-5.15.7-9.5,2.17-13.72,3.43-3.13.22-6.24.42-9.36.63-6.24,1.49-13.54,1.23-20.9,1.23-5.53,0-10.67-.41-14.66-1.23-1.66-.36-4.89-.24-6.86-1.27-5.44-2.75-9.48-8.7-13.1-13.4-1.48-1.9-3.93-3.3-5.31-5.29-2.62-3.82-4.77-7.51-7.49-11.23-2.14-2.97-5.03-5.76-7.17-8.73-1.43-2-2.16-4.14-3.43-6.25-2.09-3.42-5.98-7.21-7.8-10.62v-1.24c-.64-1.16-2.32-2.31-3.13-3.43-3.77-5.32-7.8-10-11.85-14.98-1.15-1.41-1.48-3.12-2.5-4.67-2.03-3.14-4.24-6.76-6.24-9.97-1.21-1.95-2.71-5.84-4.36-6.24-.2-1.22-.48-1.14-.62-2.51h-.94c-.21-1.85-.9-1.14-1.57-2.16-.57-.93-.1-1.96-.61-2.82-.5-.41-1.04-.82-1.57-1.23v-1.58c-.27-.69-1.03-2.05-1.54-2.78-.32-.11-.64-.21-.95-.31-.7-.99-.64-3.2-1.24-4.38-.25-.47-1.26-1.05-1.58-1.56-2.06-3.42-3.29-7.29-5.27-10.59-.53-.88-.83-1.88-.64-2.5-3.07-5.63-5.9-12.61-8.42-18.72-1.5-3.65-1.61-6.92-3.11-10.61-3.05-7.46-6.87-15.08-10.3-22.14-1.71-3.53-3.04-11.66-2.17-15.58.76-3.57.29-8.11-1.9-9.38v.63c-.17.52-.08,3.87-.29,4.99h-.31c.08-1.77.16-4.33-.93-4.99-.22,1.25-.43,2.5-.63,3.75h-.31c-.2-1.23-.23-1.2-1.25-1.58,0,2-.45,2.47-.62,4.06h-.94c-.11-.52-.22-1.04-.31-1.56h-.3c.07,1.72.14,3.15-.96,3.75-.1-1.42.05-1.32-1.23-1.56-.21,1.28,0,2.26-.63,3.12-.12-1.42-.46-4.61-1.25-5.61v.62c-.73.9-2.96,4.5-3.13,5.63.4.53.53,1.3.63,2.19h-.3v-.64c-1.29-1.49-.51-3.09-3.43-3.12-.63.68-1.7,1.31-1.88,1.57-1.16,1.62-.91,4.69-3.12,5.29.07-1.19.43-2.5.63-3.43.52-2.44-.41-4.54,0-6.55h-.63c-.3.55-.39.54-.62,1.25-.85,1.44-.29,3.78-1.24,5-.04-1.84.14-3.14.62-4.38h-.62c-.37.5-.35.27-.64.96-.7,1.09-.26,2.86-.61,4.35-.77,3.1-1.57,5.29-1.57,9.66h-.62v-3.42c-.65-1.04-.55-3.63-.92-4.67-.26.31-.13.07-.33.61-1.19,1.26-3.02,3.94-3.43,5.01-1.39,0-.87,0-1.87.92v-1.87c-1.74-.38-1.74-.28-3.75,0,.31-1.39.79-1.04,1.25-2.18-.47-.17-.53-.21-1.25-.31-.32.25-.07.12-.62.31v.94h-.93c-.13-.52-.22-1.04-.31-1.57h-.63c.12.9.51.39-.31.95,0-1.67-.33-2.72-1.26-3.43-.27-.35.02-.04-.29-.31v.93c.22.34.18.29.29.93h-.62v-.33c-.81-.97-.4-1.39-2.18-1.54v-.32h-.32v.32c-.24.31-.1.07-.31.61.89.56,1.33.91,1.56,2.19h-.62c-.81-.75-1.87-.22-3.42,0-.82-1.41-2.29-1.46-3.43-2.49-2.18-1.99-3.02-7.04-6.55-7.5v.62c.84,1.25.83,2.67,1.56,4.06.77,1.44,2.42,2.45,3.11,4.05h-.61c-.87-1.39-2.76-4.71-4.37-5.29v.64c1.1,1.01,2.33,2.82,2.81,4.35h-.31c-.8-1.11-1.97-2.67-3.13-3.43v.63c.86.67,1.12,1.72,1.56,2.8h-.62c-.41-.29-.4.1-.94-.3-1.49-1.01-2.52-3.06-3.74-4.37h-.62v.62c-.39.66-.21,2.48-.62,3.13.02-1.63-.2-2.66-.62-3.75-.55.18-.31.05-.63.33-.42.86.12,2.68-1.25,3.43-.13-1.12.14-.79-.62-1.24-.4.76.14.19-.63.61-.17-1.47-1.4-4.08-2.49-4.66-.24.44-.6,1.14-.94,1.54-1.52-2.76-3.98-6.17-7.15-7.18-.49.49-.81.7-1.58.94-.08-2.38-1.37-3.82-2.17-5.61h-.33c0,.96-.08,1.6-.3,2.18h-.31c-.03-1.61-.4-1.89-.93-2.82h-.63c-.13.38-.36,1.47-.62.64-.73-.72-1.25-1.64-1.56-2.8-.24.31-.1.09-.31.62-.19.25-.41.7-.62.93v-.31c-.77-1.09-.72-3.04-1.56-4.06-.01,1.03.37,2.81-.62,3.43-.39-2.76-1.75-4.46-1.88-7.81-.65-.34-.57-.44-1.55-.61-.04,3.02-.02,4.98,0,8.11h-.33c-.28-.34.03-.04-.3-.31-1.37-3.33-.77-10.18-3.73-11.84v2.79c.27.4.27.77.31,1.56h-.63c-1.01-.99-1.95-.95-2.18-2.8.29-.57.47-3.02.63-4.37h-1.27v1.24c-1.34.59-2.08,1.29-2.49,2.81h-.29c-.32-.94-.64-1.86-.93-2.81h-.33v.33c-.45.49-.67,1.19-.93,1.86h-.32v-.32c-1.02-1.45-.26-2.95,0-4.38-.63-.29-1.5-.59-1.86-1.22,1.56-1.49,1.93-3.06,1.86-6.25h-.3c-1.61,2.45-3.25,4.32-4.06,7.8h-.63v-.33c.84-1.27,1.46-3.95,1.88-5.29h-.62v.3c-1.03.47-1.69,1.5-2.19,2.5h-.3v-.93c.45-.43,1.7-1.95,1.87-2.5.23-.78-.52-1.71-.63-2.17-.59-2.5.41-4.9.63-6.87h-.31v-.31h-.33v.31c-1.61,1.55-2.27,3.91-3.1,5.95h-.32v-.95c.78-1.04.3-2.25.62-3.12.38-1,1.71-1.78,2.18-2.81h-.32v-.31h-.62c-.83,1.08-3.28,2.71-4.69,3.12v-.31c.57-.64,1.14-1.49,1.58-2.18h-.93c.08-.73.19-1.45.3-2.17h-.64c-.44.76-.18.66-1.25.93v-.63c.25-.37.24-.51.32-1.25-.91.12-.38.5-.93-.32,1.45-1.14,3.13-4.01,3.73-5.92h-.93c-1.31.99-3.34.89-4.97,1.56-.89.38-1.65,1.19-2.5,1.56v-.3c.86-.9,5-8.22,4.98-8.44-.54-.88-2.03-.7-3.43-.62v-.32h-.32v-.31c1.6-.2,2.06-.02,3.75-.31.09-.97.33-1.45.62-2.16.68.19.9.4,1.56,0,.24-.34.19-.31.3-.94-.76-.77-1.13-1.68-1.26-3.13h.32c.38.65.23.58.94.93v-.3c-.41-.68-.09-3.75.63-4.35.28-.36-.03-.04.31-.33v.62c-.92,1.16-.54,3.13-.31,4.68.64.12.61.08.93.31.69,1.11.02,1.77,1.55,2.19v-.31h.32v.31c.45-.57.22-.84.93-1.25,1.2,2.19,4.11,1.69,6.87,1.57.05-2.01,1.26-4.11.93-5.63-.17-.83-1.25-1.57-1.55-2.8h.3c.43.51.21.33.93.64-.54-4.7-.59-11.33.64-16.25v-3.1c1.29-4.82,2.23-4.49,2.16-10.31,2.97-1.81,6.09-3.54,6.26-8.11-.65-.11-.6-.07-.94-.33h.31c1.03-.85,2.15-1.93,4.37-1.54.17.02.9.51,1.55.31,2-.59,3.92-2.94,5.6-4.05-.03-1.04.89-2.61,1.26-4.06v-7.18c1.72-6.39,1.57-17.63,9.05-18.09,2.12-1.26,4.32.47,7.16-.3,4.06-1.13,5.67-4.8,9.04-6.56,1.86-.97,3.21-.17,3.43-2.81.57-.6.6-.97.63-2.17,2.46-.86,4-2.71,5.62-4.37,4.16-4.3,13.44-9.8,22.14-6.56,4.46,1.67,7.42,7.49,10.92,8.43.44-.5,1.03-.54,1.57-.94,2.27-2.78,1.24-10.76,1.24-15.59,0-6.55,1.3-13.89,0-19.97v-8.11c-.38-1.85-1.14-11.51-.64-13.42.75-2.65,2.41-5.61,3.45-8.1,1.28-3.12,1.8-5.99,3.11-9.04.59-1.42,2.03-3.27,2.5-4.68-.32-3.85-.63-7.69-.94-11.54,1.99-9.84,1.35-21.28,4.37-29.95.72-2.08,2.64-3.86,3.74-5.61,2.6-4.13,5.31-8.14,7.8-12.17,4.01-6.49,6.31-13.73,10.28-20.27,3.41-5.63,7.23-10.47,10.91-15.59,2.17-3.01,3.93-6.21,6.87-8.43,2.45-1.84,10.12-6.89,10.29-10.29-.79-1.23-.91-8.02-.93-9.98,2.69-1.81,5.8-7.56,9.36-7.79,1.24.81,4.07.94,5.61,1.24v-.29c-.83-.28-.81-.33-1.25-.94,1.7-1.13,4.25-3.02,6.56-3.42,2.6-.48,9.06,3.74,11.84,4.05,2.24-1.78,5.45-2.07,8.1-3.43,4.91-2.53,8.98-6.09,13.11-9.35,1.17-.92,2.54-1.33,3.43-2.49-.78-.27-1.45-.24-1.86-.94,1.97-.18,3.46-.83,4.99-1.24-.03-1.27-.52-.76.31-1.25.86.55,4.18-.86,4.68-1.88.28-.59.1-.36,0-1.25h1.24c.81-.62,1.9-.62,2.82-.3v-.63c-.43-.74-.04-1.38.3-2.17h-.62c-.38,1.45-.94,2.12-2.82,2.17-.9-.84-1.37-.46-1.55-2.17,1-.82,5.15-6.84,5.61-8.13h-.32v-.3c-8.24.1-16.02-2.37-22.45-4.38-2.59-.8-4.06,1.4-6.56.63-2.45-.75-4.13-2.91-6.53-3.74-1.67-.59-4-.84-5.31-1.25-1-.3-2.6.2-3.12.31-2.63.6-6.17-.1-7.8-.93-2.31-1.18-4.43-4.08-6.86-4.99-2.02-.75-3.01.12-5.31-.63-6.08-2-13.43-4.05-19.65-5.93-.8-.23-1.87.26-2.19.32-2.62.58-6.03-.01-8.1-.62-3.51-1.04-6.08-3.46-9.05-4.67-4.1-1.69-8.46-.53-12.48-1.88-3.61-1.23-6.68-3.61-9.96-4.99-1.59-.67-2.87-.31-4.38-.94-4.44-1.84-9.56-3.54-13.41-6.24-1.98-1.4-4.9-7.68-6.56-9.97-1.49-2.1-4.61-3.75-4.97-6.86,2.39-3.82-1.68-13.78-2.5-17.47-1.65-7.37,1.56-12.22,2.79-17.79.21-3.84.42-7.69.63-11.54,1.75-5.05,11.51-10.34,15.9-13.41,3.31-2.34,6.55-5.33,9.99-7.48,2.6-1.63,5.68-2.33,8.4-3.74,8.04-4.17,16.14-8.12,24.66-11.86,5.53-2.43,11.11-6.43,17.16-8.09v-.32c-4.66-.52-6-6.24-10.3-7.17-.34.23-.31.18-.93.31-.73-3.56-3.28-3.14-6.85-4.67-1.99-.86-3.78-2.8-5.63-3.75-2.44-1.24-5.16-1.01-7.78-2.18-2.05-.91-2.7-3.27-4.37-4.37-9.94-6.58-19.24-17.37-24.02-29-2.75-6.7-2.37-15.58,1.88-20.59,1.02-1.2,3.29-1.66,4.66-2.51,1.13-.68,2.45-2.05,3.75-2.48h1.89c3.37-.88,7.05-1.21,10.91-1.24.74-.11,1.46-.22,2.18-.32,2.79.45,6.39,1.63,9.04,1.88.49-.31,4.3.52,5.61.93,4.99,1.55,10.35,3.62,14.67,5.93,2.48,1.34,3.52,3.16,5.6,4.68,3.01,2.19,6.13,3.98,9.05,6.24,1.66,1.27,2.8,3.63,4.05,5.3.91,1.19,2.46,2.01,3.45,3.13,1.64,1.84,2.85,3.93,4.36,5.93,1.5,1.98,3.96,3.42,5.62,5.29,2.67,3.02,10.15,11.5,13.71,12.81v-.95c-1.57-.76-1.24-2.61-1.86-4.37-1.75-4.87-3.26-10.73-5.31-15.58-1.6-3.85-3.14-8.5-4.37-12.8-.51-3.13-1.04-6.25-1.55-9.35-.55-2.12-2.31-5.99-1.55-8.73,3.37-12.29,11.15-20.48,20.9-26.53,1.46-.9,2.99-2.48,4.67-3.12,3.13-1.16,7.3-2.01,10.3-2.79,2.39-.64,14.25,2.43,16.54,3.11,4.97.71,9.98,1.46,14.97,2.18,7.34,2.01,15,4.51,21.83,6.87,6.98,2.42,13.93,3.89,20.9,6.54,16.88,6.46,34.14,13.66,50.83,20.58,4.98,2.07,9.76,3.09,14.66,5.3,4.57,2.06,9.64,4.53,14.03,6.57,3.8,1.73,7.44,2.6,10.93,4.67,7.63,4.53,14.67,9.88,21.85,14.66,5.71,3.82,11.41,6.9,16.83,10.92,3.94,2.9,7.42,6.91,11.55,9.67,2.74,1.81,10.66,4.4,10.92,8.09-.91.76-1.45,2.24-1.58,3.75h.64c.69-.5,1.73-.4,2.49-.93.72-.49.74-2.06,1.58-2.5h1.54c1.12-.38,2.4-1.44,3.42-1.88.86-.33,1.56.09,2.21-.3,1.56-.95,2.97-2.94,4.67-3.74.93-.1,1.88-.21,2.81-.31,1.74-.62,3.96-1.13,5.93-1.87,3.85-1.42,8.21-3.17,11.56-5.32,1.12-.7,1.97-2.08,3.1-2.79,1.25-.79,3.01-.9,4.07-1.87.31-.29.25-1.02.62-1.25,1.14-.74,2.6-.91,3.12-2.19-.11-.22-.21-.43-.31-.62,1.62-.91,2.97-.87,4.35-1.88,2.17-1.55,3.43-4.07,5.32-5.93,1.48-1.46,3.55-2.24,4.99-3.74,4.27-4.49,6.56-11.2,11.54-14.97.92-.7,1.93-2,2.8-2.5,4.69-2.59,14.39-1.48,16.84,2.19,1.85,2.75,1.57,9.44.63,13.1-2.37,9.35-4.26,18.46-7.8,26.83-6.33,14.97-15.31,25.98-24.32,38.05-2.86,3.81-6.82,7.08-9.68,10.92-6.78,9.07-13.43,18.49-19.96,27.77-4.91,6.98-9.69,13.94-16.52,19.01-2.69,2-4.83,4.81-9.37,5-1.14-.9-3.45-2.28-4.67-2.82-.64-.1-1.24-.2-1.87-.32-.83-.68-.75-2.42-1.57-3.11-.93-.31-1.87-.61-2.8-.93-.31-.24-.29-1.01-.63-1.25-1.86-1.36-4.06-2.07-5.92-3.43-1.81-1.32-3.43-3.9-5.31-4.99-1.1-.64-2.18-.5-3.13-1.24-1.02-.83-.47-1.49-2.18-1.88-1.13,3.29-9.82,11.19-14.35,11.23-1.85-1.54-4.08-2.46-5.91-4.06-.71-.6-1.1-2.02-1.88-2.49-5.48-3.38-12.06-4.84-17.17-8.42-2.08-1.49-5.29-3.57-6.85-5.62-.94-1.23-1.7-2.71-2.81-3.74-1.93-1.81-4.36-3.13-6.22-4.99-3.14-3.11-5.78-6.76-9.05-9.68-1.33-1.17-2.94-2.08-4.06-3.42-3.67-4.36-7.72-8.66-10.93-13.42-1.28-1.9-2.14-5.33-4.97-5.62-3.24-1.03-6.46-2.06-9.68-3.11-1.85-.8-3.82-2.21-5.61-3.11-1.09-.57-2.19-.57-3.12-1.26-.63-.45-.59-1.76-1.24-2.18-1.06-.65-2.3-.45-3.43-.92-2.73-1.16-5.55-2.54-8.42-3.75v.94c2.92,2.07,5.05,5.78,7.16,8.73,5.67,7.93,10.68,16.55,15.92,24.94,5.58,8.98,11.41,18.15,17.45,26.84.75,1.06,2.19,1.61,3.11,2.49,1.78,1.68,2.88,3.6,4.37,5.6,1.88,1.68,3.75,3.35,5.62,4.98,1.52,2.08,1.91,4.7,3.43,6.87.78,1.14,3.58,2.32,4.67,4.08,1.54,2.45,2.13,4.87,4.05,6.86,4.29,4.37,9.04,8.89,12.49,14.04,2.15,3.2,3.58,6.64,5.6,9.97.98,1.61,2.06,3.73,2.81,5.61.09.75.2,1.45.31,2.19.97,2,1.8-.42,1.87,4.05,1.51,2.33.07,11.12.92,14.97.34,1.4,1.65,6.96,1.26,8.42-.57,2.17-2.54,3.34-3.45,4.98-.61,1.15-.91,3.39-1.23,4.38-1.42,4.31-1.48,9.66-3.12,14.02-.93,2.45-2.99,3.76-4.37,5.62-1.62,2.19-2.6,4.48-4.05,6.86-.69,1.14-2.42,2.05-3.14,3.14-.55.86-.08,2.89-.62,3.73-.56.31-.62.28-1.23,0-1.35.87-2.49,3.1-2.49,5.31,1.4,1.92-1.24,6.15-2.19,7.78-.11.64-.21,1.26-.31,1.88-2.32,5.9-3,11.35-9.35,13.09-5.56,1.56-16.18-.31-20.91-1.54-1.41-.36-4.42-1.78-6.22-1.25-1.23.35-2.88,1.68-4.07,2.18-3.28,1.39-6.47,1.73-9.67,3.11-5.7,2.47-11.38,5.82-16.53,9.05-1.87,1.17-3.24,3.4-4.99,4.67-4.84,3.53-9.12,7.61-14.04,10.92-5.16,3.47-16.68,7.15-18.41,13.41,5.12.02,11.77,3.86,9.99,10.29-.61,2.23-1.6,4.49-2.18,7.19-.89,3.93,1.9,10.94.31,15.59-1.03,2.97-3.63,5.4-5.32,7.79-1.79,2.57-3.28,5.32-4.98,7.79-1.95,2.87-5.83,6.09-5.93,10.31-1.97,3.19-.63,10.01-.31,13.4.6,6.29-1.15,11.18-2.18,15.61-5.91,3.98-4.98-1.54-11.24-1.88v.32h-.31c.05,3.92-1.04,7.97-1.88,11.21-1.24,4.93-1.06,9.16-3.12,13.12-3.53,6.82-8.65,13.06-12.78,19.32-2.06,3.12-3.5,6.99-5.61,9.99-.93,1.31-2.97,2.4-3.74,3.75-.71,1.26-.42,2.71-1.24,3.74-.58.72-1.87.91-2.52,1.56-2.31,2.4-4.06,7.05-5.92,10-1.17,1.86-3.1,3.29-4.37,4.98-.62,2.29-1.25,4.57-1.87,6.86-2.01,4.77-5.45,9.24-7.81,13.73-1.36,2.65-1.76,5.18-3.11,7.79-1.87,3.6-3.99,7.46-6.23,10.92-.74,1.12-2.5,2.64-2.8,4.07.51,6.03,1.03,12.05,1.54,18.08,1.54,8.84-.2,23.29,1.56,31.81.34,1.59-.13,3.88-.3,4.98.1,7.09.2,14.16.3,21.22.29,1.04,1.23,1.7,1.57,2.5.98,2.4,1.08,4.42,2.19,6.55.41.81,1.73,2.27,1.87,3.12.1.68-.59,1.56-.64,2.8,2.66,2.03,2.91,6.1,4.7,9.04.67,1.12,2.31.85,3.42,1.58.31.41.63.84.94,1.23,2.42,1.23,8.34,1.78,11.23,2.49h3.43c4.12,1.14,8.71,2.11,13.4,3.12,3.96.22,7.91.42,11.85.62,2.32.69,4.7,2.52,6.87,3.44,1.12.48,2.16.31,3.11.93.84.93,1.66,1.87,2.5,2.82,1.28.83,3.16.62,4.37,1.54,1.13.89,2.04,3.84,3.42,5.01,1.97,1.66,5.81,1.5,6.86,4.05.49.72.2,1.33,0,2.17-1.15.06-1.1-.14-1.55.63,1.03.77,1.27,1.54,1.24,3.42-1.49.93-3.56,1-6.23.93-1.5-1.03-9.19-3.22-11.56-3.42v.31h.65c1.31,1.82,3.27,1.88,3.43,4.99-.31.12-.63.21-.93.32-1.79,1.57-7.03.4-8.73-.32-6.24-2.57-12.38-4.24-19.35-6.54-1.97-.66-4.09-1.63-6.53-1.87ZM8.41,592.09c.48.6.56,1.12.63,2.19h-.63v-2.19ZM9.97,595.2h.62c-.36.51-.13.38-.62,0ZM4.34,613.61c.55.85.06,1.41-.3,2.18h-.62v-.62c.41-.43.66-1,.92-1.56ZM5.92,616.1c.25.32.1.08.29.63h-.29v-.63ZM110.1,667.26c.24.32.12.08.3.63h-.3v-.63Z"/>
</svg>