<?xml version="1.0" encoding="UTF-8"?>
<svg id="_レイヤー_1" data-name="レイヤー 1" xmlns="http://www.w3.org/2000/svg" viewBox="0 0 333.82 771.62">
  <defs>
    <style>
      .cls-1 {
        fill: #231815;
        fill-rule: evenodd;
        stroke: #231815;
        stroke-linejoin: bevel;
        stroke-width: .19px;
      }
    </style>
  </defs>
  <path class="cls-1" d="M135.1,771.52c23.57-190.67,23.14-213.79,21.12-413.92l-.44-42.02-.03-2.67-2.17-63.7-31.87.81c-40.26,1.3-80.73,3.43-121.62,7.01v-38.28c40.89,3.59,81.37,5.71,121.62,7.01l31.11.81-.66-19.17c-3.3-69.99-8.64-139.22-17.07-207.32h63.57c-8.38,68.1-13.75,137.33-17.05,207.32l-.66,19.17,31.12-.81c40.25-1.3,80.76-3.43,121.65-7.01v38.28c-40.89-3.58-81.4-5.71-121.65-7.01l-31.87-.81-2.16,63.7v1.66l-.44,43.04c-2.01,200.12-2.45,223.25,21.08,413.92h-63.57Z"/>
</svg>