<?xml version="1.0" encoding="UTF-8"?>
<svg id="_レイヤー_1" data-name="レイヤー 1" xmlns="http://www.w3.org/2000/svg" viewBox="0 0 530.39 777.91">
  <defs>
    <style>
      .cls-1 {
        fill: #231815;
        fill-rule: evenodd;
        stroke: #231815;
        stroke-linejoin: bevel;
        stroke-width: .36px;
      }
    </style>
  </defs>
  <path class="cls-1" d="M138.07,777.73l1.19-74.76,18.34-7.38,5.45-5.6c5.03-5.37,9.91-10.96,14.54-17.09-20.05-16.7-31.41-38.96-31.89-68.2,33.99-73.69,55.25-144.04,40.24-204.89-29.87-73.4-81.02-78.96-144.75-44.38-53.16-64.42-54.23-128.45-5.65-192.07,27.51,22.88,58.12,29.18,91.12,22.31,72.56-32.15,73.59-82.54,31.87-143.85C178.42,13.01,216.3,1.03,253.73.18l11.47.22,11.47-.22c37.42.85,75.3,12.83,95.18,41.64-41.71,61.31-40.69,111.7,31.88,143.85,33.02,6.87,63.61.57,91.12-22.31,48.58,63.62,47.5,127.65-5.65,192.07-63.74-34.58-114.88-29.02-144.75,44.38-15.02,60.85,6.25,131.2,40.21,204.89-.45,29.24-11.78,51.5-31.86,68.2,4.63,6.13,9.51,11.72,14.54,17.09l5.45,5.6,18.34,7.38,1.19,74.76h-254.24Z"/>
</svg>