<?xml version="1.0" encoding="UTF-8"?>
<svg id="_レイヤー_1" data-name="レイヤー 1" xmlns="http://www.w3.org/2000/svg" viewBox="0 0 633.38 534.82">
  <defs>
    <style>
      .cls-1 {
        fill: #040000;
      }
    </style>
  </defs>
  <path class="cls-1" d="M70.59,331.78c12.34,2.15,24.93-2.91,35.08-9.6,21.84-14.35,40.32-22.46,66.19-27.8,3.07-.64,46.76-10.89,42.47-15.67-8.85-9.83-49.71,2.4-59.56,4.49-48.39,10.27-84.17,48.59-84.17,48.59Z"/>
  <path class="cls-1" d="M37.14,357.42c9.51-26.86,27.51-47.62,51.33-63.02,7.42-4.8,38.65-9.56,40.24-18.11,0,.04-19.41-10.08-21.05-11.14-7.1-4.49-4.47-7.42-4.03-15.98,1.21-23.36-3.34-38.7-27.68-46.45C14.1,183.04,2.02,249.04.19,294.99c-1.23,31.56,3.51,70.57,19.99,98.36,8.04,13.52,14.82-29.8,16.97-35.92Z"/>
  <path class="cls-1" d="M241.23,197.55c-18.86-2.68-15.17-2.27-25.87,16.09,41.65,18.78,77.28-2.13,74.72-48.73,5.71-19.36-27.48-3.82-34.25.41,16.25,11.98,4.37,34.92-14.6,32.23Z"/>
  <path class="cls-1" d="M621.79,265.37c-4.23-6.24-54.95-48.37-29.97-54.65,12.12-3.09,38.57,36.57,37.4,12.2-.99-19.82-13.25-48.47-34.94-52.68-14.43-2.77-63.09-17.98-66.79-35.49-2.06-9.79,55.43,13.82,58.55,15.32,33.09,15.82,19.08-7.55,5.06-24.7-20.33-24.9-41.14-30.23-67.52-45.22-22.86-12.97-36.02-36.1-57.42-49.39C418.45,1.09,340.91-.43,287.26.07c-69.79.63-148.78,17.63-204.66,61.8-24.36,19.22-41.05,46.1-50.94,75.26-2.6,7.72-16,43.88-7.03,51.15,19.99-8.53,52.32-8.33,71.81.34,22.8,10.16,19.16,32.25,22.54,52.35,1.73,10.03,19.51-21.1,20.23-22.49,5.12-10.02,14.76-33.59,30.66-29.3.55.15-28.67,47.99,10.42,29.3,27.91-13.33,43.16-46.46,66.9-65.36,12.95-10.29,28.84-13.8,44.69-8.05,5.42,1.96,21.36,17.04,25.39,16.73,38.91-2.88,77.82-5.77,116.75-8.65,24.31-1.78-23.24,21.33-29.07,22.59-22.53,4.89-88.8-6.97-98.81,21.73-2.15,6.15-.97,12.68-1.57,19.03-1.25,14.41-19.9,21.28-31.6,24.8-25.97,7.81-46.23-.09-71.88-2.19-10.54-.86-21.81.34-30.47,6.81,14.35,4.62,39.87,7.28,51.48,16.53,5.15,4.12-2.12,12.4,12.08,12.6,5.15.06,51.66-6.58,52.08,3.81-.35-8.73-77.58,25.53-33.47,31.02,24.97,3.09,54.98-13.35,77.82-21.41,3.42-1.22,51.33-15.74,50.04-11.54-4.77,15.69-50.92,29.23-64.08,34.5-30.58,12.27-57.99,10.22-89.57,15.24-6.67,1.05,36.24,39.13,40.5,46.11,6.49,10.7-10.13,3.9-13.52,1.91-13.61-8.02-25.9-18.33-38.54-27.73-24.89-18.52-47.46-26.99-77.23-12.26,5.94,5.42,94.1,58.19,83.8,67.22-4.89,4.28-33.2-20.38-36.73-23.03-19.97-14.9-42.42-35.94-68.63-36.86-17.77-.63-42.59,1.87-53.35,17.53-9.88,14.37-13.83,31.33-22.04,46.46-5.56,10.3-28.22,52.34-19.67,44.78l24.69-21.73c10.66,16.29,19.05,37.05,33.33,50.32,5.69,5.28,47.52,31.26,53.32,15.37l21.59-59.17c8.33,15.05,11.2,32.26,18.53,47.77,1.52,3.27,24.52,44.13,28.38,31.87l13.82-44.1c2.86-9.07,48.32,36.56,53.22,39.97,25.51,17.71,61.13,22.1,91.35,23.48,4.38.2,53.93,1.88,50.68-8.99-2.47-8.32-3.22-7.09-11.24-9.11-20.95-5.31-40.66-18.21-57.79-31.01-7.27-5.46-26.26-17.02-27.54-27.39-.8-6.26,27.37,6.37,29.15,7.19,38.05,17.16,72.26,30.95,114.51,30.77,9.58-.05,68.02.45,44.59-19.93-23.71-20.6-37.94-45.29-48-74.87,10.18.93,19.97,9.77,27.75,15.75,4.59,3.49,50.89,25.4,44.38,16.13l-32.4-45.86c31.35,3.1,59.89,20.37,84.71,38.74-.69-20.07-4.26-38.34-15.27-55.84-5.46-8.69-57.94-47.12-55.45-53.44,6.56-16.69,66.59,29.82,71.95,35.08,7.93,7.81,16.53,21.22,26.89,26,7.05,3.25.79-24.89-.16-27.11-7.08-16.47-20.59-29.28-15.28-48.79,3.75-13.72,12.87-15.87,24.27-8.98,2.5,1.53,17.36,15.14,17.74,8.56.67-12.03-4.91-26.38-11.54-36.14Z"/>
</svg>