<?xml version="1.0" encoding="UTF-8"?>
<svg id="_レイヤー_1" data-name="レイヤー 1" xmlns="http://www.w3.org/2000/svg" viewBox="0 0 615.24 860.71">
  <defs>
    <style>
      .cls-1 {
        fill-rule: evenodd;
      }
    </style>
  </defs>
  <path class="cls-1" d="M.56,329.55h2.03c1.28-1.92,1.73-6.17,3.27-8.15.27.12.53.26.8.41,1.4,4.62-.4,10.74,2.05,15.88h.4c3.9-1.03,1.31-1.6,2.86-4.89,1.02-2.2,10.1-7.32,12.63-7.75,6.72-1.12,11.74,4.69,19.55,4.49,2.05-.54,4.08-1.08,6.1-1.64,8.66-2.06,18.6,1.56,25.67,2.85,10.04.68,20.09,1.36,30.13,2.04,29.75,4.96,60.37-8.12,81.48-14.25,10.68-3.11,19.77-6.37,28.91-11.01,4.34-2.29,8.69-4.61,13.03-6.92,3.37-.89,7.03.3,8.96,2.03,9.83,8.74,23.03,55.76,20.37,68.43-.79,3.76,5.99,12.29,2.03,20.37-1.07,2.25-4.99,4.5-6.5,6.93-6.51,10.37-8.79,27.42-5.73,43.58,2.22,11.66,6.76,24.02,14.68,30.15,5.62,4.35,17.96,5.2,19.94,13.02.96-.14,1.92-.26,2.87-.39-.11,7.78,3.7,11.43,7.32,15.47-3.24,13.04-6.52,26.07-9.79,39.11-5.03,23.82-1.77,51.42-7.31,74.54-2.97,6.8-5.99,13.6-8.96,20.38-3,12.35-5.97,24.71-8.96,37.07-1.32,7.51-3.63,20.38-1.23,27.28,1.78,3.26,3.53,6.53,5.3,9.78,2.02,8.87,1.57,47.6-1.22,58.26-2.33,8.82-12.75,9.04-13.87,17.52,1.75,4.33,1.4,9.44,3.69,13.01,3.52,4.21,7.04,8.41,10.59,12.63,2.24,5.19.7,10.78,3.24,15.49-.28.52-.55,1.08-.8,1.61-1.29,4.11-7.9,28.61-6.52,31.37.73,1.54,1.21,1.52,2.44,2.45,1.23-.41,2.44-.82,3.66-1.21,2.49-8.03,9.68-11.67,13.84-17.93,4.48-10.47,8.98-20.9,13.47-31.37,2.18-8.46,3.27-33.74,2.02-41.13-.26-4.2-.55-8.44-.81-12.64,4.18-25.43,7.49-46.86,11.81-70.88,1.98-10.96-1.38-25.27,1.62-35.02,5.02-11.67,10.05-23.35,15.07-35.02,3.28-11.28,6.51-22.55,9.79-33.82,2.71-4.07,5.42-8.15,8.14-12.2,5.31-8.27,9.65-18.7,12.62-28.94,6.29-21.44,6.24-42.49,10.2-66.39,2.13-13.01.67-24.72,1.62-38.28.41-2.85.82-5.7,1.23-8.55-1.78-5.43-3.54-10.87-5.3-16.3,12.72-11.75,22.35-27.79,37.08-37.47,13.2,6.65,25.73,13.42,42.77,16.7,13.55,2.62,27.87-.57,38.69-2.84,13.83-2.17,27.71-4.35,41.54-6.53,5.43.27,10.86.55,16.3.81,8.14,4.61,8.08,19.24,21.59,14.27,5.02-1.84,7.95-3.25,10.58-7.35,11.12,3.17,21.72.62,28.51-1.62,3.74-1.24,6.18,3.3,9.8,1.23.54-1.08,1.08-2.17,1.64-3.26,2.03-1.98,5.74-1.64,7.72-3.68-.11-2.27-.41-2.38-1.23-3.66-6.4-2.32-9.68-8.36-14.64-11.82-3.28-2.26-7.09-1.81-11.42-3.25-5.96-2.85-11.94-5.71-17.92-8.55-23.71-6.78-51.26,2.84-77.39-2.44-12.76-3.12-25.52-6.25-38.28-9.37-13.24-3.02-26.23-2.81-37.49-6.92-7.05-4.34-14.12-8.69-21.17-13.03-12.26-3.97-24.94,10.56-27.3,9.37,3.01-9.14,2.1-21.27,3.25-30.15.95-7.4,4.08-17.78,2.45-28.1-.67-5.7-1.36-11.41-2.03-17.12,1-20.77,4.9-38.99,8.12-57.43.55-10.45,1.1-20.91,1.64-31.37.29-7.73.54-15.48.81-23.2.55-4.07,1.08-8.14,1.62-12.23-1.89-10.72-3.8-21.45-5.69-32.19-4.89-18.3-11.03-36.7-16.31-53.75-1.07-4.61-2.15-9.24-3.24-13.85-2.51-6.07-9.06-5.85-12.22-10.6-1.1-4.6-2.19-9.21-3.25-13.83-2.47-.34-2.82-.24-4.49.8.53-2.3,1.08-4.61,1.62-6.92-.67-.53-1.34-1.07-2.02-1.63-.55.15-1.08.28-1.64.42-.94,1.21-1.92,2.44-2.85,3.65-1.86-.44-3.95.12-5.71.83-1.06,3.27-2.82,4.95-3.24,8.96-.97-.55-1.92-1.1-2.86-1.64,1.89-1.72,2.98-2.52,2.44-5.7-.27-.13-.55-.28-.8-.4-7,1.51-8.5,4.34-11.02,10.18,3.83,22.78,26.86,17.74,31.37,33.4,2.45,11.68,4.88,23.36,7.35,35.04.67,10.99,1.34,21.99,2.02,32.99,1.09,6.15,6.53,22.02,4.88,27.69-1.94,6.81-5.9,13.22-7.73,22.41-.81,6.92-1.64,13.85-2.44,20.78v13.85c-2.73,3.94-5.43,7.87-8.14,11.81-3.77,7.28-5.94,18.15-8.16,26.48h-1.61c-5.67-1.97-9.3-3.48-11.82-8.55,3.11,1.49,5.48,2.46,9.77,3.65.09-3.3-.87-7.95.82-9.36-.82-1.64-1.62-3.26-2.45-4.9,1.92,1.28,6.56,3.11,8.56,3.26-.29-.42-.54-.82-.81-1.22-3.6-.8-5.15-5.96-7.34-8.97l5.71-11.4c.74,1.64.63,1.32,1.63,1.64-.11-3.74.92-3.83,1.21-8.97,2.25.61,2.06,1.36,2.87,1.24.53-.14,1.07-.28,1.63-.42v-5.7c1.83-.5,1.32-.02,2.03-1.63-4.21-6.92-8.41-13.86-12.64-20.78,1.08.94,2.18,1.9,3.27,2.84v-.39c-2.43-3.27-4.89-6.52-7.33-9.79h.4c1.74,1.16,2.73,1.94,5.7,2.03-.54-1.9-1.07-3.8-1.62-5.7-6.8-3.12-13.57-6.24-20.39-9.36-11.94-3.48-52.71,5.29-61.1,10.17-13.68,7.97-11.06,39.65-.39,50.11-.4,2.05-.83,4.07-1.23,6.1.91,4.83,7.16,9.53,9.38,13.45,1.67,2.98,3.96,15.34,6.92,17.1,2.62,2.26,7.35-.11,11,1.24-.27.4-.56.81-.83,1.2-6.46,2.29-16.48,9.27-20.76,14.27-2.59-.82-5.18-1.63-7.74-2.45-10.91-2.26-29.73,8.38-35.45,12.63-5.89,4.41-10.18,10.34-17.52,13.44-10.18,3.53-20.35,7.06-30.55,10.59-4.27,1.99-8.22,4.82-13.44,6.11-7.46.28-14.93.54-22.4.82-13.71,2.3-27.44,4.62-41.13,6.92h-15.89c-7.97,1.28-19.57,3.03-28.12.82-4-1.03-18.65-7.71-22.41-6.52-5.48,1.73-15.25,7.24-17.51,12.62.43,3.08-1.45,8.59,0,12.64ZM256.38,226.89c-.28-.4-.56-.81-.83-1.23h.83v1.23ZM326.84,218.75c.27-.13.54-.27.83-.4.4.67.8,1.36,1.22,2.02h-1.22c-.28-.54-.55-1.08-.83-1.62ZM326.84,233.41h1.22c-.55,1.1-.95,1.19-1.22,0ZM326.03,224.04c.29-.13.54-.27.81-.4.4.94.83,1.89,1.22,2.85h-.4c-.55-.83-1.1-1.64-1.64-2.45ZM324.01,160.5h.8c.15.39.29.81.42,1.21-.42-.4-.83-.82-1.22-1.21ZM339.89,12.22c-.16.28-.3.54-.43.82-.27-.28-.53-.54-.8-.82.27-.13.53-.26.8-.39.13.13.27.26.43.39ZM313.82,151.13h1.63v1.22c-.55-.28-1.09-.55-1.63-.82v-.4ZM310.14,149.91h.83c.82.28,1.62.55,2.42.82v1.21c-1.46-.57-2.4-.82-3.25-2.03ZM261.26,375.99c.38-1.49-.02-.83.81-1.63v1.63h-.81Z"/>
</svg>