<?xml version="1.0" encoding="UTF-8"?>
<svg id="_レイヤー_1" data-name="レイヤー 1" xmlns="http://www.w3.org/2000/svg" viewBox="0 0 691.56 865.67">
  <defs>
    <style>
      .cls-1 {
        fill-rule: evenodd;
      }
    </style>
  </defs>
  <path class="cls-1" d="M94.07,51.91c-1.02.09-2,.17-3.02.29-.97-.23-2.44-1.05-3.28-1.21-1.52-.29-2.84,1.05-4.83.61-.29-.06-1.34-.52-2.12-.31-2.48.76-5.16,2.6-7.53,3.61-4.37,1.9-9.65,2.47-15.3,2.4-2.07-2-4.78-3.17-6.01-6.01-3.89-9,6.01-16.59,10.83-20.11,5.24-3.89,10.75-7.35,17.71-9.64,8.33-2.72,17.89-2.39,25.57-5.69,8.33-3.58,16.36-7.63,24.61-11.13,2.21-.94,3.96-.95,6.32-1.79,5.15-1.87,18.58-5.34,23.16-.32.46.55,2.51,5.5,2.09,6.62-.3.19-.59.38-.91.59-.51,1.31,1.45,2.8,1.2,4.51-.21,1.6.73,4.46,1.21,6.32,1.03,4.12.61,11.02-.6,14.12.07.59.18,1.2.28,1.78.16,3.86-.62,5.25-3.28,6.32.55,3.11.14,7.86.9,11.12.25,1.24.15,4.08-.33,4.81.52,1.14,2.17,1.03,3.02,1.8,1.29,1.59.61,3.86,1.2,6.3.75,3.21-.54,7.87.3,11.43.5,1.97,1.11,4.42,1.2,6.6v8.12c-.33,1.35-1.91,5.87-1.76,6.6.43,2.93,2.52,4.83,3.27,7.51.51,1.77.28,4.55,0,5.72v5.42c-.02,2.9-.23,5.76-.89,8.39-.64,2.6.22,6.53-.61,9.92-.25,1.12-.93,3.67-.89,4.81.21,1.2.38,2.4.6,3.61-.91,6.56-.78,14.67-1.79,21.33.1.8.18,1.6.32,2.42-.44,1.81-.9,5.31-.93,6-.1,3.93-1.05,7.18-1.81,11.13.08,1.77.21,3.59.3,5.4-.54,2.37-.91,5.9-1.52,8.11-.94,3.48.3,9.12,1.81,10.51-.09,3.63-2.67,4.73-3,7.82-.13,1.12,1.18,4.24,1.51,5.43.34,1.31-.27,2.98.28,3.89-.43.75.08.35-.89.63-.03,3.08-1.47,5.64-3.3,6.89.39,1.57,1.42,3,1.8,4.51.55,2.37-1.41,4.06,0,6.31.08,3.4,2.5,3.64,4.48,5.11.55.39.96,1.4,1.52,1.8.82.59,1.86.59,2.71,1.19.33.27.56,1.29.88,1.52.92.52,6.62.49,8.14.88,2.33.67,4.69,2.09,6.6,3,2.36,1.17,4.67,1.31,6.89,2.41,2.45,1.22,6.04,4.52,9.03,4.8.77,2.72,9.39,6.51,12.01,8.12,6.06,3.76,11.97,8.26,18.34,11.43,1.38.68,2.81.57,4.19,1.2,2.02.89,4.22,2.44,6.32,3.29.99.2,2,.4,3,.61,2.15.94,4.21,2.46,6.95,3.01,2-2.02,4.85-3.09,7.46-4.51,1.9-1.03,3.65-2.79,5.43-3.9,1.85-1.15,3.56-1.61,5.42-2.71,7.78-4.59,16.22-10.52,24.64-14.12,2.69-1.15,5.16-1.44,7.82-2.72,3.83-1.85,7.74-4.38,11.4-6.3,2.66-1.39,5.16-1.91,7.82-3.31,5.86-3.05,11.29-7.35,16.84-10.81,9.41-5.93,19.15-10.77,28.82-16.54,15.83-9.39,31.22-20.28,48.69-27.94,8.35-3.67,21.55-6.72,33.06-4.2,2.1.19,4.2.39,6.31.59,2.71.89,5.55,2.82,8.11,3.89,2.18.98,4.68,1.39,6.6,2.71,1.45.99,3.7,4.22,4.82,5.72,1.01.91,1.98,1.81,3.03,2.71,1.69,2.49,2.59,5.2,4.18,7.8,3.54,5.78,6.84,11.86,10.51,17.75,3.92,6.24,7.42,12.89,11.45,19.21,4.4,7,9.46,14,13.79,21.04,2.56,4.2,4.01,9,6,13.53,4.12,9.31,9.05,18.41,13.25,27.95,5.06,11.54,11.72,23,16.82,34.55,4.06,9.27,6.74,19.35,10.51,28.56,2.88,7,4.31,14.98,6.62,22.54.66,2.17.86,7.29,1.8,9.03.9,1.65,3.55,3.32,5.1,4.48,1.4,1.53,2.81,3.01,4.18,4.51,3.03,2.27,7.04,5.21,9.04,8.42.87,1.36.47,3.41.89,5.1.46,1.58,2.19,7.86,1.52,9.01v.29c.64-.4,1.07-.81,1.82-1.2.7-.74,2.09,1.66,2.68,2.12.63.48,1.54-.06,2.42.31,1.94.84,4.99,1.81,6.89,3.01,7.45,4.6,15.7,8.85,24.93,11.71,1.99.6,3.57.04,5.73.6,2.62.68,5.61,1.26,8.41.89.46-1.04.52-1.17.32-2.4.3.29.02-.02.28.32,1.09.52,1.76,1.35,1.8,3.01h.61c.64-1.28,1.58-1.76,2.1-3.01h.29v.3h.32c-.48.75-1.1,1.21-.61,2.11.5.94.2.35,1.2.29-.22,1.11-.42,1-.59,2.1,3.86.25,6.37,2.46,8.99,3.91h1.23c.09.31.18.61.3.9,2,.21,4,.41,6.01.61,2.9.73,6.81.81,9.91,1.82,1.46.44,3.22,1.72,4.51,2.09.6-.11,1.2-.21,1.82-.3,2.54.97,4.85,6.52,6.3,9.01,1.61,2.72,2.8,6.17.91,9.92-.74,1.44-2.96,2.62-3.91,3.9-4.41,5.83-10.32,8.53-17.15,12.03-7.92,4.1-16.99,7.28-26.42,9.92-3.55.99-6.42.65-10.2,1.52-4.66,1.05-14.11,1.1-18.95,0-12.37-2.9-23.35-5.69-35.76-8.72-2.71-.21-5.42-.39-8.11-.61-10.52-2.42-22.24-1.46-30.08-6.3-6.87-4.28-8.25-14.23-10.81-22.84-.68-2.29-.49-4.1-1.2-6.31-.25-.75-1-1.98-1.2-2.71v-2.4c-.45-.64-2.17-.6-3.02-.9-2.56-.96-5.04-1.82-7.78-3.01-6.56-2.81-14.13-7.95-17.74-13.82-1.38-2.21-1.25-5.55-2.71-7.83-2.46-3.84-6.05-7.4-7.81-11.99-1.43-3.71-1.75-8.54-2.69-12.34-1.61-6.4-.98-13.85-2.43-20.13-.55-2.56.32-5.64-.89-7.52-.12-2.94-2.21-3.08-3.29-5.09-2.7-5.05-5.67-9.45-9.33-13.54-1.66-1.86-4.03-3.66-5.41-5.71-3.4-4.99-5.72-10.4-9.02-15.63-2.51-3.95-5.89-7.73-8.4-11.72-2.75-4.3-4.86-8.73-7.8-12.91-1.29-1.79-3.05-3.54-4.21-5.42-1.49-2.41-1.84-5.36-3.01-8.09-.62-1.41-1.89-3.1-2.42-4.51-.7-1.94-.44-3.39-1.5-4.81-.44-.77-1.26-.9-2.12-1.2-.69-1.75-.77-7.18.64-8.72.56-1.1,1.45-.88,2.39-1.5-.01-1-1.96-2.97-2.1-5.41-3.2.58-3.07,1.62-6.02,0-1.52,2.31-4.37,2.9-6.29,4.81-.57.56-.71,1.45-1.21,2.1-1.56,2.07-4.07,3.41-6.04,5.1-.93.84-2.61,5-3.57,6.31-.76,1.02-2.28,1.65-3.3,2.42-1.28.91-2.39,2.39-3.61,3.31-1.9,1.35-3.9,2.2-5.71,3.61-.78.56-1.24,1.6-1.82,2.4-1.7,2.24-4.31,4.28-6.6,6.01-.81.59-1.09,1.69-1.8,2.4-3.34,3.36-7.53,5.89-11.13,9.01-6.6,5.73-13.12,11.78-19.83,17.42-1.76,1.48-4.17,1.99-6,3.31-.71.51-4.71,3.95-5.12,4.5-1.04,1.46-1.25,3.21-2.72,4.21-1.43,1.01-3.88,1.4-5.39,2.11-.8,2.07-.03,4.78-.94,7.5-.84,2.56-3.25,4.69-3.89,7.23-.15.75.25,4.15.62,4.81-.17.75-1.06,1.21-1.2,1.81-.31.92.2,1.69-.34,3-.6,1.47-2.27,2.59-3,3.91-1.33,2.44-2.17,4.8-3.59,7.21-1.62,2.7-4.82,4.9-6.61,7.52-1.24,1.78-1.46,3.55-2.39,5.7-.36.81-1.49,1.67-1.84,2.39-.43,1.04.34,2.26-.57,2.7-1.02-.09-2.01-.2-3.01-.28-1.88.56-3.43,2.78-5.43,3.6-1.4.31-2.79.59-4.2.9-3.3,2.06-4.97,6.01-8.68,7.82-1.11.19-2.23.39-3.33.59-1.07.44-2.25,1.84-3.3,2.4-1.97,1.05-4.57,1.11-6.31,2.42-2.92.32-4.32,4.35-5.72,6.31-1.96,2.68-7.53,8.43-10.5,9.93-.75.36-3.98,1.76-4.81,1.49-.68-.2-.96-1.67-1.52-2.1-1.75-1.33-4.45-2.44-5.69-4.21-1.33.18-2.83,1.09-4.55.6-2.51-.76-6-3.07-7.78-4.81-3.68.34-5.81,3.03-8.14,4.81-4.76,3.65-10.23,7.87-13.2,13.22-1.19,2.16-1.72,4.23-3.01,6.31-1.2,1.95-5.59,8.16-3.29,11.72.16,3.62,3.46,2.09,4.76,4.21.1.6.22,1.21.35,1.78.21.43.8.31,1.19.63.65.51.38,1.04.89,1.79.69,1.1,2.43,1.76,3.3,2.71,3.44,3.69,5.88,7.74,10.22,10.52-.03,3.54-2.88,9.21-5.39,11.42.5,2.98,1.6,4.05,2.99,6.02.56.75-.34.87,0,1.49.55.95,2.13,2.63,1.52,3.91v.3c.21-.09.4-.21.57-.3.44,6.18,3.78,12.32.63,18.33-.96,1.82-3.04,2.6-4.53,3.91-3.33-.02-6.3-.92-8.39-2.4h-1.8c4.31,8.69-1.93,9.04-3.62,15.62-.59,2.38.22,6.01.61,7.52.54,2.07,1.3,12.4.59,15.02-2.29,8.65-5.57,17.86-8.4,26.14-1.22,3.57-.62,7.21-2.1,10.52-.37.82-1.79,1.36-2.1,2.1-.42.97.31,4.19.31,5.71-.12,5.82-.25,11.62-.31,17.44-.87,3.36-3.15,5.5-4.21,8.41-1.02,2.69-1.12,5.6-1.83,8.39v2.42c-.53,1.6-2.41,3.22-2.99,4.81v3.32c0,2.74,0,6.58-1.18,8.4.73,1.99,9.2,4.88,11.43,6.31,1.77,1.17,3.8,2.76,5.7,3.9,1.87,1.16,4.29,1.34,6,2.71,2.64,2.09,6.09,4.28,9.31,5.7,2.21.99,4.27.87,6.6,1.83.28.09.74.8.91.9,1.35.62,2.41.32,3.92.9.22.08.7.83.89.91h2.09c.19.28.44.57.61.89,1.67.77,2.97.41,4.51,1.2,1.47.77,2.93,2.31,4.51,3,3.54,1.57,6.35,1.02,9.62,2.72,3.27,1.68,7.55,4.26,10.2,5.69,2.55,1.37,5.76,1.53,8.42,2.71,1.02.44,2.32,1.73,3.3,2.1,1,.09,2.01.19,3.02.29,1.87.71,3.79,2.31,5.7,3.01,4.02,1.45,7.41,1.65,11.12,3.3,1.06.48,2.65,1.39,3.63,2.1,1.26.96,1.91,3.09,3.59,3.62,2.3.74,8.35-.36,11.4.61,2.2.66,3.97,2.98,6.02,3.91,1.25.54,2.33.35,3.61.9,3.2,1.35,6.97,3.14,10.25,4.81.22.63.49,1.13.3,1.48.15,2.47,7.46,5.79,9.61,6.93-.11,2.68-1.15,2.61-1.22,5.1,1.11.21,1.29.51,2.12.89-.08,3.59-3.32,5.65-7.52,4.53-4.11-1.07-6.96-3.85-10.23-5.71-.59-.33-1.57-.26-2.08-.61h-2.72v.29c1.73,1.49,3.43,3,5.14,4.53.59.86,1.94,4.08,2.68,4.51h2.13c1.34.47,2.4,1.95,3.58,2.69.06,2.73-1.24,4.53-3.58,4.8v.9c2.96-.28,5.3.34,7.8,1.8.36,1.65.31,3.1-.61,4.21-2.92,3.72-14.88,1.15-18.63,3.32h-2.1c.73,1.15,1.83.74,3.31,1.2,3.07.94,6.61,2.11,9.01,3.59v2.71c-.69.8-1.39,1.61-2.11,2.41-6.48.44-13.39.05-19.24-1.2-2.9-.22-5.8-.41-8.72-.62-2-.47-6.7-2.24-8.72-2.09-.75.06-2.27,1.78-3,2.09-1.08.5-2.68.63-3.57.91-4.66,1.38-10.67,1.01-15.64,2.11-6.51.4-13.02.8-19.55,1.2-.77.28-1.72,1.35-2.39,1.8-1.71,1.06-3.48,1.57-5.12,2.7-2.42,1.71-4.64,4.12-7.2,5.73-4.67,2.9-9.56,5.32-14.14,8.09-1.67,1.04-3.44,1.33-5.09,2.42-4.42,2.9-8.05,7.42-12.35,10.51-8.94,6.51-18.08,13.2-27.31,19.24-1.24.8-2.5.89-3.92,1.5-4.75,2.1-9.41,4.73-14.42,6.9-5.58,2.46-11.45,5.98-18.06,7.23-1.01-1.04-2.27-1.31-3.58-2.11-2.42-1.52-4.59-3.76-6.9-5.41-.86-.62-1.88-.82-2.69-1.5-1.16-.91-1.84-2.72-2.74-3.91-1.45-1.97-3.74-3.66-5.08-5.71-1.13-1.66-1.52-3.61-2.41-5.4-.56-1.08-1.74-2.49-2.1-3.61-.68-2.09-.53-4.78-.92-6.61-.33-1.6.07-4.27.32-5.41.98-4.59-.03-9.83.9-14.14.58-10.61,1.2-21.23,1.8-31.85.81-3.82.47-9.9-.31-13.52-.34-1.64.43-3.94-.28-5.12v-2.1c-1,.68-1.47,1.74-2.42,2.41.26.72.41,1.05.92,1.51v.59c-.65-.25-1.6-.5-2.12-.89h-1.51c.33.44.45.59.9.89v.32c-1.54-.27-2.43-.93-3.6,0h-.6v.9c-1.32.19-2.61.39-3.9.6.41.47.18.33.91.59-.33.23-.28.21-.91.31.41.63.84,1.1,1.5,1.5v.3c-1.32.09-2.62.19-3.94.3v.9c-.51.17-.28.05-.58.29h-3.28v.3c.36.14,1.18.37,1.49.61h.6c-.88.69-8.22,1.1-9.62,1.21v.28c.47.17.71.25,1.49.31-1.31,1.24-11.07,1.85-13.84,1.81-.08,1.13-.19,1.11-.59,1.8-3.45.63-4.89-.94-7.83-1.21v-.9c-1.43.27-2.32,1.38-2.99,2.39-2.04-.34-3.45-2.55-3.9-4.48-2.52-.6-4.91-1.45-6.6-2.13h-1.82c-1.23-.52-2.26-1.71-3.9-2.1-.83-.31-1.07.5-2.08.91-.34-.86-.59-1.42-.61-2.72-.31-.09-.62-.2-.89-.29-.38.71-.56,1.07-1.22,1.49v.31h-.29c-.18-1.3-.42-2.61-.6-3.92h-.3c-.43,1.5-1.37,2.19-1.82,3.61h-.61c-.59-2.74-.76-5.51-2.4-7.2-1.09-.87-3.29-.7-4.51-1.51-1.42.32-2.05,1.63-2.09,3.31h-.59c-.29-.32,0-.05-.32-.31.12-1.59.64-2.23,1.48-3-.3-1.28-1.13-1.47-1.8-2.4-.78,1.08-1.63,3.43-1.79,4.82-.49-.76-.42-2.27-.9-3.01v-.61h-1.8c.14-1.52.56-1.85.59-3.61-.68-.06-.82-.04-1.2-.3-.62.13-.56.07-.88.3-.99,1.2-1.42,5.09-.32,6.61v1.2h-.3c-.37-1.46-1.87-5.6-.59-7.5-.18-1.32-.37-1.04-.87-1.81-2.89.04-4.91,1.84-6.04,3.6-.43-.49-.67-1.44-.88-2.1-1.8.16-2.92.73-4.53.9-.21.39-.34.64-.62.91v.59h-.29c.29-2.59-.51-7.09.91-8.7v-.31h.6c-.55,1.3-.68,3.07-.6,5.11,1.42-1.77,1.54-4.62,3.02-6.3v-.59c-1.28.19-1.87.58-2.11,1.78-.73-1.05-.08-4.57.6-5.41v-.59c-1.68,1.11-5.43,3.88-6.63,5.42h-.28c.2-3.54,2.07-5.85,4.5-7.22v-.61c-2.72.22-6.18,1.77-7.82,3.32h-.6v-.31c1.48-.74,2.6-1.94,3.92-2.7,1.62-.97,3.68-1.02,5.11-2.1.33-.28.03.03.3-.33-1.03-.16-2.36-.36-3.01-.89h-.33c.85-.55,3.73-.56,4.84-.6v-.31c-2.26-.43-5.07-.6-6.63-1.8h-.6v-.3c2.71,0,4.86-.34,6.94-.6-1.39-1.02-4.43-.4-5.74-1.5h-.61c.81-.5,2.15,0,3.32-.3,1.84-.49,3.45-1.68,5.11-2.4v-1.8c-3.47.01-5.6,1.5-6.93,3.62h-.31c.07-4.61,3.62-7.33,6.64-9.04v-.59c-1.43.33-7.37,2.26-8.43,3h-.89v-.31c2.27-.61,4.51-1.91,6.31-3-.61-3.75-4.85-3.44-6.63-6.01h-.26v-.3c1.33.15,2.69.49,3.57,1.22,2.45.02,3.73-.84,4.53-2.41.04-.07.31-4.32,0-5.4-1.27-4.32,1.44-10.99,1.48-15.64h.92c1.22-2.24,4.92-5.66,2.66-8.41.4-.67.44-.46.94-.9.2-.38.02-.3,0-1.2,2.93-1.09,6.98-2.18,8.69-4.5,1.05-2.47-1.48-8.51-.59-12.03,1.48-5.76,7.93-8.55,15.02-8.42.79-1.55,2.74-5.15,3.92-6.31,1.07-1.06,4.06-2.02,4.79-3,.79-.96,1.89-4.17,2.71-4.81,1.42-1.09,4.22-1.06,6.03-2.4.59-.8,1.19-1.6,1.81-2.41,4.24-3.91,6.85-6.35,14.42-5.41.2-1.1.38-2.2.58-3.31.52-.29,1.02-.61,1.49-.89-.26-3.21-.59-6.41-.87-9.62-1.39-5.58-3.61-9.49-3.61-17.12v-4.53c.26-1.1-.03-3.33.29-4.79,1.05-4.52,1.66-9.89,2.7-14.43,1.05-4.59.59-9.55,1.49-13.82.81-3.62-.18-8.45.31-11.41,1.93-11.29,2.24-23.84,4.81-34.86,1.05-4.39.12-8.36,1.21-12.64,1.45-5.63,3.39-11.36,4.82-16.81.19-2.01.43-4.01.6-6.03,2-7.87,3.57-17.11,6.62-24.33.75-1.82,2.26-3.75,3.01-5.4,2.1-4.61,3.75-9.38,6.63-13.23,1.07-1.52,2.97-2.74,4.47-3.9,2.77-2.16,5.21-5.51,7.5-8.12,1.91-2.14,4.23-4.38,6.34-6.32.36-.34,1.21-.54,1.49-.91v-.9c.55-.75,2.01-1.24,2.4-2.09.08-.9.21-1.81.28-2.7.62-2.08,1.15-4.56,2.13-6.62.35-.71,1.48-1.35,1.81-2.1.99-2.32,1.16-4.37,2.99-5.72,1.95-1.4,5.2-2.05,7.82-2.7,1.1-.27,2.3.15,3.01-.3h1.82c.11-.4.19-.8.29-1.2.63-.82,2.1-1.03,2.69-1.81.09-.5.2-.98.32-1.49.28.09.57.19.89.3,1.36-1.47,3.04-2.92,4.21-4.52.59-.83.38-1.79,1.18-2.4.73-.56,1.6-.37,2.43-.9,1.16-.78,2.51-3.48,3.57-4.51.41-.12.83-.2,1.22-.3.08-.39.21-.79.3-1.2.46-.35,1.17.15,1.51-.3.56-.69.54-1.59,1.2-2.11,1.95-1.53,6.52-4.66,6.6-6.9-1.13-.12-1.11-.25-1.8-.62-.11-.79-.18-1.64,0-2.08v-.9c-1.13.39-1.51,1.15-1.8,2.39-.64.12-1.91.27-2.39.59-1.41.07-2.38.11-3.01-.59-.7-.67,1.09-1.36-.6-2.1.27-2.98,2.65-3.43,4.5-4.81,4.08-3.01,7.65-7.14,12.03-9.91-.5-.84-6.24-3.44-7.5-4.5-6.12-5.18-12.91-9.4-19.24-14.43-2.87-2.28-5.1-5.35-7.81-7.81-4.73-4.34-9.3-8.67-13.83-13.22-1.05-1.05-2.7-1.85-3.61-3.01-.74-.99-1.24-2.12-2.08-3.02-2.13-2.16-4.4-3.58-6.93-5.41-1.05-.76-1.89-2.26-3.03-3-2.36-1.58-5.25-1.92-6.91-4.2-1.85-2.6-2.66-5.78-4.47-8.42-1.32-1.85-3.57-3.27-4.55-5.41-.98-2.19-.98-4.79-2.08-6.9-.7-1.33-2.32-2.59-3.01-3.91-2.25-4.24-2.94-8.38-4.53-13.53-.52-1.73-2.05-3.78-1.49-6.3.79-3.46,2.49-6.68,4.49-9.03.93-1.07,2.14-1.79,2.71-3.3.04-.09-.2-8.35-.58-9.91-1.86-7.93-1.24-17.29-3.02-25.23v-4.52c-.65-2.77.14-6.22-.59-9.31-2.47-10.57-.3-22.35-2.68-33.06v-6.31c-.54-2.21-.6-6.23-.92-7.82v-5.71c-.12-3.36-.17-7.89-.6-9.92v-6.93c0-6,.24-12.45-.91-17.41-.59-2.56-.41-5.12-.91-7.21v-5.11c-.95-3.91-1.54-8.48-2.39-12.03-.74-3.03-.08-5.88-1.52-8.09-.1-7.27,11.47-5.57,17.45-6.92,1.25-.29,2.74.2,3.6-.31h5.1v-.59c-1.16-.5-1.87-.9-3.57-.9-.44-2.07-7-5.14-9.04-5.7ZM11.72,714.81c-.33.28-.01-.02-.3.3h-.59c.46.75-.07.35.89.6v-.9ZM175.48,786.64h2.75c2.69-.76,5.24-1.52,7.51-2.41,1.57-.09,3.2-.19,4.81-.3v-.6c.9-.09,1.81-.19,2.71-.28.65-.29,1.36-1.24,2.1-1.52h1.48c.1-.29.21-.6.31-.89.63-.4,1.57.13,2.1-.3.61-.5.61-1.19.61-1.21.61-.1,1.2-.2,1.82-.31.29-.49.59-.98.87-1.48,1.79-1.3,4.11-1.63,5.41-3.31,1.04-1.32,1.64-3,3-3.91,1.5-.51,3.02-1.01,4.5-1.49,1.51-.92,2.98-2.5,4.53-3.32,1.56-.8,3.1-.88,4.49-1.81.96-.62,1.94-1.94,3.04-2.4,3.17.87,7.05,1.39,10.2,2.12.77.17,5.8-.96,6.9-1.23h4.22c5.76-1.49,15.42-.97,18.93,1.82h.88c-1.05-2.2-2.18-4.41-3.31-6.61-3.25-.21-6.06-1.31-8.7-2.09-7.91-2.43-14.97-4.17-21.94-7.22-2.84-1.25-5.62-3.57-8.4-4.82-8.21-3.62-16.62-6.51-24.63-9.91-6.3-2.67-12.58-4.94-18.65-7.52-2.88-1.23-6.78-1.69-9.01-3.6-2.48.32-3.85,6.41-5.12,8.41-.79,1.26-2.51,2.51-3.01,3.91-.96,2.69-1.33,9.41-.6,12.62.14.61.72,1.9.6,2.7-.23,1.67.02,4.95.3,6.91.87,5.76-.23,11.38.9,16.53v5.12c.62,2.56,1.29,7.23,1.49,10.51,3.04-.05,4.7-1.47,6.9-2.11ZM1.8,723.24c.38-.22.29-.19.92-.3-.34.22-.29.18-.92.3ZM9.03,730.44v.3c1.32-.03,1.42.12,1.81-.9-.6.2-1.21.38-1.81.59ZM3.92,735.24v-.29h.6c-.32.23-.09.11-.6.29ZM5.4,743.36v1.2h.31c.53-1.55,1.64-2.39,2.1-3.89-.98.68-1.55,1.85-2.41,2.69ZM11.12,749.37c-.21.24-.39.68-.57.92v1.49c1.37-.49,2.85-2.14,3.58-3.31-1.54.01-2.26.17-3.01.9ZM297.51,764.71h12v-.3c-2.62-.98-4.42-3.68-6.6-5.12-4.48-2.96-10.99-4.97-16.2-7.21-1.66-.71-6.9-3.31-9.63-1.49h-3.62c.62,1.41,1.19,2.8,1.8,4.22,1.35.46,3.19.46,4.51,1.19,1.66.91,4.83,7.4,5.14,10.21,4.19-.44,8.39-4.65,12.61-1.49ZM18.65,750.88v.31c.28.09.59.18.88.3.21-.27.38-.36.64-.61h-1.52ZM15.66,752.67v.31c1.46-.15,1.73-.63,2.7-1.2v-.59c-1.25.34-1.69.96-2.7,1.48ZM8.42,757.19c-.33-.51-.33-.67,0-1.2v1.2ZM8.13,758.39c-.31-.52-.36-.67,0-1.2v1.2ZM7.82,758.99h-.29c.19-.52.04-.3.29-.6v.6ZM26.74,762.29h-.28c.11-.62.07-.58.28-.9v.9ZM22.85,761.97h-.32c.2-.49.06-.28.32-.58v.58ZM39.98,763.21v1.5h.26c.3-.34-.02-.04.33-.3-.03-1.35-.16-1.65-.59-2.43-.32.54-.33.7,0,1.23ZM23.12,762.6h-.27c.21-.51.06-.29.27-.62v.62ZM62.82,773.1h-.6c.21.75.42,1.04.91,1.52.19.52.02.29.28.61.22-.52.29-.95.29-1.81-.6-.11-.57-.09-.88-.31ZM69.12,774.62c.54.37,1.25.38,1.8,0h-1.8Z"/>
</svg>