<?xml version="1.0" encoding="UTF-8"?>
<svg id="_レイヤー_1" data-name="レイヤー 1" xmlns="http://www.w3.org/2000/svg" viewBox="0 0 867.5 777.34">
  <defs>
    <style>
      .cls-1 {
        fill-rule: evenodd;
      }
    </style>
  </defs>
  <path class="cls-1" d="M9.35,511.42c6.5,1.96,17.23-1.11,23.4-14.94,6.21-13.85,21.85-35.25,34.08-42.46-2.84,3.81-.35,12.94-.35,12.94,0,0,26.77-3.19,29.38.13,2.61,3.4,1.55,27.33,17.13,39.3,15.63,11.91,36.22,32.28,50.48,38.46,0,0-2.14,2.08-1.85,3.12.35.99.85,2.24,8.67.27l5.8,3.35c-3.99,5.59-4.92,16.45-3.28,17.79,1.58,1.33,3.81.49,7.76-15.25,0,0,22.16,15.15,26.97,18.77,4.72,3.57,17.5,4.99,22.92,4.13,5.39-.91,39.3-26.03,52.15-36.67.38-.31.79-.69,1.26-1.05,6.97,13.69,24.07,45.92,37.45,59.54,17.13,17.51,24.33,22.77,34.88,29.66-1.44,5.42-11.04,11.31-11.51,13.7-.38,2.37,4.95,5.68,3.84,7.5-1.15,1.76-11.13,5.79-11.48,9-.33,3.19.85,4.58.14,5.88-.76,1.37-11.77.64-12.36,6.37-.56,5.77,11.07,21,9.63,23.64-1.41,2.67-8.4,2.26-8.61,5.18-.15,2.99,1,4.39,1,4.39l1.67,21.15c-1.2.94-5.18-3.54-6.38-3.03-1.23.52-1.73,6.69-1.73,6.69,0,0-1.61-3.66-.21-6.73,1.4-3.09-3.78,1.65-3.98,9.86-.38,15.26,22.17,28.66,28.28,33.86,6.18,5.16,26.76,9.28,32.65,11.07,5.89,1.84,34.2-5.09,42.22-10,7.99-4.91,23.01-29.24,21.61-37.35-1.29-8.14-1.09-39.45.99-42.35,2.05-2.9-3.72-13.18-6.56-12.09-2.87,1.08-7.93,1.11-7.93,1.11,0,0,.59-4.9,4.6-8.44,6.09.97,13.26-.77,18.18-1.57,5.83-.94,38.19-14.94,44.27-12.93,6.09,2,14.44-3.79,19.38-5.48,4.89-1.74,21.99-4.02,28.43-10.73,6.35-6.7,8.64-14.95,10.78-14.25,2.16.67,18.71-6.04,35.1-14.08,16.4-7.94,52.79-25.92,55.66-29.75,2.84-3.84,11.1-6.26,18.19-9.16,7.17-2.98,4.83-12.7-9.55-29.39-.12-.2-.29-.46-.53-.62,13.09-10.16,29.02-21.79,38.18-22.93,11.3-1.41,57.92-38.45,75.26-52.61,17.36-14.19,29.84-16.11,37.42-16.8,7.52-.65,38.56-3.33,43.04-5.01,4.51-1.69.47-5.86,2.81-7.01,8.05-4.07,17.66-.68,18.68-3.75.94-3.02-4.57-13.09-25.83-5.32,2.75-7.02,5.04-14.39,2.43-15.85-2.69-1.48-9.75-.41-9.75-.41,0,0,.2-6.73-2.34-7.39-2.64-.62-6.62,2.29-8.44.74-1.78-1.55-6.85-5.74-9.43-6.36-2.55-.6-14.87,3.86-16.28,12-12.65,4.91-23.75,22.75-32.74,26.1-9.02,3.3-58.65,30.02-74.78,33.51-14.26,3.14-44.8,15.54-71.8,41.06-6.85-3.51-15.17-6.55-25.74-9.09-3.25-.76-12.03,14.38-19.85,16.76-7.84,2.4-17.57,5.11-17.57,5.11-.06-14.13-24.86-77.64-27.76-84.81-2.99-7.1-14.67-19.61-14.03-24.5.62-4.91-12.33-13.52-16.98-15.03-4.51-1.48,10.13-7.81,8.05-12.32-2.11-4.47-3.87-12.53-2.6-15.38,1.2-2.85-2.08-6.78-5.68-11.74-3.6-4.96.23-14.62-2.49-18.78-2.69-4.19-15.08-17.71-15.46-22.72-.47-5.06-7.14-11.43-9.19-10.41-1.96,1.03-8.49-10.21-11.01-12.33-2.46-2.11-22.02-15.42-46.32-20.29-24.27-4.82-37.04-1.16-45.09-4.03-8.05-2.9-21.72,2.7-27.11,1.31-5.42-1.44-26.41-7.46-29.28-10.97-2.81-3.58-4.72-22.59-7.32-25.99-2.61-3.34-16.37-17.56-19.03-24.5-2.72-6.93-27.38-40.44-36.1-48.15-8.67-7.69-24.33-34.85-30.21-38.97-5.89-4.12-24.89-21.69-27.03-31.21-2.08-9.55-10.57-17.04-19.56-18.39-8.93-1.32-6.61-15.66-8.32-20.59-1.7-4.91-7.08-23.01-29.57-21.27-2.02-6.38-5.07-.42-5.07-.42-.03-10.13-21.76-24.48-21.76-24.48,2.76-2.37-5.68-6.7-5.68-6.7,0,0-20.17,3.23-31.54,11.6-11.24,8.37-25.09,30.96-26.79,38.44,0,0,4.66,7.45,6.89,6.19,3.69,3.89,23.25,17.18,34.82,19.58,2.2,9.95,1.32,21.64,5.18,25.73,4.01,4.07,15.4,4.36,18.21,12.15,2.81,7.74-3.16,14.8,2.93,21.45,6.09,6.64,26.7,18.16,34.67,41.54,7.96,23.33,26.82,48.54,48.84,75.97,22.05,27.43,59.52,77.15,60.46,82.57.91,5.42,15.75,6.67,19.91,10.1,4.1,3.45,8.46,19.95,18.44,23.31-10.25,15.47-25.91,34.15-35.11,37.7-9.22,3.56-2.9,27.49-19.06,36.08-16.1,8.6-34.63,14.42-34.63,14.42-.14-9.04-1.61-13.78-17.25-11.79-15.7,1.98-28.99,1.71-33.79-6.95-4.74-8.7-9.9-11.84-9.9-16.92s1.38-15.5-4.8-18.75c-6.24-3.28-2.58-13.99-6.38-12.75-20.14,6.38-24.63,1.53-44.36,14.85l-2.75-2.75c4.01-2.02,3.07-5.52-.73-8.36-3.86-2.82-27.85-16.8-39.54-17.27.15-1.03-3.54-4.57-6.09-2.39-2.6,2.12-15.17,29.61-18.79,46.36-3.6,16.82-14.81,38.51-18.64,64.77-3.78,26.32,5.65,28.47,8.47,26.55ZM318.33,502.37c9.28-10.81,17.54-20.74,21.08-25.45,8.23-11.29,14.06-19.58,17.39-17.99,3.28,1.61,8.17,1.79,7.97-.3-.15-2.07-.21-9.93,3.16-9.79,3.39.14,7.43.42,2.84,5.92-4.54,5.46-5.47,7.83-2.46,13.07,3.02,5.21-3.4,14.65-1.61,19.53,1.64,4.96,9.63,11.22,6.44,18.68-3.17,7.5-4.63,10.16-2.29,12.84,2.34,2.8-.7,8.32-3.25,10.86-2.52,2.57-2.14,4.43-.09,6.13,2.02,1.73,3.19,7.38-2.31,5.08-5.51-2.28-9.95-8-13.67-6.83-3.72,1.18-9.86-8.64-12.65-9.03-2.76-.36,1.69-4.81-2.81-8.21-3.49-2.64-13.47-10.92-17.75-14.51Z"/>
</svg>