<?xml version="1.0" encoding="UTF-8"?>
<svg id="_レイヤー_1" data-name="レイヤー 1" xmlns="http://www.w3.org/2000/svg" viewBox="0 0 544.35 814.5">
  <defs>
    <style>
      .cls-1 {
        fill: #231815;
        fill-rule: evenodd;
        stroke: #231815;
        stroke-linejoin: bevel;
        stroke-width: .24px;
      }
    </style>
  </defs>
  <path class="cls-1" d="M153.39,814.38s.18-6.76.25-10.79c-.07-2.6,2.67-2.7,5.62-2.6l23.97-.25c14.84-6.44,19.76-21.93,19.23-42.37l17.09-12.15v-354.88l-.03,7.4c.43,0-16.13-16.55-22.61-24.64l-24.25,4.02-2.03-26.67-20.19-18.16-27.49-.43c-25.32,5.41-40.31,29.59-53.34,57.4-19.12-18.12-25.1-42.55-19.79-72.35-20.62-6.59-36.6-17.45-46.04-34.36l-3.2-6.69H.11l.25-.47-.25-.49h.47l3.2-6.66c9.43-16.95,25.42-27.81,46.04-34.4-5.31-29.8.67-54.23,19.79-72.35,13.03,27.81,28.02,51.99,53.34,57.4l26.73-.39.71-.57,20.33-19.05-.46-27.24,26.67-2.02,18.19-20.2.4-27.49c-5.41-25.31-29.59-40.3-57.39-53.33,13.59-14.35,30.72-21.3,51.02-21.65l.21.04.11-.04c3.38-.03,6.84.07,10.4.39l10.62,1.43,5.76-14.53c6.62-13.63,15.92-24.39,28.63-31.48l6.66-3.2V.11l.32.18V.11l.32.18.32-.18v.18l.32-.18v.46l6.68,3.2c12.68,7.09,21.98,17.84,28.6,31.48l5.77,14.53,10.61-1.43c3.56-.32,7.01-.42,10.4-.39l.1.04.22-.04c20.29.36,37.42,7.3,51.02,21.65-27.8,13.03-51.98,28.02-57.39,53.33l.43,27.49,18.16,20.2,26.67,2.02-.46,27.24,20.37,19.05.68.57,26.73.39c25.32-5.41,40.31-29.59,53.34-57.4,19.13,18.12,25.1,42.55,19.8,72.35,20.61,6.59,36.6,17.44,46.03,34.4l3.2,6.66h.47l-.25.49.25.47h-.47l-3.2,6.69c-9.43,16.91-25.42,27.77-46.03,34.36,5.3,29.8-.67,54.23-19.8,72.35-13.03-27.81-28.02-51.99-53.34-57.4l-27.49.43-20.19,18.16-2.02,26.67-24.26-4.02c-6.44,8.08-23.03,24.64-22.61,24.64l-1,347.27h.46l17.41,12.36c-.53,20.44,4.35,35.93,19.23,42.37l23.97.25c2.95-.11,5.66,0,5.62,2.6.07,4.03.25,10.83.25,10.79h-237.39Z"/>
</svg>