<?xml version="1.0" encoding="UTF-8"?>
<svg id="_レイヤー_1" data-name="レイヤー 1" xmlns="http://www.w3.org/2000/svg" viewBox="0 0 364.08 873.35">
  <defs>
    <style>
      .cls-1 {
        fill: #231815;
        fill-rule: evenodd;
      }
    </style>
  </defs>
  <path class="cls-1" d="M267.03,336.86c-31.42-43.8-112.1-38.35-170.08-55.59-.01,8.67,1.25,18.67-3.27,22.88,63.5,3.1,123.97,26.35,173.35,32.7M195.07,382.65c6.14,3.67,6.96,12.65,13.1,16.34-.15-4.49,1.53-7.17,3.27-9.81-6.52.7-13.98-13.87-16.37-6.53M162.37,510.19c2.78-9.58,10.54,1.97,16.36,0v-19.62c-10-2.38-9.62,5.66-19.62,3.27,1.79,4.77-3.83,16.93,3.26,16.35M191.81,376.1c-6.79-3.66-6.93-3.52-3.26,3.29-9.48,3.65,5.01,3.51,3.26-3.29M293.19,405.53c6.59-6.62,18.46-24.98,13.07-32.7-1.83,4.72-5.08,7.99-9.81,9.82-3.28-4.36-5.39-9.89-9.8-13.09,2.87,10.52-10.79,4.47-9.82,13.09,11.46,1.61,7.92,18.22,16.35,22.88M270.29,412.07c-10.17-42.63-44.8,2.19-55.58-6.54-1.65,4.49,2.61,8.57,4.71,11.65,2.45-.94,5.21-1.59,8.37-1.84,5.88,17.39,37.56,8.59,42.51-3.27M123.13,366.29c-7.46-6.45,9.09-23.9-6.55-26.16-14.19,27.9,21.17,50.32,35.97,49.05-6.16-4.74-14.49-7.31-13.07-19.62-4.74-1.79-16.9,3.82-16.35-3.27M316.07,340.13c-10.33.55-10.92-8.69-22.88-6.54-2.74,3.79-4.33,8.78-3.26,16.35,8.13-.49,10.1,5.14,16.34,6.54,0-8.73,10.34-7.09,9.81-16.35M119.85,209.31c73.43-11.02,123.77,35.04,166.81,32.7-26.03-34.25-95.68-52.35-163.53-55.59,2.61,11.35-4.87,12.56-3.28,22.89M106.78,222.4c9.58,2.76-4.27,8.22,0,16.33,65.52-2.19,129.09,32.12,170.05,32.7-25.26-32.64-107.74-53.51-170.05-49.04M103.5,251.82c2.36,10-3.33,11.93-3.27,19.62,66.33-2.99,125.99,35.23,173.33,29.44-40.32-32.7-104.1-41.96-170.06-49.06M217.96,421.88c3.36-.92,2.92-2.58,1.45-4.7-2.92,1.14-5.4,2.73-7.48,4.7h6.03ZM132.94,107.92c81.7-16.18,129.38,36.19,170.06,39.25-23.54-41.13-104.95-71.53-173.32-58.87-.08,7.71,5.61,9.62,3.26,19.62M136.21,75.22c79.39-16.46,128.87,20.21,173.34,49.06-12.5-53.59-102.23-87.66-179.87-65.41,11.32-2.3,11.71,11.48,6.53,16.35M257.22,755.47c10.21-7.28-6.44-15.09-6.56-22.89-23.37,2.27-38.18,21.16-58.86,16.36,6.67.96,6.41,8.82,13.07,9.8,6.59-8.7,21.97-8.56,29.44-16.34-9.7,11.43,20.43,5.94,19.62,9.8-3.43.18-2.56,4.2,3.29,3.27M221.23,22.89c5.25-6.76,19.31-4.69,19.63-16.35-11.33,2.62-12.58-4.88-22.9-3.27-4.49,4.2-5.69,19.55,3.27,19.62M149.28,346.66c2.38,14.33-6.49-2.63-6.54,6.54,9.96,26.03,33.6,38.37,52.33,55.6-1.77,4.77,3.83,16.89-3.26,16.35-9.4.68-16.61-.83-19.63-6.54v-16.35c-3.99-.37-7.73-.97-6.52-6.54-42.5,11.82-50.03-18.91-71.97-35.97,8.32-26.52,12.73-18.99-3.27-22.89-8.59,47.5,50.5,61.53,62.14,81.76-17.39,39.12-2.78,75.61,3.82,56.46-.79-2.52-1.02-5.99-.53-10.68.93-.2,1.83-.34,2.72-.4.6-5.74.83-13.17.55-22.49,8.37.34,15.58,1.85,19.62,6.54-12.32-1.41-14.9,6.91-19.62,13.08,14.26-.37,20.22-5.41,26.16,6.54-7.3,6.4-14.39-4.64-26.71-3.67-.49,4.86-1.26,8.47-2.18,11.08,4.54,14.51,27.29-2.43,35.44-4.14,1.77,11.59-11.59,8.04-9.8,19.62,20.43-12.42,13.05-52.68,29.93-68.68h-7.05c-10.26-33.03-21.02-41.93-55.6-75.22M152.55,6.54c-4.54,4.17-1.99,15.44-6.54,19.61,9.13,2.28,13.84-16.26,6.54-19.61M234.32,516.73c-15.79,1.67-35.38-.5-42.52,9.81,16.73-.69,35.46.59,42.52-9.81M247.4,438.24h-19.62c3.77,15.76-15.21,8.78-16.34,19.62,11.31-.66,17.4-6.57,26.16-9.81-4-.37-7.74-.97-6.55-6.54,4.79-.03,26.76,1.25,16.34-3.27M126.4,160.25c4.37,2.27-1.62,8.73,3.28,16.36,64.28-12.37,117.36,30.36,163.51,35.96-22.08-34.28-104.12-69.6-166.79-52.32M231.05,513.46c-11.01-7.61-27.9-26.5-26.17-35.97-3.2,13.37.37,13.23,0,29.43-7.98-1.82-6.96-12.65-19.61-9.81-2.71,9.24,4.6,8.47,3.28,16.35,14.57-1,29.48-6.71,42.51,0M182,22.89c1.69-5.15,12.58-17.51,3.26-22.89-5.72,3.89-15.78,20.1-3.26,22.89M288.83,851.05c18.82-6.79,32.95-15.56,33.78-26.89-3.49,6.79-16.8,17.28-33.78,26.89M299.72,304.15c-9.56,11.95,2.68,23.95,13.1,26.16-2.45-11.17,13.28-4.15,9.8-16.35-12.97,2.07-9.36-12.43-22.89-9.81M306.26,277.98c-9.64,10.71,8.78,29.43,16.35,22.9,7.59-9.97-6.17-20.44-16.35-22.9M168.91,657.36c-3.13,13.59,9.81.66,0,0M231.05,873.22c18.63-3.12,40.17-12.19,57.78-22.17-57.99,20.92-160.71,22.93-57.78,22.17M316.07,219.12c-2.53,19.96,5.96,28.96,19.63,32.7,8.26-14.12-6.67-29.28-19.63-32.7M329.17,160.25c-3.37,22.99,7.79,31.45,16.35,42.51,9.49-17.27-3.86-36.67-16.35-42.51M335.71,130.81c-6.15,18.99,7.65,32.37,16.34,45.8,8.13-16.89-4.25-38.53-16.34-45.8M165.65,595.23c-4.37.46-12.17-11.02-13.1-3.27,4.37-.5,9.87,13.3,13.1,3.27M322.62,189.69c-3.22,21.75,8.06,29.02,16.37,39.25,13.75-12.47-1.93-35.08-16.37-39.25M126.4,121.01c-5.78,5.46,2.91,10.97,0,22.89,71.69-20.04,132.44,32.89,170.06,35.97-24.35-38.98-89.84-64.89-170.06-58.87M309.55,248.55c-1.9,19.02,9.87,31.7,22.88,26.18-.24-5.71.73-10.2,3.27-13.09-13.71.63-10.11-16.05-26.15-13.08M69.8,368.85c-3.04-3.35-5.92-6.96-8.5-10.75,2.19,4.5,5.2,8.33,8.5,10.75M110.04,389.18c-1.42-3.64-14.44.65-6.54-9.79-18.58,9.64-17.12-19.67-32.7-22.91-3.12,6.11,9.8,10.92,0,13.08-.33-.22-.66-.48-1-.71,13.16,14.33,29.65,23.56,40.24,20.33M70.79,343.39c-.83-4.38-.74-8.74-.14-13.03-4.32.77-4.27,23.37.14,13.03M61.3,358.1c-4.79-9.86-5.68-22.86,2.95-31.04.73,2.5,2.72,3.73,6.4,3.26,3.12-21.89,20.23-42.35,3.42-58.87h13.08c-.43-8.07-.5-15.75,3.26-19.62-2.01-4.53-12.59-.48-13.07-6.54,4.3-3.33,12.05-3.21,16.34-6.54-1.85-10.58.99-16.46,6.54-19.62-4.74-1.79-16.89,3.81-16.34-3.27,9.43-2.56,3.64-20.33,13.07-22.89-17.45-9.46,14.55-30.98-3.27-42.52,8.15.51,10.14-5.14,16.35-6.54-1.87-10.6,1-16.46,6.54-19.62-8.53-2.72-17.94,9.9-22.89,0,5.29-6.71,15.75-8.26,22.89-13.08-5.93-11.77,9.4-18.45,3.27-19.62-2,.96-12.58,8.13-13.07,0,10.23-7.2,17.86-17.02,19.62-32.7-7.63-2.8-14.09,11.43-16.36,3.27.72-6.12,8.45-21.67,0-26.16-23.47,48.24-27.73,97.69-29.44,150.44-14.09.23-10.66,21.58-3.26,26.16-14.66-.04-11.18,24.65-3.27,29.43-4.42,1.02-6.25,4.64-13.09,3.27,6.88,21.2,5.11,24.67-6.52,39.25,4.69,1.83,7.96,5.1,9.8,9.81-22.27,16.88-17.02,43.07-2.95,63.76M142.74,588.69c3.79,12.92,3.79-12.94,0,0M70.79,330.31h-.14v.04c.05-.01.1-.04.14-.04M96.96,183.14c3.79,12.93,3.79-12.91,0,0M231.05,598.48c11.45.54,20.94-.86,26.17-6.52-12.66-1.76-15.97,5.82-29.44,3.27,1.46-18.91-1.37-33.51-3.28-49.07-14.38-5.46-34.97,1.8-52.33,3.27-.72-15.63-10.75-21.95-19.62-29.43,9.55.92,11.25-.79,6.56-6.54-10.26,6.12-14.52,18.19-22.9,26.16,1.03,4.43,4.66,6.26,3.27,13.08,16.79,1.74,27.01,10.06,35.97,19.62.83,41.7,9.25,93.21,6.55,127.55-8.7-6.57-19.28-11.23-16.35-29.44-15.38-3.44,5.35,11.05-6.54,13.08-8.75-4.35-4.3-21.86-9.83-29.43,10.18,8.41,15.24,4.86,26.17,0-.84-14.41-5.23-25.29-3.28-42.52-9.75-.03-11.11-8.5-19.62-9.81.18,1.45.26,2.82.29,4.17-5.63,3.1-27.03,14.9-75.5,41.62-.4.23-.78.45-1.18.66,9.33-5.14,66.35-36.58,76.7-42.28,1.03,31.35-31.99,28.66-42.82,48.16,12.77.31,12.96,13.23,19.64,19.62-2.92,5.83-9.14,8.32-6.55,19.64,15.15,7.73,32.79,12.99,42.52,26.16,8.04-3.87-6.71-12.36,3.25-16.37,4.32,6.62,10.74,11.08,19.64,13.08,34.66-23.35,55.37-53.96,42.51-117.74M101.02,662.07c1.09-.63,15.26-8.82,2.48-1.45-1.54.89-2.28,1.34-2.48,1.45M278.48,17.98s70.31,39.25,85.01,134.09c0,0,13.1-89.94-85.01-134.09M78.98,822.51c-143.16-89.68-14.69-167.47-4.74-173.22-.2.1-.39.2-.58.32-168.77,95.54,5.32,172.9,5.32,172.9M74.23,649.29c.65-.36,1.28-.73,1.93-1.08-.83.47-1.3.73-1.3.73,0,0-.25.12-.63.36"/>
</svg>