<?xml version="1.0" encoding="UTF-8"?>
<svg id="_レイヤー_1" data-name="レイヤー 1" xmlns="http://www.w3.org/2000/svg" viewBox="0 0 570.41 857.48">
  <defs>
    <style>
      .cls-1 {
        fill: #231815;
        fill-rule: evenodd;
        stroke: #231815;
        stroke-width: .34px;
      }
    </style>
  </defs>
  <path class="cls-1" d="M281.48,857.31c-37.78-2.01-60.33-23.26-69.01-61.98-17.25-3.17-34.5-7.56-51.72-13.97-2.63-12.6-2.45-24.27-1.65-35.73,37.82-5.69,51.46-23.59,59.97-52.58l-1.05-332.02-53.59-.86c-28.99,8.46-46.9,22.11-52.58,59.96-11.46.76-23.13.97-35.73-1.65-6.41-17.25-10.8-34.51-13.97-51.76C23.43,358.08,2.18,335.54.17,297.72l.03-.86-.03-.4.15-2.77-.15-2.77.03-.4-.03-.87c2.01-37.81,23.26-60.32,61.98-69,3.17-17.24,7.56-34.5,13.97-51.75,12.6-2.59,24.27-2.41,35.73-1.62,5.68,37.81,23.59,51.46,52.58,59.93l53.59-.87,1.05-61.91c-8.5-28.99-22.15-46.89-59.97-52.58-.79-11.46-.97-23.13,1.65-35.73,17.22-6.41,34.46-10.76,51.72-13.94C221.16,23.43,243.7,2.18,281.48.17h.61l3.1.18,3.09-.18h.61c37.81,2.01,60.32,23.26,69.01,62.01,17.24,3.18,34.5,7.53,51.75,13.94,2.59,12.6,2.41,24.27,1.62,35.73-37.82,5.69-51.47,23.59-59.97,52.58l1.05,61.91,53.59.87c29.02-8.46,46.93-22.11,52.58-59.93,11.46-.79,23.13-.97,35.73,1.62,6.45,17.25,10.8,34.51,13.97,51.75,38.72,8.68,59.97,31.19,62.01,69l-.07.87.07.4-.18,2.77.18,2.77-.07.4.07.86c-2.05,37.82-23.29,60.36-62.01,69-3.17,17.25-7.52,34.51-13.97,51.76-12.6,2.63-24.27,2.41-35.73,1.65-5.65-37.84-23.55-51.5-52.58-59.96l-53.59.86-1.05,332.02c8.49,28.99,22.15,46.89,59.97,52.58.79,11.46.97,23.13-1.62,35.73-17.25,6.41-34.51,10.8-51.75,13.97-8.69,38.72-31.2,59.97-69.01,61.98h-.61l-3.09-.18-3.1.18h-.61Z"/>
</svg>