<?xml version="1.0" encoding="UTF-8"?>
<svg id="_レイヤー_1" data-name="レイヤー 1" xmlns="http://www.w3.org/2000/svg" viewBox="0 0 743.49 765.65">
  <defs>
    <style>
      .cls-1 {
        fill: #231815;
        fill-rule: evenodd;
        stroke: #231815;
        stroke-width: .34px;
      }
    </style>
  </defs>
  <path class="cls-1" d="M366.94,765.48c-49.3-2.62-78.64-30.36-89.95-80.85-22.49-4.12-44.98-9.79-67.47-18.22-3.37-16.43-3.15-31.62-2.11-46.56,49.29-7.36,67.09-30.7,78.17-68.54l-1.37-80.66-69.85-1.17c-37.8,11.07-61.13,28.87-68.56,78.17-14.92,1.04-30.13,1.26-46.56-2.17-8.37-22.48-14.08-44.98-18.22-67.42C30.56,466.75,2.86,437.36.17,388.11l.11-1.13-.11-.55.23-3.62-.23-3.57.11-.57-.11-1.12c2.69-49.3,30.39-78.64,80.85-89.95,4.14-22.49,9.86-44.98,18.22-67.47,16.43-3.38,31.64-3.15,46.56-2.11,7.43,49.3,30.76,67.09,68.56,78.17l69.85-1.17,1.37-80.71c-11.08-37.79-28.88-61.12-78.17-68.49-1.03-14.97-1.26-30.14,2.11-46.57,22.49-8.41,44.98-14.08,67.47-18.21C288.3,30.55,317.64,2.81,366.94.17l.52.04.28-.04,4.03.23,4.03-.23.23.04.58-.04c49.29,2.64,78.63,30.38,89.94,80.85,22.49,4.13,44.98,9.81,67.47,18.21,3.38,16.43,3.15,31.6,2.11,46.57-49.29,7.37-67.09,30.7-78.17,68.49l1.37,80.71,69.86,1.17c37.8-11.08,61.12-28.87,68.55-78.17,14.91-1.04,30.13-1.27,46.56,2.11,8.36,22.49,14.09,44.98,18.22,67.47,50.46,11.31,78.17,40.65,80.8,89.95l-.04,1.12.04.57-.18,3.57.18,3.62-.04.55.04,1.13c-2.63,49.25-30.33,78.64-80.8,89.95-4.13,22.44-9.86,44.94-18.22,67.42-16.43,3.42-31.64,3.2-46.56,2.17-7.43-49.3-30.75-67.1-68.55-78.17l-69.86,1.17-1.37,80.66c11.09,37.84,28.88,61.18,78.17,68.54,1.03,14.94,1.27,30.13-2.11,46.56-22.49,8.43-44.98,14.1-67.47,18.22-11.31,50.49-40.65,78.23-89.94,80.85l-.58-.04-.23.04-4.03-.23-4.03.23-.28-.04-.52.04Z"/>
</svg>