<?xml version="1.0" encoding="UTF-8"?>
<svg id="_レイヤー_1" data-name="レイヤー 1" xmlns="http://www.w3.org/2000/svg" viewBox="0 0 798.83 589.42">
  <defs>
    <style>
      .cls-1 {
        fill: #221f20;
      }
    </style>
  </defs>
  <path class="cls-1" d="M672.5,493.68c10.52,2.97,21.01,5.97,31.56,8.92-9.88-3.84-20.51-6.74-31.56-8.92Z"/>
  <path class="cls-1" d="M162.82,367.4c.35-.68.14-.42,0,0h0Z"/>
  <path class="cls-1" d="M798.83,543.88c-.88-5.52-2.78-10.65-4.67-15.93-8.28-19.46-22.39-34.1-37.71-44.76-54.61-20.16-112.6-29.48-170.77-27.69-12.75.41-25.48,1.28-38.17,2.64-17.03-4.84-34.08-9.68-51.16-14.45-32.45-9.14-64.95-18.14-97.5-26.98,31.09-72.47,3.77-159.91-21.24-229.97l54.61-20.24C368.47,95.73,326.66,52.92,256.55,0c8.78,84.03-12.73,155.29-21.31,239.49l54.43-20.17c13.98,33.54,31.11,79.51,35.56,129.53-1.81,26.25-.78,38.54-14,44.72-39.4-10.1-78.91-19.77-118.53-28.86-23.1-5.27-43.03-10.5-66-5.52-7.02,2.61-13.33,7.31-17.47,11.94-5.78,3.88-6.86,15.16-7.22,21.31-.73,12.95,3.53,21.68,12.29,30.86,10.96,11.49,28.46,16.93,42.75,23.23,54.17,23.75,130.46,48.48,187.89,22.27,24.59,5.43,49.41,11.01,74.52,16.72-77.65,23.67-151.9,58.51-230.74,78.25-32.59,8.17-68.62,14.83-102.2,9.57-35.33-5.53-66.56-31.88-74.87-67.16-9.96-35.96-7.03-74.22-.33-110.51,2.65-14.2,5.87-28.29,9.94-42.13.36-1.14,3.98-15.95,5.21-16.04C10.44,380.37-.85,425.86.06,472.48c-1.39,41.64,19.83,87.32,59.2,104.94,41.32,18.54,94.4,12.45,137.1,2.76,43.33-9.82,84.76-26.07,127.18-38.96,53.41-16.22,107.89-30.22,162.82-40.29,94.87,21.98,189.62,44.52,284.24,67.54l28.21-24.59M162.82,367.4c.14-.42.35-.68,0,0h0ZM704.06,502.6c-10.54-2.94-21.04-5.95-31.56-8.92,11.05,2.18,21.68,5.08,31.56,8.92Z"/>
</svg>