<?xml version="1.0" encoding="UTF-8"?>
<svg id="_レイヤー_1" data-name="レイヤー 1" xmlns="http://www.w3.org/2000/svg" viewBox="0 0 652.16 914.43">
  <defs>
    <style>
      .cls-1 {
        fill-rule: evenodd;
      }
    </style>
  </defs>
  <path class="cls-1" d="M401.24,174.98s-2.92-10.22,7.73-5.64c10.66,4.59,7.49,4.59,7.49,4.59,0,0,6.06,1.26,10.65,5.21,4.78-2.09,7.91-.83,10.4.84,2.54-2.3,5.84-2.09,7.11-1.26,1.27.83,3.36-2.09,7.11.19,3.13-1.65,6.42-2.48,8.08-.6,2.11-2.52,4.44-3.34,6.72-1.68,3.11-.21,4.98-.21,10.42-2.5,5.39-2.3,8.3-3.12,8.3-3.12l1.9,3.97s12.93-6.46,18.98-13.79c-.46-3.11-1.91-2.69.83-4.77,2.7-2.09,4-5.02,7.3-7.51,3.32-2.5,2.68-3.54,2.68-3.54,0,0,1.91-6.05,10.05-19.18,8.13-13.14,10.02-16.26,10.02-16.26,0,0,2.46-13.34,11.01-26.27,3.77-13.75,7.11-23.13,11.9-28.33.6-5.64,1.64-7.53,6.03-13.36,4.38-5.84,12.5-13.56,21.08-22.74,8.52-9.16,24.62-21.88,37.92-18.75,13.36,3.13,21.28,11.27,24.57,17.93.68,3.75.48,6.46.48,6.46,0,0,2.7,5.41,2.09,23.15-.65,17.71-8.14,73.44-8.42,78.71-.19,5.28.7,8.95-3.88,20.18-4.58,11.24-8.5,24.53-12.58,35.09-4.17,10.54-6.71,17.66-6.71,17.66,0,0,1.4,6.87-1.58,11.22,0,4.38-1.13,13.56-5.74,15.62-1.11,2.97-2.73,6.64-2.73,6.64,0,0,2.51,3.45.91,12.86-1.63,9.39-2.05,10.07-2.05,10.07,0,0,1.36.25-1.85,6.43-3.22,6.19-3.66,5.04-3.46,14.67.25,9.64.67,14.91,2.07,18.58,1.39,3.68-3.44,6.19-3.44,6.19,0,0-2.06,7.58-2.51,16.75-.44,9.16-3.17,11.69-8.26,14.67-5.06,2.98-5.74,2.98-5.74,2.98,0,0-24.3,53.9-30.72,63.54,2.52,5.49,22.03,43.35,12.64,62.38-6.47,6.41-8.54,8.7-8.54,8.7l-4.34,4.59s-1.58-.7-15.82-3.68c-14.22-2.97-16.05-5.95-17.67-2.29-1.6,3.68-3.45,22.95-16.48,32.11-13.07,9.18-16.07,11.03-16.07,11.03l-2.05.44s-19.53,15.37-30.07,25.46c-10.52,10.09-17.17,22.71-20.17,26.84-3,4.12-7.79,7.1-4.8,28.9,2.96,21.78,3.87,32.33,3.87,32.33l5.74,13.08-15.59,13.07s-4.36,38.29-4.58,56.17c-.21,17.89,3.66,30.74-2.05,38.1-5.74,7.32-7.56,18.31-7.56,18.31,0,0-1.29,5.48-3.91,12.39-1.92,5.03-10.45,29.59-17.44,41.99-5.28,9.37-15.79,30.03-15.79,30.03,0,0,2.52,2.07-1.14,5.75-3.72,3.66-2.32,7.09-2.32,7.09l-4.83,3.68s-5.95,12.85-6.84,13.08c-.93.22-2.54,5.96-2.54,5.96l-3.64,3.21-5.05,11.24s-5.28.91-15.85,4.58c-10.52,3.69-20.17,4.39-26.15,4.6-5.92.25-8.69,3.44-11.89,4.36-3.2.91-12.84,2.75-15.36-2.5-2.54-5.3-2.07-6.91,8.03-12.39-11.25,2.27-12.85,1.8-12.85,1.8,0,0-5.52,3.93-12.15,1.85-4.83,1.38-11.02.22-11.02.22,0,0-11.23,2.53-14.68-.22-3.42-2.75.23-6.66.23-6.66,0,0-.23-3.65,1.82-3.91,2.07-.22,5.32,1.17,8.5-1.6,4.58-.68,6.65-.44,9.84-1.6,3.25-1.15,6.68-1.83,8.73-2.28,2.08-.46,4.13,0,7.1-.46,2.98-.47,5.71-1.4,7.78-2.3,2.07-.91,3.71-1.61,6.42-2.05,2.75-.48,3.69-2.99,5.97-3.23,2.28-.22,5.29.47,10.3,0,5.05-.48,14.24-2.52,14.24-2.52,0,0-.2-3.21,2.76-4.35,2.98-1.14,7.79-2.75,7.79-2.75,0,0-1.15-3.91,0-6.89,1.16-2.97,3.19-5.5,3.19-5.5l-.66-2.5,3.22-4.13,2.5-8.51,3.47-7.81s5.48-2.28,12.82-27.5c7.34-25.23,14.2-49.76,17.19-59.17,3.01-9.4,6.39-16.06,6.39-16.06,0,0-7.05-24.31-8.24-35.53-1.58-8.97-2.73-14.02-5.49-18.35-2.72-4.36-7.56-11.72-8.03-18.36-.46-6.65,2.56-10.1-3.2-17.2-5.72-7.11-6.42-9.16-9.2-23.63-6.64-.67-16.24-5.48-13.52-16.26,2.74-10.79,5.05-10.79,2.54-18.61,1.12-3.19,3.63-8.48,3.63-8.48,0,0-9.4,3.22-12.82,6.66-3.42,3.46-6.39,8.02-6.39,8.02,0,0,4.6,4.59.19,6.89-4.34,2.3-4.99,2.3-4.99,2.3,0,0,4.56,6.17,1.57,8.48-2.97,2.29-6.67,2.76-9.16.46-2.3-.23-6.4,1.6-8.92-1.6-2.56-3.21-3.24-3.21-3.24-3.21,0,0-2.96.47-5.48-.68-2.55-1.15-3.22-.22-3.5-6.2-.18-5.95-.18-7.34-.18-7.34l-2.74-4.36-.5-21.79s-1.6-7.09,5.52-11.45c7.12-4.38,7.57-3.66,9.85-6.2,2.34-2.52,8.05-8.27,8.05-8.27l-10.1.92-2.29,2.51-3.66.93-4.59-.68-1.17,3.45-2.28-.47-.46,1.38h-1.83l-1.15,1.38-2.77-.46-2.75,2.52-4.36-.68-.89,2.05-3.24-.45-2.77.91h-2.73l-2.07.93-3.2-1.39-3,.92-3.68-1.14-3.18,1.38s-7.56-1.38-9.85-3.44c-2.32-2.07-1.85.91-1.85.91l-5.27-3.68-2.52-.93-2.07-1.37-2.32-1.6h-2.96l-1.38-2.07-3.91-2.08-.88,1.63-5.51-4.83,1.36,2.75s-.62-1.15-1.33-2.36c-.81-1.4-1.67-2.92-1.67-2.92l-4.11-5.04-3.54-5.89-.3,1.56-1.56-5.22-.9,2.27-.86-9.38-.7,2.97-1.2-9.91-1.05-6.25.48-3.99-.87-1.75.75-1.56-1.95.34,2.43-2.95s-2.96-5.03-2.23-5.38c.69-.36,3.99-4.85,3.99-4.85l2.09-4.17-.54-2.08,2.94-.52.17-5.57,3.83-3.46v1.73l4.7-5.57,3.99-3.8-1.54,3.3,3.98-3.5.67-2.6,1.38,1.38,3.51-4.16,5.19-2.6,3.86-2.78-.71,2.59,6.82-3.8-.56,2.24,6.09-2.93-1.41,1.73,6.77-2.43-.68,1.57,6.22-2.97-1.91,2.09,8.19-.7-1.05,1.21s4.77-.55,6.71-.78c.49-.07.78-.1.78-.1l7.43,2.45-.34,1.38h3.32l4.17,1.22-1.75,1.05s7.31.35,12.35,2.78c5.04,2.43,11.58,8.15,11.58,8.15,0,0,1.46-3.46,2.12-4.51.69-1.05,2.29-3.83,2.29-3.83,0,0-4.41-12.15-5.26-18.06-.83-5.91.85-7.73.85-7.73,0,0-4.45-24.92-2.1-33.62,2.3-8.71,15.26-33.44,23-34.8.19-6.55,2.13-11.2,5.62-15.08,3.46-3.87,5.4-7.91,10.58-7.53,5.24.39,10.81,1.74,10.81,1.74,0,0,7.94-6.19,12.79-5.62,4.86.58,9.28-.38,20.1,7.93,6.56,3.1,11.79,7.15,10.6,12.77-1.11,5.6-.15,8.9-.15,8.9,0,0,1.17-4.07,5.2-4.28,4.05-.19,9.28-.56,9.28-.56,0,0,1.38-5.05,6.01-5.05s3.29.98,3.29.98l7.9-1.34s-.75-4.27,1.15-6.01c1.92-1.75,3.68-2.52,3.68-2.52,0,0,4.04-6.56,2.31-8.89-1.73-2.32-1.91-1.36-1.91-1.36,0,0-5.39,2.34-5.22-1.94.19-4.25,3.3-12.14,3.3-12.14l-1.17-1.36s-6.56,2.31-8.85-2.51c-2.37-4.83-5.24-5.03-5.24-5.03,0,0-2.36-.11-6.01-4.26-1.36,0-3.65.19-3.65.19-6.22-3.68-13.94-8.5-13.94-8.5-3.28.39-16.4-5.03-29.59-11.97-13.14-6.97-37.06-31.33-37.06-31.33,0,0-7.14-2.31-8.67-5.98-3.73-.19-5.65-2.32-5.65-2.32,0,0-11.56,2.5-22.22-2.71-10.61-5.19-21.04-19.72-21.04-19.72,0,0-12.95,2.71-24-3.26-10.99-6.02-15.24-11.21-15.24-11.21,0,0-16.43,4.24-30.53,4.24s-25.32-2.13-39.63-4.66c-14.3-2.5-58.76-21.43-58.76-21.43,0,0-6.13-7.56-1.32-31.33,4.83-23.77,8.09-34.22,8.09-34.22,0,0-5.19-4.25-10.22-1.73-5.02,2.51-7.75,9.47-7.75,9.47l-4.8,4.63s-7.34,18.36-11.43,25.32c-4.06,6.95-9.64,20.3-9.64,20.3,0,0,.16-6.95,6.19-18.94,5.96-11.97,12.19-25.69,12.19-25.69,0,0-10.28,5.21-12.19,8.31-1.99,3.09,1.52,3.85-3.3,5.21-1.17,1.36-3.28,4.26-3.28,4.26l-.59,3.09-5,4.05v4.66l-1.95,3.46-1.17,2.73-3.46,4.62s-.24,17.97-1.92,27.25c-1.75,9.29-5.81,14.7-10.81,14.7-1.2,0-2.16-1.56-2.16-1.56,0,0-6.59,3.87-10.24-.21-3.68-4.05-22.24-28.19-10.44-98.01,3.61-18.35,4.6-24.92,4.6-24.92,0,0-8.52-12.46-1.31-37.72,7.18-25.22,8.85-35.08,31.12-28.84,6.9,2.6,12.81,11.8,12.81,11.8,0,0,19.98,9.5,24.24,11.16,4.28,1.62,7.55,7.54.95,9.17,4.3,1.96,41.37,16.39,41.37,16.39l3.26-1.31,8.24,2.95,2.93,2.95s14.77,9.83,43.95,18.67c29.16,8.87,45.53,14.42,59.68,26.56,17.37,6.24,43.25,22.96,49.14,29.51,7.84,1.97,21.62,8.83,29.51,10.16,7.88,1.32,28.86,10.5,28.86,10.5,0,0,35.76-8.15,58.05,6.94Z"/>
</svg>