<?xml version="1.0" encoding="UTF-8"?>
<svg id="_レイヤー_1" data-name="レイヤー 1" xmlns="http://www.w3.org/2000/svg" viewBox="0 0 601.82 834.69">
  <defs>
    <style>
      .cls-1 {
        fill: #231815;
        fill-rule: evenodd;
      }
    </style>
  </defs>
  <path class="cls-1" d="M264.93,834.69c-14.88.18-28.03-9.04-38.95-30.13,26.79,7.41,45.12,2.1,44.87-31.11v-246.64l-15.54-2.36c-89.1-18.26-159.31-88.48-177.58-177.57l-2.43-15.91h-14.06c-33.18-.25-38.51,18.09-31.1,44.88C9.05,364.92-.18,351.78,0,336.89c.14-10.16,4.61-21.13,12.71-32.75l2.36-3.23-2.36-3.23C4.61,286.02.14,275.06,0,264.93c-.18-14.88,9.04-28.03,30.14-38.96-7.41,26.8-2.08,45.13,31.1,44.88h14.06l2.43-15.9c18.27-89.1,88.48-159.31,177.58-177.58l15.54-2.36v-13.76c.26-33.18-18.08-38.48-44.87-31.11C236.9,9.05,250.05-.18,264.93,0c10.12.14,21.1,4.61,32.75,12.71l3.23,2.36,3.23-2.36C315.76,4.61,326.72.14,336.89,0c14.89-.18,28.04,9.04,38.96,30.13-26.8-7.37-45.13-2.07-44.87,31.11v13.66l16.25,2.47c89.11,18.27,159.32,88.48,177.59,177.58l2.43,15.9h13.33c33.18.26,38.49-18.08,31.11-44.88,21.1,10.93,30.32,24.08,30.13,38.96-.14,10.13-4.6,21.09-12.71,32.75l-2.36,3.23,2.36,3.23c8.1,11.62,12.57,22.59,12.71,32.75.19,14.88-9.03,28.03-30.13,38.95,7.38-26.79,2.07-45.12-31.11-44.88h-13.33l-2.43,15.91c-18.27,89.09-88.48,159.31-177.59,177.57l-16.25,2.48v246.52c-.26,33.22,18.07,38.52,44.87,31.11-10.92,21.09-24.07,30.31-38.96,30.13-10.16-.15-21.12-4.61-32.74-12.67l-3.23-2.39-3.23,2.39c-11.65,8.06-22.62,12.53-32.75,12.67ZM244.71,477.58c14.37.04,24.03-6.97,26.11-25.41l.03-.91v-120.29h-112.18c-29.05-.21-36.74,13.8-33.29,35.25l1.06,4.69,1.23,3.34c19.06,45.06,55.22,81.22,100.28,100.28l3.34,1.23,4.69,1.06c3.09.47,5.99.76,8.75.76ZM357.84,477.58c2.76,0,5.66-.29,8.75-.76l4.69-1.06,3.33-1.23c45.1-19.06,81.22-55.22,100.28-100.28l1.24-3.34,1.06-4.69c3.45-21.46-4.25-35.47-33.3-35.25h-112.54v112.56c-.18,24.9,10.05,34.13,26.5,34.05ZM270.85,270.85v-118.94l-.21-3.51c-2.8-20.92-15.87-26.4-34.67-23.38l-4.69,1.05-3.34,1.24c-45.06,19.06-81.22,55.22-100.28,100.28l-1.23,3.34-1.06,4.68c-3.45,21.46,4.24,35.48,33.29,35.25h112.18ZM443.88,270.85c29.05.22,36.75-13.8,33.3-35.25l-1.06-4.68-1.24-3.34c-19.06-45.06-55.18-81.22-100.28-100.28l-3.3-1.24-4.72-1.05c-21.45-3.45-35.47,4.24-35.25,33.29v112.55h112.54Z"/>
</svg>