<?xml version="1.0" encoding="UTF-8"?>
<svg id="_レイヤー_1" data-name="レイヤー 1" xmlns="http://www.w3.org/2000/svg" viewBox="0 0 683.65 845.06">
  <defs>
    <style>
      .cls-1 {
        fill: #231815;
      }
    </style>
  </defs>
  <path class="cls-1" d="M678.15,407.76c-15.4,3.81-20.3,1.47-20.3,1.47l-28.95-7.54c-32.68-6.96-50.55,20.32-50.55,20.32-5.44,17.45-22.58,29.37-22.58,29.37-56.53,41.77-103.03-26.42-103.03-26.42-6.41-9.81-12.5-19.8-18.29-29.97-4.01-7.09-7.99-14.21-11.72-21.46-14.61-28.4-26.28-58.15-21.75-90.57,2.1-14.91,5.28-29.48,3.64-44.63-1.83-17.1-8.21-33.5-15.1-49.13-6.04-13.7-13.36-26.96-20.29-40.23-7.49-14.33-16.34-28.37-25.53-41.65-17.9-24.21-30.77-78.92-30.77-78.92-7.01-30.58-16.66-27.84-16.66-27.84-13.22-6.52-15.61,45.67-15.61,45.67-21.75,10.69-9.64,59.78-9.64,59.78-35.87,16.61-9.76,75.83-9.76,75.83-15.51,33.63,9.06,79.59,9.06,79.59-14.82,53.31,32.98,107.85,32.98,107.85-44.23,9.75,8.79,64.73,8.79,64.73-11.36-11.76-39.12-18.65-54.67-23.82-20.66-6.88-41.45-13.09-61.83-20.86-30.7-11.7-63.2-26.33-88.83-47.48-7.96-7.05-92.65-81.34-103.22-63.43-17.48,29.6,35.27,67.72,35.27,67.72-32.6,11.01,35.38,51.65,35.38,51.65-16.16,15.95,46.66,48.11,46.66,48.11-12.26,30.04,68.28,57.52,68.28,57.52-5.32,13.61-.54,17.25-.54,17.25,12.33,16.96,98.2,28.81,98.2,28.81-9.75,14.78,12.24,31,12.24,31,35.56,23.55,131.62,13.38,131.62,13.38-29.47,36.31-62.78,69.46-94.62,103.67-12.9,13.86-25.67,27.84-38.05,42.19-7.67,8.93-18.78,19.11-24.37,29.33-12.49,22.81-5.83,26.21-5.83,26.21-11.36,18.24,5.53,15.96,5.53,15.96,13.28-4.86,5.99,4.05,5.99,4.05-8.66,13.6.81,18.63.81,18.63,9.21,3.79,25.69,2.04,25.69,2.04,0,0-5.27,5.59.87,8.58,6.15,2.99,16.12-7.92,16.12-7.92,2.9,8.59,15.52.38,15.52.38l15.59-6.33c1.26,10.72,10.34,12.93,10.34,12.93,15.49,5.73,25.85-19.35,25.85-19.35,4.4-18.19,15.85-47.82,15.85-47.82,12.21-31.56,26.93-61.95,28.4-96.62,0,.05,41.4-7.37,46.19-8.49,16.76-3.9,33.82-8.35,48.66-17.35,33.51-20.32,66.7-51.74,89.81-83.26,11.51-15.7,29.97-44.62,26.44-65.58-7.33-43.42-1.11-54.72-1.11-54.72,1.59-14.04,31.94-31.2,31.94-31.2,15.44-11.35,1.89-11.44,1.89-11.44Z"/>
</svg>