<?xml version="1.0" encoding="UTF-8"?>
<svg id="_レイヤー_1" data-name="レイヤー 1" xmlns="http://www.w3.org/2000/svg" viewBox="0 0 540.94 837.91">
  <defs>
    <style>
      .cls-1 {
        fill: #231815;
      }
    </style>
  </defs>
  <path class="cls-1" d="M432.55,326.43c-.59-.63-13.52-14.48-40.57-3.67-7.31,3.07-15.37,5.48-23.09,8.34-4.74,1.74-9.35,3.68-13.55,6.01-4.11,2.29-11.87,7.41-15.01,1.03-14.41-29.3-29.65-58.18-45.95-86.46-18.04-31.28-37.59-61.39-58.63-90.74-28.05-39.14-71.9-59.73-114.34-79.23-45.51-20.92,2.47,21.52,2.47,21.52,13.52,19.68-33.2,9.23-33.2,9.23-93.48-31.97-61.51,15.37-61.51,15.37-40.59-39.35-19.66,3.69-19.66,3.69-27.07-2.46,12.28,47.36,12.28,47.36-34.43,7.38,12.91,41.82,12.91,41.82-39.96-4.3,17.24,44.89,17.24,44.89-29.52,42.43,17.22,54.11,17.22,54.11-31.37,30.74,9.21,49.2,9.21,49.2,0,75.63,65.81,58.42,65.81,58.42-12.91,61.5,42.44,35.05,42.44,35.05-9.23,47.96,23.98,16.6,23.98,16.6-2.47,42.43,27.05,15.38,27.05,15.38-19.67,63.32-36.89,104.52-36.89,104.52-51.03,98.39-132.21,194.33-132.21,194.33-78.09,87.93,22.75,19.06,22.75,19.06,3.09,25.2,41.19-12.91,41.19-12.91,9.23,9.83,26.47-1.86,26.47-1.86,10.45,24.6,26.43,6.16,26.43,6.16,6.78,12.29,21.52,3.7,21.52,3.7,17.22,17.22,34.42-12.31,34.42-12.31-8.61-116.22,26.47-145.73,26.47-145.73,72.55-61.5,102.68-106.4,102.68-106.4,51.66-81.17,49.19-145.12,49.19-145.12,1.84-20.91,40.58-13.53,40.58-13.53.95.19-7.94-27.54-8.91-29.58-4.95-10.18-11.19-19.83-18.79-28.24Z"/>
  <path class="cls-1" d="M537.73.53c-17.23,7.38-73.8,91.63-73.8,91.63-23.81,30.5-39.9,66.57-55.19,101.85-13.89,32.01-28.31,66.38-36.98,100.23-1.78,7.04-13.23,25.19-3.83,31.09,4.35,2.72,10.35-2.27,14.04-4.18,8.24-4.31,17.42-7.8,26.61-9.44,0,0,13.54-1.85,26.45,11.68,6.41,6.74,14.75-13.52,14.75-13.52,8.61-20.91,4.92-41.2,4.92-41.2,9.83-23.37,4.32-44.27,4.32-44.27,30.14-12.92,25.19-28.3,25.19-28.3-.3-.94,15.29-16.03,15.84-20.69.8-6.53-14.85-13.95-6.61-18.66,8.66-5.01,18.22-11.79,24.13-19.96,2.47-3.44,5.2-8.5,3.14-12.74-2.07-4.26-11.9-6.69-6.35-12.81,9.84-6.77,4.91-19.68,4.91-19.68,15.99-26.43,11.68-41.82,11.68-41.82-.63-11.06,5.54-30.13,5.54-30.13,9.21-24.59,1.23-19.06,1.23-19.06Z"/>
</svg>