<?xml version="1.0" encoding="UTF-8"?>
<svg id="_レイヤー_1" data-name="レイヤー 1" xmlns="http://www.w3.org/2000/svg" viewBox="0 0 315.58 857.14">
  <defs>
    <style>
      .cls-1 {
        fill: #221f20;
      }
    </style>
  </defs>
  <path class="cls-1" d="M62.13,420.17c64.04-71.51,135.98-135.13,214.37-189.58,4.9,6.37,9.81,12.75,14.72,19.12,8.09-28.88,15.91-59.66,23.71-92.45.21-.15.43-.3.65-.45-.18-.02-.35-.04-.54-.06.04-.18.08-.35.13-.52-.22.15-.44.3-.65.45-33.45-4.17-65.98-5.14-97.27-3.03,5.55,7.2,11.1,14.41,16.66,21.62-82,71.62-154.49,153.26-215.69,242.97.13.1.26.19.38.29,3.43,2.64,30.27,23.88,58.34,63.97,2.64-10.22,4.93-20.53,6.89-30.9-6.61-10.47-13.82-20.95-21.69-31.43h0ZM134.8,800.96s43.87-122.63-10.46-267.98c-2.85,6.54-5.84,13.03-8.94,19.47,25.63,61.46,40.85,144.18,19.4,248.51h0ZM102.61,566.01c39.18-74.99,59.65-156.59,61.89-238.52-23.44,20.9-46.09,42.72-67.89,65.4-3.37,53.71-15.74,107.5-37.55,159.13,101.18,122.15,56.58,305.12,56.58,305.12,42.3-166.2-.92-267.37-13.04-291.13h0ZM159.44,236.18c-7.8-56.27-24.25-111.59-49.21-163.85,9.13-5.3,18.25-10.61,27.38-15.92C97.12,30.13,51.83,11.23,3.91.94c-.28-.31-.54-.62-.81-.94.02.26.03.52.05.78-.26-.06-.51-.11-.76-.16.27.31.54.63.81.93,3.25,48.9,1.53,93.92-3.2,134.88,10.32-6.01,20.65-12.01,30.97-18.02,34.34,57.96,55.76,122.4,63.41,188.87,20.78-24.49,42.49-48.21,65.06-71.09h0Z"/>
</svg>