<?xml version="1.0" encoding="UTF-8"?>
<svg id="_レイヤー_1" data-name="レイヤー 1" xmlns="http://www.w3.org/2000/svg" viewBox="0 0 610.27 885.71">
  <defs>
    <style>
      .cls-1 {
        fill-rule: evenodd;
      }
    </style>
  </defs>
  <path class="cls-1" d="M377.56,842.52c4.98-.14,7.48,1.43,9.77,3.91,1.69-.4,6.45-1.09,7.55-.29,2.13.75,2.22,3.28,4.48,3.63,1.67,1.16,4.09-.85,6.42.29,2.4,1.18,3.01,5.08,6.15,5.3,2.38,1.74,5.26-.73,8.09,0,2.67.69,4.97,2.54,6.71,4.2v3.91c2.15-.11,4.29-.19,6.43-.3.75.91,1.51,1.88,2.25,2.8,2.29,1.62,4.9.85,5.03,4.76-1.75.41-2.98,1.74-4.47,2.23h-14.55c-3.46.84-7.52,1.09-11.17,2.23-4.73,1.48-9.02,4.76-13.69,6.71-4,1.11-8.01,2.23-12.01,3.34h-3.64c-2.28.5-6.56.67-8.93,0-4.3-1.19-8.41-2.89-12.3-4.19-4.06-1.35-8.93-1.83-11.73-4.47-2.37-2.26-4.58-5.37-5.58-8.95-.45-1.51.24-3.22-.29-4.47-.64-1.52-2.62-4.88-1.4-7.55,1-2.11,3.55-4.27,4.19-5.86.46-1.13-.82-6.64-1.39-8.09-1.04-2.57-2.22-4.52-3.07-6.99-.7-2.03-.28-4.96-1.39-7.27-.25-.5-1.21-1.29-1.4-1.94.09-.57.18-1.13.28-1.69-.2-.75-1.41-1.51-1.67-2.22v-3.91h-.59c-.09-1.02-.18-2.04-.27-3.08-1.46-3.07-2.95-7.32-4.47-10.34-.73-1.45-.3-3.09-1.11-4.47-1.07-1.85-2.59-4.47-3.35-6.43-.56-1.42-.2-2.5-.84-3.9-.35-.75-1.61-1.69-1.96-2.53-.28-.68.17-1.83-.27-3.07-.49-1.32-1.86-2.97-2.52-4.18-.57-1-.64-3.03-1.11-4.19-.36-.84-1.61-1.23-1.97-1.96v-1.39c-.38-.28-.75-.55-1.12-.84-.58-.84-.06-1.67-.56-2.79h-.56c-.27-.59.24-1.51.28-1.67.16-.75-.53-4.57-.84-5.32-3.83-9.34-3.18-23.07-5.87-33.26-.54-2.07-.15-3.28-.84-5.3-.6-1.79-1.86-6.06-2.79-7.82-1.94-3.69-5.44-6.74-7.83-10.06-2.62-3.65-4.89-7.65-7.25-11.46-1.54-2.48-2.04-5.28-3.63-7.82-.63-.98-2.07-2.95-2.53-3.9-1.1-2.32-.94-7.03-3.9-7.27-.24.68-.12.46-.56.86.76,1.14,1.69,1.64,1.96,3.33h-.28c-.53-.86-1.02-1.45-2.24-1.67v.55c-.23.38-.24.71-.28,1.4h-.85v1.11c.93.24,2.58.84,3.37,1.41-1.12-.1-2.24-.19-3.37-.28v.56c-.62,1.35.59,1.15,1.13,1.96.56.8.06,1.64,0,2.5.92.1,1.86.2,2.79.28v.57c-2.07.12-2.28.39-4.19,0v.83c1.12.37,1.14.68.83,1.69-.89-.33-1.84-.22-2.79,0v.27h.28c.46.61.8.57,1.11,1.4-.83.19-1.66.37-2.5.55v2.23h-.57c-.51-.55-.81-.8-1.4-.56-.86.19-1.31.48-1.93.85v.28h.25c.74.76,2.51.5,3.08,1.4h-.55c-1.44,1.31-4.58,1.39-6.43,2.23,0,.87.48.37-.27.83-1.36,1.7-5.47,1-6.16,3.93,1.06.36,1.92.42,2.24,1.67-.89-.09-.89-.27-1.4,0-.39.48-.48.86-.57,1.69.85.46,1.69.91,2.54,1.39-.45.73-.51,1.18-.85,1.67-.3.21-.26.18-.84.29-.96-1.22-3.28-2.16-5.31-2.24v.55h.27c1.33,1.19,3.67,1.4,4.49,3.08-.32.27-.03-.02-.3.29-2.4-.96-4.58-2.74-7.26-3.07v.27h-.28c.16.41.2.47.28,1.13h-.28c-.54-.59-1.87-1.2-2.51-.84h-.28c1.07,2.88,5.74,3.84,6.14,6.98-1.12-.09-1.1-.3-1.95-.56v.84c.53.43.62.6.84,1.4h-.3c-1.8-2.75-5.4-4.82-9.48-5.31-.06.66-.06.8-.3,1.13v-1.13c-.97-.17-2.43-1.51-2.78-1.12-.21.3-.17.28-.27.84,2.93,2.76,7.6,9.58,8.65,13.97-.88,0-.67-.33-.84.85.22.3.17.26.29.84-.58-.11-.54-.07-.84-.3-.96-1.42-1.01-3.3-1.96-4.74-1.08-1.66-2.85-2.8-4.2-4.2h-.54v.85c1.22,1.66,1.89,3.97,1.95,6.69h-.3v-.55c-.84-.99-.66-2.41-1.38-3.64-.75-1.3-6.77-5.61-8.38-6.15-.36,1.07-.74,1-.84,2.52-.39,1.02.52.89.84,1.67,0,.02-.3,1.46-.29,1.95h-.27c-.75-.84-.87-.68-1.96-.84-.08-.66-.13-.68-.28-1.11-.79.12-.92-.03-1.4.27-1.01,1.18-.52,3.71-1.94,4.48-.57-1.02-1.42-2.05-2.53-2.52v1.12h-.82c.08.55.17,1.13.26,1.68-.28.25-.01-.03-.26.26h-.57c-.33-1.53-1.53-3.58-2.78-4.19-.19.5-.06.29-.29.57-.16-1.24-2.36-3.08-3.07-2.79-.72.76-2.36,3.56-2.51,4.74-.65-.1-1.3-.19-1.97-.28-.3.59-.4.53-.56,1.4-1.45.06-2.04.02-3.35.28-.28-1.04-.19-.98-1.4-1.13-.39.46-.2.29-.54.29-.5-.7-.37-2.04-1.13-2.52-.27-.11-2.23-.28-2.23-.28-1.34.68-2.51,1.47-4.19,1.96-.14-1.47-.31-2.03-.84-3.35-.72-.1-.36.19-.55-.55-.98-1.66-.09-2.77-2.8-2.8-.88-.45-1.42.39-2.24.83v-.83c-2.45.21-2.72,1.71-4.19,2.8v-.56c.64-.61.95-1.13,1.12-2.24h-.57c-1.07,1.87-3.46,3.49-5.87,3.91-.46-.93-1.1-.46-1.67-1.11-.09-.47-.17-.94-.27-1.4-.21-.32-.91-.57-1.12-.84-1-1.29-1.61-4.2-2.24-5.88h-.56c-1.02,1.47-3.3,2.07-4.18,3.65-.33.61-.05,3.04,0,4.47h-.84c.02-1.76,0-3.69-.28-5.03h-.29c-.59.65-1.22,1.11-2.22,1.39v-.28c.22-.28.1-.08.29-.55.93-.35,1.64-1.29,1.93-2.25h-.81v-1.4c-.89,0-.39.48-.85-.28.27-.4.28-.92.28-1.67h-.28c-.79,1.48-1.66,3.01-3.62,3.34v-.28c1.25-1.22,2.57-3.42,3.06-5.32-.97-.44-.49-.71-1.11-1.38-1.38-1.44-2.66-.21-4.47,0v-.56c.76-.53.98-1.04,1.11-2.23-1.89-.6-.94-1.72-1.96-3.08-.63-.46-1.28-.92-1.94-1.38-.48-.56-.43-1.32-.85-1.96-.91-1.34-2.99-2.33-3.62-3.91-.51-1.24.36-2.65,0-3.62-.29-.1-.57-.2-.85-.28.1-.46.19-.93.28-1.4-.28-.71-6.91-6.12-7.82-6.42-.61-.2-1.51.26-1.68.27-.86.08-2.24-.95-2.78-1.4-2.51-1.98-2.1-6.81-3.35-10.05-1.11-.65-1.54-1.09-3.36-1.13v-1.12c-2.55-1.89-4.47-5.91-6.15-8.66-.67-1.06-.52-2.19-1.67-2.79-2.78-1.93-8.25-.19-11.73-1.4-2.94-1.04-6.36-4.95-7.84-7.54-1.33-2.36-1.49-4.45-5.3-4.47-.99.58-4.33,0-5.59-.29-1.21-.09-2.42-.18-3.63-.28-2.47-.68-6.15-2.26-10.05-1.38-1.29.27-3.65.26-5.04.83-1.2.48-1.73,1.89-2.51,2.79-.34.39-.95.24-1.4.56-1.4.99-2.43,2.65-3.91,3.63.21.24.35.32.55.57-2.83,0-3.42,2.68-5.58,3.9h-1.12c-.4.24-.48,1.14-.84,1.4-.55.09-1.11.19-1.65.28-.3.37-.58.75-.85,1.11-1.53,1.12-3.84,1.93-5.04,3.35-2.52,3-2.54,8.14-3.91,12.3-3.76,11.53-6.71,24.53-10.05,36.32-1.16,4.09-1.06,7.54-2.24,11.74-.65,2.36-1.9,4.86-2.51,7.25-.18,2.14-.37,4.29-.55,6.42-.65,2.64-1.48,6.26-2.24,8.66-.27,2.81-.55,5.59-.84,8.39-1.66,7.48-2.33,13.86-.28,21.23.83,2.99-.4,7.28,1.96,8.66.64.4,2.08.21,2.79.57.7.34.85,1.29,1.4,1.68.66.47,5.91,1.29,7.26.82,2.53-.82,6.41-5.29,10.05-4.17,1.83.55,3.65,2.33,5.59,3.06,1.03.39,3.38.58,3.62.84,1.71,1.71,2.08,3.62,5.6,3.63,1.37.78,7.17-.09,9.79-.28.34-.02.5-.53,1.1-.29.53.2,1.36,1.18,2.24,1.41h5.59c2.12.55,3.79,2.15,5.58,2.79,1.33.48,4.47.43,5.33.28,1.64.61,3.14,1.73,4.45,2.5,2.91,1.74,7.24-.51,7.26,4.2-1.29,2.06-.79,5.28-3.34,6.15-1.85,1.16-7.72.34-10.06.28-8.4-.36-16.77-.73-25.15-1.11.1,1.19.18,2.42.28,3.63-1.65.45-2.08,1.1-4.48,1.11-2.2,1.36-4.86-1.24-6.43-1.68-3.07.38-6.14.76-9.21,1.13-3.58.87-7.34,2.21-10.62,3.1h-7.54c-7.99,0-14.63-.43-19.28-3.65-1.54-1.08-2.75-4.67-4.18-5.59-.6-.38-1.17-.13-1.68-.56-1.02-.84-2.15-2.48-3.35-3.07-.67-.08-1.31-.18-1.96-.28-1.74-.75-3.35-2.82-4.18-4.47-.9-1.78-1.22-4.46-1.68-6.43v-3.08c-.6-1.97-4.85-11.22-3.37-13.67.6-1.71,2.53-3.31,3.93-4.19.5-.34,1.67-.34,1.94-.84v-4.2c-.76-1.24-.2-4.36-.28-6.14-.1-2.19-.27-6.16-.27-9.5-.19-5.21-.38-10.43-.57-15.66-1.02-4.74-1.37-13.01-.29-18.14.63-2.84-.52-7.36.29-10.91,3.15-13.7,2.95-29.39,6.71-42.47,1.54-5.32.91-11.83,3.08-16.48,1.84-3.93,4.86-7.25,7.83-10.07.78-.75,1.89-1.07,2.51-1.96,1.16-1.58,1.77-3.6,3.08-5.02,4.3-4.58,9.52-8.17,13.98-12.58,2.45-2.45,4.78-5.09,7.27-7.53,2.43-2.41,5.39-4.29,7.81-6.71,1.4-1.39,2.48-3.13,3.92-4.47,4.4-4.02,9.86-6.55,15.09-9.78.95-.59,1.21-2.01,1.95-2.79,2.07-2.12,5.62-5.19,7.82-6.16,1.43-.62,3.12-.25,4.76-.83,1.71-.64,6.89-5.7,7.26-7.55-4.31-1.01-7.43-3.42-7.26-9.23.44-.64.2-1.33.56-2.21.91-2.38,3.25-6.31,4.74-8.39,1.98-2.77,6.85-5.93,7-10.06-1.28-1.67.03-5.08-.57-7.55-1.32-5.52.45-12.01,1.96-17.04,1.52-5.05-3.26-9.61-1.67-15.93,1.36-5.38,4.4-8.68,5.88-13.14v-1.96c.45-1.32,1.82-2.28,2.51-3.35,1.03-1.6.88-6.51.54-8.66-1.6-.93-3.03-1.49-5.3-1.96-.06-.9-.28-.9,0-1.4.38-1.08,3.3-4.45,4.2-5.29-1.6-9.88,5.39-10.68,10.33-15.39.36-.33,1.62-4.44,2.25-5.31.87-1.21,3.19-1.8,3.9-3.07.63-1.1.36-2.21.83-3.35,2.64-6.12,4.73-12.85,7.55-19,2.22-4.78,4.45-10.35,7.27-14.81,1.9-2.99,4.68-5.86,6.43-8.93,2.58-4.58,5.31-9.37,9.5-12.32,8.17-5.71,18.04-9.4,25.99-15.36,3.45-2.57,8.81-3.99,9.78-8.93-1.45-2.24,3.52-10.46,4.47-12h-.27v-.29c-1.33.48-3.38.17-4.76,0-1.2-1.65-2.96-3.1-3.92-5.02-.74-1.52.02-4.21-1.4-5.05-.91-.57-2.25-.37-3.35-.82-3.67-1.54-8.38-2.72-11.74-4.76-2.24-1.36-5.14-3.51-6.7-5.6-.65-.89-1.09-2.42-1.96-3.07-2.51-.84-5.01-1.67-7.53-2.52-6.07-2.95-13.72-5.23-19.57-8.66-2.38-1.38-4.51-3.52-6.7-5.03-.74-.5-1.58-.54-2.23-1.1-1.93-1.69-3.5-4.45-5.59-5.87-1.68-.57-3.36-1.13-5.04-1.69-2.54-1.08-5.67-2.43-8.1-3.91-3.54-2.15-7.01-4.53-10.33-7-.88-.63-1.6-1.92-2.51-2.52-1.42-.94-3.11-.96-4.76-1.67-2.39-1.02-5.21-2.27-7.52-3.63-8.57-5.09-19.68-12.09-25.45-19.84v-.85c-.82-1.29-2.61-2.21-3.35-3.62-.47-.93-.28-1.73-.82-2.51-.9-1.27-2.52-2.32-3.36-3.63-.89-1.46-.98-3.12-1.67-4.76-.61-1.44-1.82-3.17-2.23-4.74-.28-1.05.36-2.61.54-3.36.18-1.66.38-3.35.57-5.03,1.06-2.99,3.05-6.38,4.47-9.23,1.94-3.93,2.78-8.25,5.03-12.01.65-1.1,1.82-2.25,2.5-3.35.38-.6.35-1.5.85-1.96,1.1-.35,2.22-.74,3.36-1.11,2.4-1.06,5.3-2.81,7.81-3.63,1.84-.09,3.71-.2,5.59-.28,6.73-1.59,13.14-1.03,19.56.57,2.33.1,4.64.19,6.98.26,1.21.34,2.38,1.26,3.36,1.69,3.06,1.35,6.15.93,9.49,1.96,1.81.55,3.98,1.47,5.87,1.94v.86c2.93.1,4.45,1.58,6.72,2.23,6.89,2,12.51,3.16,18.99,5.3,4.52,1.49,8.71,1.34,13.15,2.81,8.09,2.66,16.42,6.22,24.01,9.5,7.34,3.13,14.7,4.92,21.8,8.37,3.98,1.94,8.35,4.58,12.3,6.42,1.57.73,2.99.82,4.47,1.69,1.69.98,3.7,2.66,5.59,3.34,2.33.84,2.85-.58,5.29,0,5.05,1.18,11.25.89,16.78,2.79,3.33,1.13,6.26,3.46,9.22,4.75,6.03,2.61,12.07,4.79,17.88,7.26,1.59.68,2.96.65,4.47,1.4,2.35,1.17,4.82,2.9,7.26,3.91,1.6.66,2.91.51,4.47,1.11,2.02.8,4.62,2.41,6.71,3.09,1.29.41,2.01.07,3.07.55.99.43,2.49,2.29,3.08,2.52.45.17,2.91-.46,3.36-.56,2.54-.55,5.47.96,6.7,1.96,6.19-1.54,14.02-1.36,19,1.11h1.11c1.39,1.02,1.43,3.71,1.97,4.74.31.21.27.17.85.29.77-1.31,1.85-1.09,3.05-1.96.66-.45.62-1.33,1.12-1.96.03-.02,1.47-.13,1.95-.56,1.46-1.26,1.5-4.82,3.37-6.15,1.73-1.24,5.13-.03,6.42-.86.21-.1.3-.95.57-1.1,1.58-.96,2.98-.71,4.18-1.96.54.37.24.35,1.13.57,1.05-1.48,2.86-3.58,5.3-3.65-.09-.64-.13-.68-.27-1.11,3.04-.59,10.7-7.27,13.42-9.77,1.54-1.45,3.55-4.18,6.15-4.47.48.3.59.17,1.39.29.21-4.38,4.39-5.67,5.58-9.23.28.09.55.18.84.28.23-1.96,2.39-4.34,3.91-5.03.33.23.47.21,1.13.28.3-1.41,1.37-3.44,2.23-4.47v.28h.28v-.28c-.21-.42-.05-.04,0-.83,1.06-.6,4.59-5.75,4.18-6.15.37-.33,1.1-.5,1.4-.84.54-.63.52-1.71,1.11-2.25.41-.33,1.39-.12,1.68-.55-.1-.57-.18-1.13-.28-1.67.41-1.01,4.97-6.76,5.87-6.99v-.84c1.37-.48.58-.82,1.4-1.68.31-.33,1.13-.17,1.39-.56.08-.46.19-.93.27-1.39.36-.41,1.35-.44,1.69-.86.38-.46.15-1.22.55-1.66,1.49-1.58,4.08-3.39,5.87-4.75,1.24-.93.91-2.06,3.08-2.23v-.85h-1.12v-.28h.28c1.25-1.36,3.21-3.17,4.75-4.18.75-.28,1.49-.56,2.24-.85,1.46-1.79,2.67-6.38,5.31-6.71v-1.38c1.48-1.09,3.34-3.71,3.62-5.86h.85c1.6-2.86,6.7-8.27,9.22-10.34.55-.19,1.12-.38,1.67-.57v-1.13c.89-1.36,3.04-2.43,4.19-3.63.87-.89,2.42-3.55,3.36-4.18h.84v-.85c.28-.19.36-.7.56-.83h1.39c.99-.64,1.32-2.9,3.35-3.64.4.73-.05.33.83.57.41-2.32.24-1.06-.27-3.07.72-.53,1.25-1.4,1.67-2.23h.84c.44-2.57,2.58-2.98,3.08-5.3-.35-.25-.33-.24-.56-.57,1.18-.79,1.62-4.05,2.23-5.59.94-2.34,2.91-4.67,3.92-6.98v-1.39c.32-.93,1.33-1.75,1.68-2.52.09-.64.18-1.29.27-1.95,2.58-4.86,5.04-10.56,8.1-15.08.11-.57.19-1.12.29-1.69.58-1.33,1.78-2.74,2.52-3.91.36-.6.12-1.36.56-1.96h.54c.79-.95,1.15-2.18,1.96-3.07.28-.1.56-.18.84-.26v-1.71c.66-1.31,2.94-3.52,3.91-4.73.59-.73.59-1.78,1.13-2.52.56-.46,1.11-.93,1.67-1.4.09-.57.19-1.12.29-1.69.5-.84,1.65-1.43,2.22-2.23,3.06-4.15,5.9-7.9,9.5-11.46.57-.57,2.31-3.54,3.07-2.77.22.29.17.25.27.82.48.11.93.19,1.41.3,1.09-3.37,2.93-5.77,3.06-8.95,2.08-.88,3.3-6.81,5.04-8.95,1-1.24,2.77-1.94,3.91-3.06,1.09,0,2.79.3,2.8.27,5.91-4.57,7.14-14.91,9.78-22.9.55-2.42,1.11-4.85,1.68-7.27.78-1.38,2.9-2.68,4.19-3.64,1.2-1.29,2.41-2.61,3.63-3.91,1.77-1.27,7.79-3.17,10.06-3.64,1.14-.24,3.12.84,4.19,1.12,4.21,1.07,7.82,1.02,10.91,3.08.09.27.19.55.27.82.56-.09,1.13-.18,1.68-.27,2.07.44,5.15,1.96,6.98,3.07,8.06,4.92,13.7,11.57,16.48,21.8.46,1.68-.34,3.02,0,4.47,1.91,7.68.04,16.55-2.23,22.92-.95,2.61-.47,5.15-1.12,7.83-.35,1.46-2.5,10.68-2.24,11.72.81,3.01.36,9.32-.27,13.14-.39,2.31,1.11,5.07,0,8.11.17.41.93.5,1.11.83.09.84.17,1.69.28,2.5.92,3.48,1.13,6.9,1.96,10.91-.1.65-.2,1.3-.27,1.95,2.9,15.08-1.35,31.43-7.83,43.87-1.47,2.83-4.26,5.2-5.87,7.83-.63,1.04-.73,1.89-1.4,2.79-.37.5-1.31.65-1.68,1.13-.45.57-.34,1.42-.83,1.95-.62.7-2.22.7-2.8,1.39-.54.67-.8,2.3-1.4,3.08-.84,1.13-5.59,6.08-6.7,6.7h-1.1c-.38.75-.76,1.49-1.13,2.23-.82.84-2.94,2.4-3.9,3.09-6.42,4.58-18.19,9.34-30.19,6.42-2.73-.66-4.5-1.92-6.72-2.79v.28c-1.99,1.38-2.85,4.14-4.73,5.6-2.12,1.63-5.79,3.1-7.27,5.3-.57.85-.42,1.78-.83,2.79-1.13,2.7-3.17,5.56-5.3,7.25-2.76,2.18-5.83,3.75-8.66,5.87-1.4,1.59-2.81,3.18-4.21,4.76-5.37,4.08-10.21,9.33-14.78,14.25-1.53,1.65-3.46,2.88-5.04,4.47-.89.92-1.51,2.27-2.51,3.08-.86.69-2.26,1.29-2.79,2.23-1.81,3.18-2.47,7.18-3.92,10.62-1.6,3.8-3.97,7.92-5.59,11.74-1.52,3.6-2.31,7.39-4.47,10.33-2.68,3.69-7.41,6-11.17,8.68-.94.67-2.03,1.95-3.07,2.5-2.29,1.22-4.83,1.65-6.99,3.08-.49.33-.81,1.13-1.4,1.4-1.79.83-5.05.72-6.72,1.67-.6.36-.68,1.39-1.1,1.96-1.41,1.31-2.81,2.61-4.2,3.91-.5,1-.01,1.99-.55,2.79-.47.72-6.03,4.71-6.99,5.32-1.04.67-2.66.97-3.35,1.95-.28.93-.58,1.87-.84,2.8-1.36,3.09-2.98,6.44-4.47,9.78-2.85,6.42-7.37,12.14-11.17,17.61-.94,1.76-1.87,3.54-2.79,5.32-1.7,2.4-4.5,4.25-6.16,6.69-.27.74-.56,1.49-.82,2.23-1.49,1.4-2.98,2.8-4.47,4.2-.46.82-.2,1.41-.56,2.22-1.41,3.1-3.84,6.65-6.15,8.95-1.36,1.36-3.68,1.73-5.02,3.06-1.29,1.29-1.13,4.14-2.52,5.32-.8.66-1.92.78-2.8,1.39-1.32.95-4.38,4.23-5.3,5.6-.36,1.11-.75,2.23-1.11,3.33-.54,1.15-1.69,1.95-2.52,2.8-.1.28-.19.56-.28.85-1.62,1.27-3.97,1.8-4.2,4.47.33.57.15,1.13-.28,1.67v-.26c-.41-.6-.17-1.01-.84-1.4-1.09,1.58-4.92,1.44-6.98,2.8-1.7,1.09-1.78,2.54-2.51,4.74-1.98.21-2.46.28-4.48.84-.4,1.23-.3,2.07-1.95,2.23-.34-.69.13-.19-.56-.56-1.49,1.87-4.2,2.75-6.14,4.2-.56.64-1.12,1.29-1.67,1.95-1.8,1.32-3.8,2.06-5.59,3.35-.79.57-1.41,1.72-2.25,2.25-.65.41-1.52.12-2.23.55-.67.4-.73,1.39-1.68,1.68-4.62,1.42-7.43-3.55-10.62-2.81-2.07.5-4.51,2.01-6.41,2.81-1.77.47-3.54.93-5.32,1.4-2.76,1.17-5.41,3.2-7.83,4.74-3.42,2.19-12.02,5.26-12.56,9.78,3.55,2.04,7.01,4.52,8.1,8.95-.1.56-.18,1.12-.27,1.68.4,1.36,2.58,2.45,3.34,3.62.49.77,1.6,4.93,1.95,6.14,1.29,4.4-.45,9.7-1.39,12.86-.82,2.75.7,4.65,0,7.82-.39,1.77-1.24,4.11-1.41,5.6-.13,1.33,1.94,4.54,1.97,7.54-.59.44-2.18,1.64-2.52,2.25-.72,1.4-.35,2.52-.84,4.18-.32,1.18-2.13,3.82-1.95,5.04.15,1.09,1.09,2.91,1.4,3.91,1.28,3.97,1.31,8.22,2.24,12.28v9.22c2.25,1.71,3.97,5.84,5.02,8.66.27,1.48.56,2.99.83,4.47,1.33,3.19,4.5,5.02,5.88,8.1.87,1.98.66,3.91,1.39,6.15.45,1.35,1.27,3,1.68,4.47.09.82.17,1.67.28,2.52,1.93,4.17,4.95,9.22,6.97,13.41,1.9,3.91,1.6,9.94,3.37,13.97,2.98,6.78,5.6,14.15,7.81,22.07.92,3.33.92,7.17,1.68,10.36.93,3.91-.68,8.67.29,12.29,3.58,13.3,7.46,26.7,12.02,39.12,1.67,4.6,2.34,8.75,4.18,13.13.82,1.92,3.07,3.5,4.18,5.31,1.76,2.83,1.87,6.28,3.36,9.5,1.23,2.66,2.93,5.73,4.2,8.37,1.49,3.11,1,6.55,1.95,10.34.73,2.92,1.72,5.75,2.8,8.66,3.52,9.53,6.31,19.73,9.21,30.19.28,2.31.56,4.65.85,6.97,1.09,4.56,1.45,9.96,2.51,14.53.09,1.78.2,3.54.29,5.32,1.28,5.71.98,12.56,2.23,18.16v3.91c1.31,5.52,1.6,11.52,3.07,17.33,1.08,4.25,2.26,9.31,2.52,13.97ZM192.29,718.45c.24.29.11.08.27.56h-.27v-.56ZM245.11,725.99c.23.29.1.08.27.56h-.27v-.56ZM245.38,726.84c.2.3.17.26.27.84h-.27v-.84ZM400.47,849.78h.56v.29c-.48-.17-.26-.06-.56-.29Z"/>
</svg>