<?xml version="1.0" encoding="UTF-8"?>
<svg id="_レイヤー_1" data-name="レイヤー 1" xmlns="http://www.w3.org/2000/svg" viewBox="0 0 212.62 877.56">
  <defs>
    <style>
      .cls-1 {
        fill: #040000;
      }
    </style>
  </defs>
  <path class="cls-1" d="M49.46,1.12c1.5-2.5,5.73-.75,3.5,4.75-2.24,5.49-4.25,10.99-5.48,12.75-1.24,1.74-1.76,4.24-1.76,4.24,0,0,6.25-3.25,9.76-3.01,3.49.25,11.48,1.25,13.23-.24,1.76-1.49,4-.75,4.51,1,.49,1.75-3.01,4.5-9.99,5.75l-7.01,1.24s3.76,1.24,7.01,2c3.25.75,11.73-1,11.23,1.99-.5,3.01-3.74,4.25-3.74,4.25,0,0-1.01,2.76-3.51,3.01-2.5.24-15.48-.76-16.73-.76s-1.76,3.25-5.25,7c-3.51,3.74-5.5,3.99-7.51,7.99-1.99,3.99-3.99,5.49-8,7.75-3.99,2.24-6.97,3.99-3.74,30.73,3.25,26.73,4.74,42.72,4.26,55.46-.52,12.74,1.49,17.74,3.24,23.23,1.74,5.5,6.49,20.49,7.75,27.99l1.25,7.5s1.5-4.49,4-12.24c2.49-7.75,2.99-18.23,2.99-18.23,0,0-.99,1.25-3.5,2.49l-2.49,1.26s6.5-8.25,8.25-13.5c1.75-5.25,6.73-8.73,10.98-10.74,4.25-2,1.25-7.25,15.5-13.74,14.22-6.49,15.23-1.49,19.23-1.49s14.49-.74,23.73,9.24c9.24,9.99,11.75,15.49,11.49,19.24-.24,3.74.26,6.48,2.01,10.24,1.74,3.75,5,3.24,6.73,6.5,1.76,3.25.76,12.49.76,12.49,0,0,.5-7-2-9.74l-2.5-2.75s0,4.24.75,5.5c.74,1.24,2.74,5.49,1.25,7.5-1.5,1.99-1.5,5.75-1,8.74.49,3,2.25,5,.75,9-1.5,3.99-2.76,7.75-2.76,7.75,0,0,2.01,6.24,0,8.98l-1.99,2.76s4.49,2.49,5,4.25c.5,1.75-.75,3.49-.75,3.49,0,0,.5,1.74.24,2.5-.24.75-1.49.25-.24.75,1.25.49,2.49,1.99,2.49,1.99,0,0,14.74-16.72,21.99-25.73,7.26-8.99,13.99-37.98,16.24-42.48,2.25-4.49-.26-21.73,2.75-33.46,3.01-11.74,9.26-41.48,9.74-51.97.5-10.49-2.51-17.74-2.51-17.74,0,0-9.98-3.25-13.24-6.74-3.24-3.5-9.48-5.5-11.72-5.75-2.26-.25-8.76-4.24-9-7.99-.25-3.75,6.73-2.26,9.49-1.75,2.74.5,6.75,4.5,8.73,3.74,2.01-.74,1.76-3.74,1.76-7.73v-4s-.76-.25-2.76-2.75c-1.99-2.51-.75-4.25-.75-4.25,0,0-5.49-2.5-4.5-6.75,1-4.25,6.75.75,6.75.75,0,0-3-11.99,0-13.74s2.75,2.25,3.5,5.25c.74,3,3.5,6.74,4.25,8.25.74,1.5.25,3.24,1.75,4.75,1.51,1.5,2.51,3.74,4,3.74s2.25.26,4.25,2.5c2,2.25,4.75,4.75,5.5,6.25.75,1.49,4.24,3.75,6.5,8.49,2.25,4.75,6.25,7,7.25,10.49.99,3.5-.75,29.98,0,47.72.75,17.74,1.75,55.72.99,58.71-.75,3-2.99,1.26-8.47,21.74-5.51,20.48-8.26,34.71-12.75,44.71-4.5,9.99-11.75,28.48-17.99,36.97-6.25,8.5-9.24,15.99-10.23,22.24-1.01,6.24-.51,8.48-.51,8.48,0,0,5.75,7.5,4.26,21.74-1.5,14.24-4.76,16.49-6.26,24.24-1.5,7.75-2,3.74-3.49,9.49-1.51,5.75,1,7.75-1.25,8.49-2.25.75.24,3.24-1.25,5.75-1.5,2.5-.25,4.49-1.5,5.99-1.25,1.5-1.75,3.24-1.75,5s-.75,10.49-2.26,10.99c-1.49.5-1.74,3-1.74,4.75s.5,4.51-.51,4.74l-1,.26s-.74,15.24-1.25,21.73c-.49,6.5-2.49,11.49-2.49,13.99v2.5s2.74.25,2,6.49c-.75,6.25-.51,12.25-1.75,14.75-1.25,2.5-1.25,4.5.24,6.49,1.51,2,3.5,4.25,2.25,7-1.25,2.75-.49,4.75-.49,6s1.74,7.75.49,10.74c-1.25,3-1.74,4.75-1.74,6.76s-.75,4.5-.51,6.75c.26,2.24.26,5.49-1.49,7.74-1.76,2.25-3.5,5.24-3.5,5.24,0,0-4.76,27.49-13.49,53.22-8.75,25.73-11.74,24.74-14.5,31.74-2.74,6.98-3.99,11.74-3.99,11.74,0,0,1.75,12.49,1.75,20.73s-.75,18,.5,26.98c1.26,9,7,21.24,7.25,41.73.25,20.48.25,36.48,1.25,43.72l1,7.24s2.25,9.99,4.74,12.74c2.51,2.75,5,6.25,4.76,11.75-.25,5.49,1,9.24,2.99,16.74,2.02,7.49,3.51,15.24,2.76,22.49-.74,7.25,3,15.74,1.5,21.98s-1.76,24.49-5.51,25.49c-3.74.99-15.98,3-17.48.75-1.51-2.25-3.5-5.5-7.24-14.24-3.76-8.74-2.51-17.24-4.76-20.74-2.25-3.5.25-11.99,1-17.73.75-5.75,2.5-18.99,2.25-22.48-.25-3.5-3-1-3.5-9.5-.5-8.49,2-9.5-6-28.97-8-19.49-14.74-31.74-14.74-31.74,0,0-9.49,28.73-10.24,39.98-.75,11.24.75,20.73-.75,27.74-1.5,6.99.75,18.74-.75,24.98-1.5,6.25-.25,7.5-.99,14.74-.76,7.25-.76,11.74-2.75,15.75-2.02,3.99-3.26,10.49-3.51,12.99-.25,2.49-.99,7-2.25,7s-7.49.76-9.49-.25c-2-1-3.5-8-2.99-10.24.49-2.26.49-10.01,0-16.49-.51-6.5-4.26-8.75-3.51-14.49.75-5.75.75-4.25.75-5.75s-4.5-5.25-5.5-6.99c-1-1.75.77-5.01-1.25-5.25-2-.25-15.49-10.74-16.22-20.98-.76-10.25,1.24-13.24,4.99-13.24s8.99-.25,10.48-2.5c1.5-2.25,1.25-2.99,3.26-5.99,1.99-3,1.24-5,2.5-7.51,1.25-2.49,1.5-18.23,1.99-32.73.51-14.49.51-17.98.51-17.98,0,0-7.51-8.24-2.01-26.49,5.5-18.23,11.74-36.21,13.49-41.72,1.76-5.5,2.24-8.5,2.24-8.5,0,0,0-12.74,1.27-17.23l1.24-4.51s-12.22-33.72-21.72-51.97c-9.49-18.23-19.25-45.22-19.25-45.22,0,0-5.26-2.75-6.76-1.25-1.49,1.5-1.99.76-1.99.76,0,0,.75-2.26-1.75-2.76-2.5-.49-2.99,1-2.99,1,0,0,.49-2-1.51-2.75-2-.75-2.5-2-2.5-2,0,0,1.75.25,2.5-1.75.75-1.99,5.5-23.73,8.99-36.97,3.49-13.24,16.24-32.47,16.98-34.73.76-2.25.51-4,2.5-7.24,2.01-3.25,3-5,4.75-6,1.76-1,3.01-.75,3.01-.75,0,0,5.99-9.99,9.23-15.99,3.25-5.99,6.76-11.73,6.76-11.73,0,0-1.25-.75-1.25-2.51s-.26-7.74.99-9.49c1.27-1.74-1.99-4.74-1.25-5.49.75-.74.26-3.74,1.51-6.48l1.23-2.75s-2.48-4.75-1.99-8.5l.5-3.75s-2.5-16.99-1.5-20.24c1-3.25-2.74-4.49-2.99-7.24l-.25-2.75s-6.75-9.74-8.25-18.98c-1.51-9.24-2.75-18.99-9.99-27.5-7.25-8.48-10.74-13.73-12.98-29.72-2.26-15.99-11.75-68.7-12.5-77.2-.75-8.5-5.25-19.98-4.25-33.48.99-13.48,2.5-36.72,5.49-51.72,3.01-14.99,3.01-20.98,3.5-26.99.51-6,4.25-12.49,8.26-18.24,4.01-5.74,14.49-16.24,17.49-21.23,2.99-5,12.98-20.74,12.98-20.74Z"/>
</svg>