<?xml version="1.0" encoding="UTF-8"?>
<svg id="_レイヤー_1" data-name="レイヤー 1" xmlns="http://www.w3.org/2000/svg" viewBox="0 0 542.98 881.99">
  <defs>
    <style>
      .cls-1 {
        fill-rule: evenodd;
      }
    </style>
  </defs>
  <path class="cls-1" d="M279.99,103.29c-2.46,32.33-1.4,67.03,3.74,98.21-.66,10.82-1.33,21.67-1.99,32.5,1.03,4,6.23,9.57,7.32,13.52.37,11.47.76,22.92,1.15,34.36.26.95,4.5,4.71,4.58,5.19.91,4.45-5,11.38-5.79,14.34.22,5.45.43,10.91.64,16.37-5.6,2.78-9.25,4.19-10.58,12.4-9.39,11.26,6.64,25,2.78,34.45,11.94,1.02,30.8,28.64,31.95,37.89-11.96,10.6-10.66,25.34-18.87,41.3-4.14,8.11-13.12,10.2-15.94,20.24,3.79.25,7.6.48,11.38.69,4.65-4.61,9.28-9.23,13.92-13.85,13.76-6.9,41.37-2.42,43.81-21.78,4.07-6.38-3.07-43.43-4.93-52.55-7.5-36.25-18.01-95.86-.43-125.75-3.79-2.91-4.79-4.67-5.91-10.16,2.67-.73,4.01-1.05,8.25-1.11,4.14,3.17,13.7,4.64,19.22,6.09-7.95-7.81-27.4-7.06-28.07-21.33,3.09-.86,6.46-1.15,11.49-.93,3.3,3.04,11.69,5.31,16.13,2.64-7.87-1.37-13.96-5.35-17.26-10.86,4.37-2.7,2.92-3.79,10.06-4.29,4.77,1.94,9.54,3.86,14.35,5.78-2.38-3.44-5.56-5-9.36-7.09.17-2.72.33-5.43.51-8.15,28.5,4.22,22.39,14.52,30.52,34.54,2.11,5.18,8.12,9.86,5.29,19.93-4.06,14.47-15.39,27.03-20.38,39.56-6.49,16.21,3.97,33.38,7.14,42.88,3.79,11.3,3.85,20.61,7.85,31.5,4.39,11.96,14.03,23.56,17.34,36.99,2.17,8.88-.25,17.39,1.72,24.59,11.24-1.85,23.94,2.14,27.06,11.46,1.3,2.2,1.22,4.12,1.15,8.24,3.22.2,6.49.39,9.72.6,6.67-9.74,18.43-18.08,28.98-19.44.12-1.63.2-3.24.3-4.89,26.79,3.71,56.07,13.48,64.18,44.79-1.12,9.71-2.27,19.45-3.41,29.18-4.44,1.68-16.43,12.35-17.48,18.52,7.47,7.89,8.09,22.7,4.3,36.16-5.42,3.04-6.37,5.4-15.03,5.62-3.01-2.77-7.66-2.93-11.09-5.6-5.84-4.55-6.65-13.24-13.63-17.16-8.18,5.72-19.8.26-23.58,11.61-9.85,14,.79,49.04-5.42,61.7-2.06,4.17-7.6,5.88-10.36,9.15-9.03,10.77-16,21.87-24.88,32.75-4.89,5.98-13.82,11.52-17.45,18.54-23.33,44.87-25.6,137.21-7.79,179.1,12.09,1.3,60.53,12.54,67.42,18.84,2.06,2.53,4.34,5.8,6,8.54-11.92-.73-23.89-1.47-35.79-2.19-.05.54-.07,1.08-.09,1.61,1.2,1.75.54.47,1.42,3.36-10.11.56-47.41-1.54-58.35-6.87-7.8-3.76-6.22-9.35-15.78-9.13-1.33-27.88-12.41-51.08-19.98-73.07-4.48-12.98-4.82-31.75-7.06-44.51-5.88-33.79,17.3-76.08,19.73-108.16-.55-.07-1.08-.08-1.65-.11-5.81,4.7-24.44,11.76-31.79,12.74-7.01-.98-14.04-1.96-21.04-2.93-4.92,1.53-12.15,8.36-16.97,10.37-5.9,2.5-16.34,4.18-21.55,5.2-21,4.15-72.68-12.09-82.04-19.74-1.19-2.01-1.1-2.83-1.21-6.6,2.01-2.63,2.19-7.86,2.42-12.92-12.28-.55-32.86-6.72-40.06-12.28-2.57-1.96-2.39-7.27-4.28-10.04-8.42-12.33-27.54-13.91-27.26-34.34-2.46-4.41.45-11.57-.54-18-2.38-15.32-4.62-29.13,2.72-43.91,1.75-3.59,7.38-7.41,8.81-10.87.55-9.23,1.16-18.45,1.71-27.66,4.84-15.37,9.7-30.18,11.32-51.56-5.33-4.11-8.39-14.13-13.63-17.15-3.24-.22-6.48-.4-9.75-.62-3.52-2.11-33.42-52.34-37.16-59.41-10.72-20.4-12.87-44.88-25.45-63.62-3.3-4.91-13.15-7.87-17.21-12.47C22.93,256.08.03,208.98,0,195.44c10.54-9.89,17.19-17.4,33.97-20.77,11.35.7,22.76,1.4,34.14,2.1,18.82-3.02,36.15-8.1,56.18-11.21,26.81-4.19,51.31,18.02,41.72,38.48-12.23,5.86-27.77,10.51-43.27,13.66-10.39,2.09-18.69-1.31-24.8,4.99-.53,1.56-1.3.53-.08,1.64,5.48,5.61,12.4,5.79,13.71,15.53,3.83,9.86-10.57,20.62-13.3,30.2,2.27,2.81.83,4.61,2.75,8.33,4.6,4.65,9.24,9.28,13.84,13.9,10.31,15.52,22.02,28.54,33.27,42.9,4.52,5.74,8.7,16.93,15.06,20.5,5.94.91,11.87,1.81,17.78,2.72,1.31.68,2.88,4.02,4.6,5.18,2.17-8.57,4.31-17.14,6.46-25.72,2.63-4.76,9.97-8.47,12.3-13.93,3.16-7.35.67-13.31,4.45-19.33,2.58-4.04,9.68-10.98,10.89-17.28-.88-3.32-1.8-6.65-2.66-9.98,1.08.08,2.17.13,3.24.21.26-4.34.54-8.68.82-13,1.37-2.67,5.27.63,5.18-4.6-.07-3.69-6.95-10.73-7.25-15.14-.33-4.65,5.72-9.19,4.37-17.68-1.94-11.97-6.55-33.72-1.88-49.09,4.8-15.71,21.34-75.2,15.76-97-.96-3.94-6.3-9.59-7.3-13.5-1.94-7.67,3.28-18.76,4.76-24.2,4.7-17.28-10.97-42.36,17.24-41.39,8.33-4.85,38.7.45,47.18,2.9,11.87,1.26,23.79,2.56,35.66,3.84,16.03,5.22,45.31,17.52,45.05,37.06-1.42,1.56-.57.41-1.81,3.13-5.39,1.13-11.17,4.52-16.67,5.51-5.93-.91-11.83-1.82-17.78-2.71-17.25-1.43-44.44,2.69-49.91,14.87,5.06,6.17,6.95,17.36,6.46,28.15-7.4,4.46-7.58,9.02-20.15,8.56Z"/>
</svg>