<?xml version="1.0" encoding="UTF-8"?>
<svg id="_レイヤー_1" data-name="レイヤー 1" xmlns="http://www.w3.org/2000/svg" viewBox="0 0 900.98 531.78">
  <path d="M900.61,6.78c-1.48-2.91-5.39-4.65-8.39-5.98-18.08,6.3-25.11,26.82-33.89,42.27-4.61,8.07-26.22,23.35-34.31,29.92-3.03,2.44-7.48,8.15-11.16,8.37-18.05,20.08-29.84,45.22-51.85,60.62-5.38,3.75-8.18,10.05-14.75,11.57.59-1.61.51-1.08,1.59-1.99-1.04-.33-1.62-.03-2.8.39.73-1.55,1.35-1.97,2.8-2.79.12-.4.26-.79.39-1.19h-1.59c.68-.79,1.31-1.61,1.99-2.4.28-.12.52-.27.81-.4-1.06-.39-2.12-.79-3.19-1.18,1-1.19.71-1.19,2.39-.81-.38-2-1.16-3.18,0-5.18h-.79c-1.36-.52-3.85,0-4.79,1.18-.52-.26-1.07-.53-1.61-.79.68-1.98,2.12-2.95,3.21-4.78v-1.59c-1.19.26-2.4.53-3.59.79.77.81.14.42,1.58.8v1.59c-1.05-.42-2.12-.81-3.19-1.21-.39.68-.78,1.34-1.19,2h-.39c-.26-.53-.53-1.05-.8-1.6.49-1.71.61-3.62,3.21-4.36-.82-1.88-1.6-3.74-2.4-5.59-.97.14-.99.27-2.4.8,1.16-1.85,1.67-2.41.79-3.19,1.24-1.14,1.29-.51,2.8,0,.29-.27.53-.54.81-.8-.66-.53-1.34-1.07-2-1.6.39-.8.8-1.59,1.19-2.41-.25-.39-.53-.78-.8-1.19-.71,1.8-.15,1.67-2,2.41.87-2.36.29-2.29,1.61-4.4h-2c.15-.64.27-1.32.39-1.98-.41-2.28.96-.74,2-2.79-1.24.11-.78.08-2-.42-.79.93-1.59,1.86-2.36,2.78h-1.62c-.21-2.99.25-2.97.8-5.57-.25-.12-.53-.25-.8-.39-.26,1.32-.55,2.68-.79,3.99-1.35-.8-2.67-1.6-3.99-2.39-2.09,1.26-3.11,2.29-3.98,4.79-.27.12-.55.27-.81.39v-2c-.91-.67-1.85-1.34-2.77-2.02-.53.56-1.08,1.09-1.61,1.61v-1.2h-3.98c.94.42,1.88.8,2.8,1.2.26.55.5,1.09.78,1.58-1.18-.5-.48.05-1.21-.78-.77.98-.21.17-.38,1.21-1.36,1-1.5.69-2.41-.82h-1.18c.13,1.5-.35,1.82-1.21,3.19h2c-.54,1.21-.24.91-1.19,1.6,1.12.76.92,1.09,2,0,1.67.63.97-.06,1.6,1.62-3.62,2.26-2.68,8.13-6.79,11.14.23,1.74-.09,1.13-1.6,1.22-1.03,1.59.66,1.22,0,3.17-1.05,3.27-6.78,8.34-7.55,10.37-3.97,10.46-6.68,20.56-11.57,30.32-3.26,6.47-9.86,14.96-8.37,22.35-2.76,1.82-7.05,3.05-7.58,7.17-2.42-.95-.81-1.44-2.8-1.18-4.14-13.97-3.72-5.79-12.75-12.37-2.34-1.43-2.54-4.47-4-6.79-2.99-4.77-8.44-10.47-9.95-16.34-2.04-7.91,7.82-28.27,10.36-34.7,7.57-18.89,15.15-37.77,22.73-56.64,3.86-11.7,7.73-23.4,11.56-35.1,2.8-1.85,5.59-3.72,8.39-5.59,4.13-5.15,6.13-11.87,9.98-17.56,2.77-4.1,8.33-6.62,10.74-10.74.16-.94.28-1.87.43-2.79-6.52.23-8.57,5.62-14.36,7.15.98-3.09,5.08-5.86,7.57-7.54-.1-1.82-.27-2.17-.78-3.21-11.19,2.34-16.99,17.99-23.13,25.92-11.25,14.52-22.62,32.83-30.34,50.66-2.11,6.91-4.23,13.82-6.36,20.73-2.73,6.04-8.05,11.76-10.78,18.35-3.48,8.42-5.42,16.25-10.36,22.74-3.87,5.71-7.72,11.43-11.56,17.16-1.06,3.84-2.14,7.71-3.19,11.57-2.4,3.09-9.49,5.82-15.16,4.38-1.55-.68-2.11-1.24-2.8-2.8-1.61-4.43,1.29-11.75,2.41-14.76,2.63-7.09-5.8-22.93-8.39-24.71-7.46-5.18-14.95,1.58-19.55,3.58-4.56,2-8.98,1.02-13.14,2.8-7.28,3.09-19.34,14.66-16.36,28.31.73,3.27,3.4,5.44,4.4,8.78,1.05,3.58-1.47,7.69-.4,11.57,1.45.25,2.91.54,4.38.78,3.99,2.29,7.74,8.3,9.57,12.78,8.34,1.46,13.76-8.9,21.16-3.99,6.95,4.63,13.7,17.02,5.97,25.92-2.53,1.21-5.05,2.39-7.57,3.58-3.19,4.81-6.38,9.58-9.59,14.35-1.31,5.99-2.63,11.97-3.97,17.96-3.72,5.17-7.45,10.36-11.17,15.55-2,3.87-4,7.71-5.99,11.56-4.44,5.62-31.48,13.09-41.49,13.58-5.58.26-11.16.53-16.75.79-.53-.31-11.3-12.75-12.75-14.77-4.27,1.06-8.51,2.14-12.79,3.19-2.85,1.93-4.92,8.78-9.96,8.39-4.59-.36-6.45-2.2-11.16-3.18-6.48-1.38-12.22,1.29-18.34,1.97-5.55.64-14.48-1.04-19.95-1.97-1.21.27-2.41.53-3.58.78-3.72-1.46-7.45-2.92-11.19-4.38h-7.18c-3.85-2.27-7.71-4.53-11.57-6.79-3.58-1.35-9.28-.61-11.55-3.19-2.81-3.16-11.78-10.66-11.97-15.55-.8.12-1.61.27-2.4.39.27-.66.53-1.32.79-2-1.17-.52-.47.02-1.19-.8-.8.67-1.59,1.34-2.4,2.01-.25-.15-.51-.27-.78-.42-.78-3.91-7.89-13.57-15.16-15.54-4.62,1.82-7.48.85-10.76.8.03-1.36-.92-2.63-2-3.99,2.53-5.96,4.79-11.53,4.39-17.15,2.43-1.73,7.97-4.45,9.96-6.77,2.42-3.4-2.44-16.89-4.39-20.35,4.56-6.16-1.59-9.29-8.36-11.17.12-8.34-7.62-8.28-12.77-12.38-2.68-2.12-2.57-6.67-5.98-8.37-1.45-.73-22.02,6.89-22.34,7.2-2.28,2-10.24,10.05-11.57,12.34-1.26,2.2-1.45,5.78-3.18,7.59,2.56,1.81-.19,9.4.78,13.16,1.98,7.53,9.63,23.25,21.55,23.96,1.24,2.56.06,5.25-1.61,7.16-3.97,4.3-11.7,8.21-16.33,13.17-6.19,6.6-9.16,14.4-16.37,19.13-3.16,2.09-6.16.08-8.39,1.6.39-.15.8-.25,1.2-.39-1.33,2.14-4.44,1.21-7.55,3.19-2.1,1.3-8,9.97-10,12.36-.13.28-.27.53-.39.8-2.72,1.75-5.85.68-8,2.78-1.71,2.69-3.45,5.33-5.17,8-8.14,7-15.16,8.21-23.14,14.35-2.74,2.12-5.07,6.63-8.37,7.98-4.66,1.91-25.69,13.8-23.55,17.16,1.62,1.09,2.74.17,4.8-.39.14.93.28,1.87.41,2.8-.8.79-1.59,1.59-2.41,2.38.15.54.28,1.07.42,1.59.92.15,1.86.29,2.79.41,4.09-3.5,7.61-7.69,11.57-11.17,3.05-1.07,6.09-2.14,9.18-3.21,1.16,1.38,1.93,3.5,3.58,4.4-1.6,2.65-3.19,5.31-4.79,7.98.26.93.53,1.87.81,2.8.64.26,1.32.53,1.98.8,7.74-4.67,10.78-16.29,15.57-20.34,7.89-6.74,20.68-7.01,31.5-11.19,10.16-3.92,21.53-11.42,31.91-14.75-.53,1.82-1.09,2.23-2.38,3.19.62,3.41.71,32.89-1.6,37.89-1.33,2.8-3.79,2.6-3.6,6.39-8.93.79-14.55,3.12-23.92,1.61-.75.89-.73.52-1.19,2,1.44.25,1.19.13,1.98.78-.54.27-1.07.53-1.59.8v.39c1.31,1.21,2.65,2.39,3.99,3.6-4.14,5.02-9.08,10.15-11.58,16.75-2.84,7.52-2.35,13.9-7.58,18.75-9.98,9.27-23.64,14.11-35.11,21.95-8.2,5.61-14.71,13.81-24.31,17.93-14.25,6.13-32.53,6.06-43.47,13.57-14.35,9.83-26.46,21.93-40.71,31.52-4.43,2.99-7.6,8.78-11.98,11.95-3.14,2.31-8.49,6.62-13.56,6.38-2.12-.25-4.23-.53-6.36-.79-3.97,1.2-5.98,5.55-9.19,7.18-4.4.92-8.78,1.85-13.16,2.77-9.38,2.82-17.82,12.22-15.55,24.34,5.95,3.3,13.87,4.43,22.73,1.99,1.19-.53,2.4-1.04,3.6-1.59,17.98.72,34.42-20.81,47.07-29.1,4.26-2.82,8.26-3.1,13.16-5.6,7.96-4.08,17.76-6.78,25.53-11.57,8.63-5.33,17.11-11.42,26.72-15.56,17.32-7.45,38.1-5.66,53.44-12.75,8-4.4,15.97-8.78,23.94-13.18,9.19-3.18,18.35-6.37,27.53-9.57,6.54-3.5,14.1-10.44,22.73-11.16,5.19,2,10.36,3.99,15.55,5.98,7.6,2.38,15.18,3.03,22.75,5.57,13.08,4.43,37.69-5.18,49.86-9.15h2.8c-2.53,6.79-7.88,13.98-9.99,22.73-1.32,16.47-2.66,32.98-3.99,49.45-1.56,7.37-10.57,20.15-5.99,27.52,4.05,6.52,36.18,5.11,44.29,2.8.26-1.34.52-2.65.78-3.97-6.21-7.81-14.64-11.14-16.75-21.14-3.04-14.53,10.7-34.79,15.55-46.7,2.83-6.91,3.64-13.56,7.17-19.52,4.26-7.18,12.05-20.98,7.18-31.12-5.63-11.8-32.15-18.96-46.26-23.14-10.9-3.2-23.92-5.36-36.69-5.18,7.76-22.71,14.82-49.67,17.95-73.38,2,.88,4.66.09,7.58,1.21,4.03,1.51,7.76,3.61,12.36,5.57,12.22,5.18,20.31,11.78,36.3,14.77,10.43,1.93,17.14-4.05,24.32-5.59,5.06.27,10.11.53,15.16.8,2.36-1.68,31.08-3.82,35.5-3.98.84-2.21,1.83-4.95,4.38-5.58,4.39-1.04,8.18,6.21,13.58,5.97,3.45-1.85,6.9-3.71,10.37-5.58,5.3.4,10.63.8,15.95,1.19,10.54,1.63,37.14-.11,45.48-3.58,5.51-2.3,8.66-10.09,11.95-14.77,8.85-12.44,20.87-24.88,25.93-40.67,3.56-2.18,9.61-3.38,14.37-.79,5.58,3,7.85,8.83,15.57,10.74,9.49-2.8,22.63,3.11,31.89,4.8,9.64,1.73,16.96,1.29,24.71,3.18,3.18,5.64,2.57,14.65,4.01,21.95,2.8,14.22,3.72,26.29,8.38,38.27.56.77.03.26.79.8-.14-.39-.25-.8-.41-1.18,1.68.59.99-.08,1.58,1.59h-1.58c.41,1.63.41,1.18,1.19,1.19h1.21c-.33,2.69-1.58,2.67-.39,5.18v.8c.8-.73.28.02.77-1.2h1.19c-.58,3.22-1.8,2.7-1.58,5.98.93.66,1.87,1.34,2.79,2-.56-1.31-.89-1.33-1.61-2.39.68-.14,1.33-.29,2-.41,1.34,2.9,1.24,10.25,2,13.16.78,3.06,3.01,4.02,3.2,7.58,1.59.36,1.33-.56,4.39-.79-.27-.14-.55-.27-.81-.41v-1.19h.39c2.37,1.9,7.23,6.11,9.57,6.39,2.36.32,3.06-2.29,4.39-1.58,1.29-1.12,2.51-4.27,3.6-5.6.78-1.22,3.32.16,4.79.79,4.29,18.56,4,27.23.79,46.26-2.37,14.09,2.2,27.96-.79,40.69-2.72,11.58-9.61,25.68-8.39,39.5,3.33,12.49,6.66,24.99,9.97,37.49,2.44,1.63,4.82,2.51,9.17,2.39,3.01-8.91,2.94-20.28,2.8-32.3,6.76-6.59,14.21-8.83,13.96-22.75-.95-.81-1.87-1.59-2.81-2.39-2.43.77-6.37-1.79-7.56-4.4-1.45-4.44,2.12-12.86,3.19-17.15,4.09-16.49,13.31-30.38,13.55-48.26.27-19.59-6.02-33.48-9.18-49.84.13-13.43.28-26.88.42-40.3-3.89-22.71-2.97-49.39-3.6-65.02.79-.39,1.6-.78,2.38-1.18-.14-.41-.25-.8-.4-1.21-1.06.12-2.11.27-3.18.41.21-2.5.89-3.26,2.8-4.01-1.34-3.15,1.73-4.35.38-7.94-5.26-14.14,12.47-33.19,21.14-47.11,7.32-11.41,14.62-22.85,21.94-34.28,4.09-5.53,9.5-10.18,13.57-15.95,1.85-3.72,3.72-7.44,5.58-11.17,7.56-6.52,15.14-13.04,22.74-19.55,4.64-8.37,9.31-16.75,13.94-25.12,3.71-6.21,8.3-11.09,11.99-17.56,2.33-4.12,8.66-5.82,12.36-8.77,9.09-7.23,14.8-17.01,21.13-27.11,2.5-3.99,8.27-9.65,6.39-16.35Z"/>
</svg>