<?xml version="1.0" encoding="UTF-8"?>
<svg id="_レイヤー_1" data-name="レイヤー 1" xmlns="http://www.w3.org/2000/svg" viewBox="0 0 724.42 723.23">
  <defs>
    <style>
      .cls-1 {
        fill: #231815;
        fill-rule: evenodd;
        stroke: #231815;
        stroke-width: .28px;
      }
    </style>
  </defs>
  <path class="cls-1" d="M361.94,722.8v-.19l-115.71-119.65,29.88-29.46c16.9-2.6,27.36-9.71,27.13-22.57l-.12-54.05v.04c-15.38-7.27-29.22-17.68-41.8-30.66l-.19-.24-3.81-4.26-9.2-9.61-4.66-6.37-3.39-3.81-2.4-4.01-4.94-6.68-5.91-11.11-54.63.19c-12.83-.23-19.93,10.22-22.54,27.13l-29.45,29.92L.53,361.65h-.19l.08-.11-.08-.08h.19l119.64-115.76,29.45,29.92c2.61,16.9,9.71,27.36,22.54,27.13l54.63.19,5.91-11.12,4.94-6.68,2.4-4,3.39-3.85,4.66-6.33,9.2-9.6,3.81-4.27.19-.23c12.58-12.98,26.42-23.39,41.8-30.66v.04l.12-54.09c.23-12.82-10.22-19.97-27.13-22.53l-29.88-29.49L361.94.51v-.19l.09.08.11-.08h0l.09.08.11-.08v.19l115.72,119.61-29.92,29.49c-16.91,2.56-27.31,9.71-27.12,22.53l.11,54.09v-.04c15.44,7.27,29.26,17.68,41.82,30.66l.23.23,3.81,4.27,9.21,9.6,4.66,6.33,3.34,3.85,2.42,4,4.93,6.68,5.95,11.12,54.59-.19c12.86.23,19.97-10.23,22.54-27.13l29.49-29.92,119.61,115.76h.24-.05.05l-.12.08.12.11h-.05.05-.24l-119.61,115.76-29.49-29.92c-2.56-16.91-9.68-27.36-22.54-27.13l-54.59-.19-5.95,11.11-4.93,6.68-2.42,4.01-3.34,3.81-4.66,6.37-9.21,9.61-3.81,4.26-.23.24c-12.56,12.98-26.39,23.39-41.82,30.66v-.04l-.11,54.05c-.19,12.86,10.21,19.97,27.12,22.57l29.92,29.46-115.72,119.65v.19l-.11-.12-.09.12h0l-.11-.12-.09.12Z"/>
</svg>