<?xml version="1.0" encoding="UTF-8"?>
<svg id="_レイヤー_1" data-name="レイヤー 1" xmlns="http://www.w3.org/2000/svg" viewBox="0 0 762.87 747.56">
  <defs>
    <style>
      .cls-1 {
        fill: #040000;
      }
    </style>
  </defs>
  <path class="cls-1" d="M216.88,283.53c-18.53,30.7-49.66,23.31-79.46,18.52-26.54-5.68-76.67-12.47-85.94,23.46,31.34-6.5,63.16-1.08,94.02,5.04,31.64,6.26,62.87,10.15,93.86,18.94-1.68-19.95-26.47-17.01-35-28.98,6.44-10.71,18.52-23.35,12.53-36.98Z"/>
  <path class="cls-1" d="M364.24,189.13c16.13,1.31,31.12-6.43,41.69-18.18,2.19-2.49,23.85-38.77,14.75-38.77-14.98,23.49-38.96,38.98-56.44,56.95Z"/>
  <path class="cls-1" d="M54.64,288.7c27.25-11.29,61.42-3.17,88.29,5.32,20.04,5.79,47.55,11.12,63.4-6.78,11.14-12.62,11.31-32.69-3.44-42.66-40.98,33.98-99.94-18.5-145.9,11.02,21.46-36.39,58.09-57.35,100.02-60.55,35.97-2.74,67.58,69.77,78.78,97.02,4.53-42.99-18.92-83.98-48.9-111.89,23.46.5,29.98,28.92,42.97,46.41,14.54-7.93-17.15-47.67-15.13-55.83,2.56-.37,4.78.59,6.64,2.9,21.96,23.5,11.98,59.97,25.46,87.46,4.38-19.37-1.24-38.86,5.16-58.55,6.04-18.7,17.48-35.07,31.3-48.88,0,32.48,37.95,50.43,65.97,38.45,36.15-10.82,33.15-70.73-8.5-67.93,20.03-8.02,41.8-2.24,50.94,18.49,30.51-25.92,65.14-46.76,101.91-62.45-45.13-10.34-101.32,1.68-145.08,14.27-42.86,12.35-84.53,34.47-107.7,74.15-4.01-24.45,18.47-47.44,36.45-62.93-28.6-4.3-51.61,18.48-59.95,43.96-28.06-17.9-63.67,6.09-59.94,38.47-38.89-5.13-80.09,4.1-111.84,27.46-30.19,22.16-59.77,66.21-38.14,104.1,3.49,6.13,7.59,8.88,12.99,12.73,10.58,7.52,7.9-5.27,9.17-12.17,2.67-14.44,11.46-25.95,25.05-31.57ZM302.78,141.17c.52-.26,8.52-3.95,8.52-1.49-7.15,9.67,1.18,23.55,11.47,26.48,14,3,26.5-17.99,10.5-21.98-1.01-.51-3.02.5-3.53-.51,8.51-5.49,18.5-1.01,21.53,7.98.96,11.51-6.53,20-15.52,24.97-19.99,4.5-43.45-13.94-32.97-35.46Z"/>
  <path class="cls-1" d="M717.43,312.53c11.71,6.08-16.62-31.06-19.47-34.43,26.51,5.41,50.19,37.52,64.91,58.41-4.75-34.99-23.29-65.94-46.2-92.13-20.07-22.96-49.68-40.21-67.08-64.92-10.8-15.36,17.99-6.47,23.32-4.47,20.12,7.53,43.56,19.34,56.54,37.14-17.02-46.46-58.45-79.94-102.47-98.45-16.74-4.4-15.32,2.44-14.44,16.5-8.82,16.67-30.29-.39-22.99-14.96,22.99-40.99,77.93-14.02,112.88-6.5-36.83-33.67-81.86-57.97-129.73-71.76-24.45-7.06-49.67-11.36-75.09-12.78-12.78-.72-25.62-.69-38.43.08,2.08,12.78-11.99,22.23-23.5,19-26.99-12.4,25.11-35.86,30.45-40.46-39.34-11.11-101.41,13.49-137.3,28.71-38.67,16.42-90.48,40.58-116.96,74.21,43.64-20.04,86.66-42.24,134.41-50.48-14.02,10-32.99,22.49-35.98,40.48,67.42-36.44,158.79-39.45,234.3-17-51.33,13.9-106.91,50.77-106.91,109.94-.84,2.81-18.44-20.88-20-23.48-18.13,73.04-102.49,28.56-152.36,31.96,9.84,21.37-1.5,43.7,2.49,65.41,11.52-21.98,33-42.44,60.47-38.44-20.89,19.47-56.14,51.61-37.99,85.39,13.5-33.97,62.97-65.46,93.44-37.96,1.91,22.77-21.63,25.98-37.98,29,35.98,37.4,100.27,8.24,122.42-29.51,1.85,13.79.59,28.35-5.21,41.12-1.59,3.55-18.25,21.67-16.77,23.86,54.92-3.52,101.38-53.95,94.38-110.38,13.98,26.84,16.02,61.98,2.16,89.3-18.78,37.08-61.05,40-98.19,36.15-19.68-2.07-39.03-6.3-58.32-10.6-14.84-10.06-33.54-16.34-51.47-12.17-7.66,1.79-14.75,5.49-20.76,10.56-10.3,8.7-8.86,2.81-18.39-5.1-15.11-12.49-33.2-21.49-53.24-20.76,30.45,21.48,53.45,47.96,77.91,74.94,1.52-9.97,2.51-28.96,16.51-26.52,15.98,8.52,12.51,28.01,13.48,43.52,12.45-9.45,20.48-24,22.47-39.48,36.07,19.08,79.12,32.41,119.9,22.48-3.98-4.54-15.96-5.5-16.98-10.48,39.47,0,73.42-25.96,91.93-58.47-7.5,30.97-26.49,60.45-45.47,84.43,39.76,10.72,98.39-33.27,127.22-55.8,26.78-20.96,85.64,79.21,97.6,100.26.51-55.45-22.51-107.9-55.98-148.88,10.03,1.52,17.99,8.5,26.48,13.5ZM599.06,345c16.97-35.95,19.45-88.88,6.47-127.85,42.98,27.43,33.5,102.39-6.47,127.85Z"/>
  <path class="cls-1" d="M650.49,372.5c-32.38,25.3-69.17,46.01-109.46,55.37-9.51,2.2-19.16,3.75-28.89,4.6-4.92,7.62-10.33,14.98-16.19,21.94-13.53,16.09-29.62,30.63-48.28,40.52,6.79-11.46,11.01-18.88,11.01-32.51-11.54,6.99-20.52,19.01-34.01,20.97,15.52-18.49,24.5-45.45,17.03-69.41-26.97,61.94-89.92,103.9-152.86,120.42,39.44-30.02,84.89-69.49,88.88-124.92-20.76,21.81-41.68,44.63-68.3,59.39-11.04,6.13-60.36,25.49-58.07-4.92.49-16.03,19.49-24.52,31.46-28-74.41-41.99-161.34,23.95-196.81,89.4,20.97-7.98,49.94-34.44,69.4-12.47,10.03,39.47-35.96,63.94-62.95,78.93,45.49,0,89.93-25.48,117.39-57.97,1.02,26.98-26.96,43.96-43.42,58.48,15.47,5.99,30.46-6.54,43.42-11.99-10.3,26.68-48.13,44.95-72.39,55.35-31.62,13.57-65.36,21.24-98.95,28.07,42.88,6.49,86.78,3.22,128.49-8.35,21.99-6.07,43.33-14.35,63.81-24.3,7.26-3.53,49.49-33.12,49.49-16.33-23.43,38-79.4,42.48-115.86,58.99,109.51,8.85,216.52-36.77,302.73-101.45-13.35-2.47-19.47-21.99-7.97-30.43,11.38-10.04,32.47-10.44,38.05,5.95,5.9,17.3-5.38,41.06-14.95,55.15-22.69,33.37-61.1,53.45-97.09,69.24,87,7.98,161.88-52.94,201.83-124.36-3.98,38.93-26.48,79.39-48.92,114.36,47.91-29.72,85.92-75.11,108.06-126.85,11.2-26.17,18.34-54.13,20.43-82.53,1.4-18.75,6.23-71.52-16.1-80.33ZM211.38,462.41c-15.03,1.53-29.49,2.49-43.95,6.99,5.07-5.1,37.65-29.69,44.96-22.99-1.84,5.24-2.18,10.59-1.01,16.01ZM528.58,585.31c9.78-17.17,18.95-34.81,25.72-53.42,3.46-9.45,6.27-19.14,8.27-29,2.76-.43,19.97-2.76,19.97-5.5-12.98,32.45-30.96,61.95-53.97,87.92Z"/>
  <path class="cls-1" d="M362.22,662.21c-27.14,5.51-54.95,24.79-81.13,34.5-31,11.51-67.87,15.26-97.21,29.98,31.43,10.89,82.74,3.28,114.38-4.05-1.46,10.03-14.43,14.04-18.43,22.49,42.05,7.37,83.54-2.98,122-19.79,28.83-12.59,77.2-28.64,93.31-58.13-53.12,17.66-104.7,43.59-160.89,50.47,11.76-15.43,23.82-36.44,27.96-55.48Z"/>
  <path class="cls-1" d="M102.44,231.59c1.32,1.32,29.97-10.18,29.97-1.95.52,7.28,5.45,12.26,12.69,12.9,14.56,1.31,31.8-13.65,14.3-24.44-15.7-9.61-52.88-10.78-56.97,13.5Z"/>
</svg>