<?xml version="1.0" encoding="UTF-8"?>
<svg id="_レイヤー_1" data-name="レイヤー 1" xmlns="http://www.w3.org/2000/svg" viewBox="0 0 893.07 501.42">
  <defs>
    <style>
      .cls-1 {
        fill: #040000;
        fill-rule: evenodd;
      }
    </style>
  </defs>
  <path class="cls-1" d="M830.99,118.64c26.7-16.11,52.25-36.41,62.07-65.43,1.04-14.92-56.93,33.21-76.43,43.35,43.68-41.56,42.69-104.78,33.98-95.67-33.77,43.61-62.76,82.32-101.38,120.05,5.28-12.08,7.54-25.39,2.74-31.8-4.18,23.53-24.45,49.62-43.26,63.49,1.82-4.04,2.47-8.59.31-13.67-10.96,25.93-39.1,37.62-61.75,51.14-17.83,10.66-37.49,20.55-53.56,33.86-28.42,23.54-50.82,112.58-102.58,83.77,2.11-.25,4.34-.8,6.54-1.47-7.86-.6-15.82-3-19.18-10.73,1.33,1.05,3.24,1.35,5.79,2.25-7.08-8.3-9.02-9.94-22.34-31.48,1.35.23,3.02.58,4.68,1.05-13.74-12.11-38.58-18.28-55.01-7.65-2.71,1.74-5.75,4.6-5.86,8.11-4.98.32-9.96,2.27-13.9,5.33-8.93,6.89-7.74,20.48.77,27.6-.74-9.86,12.03-13.97,18.94-7.95,9.01,7.84,8.62,20.77.64,29.56-16.89,18.59-49.57-8.66-62.49-20.67-19.43-18.08-36.3-34.04-61.59-43.69-26.96-10.3-63.49-12.55-80.22-38.35-1.24,4.31-1.49,7.98-.95,11.14-25.34-9.06-53.07-36.9-60.37-63.62-8.5,8.68-2.95,23.61,6.03,35.71-24.78-16.27-47.47-35.65-67.62-57.4-10.72-11.59-20.74-23.85-29.97-36.67-4.95-6.86-18.36-34.53-25.2-14.62-5.77,38.35,26.6,73.59,51.86,93.56C71.29,181.99,7.81,138.25.04,145.37c-1.52,32.06,45.32,59.38,67.98,69.84-8.82-1.9-55.55-16.88-60.92-7.75,2.79,24.29,48.5,33.16,67.05,36.32-9.1.43-71.08-.46-34.94,16.98,19.04,7.52,41.72,8.17,63.76,5.78-8.85,2.01-19.15,7.06-25.87,13.22-8.35,7.66,17.25,5.48,19.6,5.03-13.13,10.26,5.01,9.81,12.73,8.55-14.81,10.34,4.68,10.91,12.82,9.35-12.11,13.62,7.88,8.31,15.36,8.11-12.92,10.96,4.39,11.87,12.87,9.75-9.81,11.66,4.78,12.32,13.35,10.24-3.72,10.34,7.45,10.46,14.31,8.24-7.09,12.14,5,12.63,13.63,9.38-7.5,13.81,3.57,13.63,13.5,9.42-8.5,11.58,7.96,12.67,14.95,8.01-5.58,13.54,3.76,11.46,12.62,7.63-4.93,9.75,6.31,13.39,13.27,8.49-3.83,13.44,7.44,10.65,15.08,5.85-7.23,12.19,3.62,12.68,12.38,7.8-2.29,10.81,3.51,10.57,11.64,8.83,4.73-1.02,1.57,4.87,4.13,7.48,3.62,3.7,10.44-1.26,13.19-3.65-1.97,12.03,6.79,13.32,14.27,5.82-1.28,10.97,13,15.12,14.53,6.59-.47,12.39,8.84,11.94,14.93,3.46-1.58,16.84,8.18,15.42,15.18,3.29-1.31,14.35,9.11,14.41,15.21,3.41.25,18.21,13.83,10.42,16.02-2.07.59,21.85,12.09,12.94,15.71-2.56.1,22.43,11.35,17,14.19-.49,7.92,1.93,8.52,13.2,5.48,19.51-4.04,8.33-10.95,15.23-18.28,20.75-6.64-3.96-13.2,1.86-15.2,8.17-2.73,8.62,1.75,18.31,6.47,25.32-1.9-11.35-.63-25.61,8.42-25.69-2.36,9.17,2.33,19.85,6.61,27.66.16-10.26,2.3-22.23,6.04-25.77,10.18,3.68,8.57,15.68,12.89,25.62,1.41-5.89,2.49-11.86,3.01-17.9.85-9.6,2.86-6.69,11.36-8.45,4.82-1,11.23-.93,12.81-4.87.14-1.5.2-3.02.05-4.5.52,1.94.4,3.36-.05,4.5-.05.59-.08,1.18-.18,1.75.4-.13.81-.28,1.24-.42,6.02,2.72,21-1.28,28.48-2.04,2.95-.3,6.44-1.23,9.38-.7-.71,9.64,4.61,20.03,11.43,26.53-1.2-10.07-6.29-24.55,5.82-26.12,3.7,7.85,7.32,16.35,13.19,22.89-.42-5.15-.73-10.32-1.15-15.47-.88-11.3-.12-8.93,8.65-15.09,5.43,3.5,8.98,10.96,9.6,18.55,2.23-5.74,3.33-12.16,1.22-18.1-2.97-8.45-2.84-6.17,2.56-14.11,2.75-4.05-9.09-16.81-12.39-20.41l5.34-1.46c-2.52-3.85-4.61-7.95-6.74-11.5,5.06-2.89,10.46,14.84,19.47,8.77,2.73-3.31,1.48-7.72.62-11.38,7.87,8.3,21.43,12.43,17.31-3.96,9.23,8.63,17.69,6.59,15.45-6.7,9.49,8.56,18.86,4.44,13.66-8.5,9.53,7.4,20.66,5.8,14.58-8.22,8.78,7.33,20.37,3.8,14.16-8.68,9.99,6.54,21.1,3.86,13.96-9.23,8.93,5.32,19.73,2.17,13.5-9.54,7.27,4.79,20.23,2.47,14.09-8.44,8.83,4.17,18.8-1.72,12.45-11.44,8.55,3.58,19.67.8,13.04-10.17,4.29,1.52,12.69,3.72,13.78-2.96.23-1.45-.14-9.94-1.93-10.57,11.8,3.36,20.21-3.24,10.69-13.94,10.88,2.85,24.05-1.93,12.24-13.3,9.54,1.72,25.27-1.47,14.17-13.14,4.71.41,13.36.87,15.93-4.44,1.41-2.89,0-7.7-3.16-8.93,8.07.06,22.77-5.22,10.87-13.55,7.21-.04,25.41-5.07,12.93-13.52,6.51-.5,24.03-5.48,13-13.67,5.51-.82,23.15-6.17,13.04-13.53,4.73-1.04,21.78-6.79,13.16-13.55,3.84-1.01,16.5-5.72,13.91-12.15-2.29-5.68-14.54-6.01-19.28-6.59,16.36-1.81,50.43-4.02,58.19-21.78,4.15-9.55-35.68-7.16-40.64-6.94,10.95-2.78,21.75-7.31,31.37-13.21,3.4-2.1,26.52-19.49,19.28-25.21-10.17-8.03-46,10.42-57.5,12.74Z"/>
</svg>