<?xml version="1.0" encoding="UTF-8"?>
<svg id="_レイヤー_1" data-name="レイヤー 1" xmlns="http://www.w3.org/2000/svg" viewBox="0 0 823.02 727.21">
  <defs>
    <style>
      .cls-1 {
        fill: #221f20;
      }
    </style>
  </defs>
  <path class="cls-1" d="M796.53,363.14c-4.35,2.02-21.78,13.82-26.47,12.47-21.61-45.41-41.64-91.97-54.48-140.71-13.47-51.04-20.78-107.67-8.16-159.5-.17.68-.25,1.33-.3,2.02,11.04-35.59-10.38-63.68-44.06-74.6-50.27-16.24-74.7,41.04-78.84,75.76-3.53,24.89-19.72,50.09-31.67,71.79-18.62,33.84-40.7,65.93-66.73,94.49-36.21,39.73-81.78,74.15-135.6,84.41-72.64,13.9-142.85-23.53-200.12-64.38-31.67-22.61-61.41-47.86-90.78-73.36-4.22-3.65-17.2-21.13-22.93-13.64,1.28-1.68,5.24-5.82,7.19-6.44-5.16,1.66-11.69,9.87-15.6,13.22-6.44,5.49-33.65,21.36-24.75,28.82-1.08.93-2.16,1.87-3.23,2.8,1.15-.83,2.28-1.71,3.33-2.67,69.94,93.45,149.34,178.98,230.76,262.51,44.94,46.12,90.16,91.98,134.56,138.64,20.65,21.67,40.99,43.67,60.59,66.3,4.07,4.77,40.59,46.94,28.87,46.04,13.5,1.91-13.36-32.86-16.11-36.57-10.07-13.54-20.1-27.15-30.45-40.47-24.82-31.93-50.74-62.95-76.55-94.11-53.44-64.4-108.11-127.85-160.05-193.55,71.15,44.22,153.92,63.97,235.49,38.64,0,.2-.21.31-.58.23,71.38-21.42,130.98-68.5,179.81-123.71,10.7,51.8,27.44,102.11,46.37,151.42,5.05,13.19-5.31,12.46-17.04,17.98-8.25,3.91-16.49,7.81-24.73,11.71,69.3,48.03,138.66,96.06,207.97,144.08,6.93-84.06,13.85-168.12,20.78-252.17-8.84,4.18-17.66,8.34-26.49,12.53Z"/>
  <path class="cls-1" d="M701.53,138.1c-.03-1.13-.03-.79-.04.02l.04-.02Z"/>
</svg>