<?xml version="1.0" encoding="UTF-8"?>
<svg id="_レイヤー_1" data-name="レイヤー 1" xmlns="http://www.w3.org/2000/svg" viewBox="0 0 383.59 884.31">
  <defs>
    <style>
      .cls-1 {
        fill: #040000;
        fill-rule: evenodd;
      }
    </style>
  </defs>
  <path class="cls-1" d="M310.25,0l-7.02,19.83c-.75,4.74-2.81,9.63-5.99,11.57-2.41-10.45-7.16-24.17-18.12-29.05-6.87,10.02,10.5,16.02,7.93,26.61-8.46,1.53-7.9-11.84-11.76-18.13-2.11-.52-3.3-4.85-6.15-2.38,2.85,6.93-3.76,6.28-8.19,7.9l-.03,4.02c15.32,16.3,3.21,36.69,5.01,55.06-11.93,12.39-22.2,28.75-40.32,33.31-22.38,20.17-36.6,45.44-58.94,65.57-12.53,22.1-19.81,21.24-39.18,38.07-48.02-8.43-62.37,21.22-55.33,39.1-22.33,23.61-55.69,79.85-61.7,108.7-6.32,30.12-18.4,98.32-2.85,136.14-3.23,28.55-5.07,39.49-4.47,67.48-2.13,28.28,4.37,67.87,16.79,87.65,1.5,34.33,11.18,68.49,22.61,102.22,14.13,18.77,12.54,40.98,18.88,61.7,17.92,7.64,6.53,28.9,20.37,39.04,10.31,18.71,12.02,21.3,22.15,29.87,2.32-1.14,3.37-4.05,5.29-6,7.32-6.96-.31-22.75-7.11-57.68l15.91-27.52c-9.43-27.89-17.57-56.01-24.14-83.96-2.66-14.21-12.42-27.88-13.75-42.36-10.06-17.37-8.05-35.89-9.54-54.59,13.92-30.79-13.38-62.49,4.51-90.6,22.43,18.64,42.36,64.87,61.09,76.56,55.22,35.54,84.8,87.91,130.85,131.11,7.97,1.97,13.31-2.3,19.5,6.26,14.08,12.99,26,25.27,35.78,19.99,8.77-11.56-18.12-38.62-20.75-51.47,8.8-4.88-4.26-9.09-4.16-15.33-6.01-5.45-7.74-15.15-15.9-13.52-19.71-29.41-42.14-56.91-65-84.33-48.25-29.39-63.61-81.46-96.94-120.99-4.98-33.7-3.58-49.77-28.69-76.17,3.27-21.74,14.17-29.67,33.42-44.36,26.8-31.16,56.99-3.46,88.38-1.64,21.21-6.08,42.56,3.73,62.79-9.3,6.04-12.03,24.68-9.3,28.27-22.33,26.78-14.18,48.74-36.26,73.3-54.49,1.8-3.66,8.77-6.46,5.84-11.2-9.1-5.28-16.18,11.38-27.57,15.8-1.99-10.39,5.19-30.51-.93-31.66-8.11.28-7.91,10.62-14.97,13.88l-3.58-7.57c-7.91-.57-.63,10.18-7.49,12.53-3.49-2.17.94-5.63-1.2-7.92-5.33,1.43-5.87,9.37-8.8,14.06,4.45,18.56-12.79,26.9-21.05,38.84-5.12-4.84-10.69-.35-15.98-.71-27.76-9.44-55.12,9.11-83.33-4.03-16.14,7.32-22.26-12.08-36.09-14.1-6.27-3.78,1.22-6.93.52-11.56,14.85-5.82,33.7-5.75,48.57,3.22,6.66-3.3,14.92-4.05,21-7.03,4.59-7.87,15.43-2.55,18.96-11.6,7.58-5.31,3.86-19.71,10.83-26.06.1-9.84,2.24-22.31-7.2-27.78,8.77-12.25-10.78-9.34-13.05-18.38-4.89-.32-11.34,3.99-14.52-1.3,13.5-20.53,30.41-38.4,38.96-62.8,5.48-5.86,12.93-12.6,12.45-21.64,25.77-19.36,27.41-53.99,34.99-85.36-1.5-3.01,1.5-8.15-3.13-9.25Z"/>
</svg>