<?xml version="1.0" encoding="UTF-8"?>
<svg id="_レイヤー_1" data-name="レイヤー 1" xmlns="http://www.w3.org/2000/svg" viewBox="0 0 669.68 846.94">
  <defs>
    <style>
      .cls-1 {
        fill: #221f20;
      }
    </style>
  </defs>
  <path class="cls-1" d="M669.68,711.64v-13.1s-222.57-58.92-281.5-256.96h-94.91s36.15,81.41,36.18,176.24l-38.63-7.66,78.55,91.65,78.57-91.65-37.03,7.32c-.54-22.77-2.67-71.55-11.26-97.35,0,0,54,85.12,144.02,132.58,0,0-51.22-10.72-112-12.57l-63.14,72.47-53.05-60.27c-9.48,2.91-18.55,6.39-26.89,10.62,9.82-165.57-121.19-331.12-39.6-496.7l65.59,41.18L263.34,0,89.47,124.14l71.5,10.67c-112.68,222.07,197.22,444.14,77.19,666.21-4.59,7.83-9.53,14.98-14.73,20.82l16.92,25.1s187.13-136.93,429.34-135.3h0ZM93.38,402.94l44.49,4.53-79.62-94.29,7.46,70.98-7.46-70.98L0,421.96l39.77-12.77c-1.53,146.66,224.49,180.82,209.93,333.95,31.36-154.67-156.13-201.14-156.32-340.2h0Z"/>
</svg>