<?xml version="1.0" encoding="UTF-8"?>
<svg id="_レイヤー_1" data-name="レイヤー 1" xmlns="http://www.w3.org/2000/svg" viewBox="0 0 511.8 861.22">
  <defs>
    <style>
      .cls-1 {
        fill-rule: evenodd;
      }
    </style>
  </defs>
  <path class="cls-1" d="M443.88,28.8c.46-2.04,1.65-1.33,3.37-2.1.88-.37,1.81-1.57,2.61-2.06,2.54-1.55,5.17-2.11,9.33-2.08.93,2.8,3.9,4.94,5.48,7.27.8,1.26,1.03,2.61,1.79,3.9,2.53,4.12,5.02,8.61,7.55,12.71.77,1.29,1.91,3.11,2.33,4.41v2.87c.72,2.1,2.48,4.59,3.61,6.49,2.4,3.92,3.59,8.26,5.99,12.19,5.93,9.77,12.24,19.6,16.88,30.61.85,3.64,1.72,7.27,2.58,10.92,1.26,4.14,2.45,8.82,3.64,12.99.42,2.58.84,5.18,1.29,7.77.66,2.45,1.9,5.93,1.31,8.6-.67,2.93.37,6.79-1.05,9.04-.86,2.44-2.94,2.31-5.44,3.1-3.34,1.1-7.95,3.37-12.73,1.56-1.63-.57-6.98-3.98-7.79-5.17-.34-1.02-.68-2.07-1.03-3.12-.76-1.78-2.01-3.55-2.84-5.18-.56-1.03-.66-2.16-1.32-3.12-1.95-2.89-6.04-3.33-9.08-5.19-2.74-1.66-4.84-3.82-7.27-5.42v.25c1.19,1.22,1.61,2.97,2.6,4.43.86.75,1.75,1.54,2.59,2.31v1.55c.23.37.23.64.26,1.31-4.56,1.76-8.86,3.89-12.99,5.72-1.05.44-1.96.39-2.84,1.05-1.06.7-1.34,2.68-2.34,3.36-2.24.78-4.5,1.56-6.74,2.34-.47.29-.47.87-.82,1.3-1.85,2.46-4.28,4.47-6.19,7.01-2.97,3.89-8,8.44-11.96,11.41-2.46,1.87-4.27,4.89-6.74,6.78-14.49,10.9-29.53,21.42-44.37,31.9-8.05,5.67-16.06,11.43-24.15,16.89-2.28,1.51-8.74,5.39-9.61,7.78,6.75,4.37,7.52,11.25,7.52,22.28v8.59c-.61,2.76.44,6.79-.26,9.86-1.51,6.67-1.36,14.19-2.85,21.07-.15,4.2-.34,8.45-.52,12.69-1.99,7.93-4.64,14.47-7.52,21.27,2.6.46,5.48,1.34,5.95,3.9,2.14,3.17-1.6,6.33-1.28,9.85.2,2.16,1.37,5.56.77,8.06-.19.86-.84,2.22-1.03,3.11-.21.87.18,2.14.26,2.61.55,2.58.33,7.09-.26,9.34-.61,2.27-2.29,3.46-2.83,5.95-.67,2.77-1.01,10.39.26,12.22v-.52c.99-.82.65-2.43,1.56-3.38.33-.08.67-.17,1.01-.26.55-.36,1.03-1.21,1.54-1.56,1.03-.67,2.38-.62,3.4-1.3,1.05-.7,1.06-2.69,2.1-3.37.78-.56,1.68-.3,2.55-.78.56-.3,1.06-1.21,1.58-1.56,1.07-.69,2.31-.5,3.63-1.03,2.64-1.05,4.33-2.3,8.34-2.34v-2.58h.24c.57.76,1.05.57,1.28,1.81,1.02-.14,3.14-.71,3.9-1.29-.76-.76-1.51-1.97-1.81-3.12h.25c.88.96,2.33,2.14,3.63,2.6,1.8-1.28,5.21-.29,6.23-2.35-.46-.21-.95-.44-1.31-.77,2.76.05,5.63,2.66,7.8,1.05.22-.29.15-.26.26-.82-.62-.7-1.32-1.56-1.82-2.34h.53c1.17,1.59,2.84,2.66,5.71,2.62-.05-1.75-.46-2.43-.53-4.15h.28c.93,1.53,1.77,2.74,2.56,4.68,2.19-.06,5.35-.41,6.76.5.94.6.52,1.27,2.1,1.56.68-1.03,1.85-1.64,3.35-1.82.04,1.05-.02,2.16-.23,2.85h.23c.63-.93,2.27-2.48,3.36-2.85v2.6c3.6-.02,5.72-1.26,9.64-1.31v.27h-.24c-1.53.97-3.17,1.07-3.37,3.37h-.29v.27h.29c.68-.74,1.49-1.19,2.83-1.3.24.28,0,.03.25.25,0,.96-.11,2.3.29,2.83v-.24c.76-.79,1.12-1.93,2.04-2.59-.04.84-.06,1.85.26,2.35.34-.49.84-.98,1.31-1.3v.77c-.52.77-.53,2.39-.53,3.61h.28c.67-1.08,1.79-2.63,2.84-3.37,0,2.37.61,3.26,1.03,4.94h.53c-.03-1.03-.15-1.43.52-1.82.26.45.32.43.51,1.01.82,1.28.71,3.87,1.32,5.22h.24v-.25c2.15-1.44,3.4-4.9,6.24-5.44v1.01h.27v-.54c.95-.63,1.4-1.63,2.6-2.06v1.29c-.3.38-.25.89-.52,1.31-.78,1.17-2.15,1.51-2.85,2.86h.77c.75-.54,1.87-.74,3.1-.77v.26c-.78.55-.8.99-.78,2.33.44.14.82.23,1.56.27.61-.42,1.98-.48,2.84-.52v.76c.62-.08,1.22-.18,1.82-.24v.51c-.73,1.18.79,1.56,0,1.8-2.11,2.76-6.7,1.39-7.76,5.47h.76c.36-.3.76-.38,1.32-.54,0,1.34.06,2.66.25,3.67h.26v-.29c1.43-.98,1.89-2.87,3.37-3.89v2.87c-.65.84-.97,2.22-1.03,3.61,2.02-.11,2.41-1.24,3.87-1.78v.25c-1.16,1.02-3.65,2.57-3.87,4.39.23.28.1.11.25.54.45.16.81.24,1.56.26-.04,2.17-.37,2.77-.26,4.7,1.11-.1,2.25-.21,3.39-.29v.52c-1.08.65-2.7,1.81-2.86,3.36,1.03-.1,2.04-.16,3.11-.24-.09.53-.16,1.03-.25,1.55-1.47.77-2.92.99-2.86,3.38,1.68.17,3.91.25,5.97.23v.3c-.76.65-1.35,1.38-1.84,2.31,1.06-.02,2.75-.17,3.37.27-1.63.24-3.29.5-4.91.78v.24c1.3.12,2.18.48,2.33,1.85-.37.22-.77.46-1.05.76,1.19.08,1.84.2,2.1,1.3-.9.5-2.01.95-2.61,1.81.98.13,1.11.37,2.08.55-.09.5-.06.45-.27.75-.55.55-1.41.82-2.31,1.03.25.23.06.11.5.27.42.38.53.38,1.29.52v1.04c-1.19.52-2.41,1.05-3.63,1.55.09.18.21.33.27.53.98.38,1.79.82,2.58,1.27v.54c-.76.24-1.58.52-2.32.77.24.22.07.09.49.29,1.12.75,2.73.51,3.13,2.03-1.18.41-2.41,1.27-3.62,1.84.31,1.53.28.8-.26,2.07.83.27,1.48.81,1.82,1.56h-.25c-.89.82-1.3.54-1.31,2.33.42.5.47.69.49,1.57-1.44.9-3.19,1.72-4.67,2.61.71,1.32.71,1.4.28,2.86,1.72.23,2.67,1.53,3.9,2.33-.15.47-.06.24-.26.53-.89.92-2.45.63-2.85,2.07.54.35.92.71,1.56,1.03-.17.44-.06.26-.27.51-.84.61-2.09.61-2.6,1.57,1.21.86,1.91,2.18,1.55,3.89-.52.19-1.19.25-2.06.25-.27-.19-.08-.08-.52-.25-.06.6-.14.62-.26,1.03-.92-.06-2.09-.1-2.59.24-.24.34-.26.68-.26,1.3-.78-.17-1.56-.34-2.36-.52v.52c-.21.3-.18.44-.25,1.04-1.98.02-3.23-.46-4.68-1.04v.29c1.05.93,2.04,2.21,2.09,4.12-3.39-.45-3.86-3.97-7.78-4.92v.28c2.18.72,1.22,5.11.78,6.99h-.27c-.56-.4-1.51-.71-2.08-1.04v.54c-.99,1.47-.72,4.08-1.82,5.43-.06-1.78-.69-2.92-1.81-3.63-.24-.27.02-.02-.28-.27v4.17c-.36.57-.36,1.76-.76,2.34v-.3c-.38-.55-.4-2.38-.54-3.08h-.5v.26c-1.81,1.85-3.35,3.88-4.7,6.21-.46-.24-.4-.32-1-.51-.71,2.09-2.53,3.38-3.13,5.72h-.27v-1.57c.69-.85.69-3.26.27-4.41-.28.24-.04-.03-.27.26-.94.99-2.22,3.3-2.59,4.68h-.24c-.17-.78-.36-1.57-.54-2.33-.44.16-.25.04-.5.23-.21.33-.32,1.28-.52,1.57-.03-1.19-.13-1.57-.81-2.08-.21-.28.06-.02-.25-.25,0,1.75-.45,2.28-.75,3.62h-.53v-.25c-1.17-.47-.89-1.44-1.57-2.35-.13,1.16-.56,1.83-1.02,2.6h-.27c-.25-1.47-.54-2.52-2.37-2.6-1.04.98-1.25.21-2.06.54-.42.17-.36.77-1.06,1.02-.21-2.24-1.57-2.23-4.12-2.05-.8.45-1.26-.3-2.09,0-.73.23-.49.88-1.82,1.03-.65-1.01-1.32-1.62-1.55-3.14-3.27.18-6.62,1.17-9.36,1.83-2.18.09-4.33.19-6.45.28-4.77,1.22-9.23,2.81-13.55,4.4-2.3.87-11.44-.31-13.48-.5-.68,2.29-2.44,4.55-3.64,6.49-2.72,4.45-5.21,9.46-7.28,14.26-1.8,4.26-2.37,8.74-3.87,13.23-1.66,4.89-3.78,10.1-5.74,14.82-1.4,3.4-1.91,6.7-3.36,10.11-.92,2.17-2.45,4.53-3.63,6.48-1.28,2.12-1.82,4.43-3.13,6.5-1.08,1.72-3.39,3.3-4.14,5.17-.19,1.5-.34,2.96-.52,4.43-.91,3.63-1.24,7.6-2.61,10.64-3.67,8.4-7.67,17.22-11.93,25.43-2.13,4.14-5.44,4.99-5.44,11.16-.71,1.16-.26,4.31-.26,5.97v15.84c-.59,2.64.12,5.85-.52,8.82-.72,3.43-.51,7.65-.51,11.68,0,12.42,1.79,22.74,1.79,35.03,0,4.01,1.18,11.01.26,15.04-.55,2.6,0,5.87-.76,8.59-.82,2.95-2.02,6.38-2.87,9.33-1.19,4.21-1.5,8.54-2.6,12.46-.61,3.47-1.21,6.93-1.8,10.4-1.73,5.69-3.47,11.41-5.21,17.11-.84,6.41-1.71,12.81-2.59,19.22-3.15,12.31-4.82,26.35-4.92,41.25.8.53,3.47,3.17,3.89,3.91.49.84.25,3.15,1.03,3.63,4.62.36,9.18.7,13.78,1.04,3.99.88,9.04.8,14.03.8h5.67c6.51,1.53,13.85,2.03,20.26,3.62,1.46.16,2.93.34,4.41.53,2.31.65,4.88,1.58,7.28,2.34,1.46.43,4.01.33,4.66,1.52v2.35c-.28.38-.42,1.05-.52,1.55,2.13.12,3.87.85,5.7,1.32.39.65.76,1.01,1.06,1.8-1.56,2.16-.93,3.5-4.92,3.4-2.28,1.38-8.53-.49-10.15-.8-1.54-.3-3.68.76-4.96,1.05-1.29.28-2.9-.31-3.86-.52-2.62-.08-5.18-.17-7.79-.27v.27h.25c1.48,1.47,1.88,1.97,1.83,5.19-.91.89-1.3,2.05-2.08,3.1-.6.43-1.24.87-1.83,1.32-4.72.05-10.75-.04-14.54-1.32-1.88-.63-3.16-1.81-5.44-2.33-3.47.06-6.94.16-10.4.26-1.85-.43-4.35-.88-6.23-1.31-1.85-.39-6.58.43-8.31.78-2.95.63-11.22-1.13-13.48-1.79-1.33-.29-2.6-.54-3.91-.79-1.17-.63-2.2-2.15-3.36-2.85-5.93-3.73-7.94-1.77-7.8-11.94-3.05-3.34-2.67-8.42-3.89-13.77-.7-4.75-1.38-9.52-2.09-14.29-.4-1.91.1-4.61-.23-6.22-.1-4.15-.17-8.3-.25-12.46-.8-3.68,0-8.53-.8-12.19v-5.22c-.77-3.59.04-8.17-.77-11.89-1.01-4.75-1.34-13.32-.26-18.19.82-3.72-.24-7.77.52-11.16v-4.68c.07-2.85.35-5.77-.27-8.58-.28-1.18-.96-3.23-.53-4.94,2.81-11.37,3.68-26.24,6.5-37.63v-3.89c0-3.4-.09-6.78.54-9.6.62-2.87-2.46-10.77-3.13-13.5-.53-3.97-1.05-7.95-1.55-11.93-1.89-6.94-3.83-13.83-5.73-20.78-.17-3.02-.35-6.03-.53-9.07-.94-4.43-1.26-11.01-.23-15.58v-3.11c.82-3.41,2.31-7.21,3.11-10.64.43-1.94-1.1-3.09-.8-4.69.36-1.97,2.02-4.27,2.35-6.22.18-.99-2.31-6.3-2.87-7.54-2.27-5.25-6.39-6.03-11.65-8.29-5.87-2.53-11.91-4.92-17.92-7.52-8.2-3.58-16.53-6.98-24.93-10.67-6.43-2.77-12.98-6.34-19.48-9.08-3.1-1.27-6.26-1.51-9.31-2.84-2.62-1.14-4.47-3.95-6.79-5.46-2.19-1.45-5.4-2.65-7.77-3.62-1.05-.44-2.23-.23-3.11-.77-1.27-.84-1.95-2.73-3.39-3.38-2.64-1.22-4.35,1.29-7.27.52-.98-.28-1.99-1.01-3.11-1.33-.35-2.07-.99-2.48-3.63-2.31-.59-.37-1.81.1-2.59-.27-.87-.4-1.37-1.91-2.34-2.32-2.48-1.13-5.22-.77-7.81-1.84-1.38-.57-1.67-2.41-3.36-2.84-2.19-.57-3.34,1.66-5.44,1.03-.97-.27-5.87-3.42-6.49-4.15-.91-1.07-1.27-2.52-2.08-3.64-1.95-2.7-5.63-5.23-6.76-8.57-.08-1.11-.17-2.24-.26-3.36-1.02-4.37-.27-7.06-.25-12.45-5.12-3.39-10.09-8.37-13.76-13.24-1.65-1.56-3.31-3.13-4.96-4.69-1.54-3.02-3.11-6.07-4.64-9.07-6.36-.78-9.91-4.14-14.05-7.03-1.21-.86-3.05-1.36-3.88-2.59-.92-1.33-1.15-3.67-2.34-4.68-2.16-1.83-5.27-2.39-7.5-4.14-.47-.76-.88-1.56-1.3-2.35-1.09-1.61-2.61-3.24-3.65-4.92-.94-1.55-1.19-3.34-2.1-4.95-.87-1.61-2.39-3.1-3.36-4.63-.96-1.58-1.3-3.2-2.04-4.96-.7-1.52-2.08-3.29-2.62-4.92-.99-3.12-.27-7.9-1.02-11.16-3.03-13.27-2.47-30.24,2.31-41.52.52-1.17,1.57-2.48,2.07-3.64,2.63-5.95,5.52-10.6,8.83-15.57,1.44-2.2,2.83-5.32,5.46-6.24.36.42.16.25.52.25,2.93-1.43,5.26-4.07,7.77-5.98,5.25-3.83,10.11-8.17,15.35-11.92,6.49-4.67,14.32-7.95,21.28-12.2,1.68-1.03,3.59-1.46,5.19-2.58,7.27-5.06,14.27-11.14,21.81-15.85,2.19-1.37,4.53-2.04,6.72-3.38,8.04-4.89,16.3-8.7,25.44-12.71,4.31-1.87,8.8-4.64,13.5-5.97.43-3.06,2.47-5.8,4.68-7.01,3.05-1.68,7.19-.65,9.32-3.38,1.04-1.26,1.15-3.08,1.83-4.67,1.49-3.51,3.19-7.39,4.68-10.9.35-1.03.71-2.08,1.05-3.11.65-.88,2.21-1.15,2.83-2.08.26-.93.53-1.91.78-2.84.23-.42,3.42-3.33,3.91-3.65,1.14-.76,4.56-2.67,5.69-3.11,1.07-.42,1.84-.21,2.59-.79,1.17-1.28,1.37-3.22,2.1-4.93,1.69-3.96,3.24-8.29,5.42-11.93,5.53-9.07,10.99-17.41,17.16-25.7,1.69-2.32,4.24-4.22,5.95-6.5,4.87-6.45,11.5-13.31,17.92-18.17,3.04-2.31,5.48-5.74,8.57-8.03,4.23-3.21,7.71-6.96,11.4-10.67,1.79-1.77,3.93-3.42,5.43-5.44,6.96-9.26,14.52-18.1,22.59-26.22,1.86-1.83,6.79-7.59,9.61-7.79.89-.59,2.86-.75,4.15-.79.99-1.42,2.69-2.48,3.64-3.88,1.09-1.59,1.28-3.61,2.33-5.19.8-1.13,4.48-3.85,5.74-4.66,2.77-1.88,5.66,1.12,5.67-4.18.43-.65.38-1.71.81-2.31,1.18-1.79,3.4-3.05,4.12-5.19-3.06-3.8-.71-10.4,1.06-13.79,1.09-2.09,3.16-4.48,3.91-6.74v-3.09c.35-.93,1.53-2.02,2.09-2.86,2.26-3.74,3.91-7.47,6.2-11.16.82-1.34,2.33-2.9,2.85-4.41v-2.09c.34-.73,1.43-1.36,1.82-2.1,1.24-2.17,3.37-8.2,5.48-9.04h3.62c3.07,1.98,8.48,1.94,11.67,3.88,9.87,5.98,20.76,10.81,30.64,16.87,2.95,1.78,6.13,2.63,9.1,4.4,6.88,4.18,14.15,7.72,21.03,11.95,2.61,1.6,6.61,5.11,9.58,5.95.68-.26,1-1.22,1.58-1.57,1.81-1.01,4.22-.48,5.94-1.55.52-.85,1.05-1.73,1.56-2.59,3.15-2.27,7.1-3.16,10.4-5.17,2.12-1.32,4.14-3.15,7.26-3.38ZM234.18,325.47c-.94-.13-1.07-.31-1.83-.52-1.01,1.4-2.76,2.31-4.16,3.36-3.97,2.97-7.58,6.78-11.67,9.61-1.97,1.38-4.32,2.01-6.24,3.38-.87,1.04-1.73,2.07-2.6,3.11-1.79,1.35-3.91,2.05-5.71,3.38-.77.59-.8,2.04-1.57,2.6-.83.61-3.61,1.42-4.12,2.08-.1.52-.19,1.05-.28,1.57-1.94,3.2-3.52,5.95-8.82,5.96v2.05c-1.04.67-2.18,1.86-2.86,2.87.93.07,1.7.37,2.35.53h6.24c1.26.41,2.25,2.1,4.4,1.56,1.72-.44,2.22-1.68,4.43-1.8.46.33,1.23.15,1.8.5.88.95,1.73,1.9,2.59,2.83,2.42.54,4.84,1.06,7.28,1.56,1.09.34,3.58,1.66,4.91,1.32.27-.06.6-.67.78-.77,1.42-.81,4.5-1.62,7.02-1.05,3.16.71,4.71,2.81,7.25,3.62h9.36c1.26.27,6.72,1.2,8.05.8,1.34-.44,2.23-2.36,3.35-2.86h9.37c1.24-2.5,3.52-2.64,5.42-4.41,1.13-1.03.75-2.48,2.62-2.86.43.31,1.26.3,2.07.27.61-1.49,1.22-2.93,1.82-4.41.44-.35.89-.69,1.29-1.06.08-.61.18-1.2.26-1.79,1.3-2.73,4.35-4.84,5.74-7.54,1.42-2.86.25-7.5,1.53-10.66.52-1.24,2.33-2.1,2.84-3.35.72-1.7.2-4.45.79-6.23,2.25-6.92,3.88-14.77,5.96-22.06,1.02-3.58,1.08-6.83,2.09-10.38.7-2.48,1.03-5.79,2.06-8.32,2.51-6.01,5.99-11.39,7.02-19.2-2.18-1.34-5.31-3.65-6.77-5.73h-.26v.28c-2.02,1.55-3.63,4.17-5.18,6.22-1.84,2.42-4.84,3.86-7.25,5.71-1.21,1.44-2.44,2.95-3.65,4.4-1.14.66-3.73,1.88-5.7,1.32-.46-.13-1.38-.91-1.84-1.07-2.33-.69-4.34.75-5.7,1.31-.19,1.68-.26,3.92-.26,5.98-.5.39-.79,1.26-1.29,1.57-.95.16-1.91.35-2.87.5-1.37.48-2.85,1.21-4.41,1.57-.63,5.15-4.22,3.26-6.22,5.74-1.38,1.66-.88,3.84-1.81,5.66-.55.43-1.04.9-1.56,1.32-2.59,3.45-6.4,5.44-8.83,9.06-.74,1.14-1.84,2.61-2.33,3.67v1.28c-.8.59-1.56,1.2-2.34,1.83-.21.3-.41.36,0,.5.82.81,2.39,1.49,3.63,1.83v.25h-1.03c-1.47-.42-2.94-.83-4.43-1.28v1.03c.29.37.43.99.53,1.54h-.27c-.44-.34-.4-.42-.77-.25-.3.44-.3,1.28-.24,2.08ZM240.39,322.34h.52v.28c-.46-.16-.26-.06-.52-.28ZM389.39,365.2c-.14.38-.23.61-.29,1.27h.29v-.26c.31-.3.54-.67.77-1.01h-.77ZM410.13,368.54c-2.15,1.29-3.51-.21-5.19,2.37h.28c1.24-1.02,3.72-1.68,5.43-2.09v-.29h-.52ZM430.65,377.63c-.08.19-.15.35-.26.53.45-.36.26-.53.26-.53ZM429.86,378.68c-.59.87-1.76,1.75-2.83,2.09.26.19.04.08.49.25v.27c.48-.18.25-.06.51-.27.74-.55,1.59-1.58,2.1-2.33h-.27ZM431.41,380.77c-1.14,1.04-2.49,1.5-3.38,2.83h.28c1.07-.98,2.81-1.69,4.15-2.31v-.52h-1.05ZM435.84,383.6c-.7.51-2.04.83-2.87,1.04v.29h.55c.83-.64,2.28-.65,3.11-1.33h-.79ZM436.9,392.71c-.41,1.4-1.19,2.22-1.56,3.62h.76c.29-1.13,1.25-2.73.8-3.62ZM436.09,400.23c.39.26,1.27.41,1.8.5v-.5h-1.8ZM443.38,413.46v-.78c-1.18-.04-3.18-.24-3.92.26,1.3.2,2.61.36,3.92.53ZM442.07,416.04c.44.29.58.29,1.04,0h-1.04ZM444.93,419.44v-.81c-1.12,0-2.98-.17-3.65.3,1.22.16,2.43.31,3.65.51ZM443.11,423.08v-.8h-.55c-.55-.42-1.34-.5-2.31-.53v.27h.51c.59.58,1.31.91,2.35,1.06ZM438.17,429.28v.53c1.15,1.13,1.95,2.52,3.37,3.37-.66-1.29-2.17-3.08-3.37-3.9ZM435.59,431.37v.51c1.83,1.26,2.53,3.02,5.17,3.65v-.27c-1.73-1.31-3.45-2.6-5.17-3.9ZM436.09,433.43c-.09.27-.18.53-.26.8,1.11.25,2.03.79,2.86,1.31-.53-.83-1.59-1.74-2.6-2.1ZM432.22,435.27c1.21,1.72,3.98,3.46,5.95,4.41-1.03-1.49-4.11-3.88-5.95-4.41ZM431.41,436.3c.84,1.83,2.36,5.04,3.92,6.24-.74-1.67-2.32-5.48-3.92-6.24ZM441.03,437.08c-.11.35.38.37.52.51.21-.26-.44-.43-.52-.51ZM434.51,447.47c.93.99,2.31,2.63,3.66,3.1.25-.19.73-.36,1.03-.52.09-.15.17-.35.26-.53h-.26c-1.09-.91-2.94-1.9-4.69-2.05ZM435.59,451.62c.55.7,1.44,1.14,2.3,1.55v-.76c-.24-.24,0,.01-.24-.26-.97-.15-1.09-.4-2.06-.53ZM433.78,455c.83,1.37,2.96,3.63,4.4,3.63.1-.35.17-.7.27-1.06-1.77-.45-3.01-1.77-4.66-2.57ZM410.13,469.02c-1.36,2.02-2.31,3.64-2.31,7.29h.24c.17-1.47,2.42-6.89,2.07-7.29ZM410.65,469.02c.02.65.02.95.29,1.28-.06-.65-.06-.97-.29-1.28ZM405.73,477.05c-.19.58-.27,1.41-.27,2.34h.27c.07-1.06.29-1.79,0-2.34ZM401.33,477.33v2.84h.52c-.07-.71-.2-2.34-.52-2.84ZM394.84,478.09c-1.2.91-2.31,1.06-3.11,2.33h.24c.93-.84,2.54-1.42,3.63-2.07v-.26h-.75Z"/>
</svg>