<?xml version="1.0" encoding="UTF-8"?>
<svg id="_レイヤー_1" data-name="レイヤー 1" xmlns="http://www.w3.org/2000/svg" viewBox="0 0 628.16 838.22">
  <defs>
    <style>
      .cls-1 {
        fill: #231815;
      }
    </style>
  </defs>
  <path class="cls-1" d="M215.23,199.35s45.3-1.6,74.96,20.51c0,0,81.06,66.09,104.53,60.96,0,0,47.08-23.4,2.54-74.38,0,0-113.51-90.25-111.06-196.82,0,0-5.15-26.92-23.04,9.28,0,0-12.47,26.44-3.17,51.22,0,0-54.72-33.56-23.51,30.39,0,0-52.4-15.6-3.99,39.48,0,0-61.65-6.5-6.82,35.71,0,0-57.9,17.67-10.43,23.66Z"/>
  <path class="cls-1" d="M586.46,264.61c-8.71-33.78-35.4-38.29-35.4-38.29-38.85-7.82-129.34,57.97-129.34,57.97-50.78,33.14-78.46,4.77-78.46,4.77-80.5-76.82-123.72-76.3-123.72-76.3-104.13-1.13-167.69-50.15-167.69-50.15-86.96-40.43,13.4,47.9,13.4,47.9-68.45,3.96,42.12,49.64,42.12,49.64-86.53,22.87,21.97,42.62,21.97,42.62-83.09,21.08,29.19,38.03,29.19,38.03-64.21,39.18,29.44,31.79,29.44,31.79-64.05,51.29,19.77,33.3,19.77,33.3-45.33,55.55,29,24.2,29,24.2-51.63,48.37,26.96,26.99,26.96,26.99-43.54,58.99,19.42,32.62,19.42,32.62-27.84,13.49-43.4,69.36-43.4,69.36-3.53,50.54-216.48,115.08-216.48,115.08-55.68,28.7,6.09,45.57,6.09,45.57-40.22,46.86,28.11,35.98,28.11,35.98-18.69,54.88,34.3,32.78,34.3,32.78-2.74,57.1,43.49,20.23,43.49,20.23,14.92,59.31,46.48,10.83,46.48,10.83,73.17-97.74,102.66-173.86,102.66-173.86,17.03-49.66,46.06-50.72,46.06-50.72,175.93-38.49,189.88-197.07,189.88-197.07,12.81-110.14,107.83-118.24,107.83-118.24-12.18-6.76-41.7-15.05-41.7-15.05ZM557.5,272.58s-15.2.89-7.41-12.69c0,0,15.91.49,7.41,12.69Z"/>
</svg>