<?xml version="1.0" encoding="UTF-8"?>
<svg id="_レイヤー_1" data-name="レイヤー 1" xmlns="http://www.w3.org/2000/svg" viewBox="0 0 823.47 861.48">
  <defs>
    <style>
      .cls-1 {
        fill: #221f20;
      }
    </style>
  </defs>
  <path class="cls-1" d="M807.86,395.72l-22.78,11.7c-89.98,42.91-211.74,59.77-280.7-28.25-31.86-40.69-48.05-92.22-56.85-142.48-9.48-46.72-13.16-93.58-38.71-135.28C307.41-26.76,175.13,301.33,147.45,364.87l-7.9-139.28,53.42-3.62L81.84,0,.72,233.03l-.72,2.04,53.42-3.62c8.96,89.51,17.86,179.03,26.8,268.54l3.47,34.78,71.29,8.94s53.82-156.11,78.42-216.34c25.66-62.8,55.09-125,95.79-179.62,19.88-21.59,30.79-29.24,36.02-20.08,13.27,13.47,19.1,34.92,24.02,52.58,6,21.49,9.53,43.59,14.68,65.28,10.58,44.61,24.94,89.14,49.83,128,31.06,52.67,87.99,92.24,149.31,98.48,63.22,6.44,125.72-10.87,182.16-38.44-16.86,29.71-243.01,428.1-243.35,427.93l281.62-450.16-15.61-15.6Z"/>
</svg>