<?xml version="1.0" encoding="UTF-8"?>
<svg id="_レイヤー_1" data-name="レイヤー 1" xmlns="http://www.w3.org/2000/svg" viewBox="0 0 852.04 884.4">
  <defs>
    <style>
      .cls-1 {
        fill: #040000;
        fill-rule: evenodd;
      }
    </style>
  </defs>
  <path class="cls-1" d="M189.05,825.63s-4.85-.9-6.59-2.16c-1.73-1.29-3.73-2.01-5.39-2.4-1.64-.38-3.71-1.1-5-2.37-1.28-1.28-2.58-1.38-3.93-1.56-1.36-.16-3.66-1.1-4.66-1.8-1-.69-1.1-1.73-3.28-2.18-2.19-.45-4.56-1.02-5.77-2.39-1.16-1.38-1.16-1.17-3.18-1.82-1.99-.63-3.82-.71-5.01-2.12-1.2-1.38-2.37-1.59-3.56-2.03-1.2-.34-3.94-.8-4.85-1.98-.92-1.2-.99-1.2-1.92-1.55-.92-.36-5.02-.36-6.21-2.21-1.16-1.8-1.54-2.84-3.73-3.16-2.2-.38-5.47-.56-6.84-1.31-1.37-.71-8.75-5.71-9.76-5.71s-2.56-.24-4.02-.84c-1.46-.65-3.74-2.58-4.36-2.74-.67-.19-2.12-.34-3.85-1.26-1.73-.92-3.28-1.11-5.29-2.04-2.02-.9-22.02-10.01-29.85-14.69-5.16-3.08-15.33-8.94-24.85-15.67-4.96-3.47-10.77-7.89-14.68-11.15-11.38-9.6-16.95-14.45-19.33-17.52-2.37-3.11-3.55-5.78-3-7.59.52-1.83,7.08-10.95,12.21-11.88,5.12-.9,10.49-3.22,15.35-2.74,4.82.51,8.65,0,16.86,4.76,8.23,4.78,23.09,10.62,30.03,11.49,6.92.9,11.41-.6,18.34-.45,6.94.2,15.25.75,19.24,1.49,4.02.72,5.92.64,5.92.64,0,0-.7-2.13-2.18-4.39-1.45-2.28-5.74-9.22-6.46-14.18-.73-4.9-.83-7.63,3.1-9.57,3.92-1.88,18.8-8.76,21.17-10.68,2.37-1.91,8.3-6.56,10.41-7.23,2.1-.6,26.65-15.14,33.84-19.74,7.21-4.72,33.24-19.94,41.27-24.81,8.02-4.84,38.15-24.04,53.28-34.72,15.17-10.65,48.11-32.41,61.79-38.1,13.7-5.6,24.41-9.03,27.13-7.75,2.73,1.31,3.54,2.6,6.3,2.69,2.73.08,3.39-.86,6.19-2.96,2.85-2.07,12.94-9.06,22.93-13.6,9.93-4.43,23.91-11.1,28.19-12.79,4.29-1.61,5.38-1.88,5.38-1.88,0,0,8.05-11.13,11.41-14.96,3.38-3.85,8.41-11.49,12.33-14.68,3.93-3.22,6.47-5.9,6.77-7.05.27-1.22,1.37-7.05,1.81-9.69.46-2.64,1.35-4.48-.16-6.91-2.25-3.53-4.58-6.94-6.31-10.34-1.74-3.4-3.03-4.01-3.65-5.77-.66-1.73-1.28-4.27-.36-9,.9-4.76,2.84-5.5,1.91-8.68-.27-.99-.93-2.34-1.28-3.89-.86-3.44-1.53-7.65-2.1-9.63-.32-1.04-.99-2.87-1.47-4.97-.83-3.43-1.58-7.51-2.07-10.04-.83-4.1-4.21-13.21-4.21-13.21,0,0-5.94-15.49-8.3-21.3-2.4-5.84-7.4-17.83-11.04-23.36-3.66-5.57-5.12-5.84-10.24-8.65-2.63-1.46-13.26-6.88-23.09-11.48-9.34-4.46-17.89-8.19-17.89-8.19-.94-.45-8.41-3.71-16.56-7.75-8.2-4.01-17.08-8.74-20.68-10.49-7.21-3.54-10.95-5.21-17.9-8.05-2.18-.87-6.14-2.39-10.7-4.36-9.73-4.28-22.03-10.05-25.53-12.41-2.53-1.76-5.63-3.94-8.38-6.19-2.83-2.25-5.24-4.49-6.22-5.3-1.9-1.62-3.55-2.52-4.64-4.04-1.1-1.41-2.79-5.18-3-7.09-.28-1.92-2.4-7.68-2.4-8.47,0-.86-1.56-6.87-1.48-14.27.11-7.36.22-9.19.11-11.75-.11-2.57-.46-6.24-.46-7.23s-.55-5.89-.92-7.83c-.38-1.91-1.3-22.64-.65-24.93.65-2.31.47-2.67,1.75-3.21,1.24-.53,5.67-3.16,5.67-3.16,0,0,2.53-19.19,3.44-27.53.93-8.29,2.7-22.93,2.18-26.25-.62-4.22-2.35-7.89-4.25-10.68-1.94-2.84-3.11-6.4-3.5-8.92-.35-2.55-.35-3.95-1.79-6.7-1.48-2.73-2.85-8.55-2.76-11.12.08-2.58-.1-5.18,2.19-6.46,2.28-1.31,3.64-2.49,4.48-4.33.82-1.82,1.7-5.9,3.44-6.88,1.75-1.07,2.84-1.07,3.38-1.07s.98-.24,1.36-1.14c.39-.93.82-4.67-.27-7.68-1.09-3.03-4-8.74-5.29-12.33-1.25-3.55-6.38-17.23-7.38-19.71-1.03-2.46-4.22-10.31-4.31-12.29-.11-2.04,1.64-6.7,4.95-5.15,3.27,1.56,4.72,3.02,5.93,6.4,1.19,3.4,4.27,11.21,5.17,12.97.61,1.08,2.41,4.78,3.85,8.23.86,2.07,1.48,4.04,2.02,5.44,1.46,3.83,3.55,11.24,5.22,12.97,1.64,1.76,2.61,2.55,4.46,1.76q1.82-.87,1.9-2.84c.08-2,0-19.88-.16-23.27-.19-3.41-1.98-9.33-2.21-12.49-.16-3.22-1.37-8.61.56-10.34,1.9-1.73,4.47-1.62,5.86.1,1.37,1.73,3.19,6.26,3.91,9.45.74,3.21,3.31,17.59,3.57,23.57.28,6.02-.35,14.6.28,16.53.62,1.91,1.91,7.68,2.26,10.49.19,1.41,1.69,4.73,3.33,7.65,1.63,3,3.44,5.59,3.91,6.6.89,2,2.81,4.46,5.91,5.08,3.11.69,4.32.87,5.38-.03,1.09-.93,3.58-6.99,9.86-9.75,6.32-2.9,13.07-5.6,15.8-3.22,2.76,2.31,3.19,5.18,2.38,6.82-.83,1.65-3.28,3.56-5.41,4.76-2.07,1.22-3.88,3.46-5.3,4.19-1.35.72-4.18,2.07-4.91,2.48-.74.35-1.92.8-3.39,2.46-1.42,1.59-3.55,8.22-9.28,13.13-5.78,4.91-15.45,12.39-15.45,12.39l-.8,2.75s-2.18,9.32-2.58,12.85c-.35,3.56-1.16,15.62-1.16,18.07v5.12s6.2-1.08,7.38,4.43c1.21,5.6,1.21,10.05,1.21,10.53s.52,3.91.52,4.67c0,.72.12,10.47.12,11.24,0,.69.62,2.6.62,3.64,0,.98,1.01,3.53,1.09,4.18.12.63.47,3.77.77,4.48.25.69.25,3.24.98,4.73.71,1.46,1.29,1.62.94,2.39-.39.72-1.4.93-1.92.93-.57,0-.85.24-.85.24,0,0,1.28,2.93,1.28,4.76s.17,2.39.54,3.11c.35.71,2.73,3.42,2.29,5.54-.46,2.1-1.46,3.46-.65,4.31.81.81,3.28,2.67,4.58,3.74,1.26,1.08,5.58,5.36,6.17,6.09.65.77.81.77,2.84,1.22,2.01.42,9.38,3.74,10.96,4.28,1.53.56,5.18-.54,8.85.83,3.65,1.38,6.77,3.29,8.85,3.22,2.12-.11,8.66.34,10.88,1.35,2.16.98,2.36.56,4.37.15,2.02-.36,7.84-.24,8.56.09.74.39,1.99,2.22,2.64,3.4.66,1.17,1.37,1.31,1.94,1.31.51,0,1.37.18,1.72-.3.39-.45,1.8-1.73,2.74-1.53.94.18,1.75,1.08,2.29,1.4.55.44,5.84.3,8.77.93,2.92.65,6.18.4,9.3,1.2,3.12.84,2.95,1.08,4.09.77,1.2-.38,2.4-.84,3.28-.14.93.75,1.42,1.17,1.69,1.58.27.36,5.29,1.67,5.29,1.67,0,0,.91-.51,1.71.07.83.54,1.57,1.2,2.56,1.52l1.01.38s.45-2.37.89-2.73c.49-.38,5.13-.9,6.77-1.1,1.63-.21,2.1-2.01,5.72-.21,3.66,1.83,7.7,4.31,8.51,5.05.83.75.83,1.2,1.92.3,1.1-.93,4.86-1.31,4.86-1.31,0,0,2.63-5.56,3.55-5.84.91-.27,3-.45,3-.45,0,0,2.1-11.66,2.3-13.69.16-1.98.43-3.26.43-3.26l-.63-2.48s-.27-.5-1.11.09c-.71.5-2.13,1.35-3.12,1.22-1.3-.21-2.18-1.52-2.18-1.52,0,0-8.38.93-10.58-.96-2.18-1.95-3.06-4.33-3.44-4.96-.38-.65-1.82-.54-1.47-1.8.38-1.28,1.09-1.28-.08-1.76-1.17-.48-1.09-.96-.74-1.94.38-.86,1.4-1.1,0-1.52-1.37-.48-2.01-.83-2.01-.83l1.46-.84s-3.36-.44-3.83-.65c-.46-.15-.73-.53-.73-.53,0,0,3.58.08,3.9-.27.38-.38.38-.56.38-.56l-1.99-.48s1.01-.77,1.45-.96c.47-.21,1.37-.21.38-1.08-1.02-.96-2.13-2.1-2.13-2.1l.1.9s-.81-.9-1.28-1.8c-.44-.96-.81-1.67-.81-1.67,0,0-.27,1.25.08,2.12.38.8.56,1.8.56,1.8,0,0-.99-.9-2.74-4.57-1.76-3.61-2.29-4.64-2.46-3.85-.18.87,1.52,5.08,1.52,5.08l1.1,2.33s-2.89-3.08-3.83-5.65c-.32-.89-1.39-3.3-1.39-3.3l-.14-4.75s.17-3.43.44-4.7c.28-1.28-.71-2.13-.71-3.77s.64-4.81.64-5.87c0-.96-.46-3.95-.85-4.7-.33-.74-.44-2.66-.44-2.66l-.82,1.58s-.35-1.82,0-4.55c.39-2.76.55-3.82.55-3.82,0,0,.44-4.25.92-5.7.45-1.49,3.12-8.31,4.53-11.52,1.47-3.18,3.5-7.81,7.32-10.85,3.85-3,5.46-7.24,7.04-8.76,1.54-1.58,5.3-5.29,7.49-6.75,2.18-1.49,5.84-5.84,7.2-7.42,1.35-1.53,3.38-5.81,5.93-7.92,2.58-2.09,5.2-4.4,9.79-5.2,4.52-.8,7.35-.77,7.35-.77,0,0,3.01-3.8,5.14-4.07,2.07-.28,3.17-1.89,5.18-1.46,2.02.48,3.28,2.36,4.2,2.46.93.06.98-1.46,2.92-1.77,1.94-.21,3.19,1.11,3.19,1.11,0,0,4.02-.69,4.29,0,.29.72,1.28,2.36,1.28,2.36,0,0,1.52-.6,6.65-.69,5.13-.08,6.34.99,6.94,1.28.65.24,10.58,2.82,12.69,5.53,2.1,2.76,3.03,2.84,4.01,3.32,1.01.45,8.4,7.02,11.24,11.3,2.85,4.33,6.38,9.16,7.74,12.32,1.37,3.22,3.66,11.06,3.94,13.81.27,2.75,3,11.24,3,11.24l-2.18-3.88s-.35.2-.35,1.1.62,7.51.62,11.63-.11,9.09.11,9.94c.17.8-.3,2.88-.3,2.88,0,0-.83-3.91-1.13-1.74-.22,2.19-1.61,5.3-.78,7.09.78,1.67,1.91,2.63,1.91,2.63l-.83,1.25-1.08,1.04,1.01.32-1.2,1.11.55.93s.38.51-.99,1.28c-1.38.72-1.46,1.25-1.46,1.25,0,0-1.73,3,0,3.11,1.73.1,1.79,0,1.79,0,0,0-1.25,1.25-1.71,1.83-.44.53.2,1.83.84,2.13.64.22,1.64.22,1.64.22,0,0,.89,3,.81,3.38-.11.41-2.02,1.83-3.1,2.6-1.1.72-1.92,1.59-1.92,2.07,0,.45-1.09,4.63-2.01,4.84-.88.17-.88.08-.98.45-.11.35.43.83.43.83,0,0-.81.38-1.43.38-.66,0-1.56-.1-1.56-.1,0,0-.72,1.35-1.01,2.28-.28.9-.08,2.01-.08,2.01,0,0-.55,1.04-1.1,1.55-.56.53-2.48,2.09-2.68,2.64-.17.57.56.64.56.64,0,0-1.53.24-2.19.45-.62.17-.98.35-2.06.77-1.13.32-2.14.69-3.23.8-1.1.09-1.53.16-1.53.16,0,0-.49.66-.68,1.41-.2.74-.14,1.53-.14,1.53,0,0,4.64,2.76,5.45,3.98.82,1.2,1.09,2.21,2.3,1.73,1.2-.45,3.46-.8,5.1-.63,1.66.18,3.85-.52,5.21-.99,1.35-.47,7.01-1.11,9.19.22,2.22,1.25,9.15,6.08,10.51,6.69,1.37.65,6.67,1.1,10.31,2.13,3.66.95,6.56,2.63,13.05,2.63s8.68,1.04,10.5,1.83c1.81.83,1.93,1.74,3.2,1.67,1.26-.14,4.09.83,4.64,1.68.58.92.11.56,1.64,1.19,1.58.65,4.86,1.56,5.02,2.15.2.54.2,1.07-.16,2.52-.38,1.47-.46,2.37,1.64,3.56,2.07,1.2,6.48,3.83,7.59,5.77,1.09,1.94,7.63,6.08,9.2,8.92.53.93,1.5,2.07,2.1,3.29,1.2,2.34,2.35,4.73,5.14,5.84,4.19,1.62,5.57,1.62,9.92,7.23,4.4,5.53,8.22,11.93,9.66,12.82,1.48.92,1.76,1.22,2.03,1.56.1.17.1.59.82,1.01.92.56,2.9,1.2,5.36,1.83,4.31,1.1,10.52,2.36,13.9,4.28,3.38,1.94,5.73,3.77,6.93,4.19,1.21.51,4.1.86,7.1,2.37,3.02,1.56,5.24,4.4,6.87,5.65,1.64,1.34,7.48,4.76,9.94,7.26,2.48,2.45,4.12,4.57,5.84,6.27,1.74,1.76,4.76,3.38,5.58,4.28.81.93,2.57,2.57,2.57,2.57,0,0,9.5-1.53,10.47-1.49,1.03.1,1.32-.15,3.1,1.94,1.86,2.07,5.21,5.84,5.95,7.05.72,1.17-.22.9,1.19,1.56,1.39.65,9.03,5.56,10.67,6.36,1.63.86,6.22,2.1,6.66,2.69.49.53.38.53.85.69.44.23,1.17.23,2.27,1.02,1.08.81,2.37.16,3.53,1.2,1.21.99,1.48,1.2,1.48,1.2,0,0,6.66,3.68,8.22,4.78,1.56,1.14,3.03,1.91,3.18,2.39.2.45.28,1.35-.16,3.67-.46,2.28.08,3.35.08,3.35,0,0,1.92,1.67,2.91,2.21.99.56,1.65.56,2.66.9.97.39,5.48,2.84,6.3,3.67.83.83,1.91,1.83,2.82,2.21.89.34,5.93.5,6.24.45.24-.11,1.97-1.1,3.99-.11,2.02,1.02,4.39.36,5.01.42.66.14,2.46.77,1.82,2.31-.62,1.56-1.37,2.84-2.1,2.99-.71.2-3.39.83-3.92.93-.55.09-5.57,1.83-6.48,1.73-.89-.04-3.04,1.94-3.04,1.94,0,0-2.37.59-2.56,1.38-.16.8-.05,2.07.55,2.72.66.63,3.39,4.85,6.72,5.84,3.24,1.01,6.83.35,10.2,1.62,3.39,1.26,5.66,2.75,4.75,4.75-.92,2-4.04,4.22-9.14,3.83-5.11-.35-9.52-1.83-10.94-2.72-1.46-.95-2.4-1.97-3.76-2.15-1.38-.14-8.68-.53-14.79-4.99-6.09-4.46-6.45-4.63-6.45-4.63,0,0-2.76,7.84-3.11,9.57-.39,1.71-2.19,8.79-4.3,8.92-2.14.21-3.12-.33-3.39-1.34-.28-1.04-.37-1.94-.37-1.94,0,0-2.2.17-2.56-2.63-.35-2.87-.35-6.37.59-8.64.89-2.15.98-5.15,1.26-6.82.28-1.56.52-3,.52-3,0,0-2.45-.98-3.65-1.77-1.16-.83-3.16-2.24-4.18-2.24s-6.84.24-11.48.09c-4.67-.17-14.17-.69-18.72-1.37-4.55-.63-12.23-2.09-14.87-2.09-1.65,0-3.58-.2-5.29-.27-1.13,0-2.12.32-2.82,0-1.86-.72-4.84-2.31-7.05-3-2.18-.72-4.39-2.12-6.87-4.19-2.45-2.13-2.7-1.94-3.27-3.32-.54-1.34-.98-2.34-.98-2.34,0,0-12.88-9.19-14.18-10.04-1.26-.8-2.91-.35-6.08-2.34-3.2-2.04-20.07-10.07-24.11-11.9-4.01-1.83-12.42-5.95-20.06-10.13-7.68-4.22-7.5-4.85-9.33-5.23-1.82-.32-2.07-.62-2.07-.06s-.27,1.07.25,1.97c.56.9,2.48,5.14,2.4,6.14-.11.98-1.28,4.19-3.31,6.9-1.98,2.76-4.55,4.87-4.94,6.32-.35,1.49-.89,3.56.66,5.69,1.52,2.09,5.94,11.21,4.19,17.85-1.74,6.7-2.91,8.16-4.12,10.44-1.18,2.28-3,5.99-3,6.93s3.35,2.9,4.94,3.54c1.53.6,4.2,1.01,3,3.29-1.2,2.28-2.29,4.46-2.57,5.36-.27.93-1.01,1.25,1.01,2.92,2,1.62,1.68,1.2,1.09,3.34-.54,2.06-.35,2.43.12,2.7.47.28,3.64-.17,4.45.28.83.48,2.91,2.72,2.91,5.48s-.16,3.44-.62,3.85c-.23.14-.82,1.04-1.6,1.52-.75.53-1.68.6-1.68.6,0,0-.1,2.42,1.2,3.97,1.26,1.53,4.89,6.11,5.73,9.75.82,3.66,4.31,12.77,4.81,16.74.53,3.91,5.24,21.24,6.21,24.81,1.01,3.56,2.19,12.68,2.58,16.93.35,4.3,1.17,10.07,1.1,12.08-.11,2.03-.74,6.49-.38,8.4.38,1.91,1.65,9.22,1.73,13.87.12,4.64.99,8.77-2.02,14.08-3,5.26-8.1,12.38-12.2,15.7-4.12,3.29-8.95,7.18-12.96,8.37-2.1.64-3.44,1.2-4.25,2.04-.77.8-1.04,1.73-1.14,2.16-.2.92-1.37,5.99-2.36,7.3-1.03,1.29-4.23,2.81-5.05,3.22-.8.34-3.54,3.91-4,4.81-.17.39-1.04,1.94-2.52,3.82-2.01,2.51-4.93,5.66-6.87,7.47-1.71,1.65-4.19,4.07-6.32,5.69-2.06,1.59-3.77,2.31-4.17,2.66-.8.63-.92.74-.92.74,0,0-.27,5.11-1.01,6.64-.72,1.56-2.2,3.19-3.07,4.15-.93.86-2.57,2.9-2.57,2.9,0,0-4.04,4.54-5.67,6.37-1.65,1.83-2.18,3.11-2.18,3.11,0,0-7.22,17.25-8.2,21.06-1.04,3.88-.65,3.88-1.04,4.84-.36,1.04-4.91,10.68-6.02,13.7-1.08,3.03-2.28,9.44-5.54,14.17-3.28,4.73-3.22,5.92-3.38,6.34-.2.51.1.93.55.93.42,0,4.91.38,4.35,2.28-.54,1.92-2.06,2.48-2.33,3.56-.28,1.1-1.05,4.69-1.05,4.69,0,0,2.4-1.37,3.3.56.91,1.88,1.01,3.71,1.01,3.71,0,0,13.15-8.65,15.15-8.96,1.99-.26,3.61-.56,5.38.65,1.73,1.17,5.95,1.38,8.83,1.94,2.92.56,3.49,1.28,4.69,1.83,1.18.5,10.38-2.39,11.5-2.48,1.05-.12,2.37.51,5.18,1.44,2.85.9,20.67,1.31,21.55,1.53.9.33,26.72,3.3,33.3,5.29,6.58,2.04,11.22,6.3,12.5,7.5,1.29,1.2,2.67,2.01,5.02.74,2.38-1.26,30.21-14.57,39.05-15.7,8.88-1.08,26.68-4.16,29.04-2.92,2.37,1.28,3.77,3.95,3.93,4.28.16.39,3.94,9.08,3.75,9.56-.2.59-1.1,1.44-1.1,1.44,0,0-.08,4.99.1,7.12.18,2.04,10.49-5.88,15.87-3.32,5.38,2.54,12.52,11.39,13.7,13.87,1.18,2.46-.27,2.25,1.18,3.12,1.47.8,2.83-.1,3.57,3.22.71,3.25,2.06,1.8,2.92,5.15.85,3.41,2.27,2.84,2.64,4.6.39,1.7.93,3.64,2.02,4.6,1.1,1.07,1.8,1.49,1.97,2.84.22,1.41,1.04,4.22,1.47,4.6.5.32,1.74,1.25,2.02,2.74.27,1.41,2.53,2.52,2.92,3.8.36,1.28.91,3.4,1.82,4.31.94.92,2.11,1.64,3,4.48.94,2.82,2.62,4.39,3.47,4.76.84.35.9,1.25,1.94,3.08.99,1.83,2.89,3.53,3.55,3.83.65.26,2.34,1.77,2.62,2.54.3.8,11.52,11.27,14.72,14.35,3.18,3.14,14.17,18.7,15.68,21.71,1.58,3,7.05,13.76,7.87,20.93.83,7.09.19,13.28-.83,15.83-.98,2.58-1.72,3.5-2.73,4.12-1.01.62-8.02,4.09-8.95,4.42-.93.26-1.2.26-1.2.26,0,0-5.08,2.82-15.11-3.53-10.04-6.44-12.45-10.35-16.09-14.26-3.64-3.94-7.32-7.66-9.85-10.34-2.56-2.63-6.82-5.35-8.02-7.09-1.21-1.76-3.91-3.56-5.56-5.59-1.63-1.98-2.57-2.28-3.76-2.84-1.21-.53-1.21-.8-2.45-2.45-1.31-1.67-.94-1.74-2.14-2.28-1.14-.53-.82,1.04-2.7.27-1.94-.74-3.38-1.56-3.96-2-.55-.42.93-.26-1.91-.1-2.81.16-6-.9-10.03-3.82-4-2.93-8.03-4.28-9.21-6.78-1.17-2.48-.74-3-.74-3,0,0,2.19,1.22,1.28-1.04-.91-2.31-3.85-2.15-5.22-4.88-1.36-2.72-3.65-2.93-4.35-3.08-.74-.21-1.21-.41-1.21-.9,0-.57.11-.78-.28-.93-.38-.2-3-.11-4.36-.9-1.36-.86-2.18-.86-3.27-.86s-6.58.53-13-1.25c-6.39-1.89-13.58-1.04-21.89-1.2-8.3-.15-14.36,1.2-31.3-2.76-17.01-3.91-20.18-5.06-26.2-4.91-6.04.17-24.84.17-28.03.45-3.17.27-14.8,3.86-20.06,4.46-5.31.64-18.53,1.38-26.55.78-8.03-.69-36.52-3.38-43.65-4.52-7.1-1.08-13.1-.21-17.59-1.65-4.5-1.35-18.99-5.27-25.22-9-6.19-3.73-7.47-7.39-9.27-8.2-1.86-.86-3.85-2.13-6.32-8.47-2.47-6.42-3.73-14.27-4-19.11-.28-4.81-1.32-8.05-1.32-9.31s-.82-8.02-1.37-14.44c-.53-6.34-1.09-18.22-.98-22.7.05-4.46,1.83-26.58,3.55-36.24,1.74-9.68,7.74-37,8.77-41.21,1.01-4.25,2.56-13.18,3.56-17.71.99-4.57,1.82-9.6,1.82-9.6,0,0-5.62.72-6.75,1.07-.52.2-6.62,3.64-12.86,6.74-6.65,3.43-13.43,6.54-13.43,6.54,0,0-4.03,1.44-4.58,3.08-.53,1.68-.97,2.4-.89,3.67.08,1.26-.27,3.17-1.1,4.21-.82.95-2.1,2.43-4.4,3.53-2.26,1.08-2.1.75-2.53,1.25-.47.59-4.13,6.43-5.6,7.33-1.42.9-5.18,3.29-5.34,3.94-.23.6-.47,1.46-1.32,1.88-.82.48-7.65,6.97-8.19,7.71-.54.75-3.74,3.67-4.76,4.63-1,1.04-1.31,1.91-3.1,2.84-1.8.93-4.63,2.46-4.86,2.81-.16.41-5.57,7.32-8.57,8.88-3,1.56-6.11,5.29-6.11,5.29,0,0-2.84,2.21-3.94,2.39-1.1.17-11.41,8.37-13.04,9.93-1.64,1.59-3.08,3.76-4.37,4.12-1.28.41-1.47.41-2.02.72-.27.16-6.69,5.36-13.24,10.2-6.95,5.12-14.87,10.82-14.87,10.82,0,0-32.04,22.42-35.31,24.35-3.27,1.92-22.65,15.34-25.74,17.53-3.1,2.18-3.28,1.68-3.38,2.63-.08.89.47,6.84-.62,11.67-1.09,4.85-2.37,9.87-7.03,13.88-4.65,4.01-7.21,6.08-8.41,7.84-1.19,1.73-2.62,2.84-4.56,3.94-1.92,1.08-3.91.93-4.65,2.88-.72,2.03-1.74,3.35-2.47,4.15-.71.69-.71.96-.98,1.89-.27.93-1.01,2.52-2.73,2.81-1.74.41-2.19,0-3.03,1.47-.8,1.49-3.3,4.67-5.22,6.13-1.91,1.46-2.18,1.8-2.18,1.8,0,0-2.36,10.2-2.64,10.95-.28.74-1.92,2.43-2.82,2.74-.93.27-2.4,0-3.22,0s-1.16,0-1.6-.17c-.46-.21-1.78.27-1.78.27l-.55-.8h-1.72l-.62-.65-1.92.34-.54-1.05-2.13.04-.55-.74-1.8-.09-1.28-1.01-2.29-.26-.91-.8-2.37-.48Z"/>
</svg>