<?xml version="1.0" encoding="UTF-8"?>
<svg id="_レイヤー_1" data-name="レイヤー 1" xmlns="http://www.w3.org/2000/svg" viewBox="0 0 598.59 815.34">
  <defs>
    <style>
      .cls-1 {
        fill: #231815;
        fill-rule: evenodd;
        stroke: #231815;
        stroke-width: .28px;
      }
    </style>
  </defs>
  <path class="cls-1" d="M299.11,814.85v-.19l-95.68-98.9,24.74-24.38c13.98-2.12,22.59-8,22.43-18.64l-.1-261.57h0c-12.75-5.97-24.19-14.58-34.57-25.32l-.16-.23-3.18-3.5-7.59-7.94-3.89-5.26-2.77-3.15-1.99-3.34-4.08-5.53-4.91-9.19-45.15.16c-10.61-.16-16.52,8.46-18.64,22.43l-24.39,24.74L.3,299.35h-.16v-.04H.14l.07-.06-.07-.07H.14v-.04h.16l98.89-95.68,24.39,24.74c2.12,13.98,8.03,22.59,18.64,22.43l45.15.16,4.91-9.19,4.08-5.53,1.99-3.34,2.77-3.15,3.89-5.24,7.59-7.97,3.18-3.5.16-.23c10.38-10.73,21.82-19.31,34.57-25.31h0l.1-44.69c.16-10.6-8.46-16.52-22.43-18.63l-24.74-24.39L299.11.73v-.2l.1.1.06-.07v-.04.04l.03-.04v.04l.07.07.06-.1v.2l95.73,98.89-24.75,24.39c-13.98,2.12-22.62,8.03-22.43,18.63l.09,44.69h0c12.76,6.01,24.2,14.59,34.58,25.31l.15.23,3.18,3.5,7.59,7.97,3.86,5.24,2.79,3.15,2,3.34,4.07,5.53,4.92,9.19,45.14-.16c10.6.16,16.52-8.46,18.63-22.43l24.39-24.74,98.9,95.68h.16v.04h0l-.07.07.07.06h0v.04h-.16l-98.9,95.68-24.39-24.74c-2.12-13.98-8.03-22.59-18.63-22.43l-45.14-.16-4.92,9.19-4.07,5.53-2,3.34-2.79,3.15-3.86,5.26-7.59,7.94-3.18,3.5-.15.23c-10.38,10.73-21.82,19.34-34.58,25.32h0l-.09,261.57c-.19,10.64,8.46,16.52,22.43,18.64l24.75,24.38-95.73,98.9v.19l-.06-.09-.07.07v.03h-.03v-.03l-.06-.07-.1.09Z"/>
</svg>