<?xml version="1.0" encoding="UTF-8"?>
<svg id="_レイヤー_1" data-name="レイヤー 1" xmlns="http://www.w3.org/2000/svg" viewBox="0 0 729.29 869.81">
  <defs>
    <style>
      .cls-1 {
        fill: #040000;
        fill-rule: evenodd;
      }
    </style>
  </defs>
  <path class="cls-1" d="M152.09,476.7c.34-2.3-.42-16.95-.47-22.86-.13-5.92-2.28-18.81.34-29.65,2.53-10.85,3.44-11.58,3.6-17.44.04-5.72.79-17.44,2.04-22.83,1.27-5.44,1.88-6.91,1.72-10.11-.13-3.17,0-12.19-.13-16.39-.11-4.14-2.32-14.74-3.94-18.58-1.57-3.84-4.41-5.41-5.17-12.34-.74-6.89-1.9-13.98-.34-22.39,1.61-8.36,3.33-15.48,8.63-22.14,5.28-6.66,6.35-6.78,7.6-9.97,1.25-3.24,1.88-7.15,5.52-8.52,3.74-1.34,5.81-1.57,9.28-6.17,3.44-4.5,5.64-7.87,5.93-9.44.2-1.59-.63-8.03.69-8.83,1.37-.89,2.95-1.54,3.44-5.43.52-3.98.65-4.11,1.39-4.81.76-.79.63-1.94.33-2.88-1.92-9.84,3.47-31.49,29.21-41.22,2.71-.34,5.77-.87,7.89-.99,2.08-.13,3.44-.47,6.17-1.5,2.68-.92,5.86-1.21,7.6-1.79,1.72-.63,4.05-.47,5.91-1.37,1.9-.83,3.62-2.33,5.66-2.95,2.08-.63,3.31-.14,4.3-2.35,1.01-2.21.89-2.44.49-7.02-.36-4.58-.09-13.75-2.24-14-2.06-.29-6.77,1.43-11.4.96-4.68-.49-6.55-1.95-4.05-4.29,2.42-2.33,5.79-5.53,2.68-6.29-3.09-.74-8.01-.74-11.03-1.61-3.13-.87-3.74-4.83-5.35-4.83s-7.05-1.43-7.87-5.88c-.76-4.41-.58-8.95,1-12.44.51-2.3.9-3.8-1.27-6.24-2.04-2.46-4.25-7.71-2.68-5.82,1.55,1.86,5.05,8.95,5.82,7.87.72-1.05,2.06-4.29,1.68-7.96s-1.97-15.9,1.45-24.91c3.47-8.97,5.33-11.18,4.09-7.74-1.25,3.45-4.27,13.04-3.76,22.1.44,8.95,2.06,12.12,2.06,9.91s1.39-10.82,3.69-22.88c2.3-12.05,3.22-16.91,4.52-19.61,1.37-2.68,1.68-2.93,1.18-.98-.6,1.94-2.35,5.05-3.13,16.05-.74,10.91-1.27,18.18-.49,17.09.76-1.12,1.74-4.94,1.74-8.77s0-15.03.71-18.16c.78-3.24,1.63-3.98,1.48-2.12-.11,1.86-1.84,6.78-.11,25.24,1.74,18.45,3.82,25.36,4.58,26.19.74.87.34-.34.87-1.56.51-1.25,4.79-11.23,6.84-19.23,2.17-8.03,2.75-11.54,2.95-13.95.31-2.3,1.14-3.55,1.14-.71s0,8.25-1.59,15.65c-1.61,7.41-4.68,15.99-3.45,15.99s4.67-.49,8.92-4.16c4.12-3.74,6.84-4.7,9.44-5.82,2.57-1.12,5.52-1.7,5.88-2.97.41-1.21,0-5.35,1.05-7.02.96-1.56.52-.98.69-2.84.13-1.83.45-7.99,0-9.82-.49-1.84,0-3.45.13-6.51.14-3.04-.13-7.11.94-12.07,1.2-4.92,3.94-7.25,4.45-9.73.58-2.46.58-7.67,2.75-12.34,2.21-4.65,5.28-14.11,15.74-22.97,10.54-8.88,38.55-30.06,72.32-7.51,4.09,2.68,4.92,3.17,5.66,4.88.74,1.7,1.12,2.08,3.83,2.75,2.75.58,8.59.71,12.79,5.9,4.14,5.17,7.4,12.03,10.38,16.5,2.89,4.41,9.19,11.65,11.3,22.3,1.18,4.76,2.3,9.3-.38,17.58-2.7,8.23-4.32,13.4-6.31,17.74-1.9,4.29-2.41,4.14-2.55,4.81-.18.6-3.92,5.84-4.56,7.6-.61,1.7-.96,6.37-3.31,9.12-2.33,2.69-5.66,4.68-7.54,8.74-1.88,4.03-2.68,7.74-5.39,14.31-2.73,6.49-2.26,7.6-7.38,12.66-5.14,5.05-6.82,7.13-8.9,9.21-2.06,2.08-4.58,4.49-.69,7.16,3.8,2.7,21,16.77,24.37,18.72,3.31,1.97.56,3.42,2.46,4.68,1.81,1.19,5.77,3.78,5.43,5.39-.4,1.63,1.45,2.93-1.72,1.1-3.26-1.84-12.35-9.71-9.61-6.35,2.68,3.26,5.39,7.18,7.96,10.58,2.59,3.26,4.63,8.12,2.59,6.26-2.06-1.88-4.09-6.55-8.99-9.66-4.94-3.06-8.12-5.75-6.4-4.05,1.72,1.79,8.01,8.41,10.74,12.82,2.64,4.45,2.95,8.5,3.56,11.54.63,3.11,1.59,5.06-.29,3.49-1.77-1.63-.69-3.8-5.17-4.32-4.45-.47-3.8.96-1.45,2.12,2.35,1.12,4.7,2.53,7.63,4.92,2.91,2.37,5.93,5.15,4,4.29-2.03-.87-7.43-4.67-11.16-6.55-3.65-1.83-3.02-2.41-3.76-.96-.78,1.54,0,2.68-2.01,2.08-1.94-.54-3.53-.96-3.06.98.49,1.99,6.11,10.73,11.43,16.39,5.3,5.66,6.53,6.66,5.43,6.39-1.09-.22-7.54-7.83-9.88-10.08-2.35-2.22-7.61-8.01-10.58-12.17-2.97-4.16-5.37-8.12-6.28-5.7-.8,2.5-1.61,5.7-2.97,7.29-1.34,1.61-1.72,3.33,1.12,4.79,2.8,1.48,5.63,2.48,6.69,3.82.96,1.37.96,1.63,2.19,1.97,1.25.36,2.84.78,4.56,2.12,1.72,1.34,4.4,2.15,5.26,3.17.89.99,3.22,3,4.21,5.82.96,2.82,2.01,5.66,3.09,8.07,1.12,2.51,1.18,3.6,2.57,5.25,1.36,1.52,2.68,2.46,5.15,6.26,2.37,2.95,3.67,4.29,3.67,5.41s0,2.04.78,3.55c.72,1.45,4.41,9.6,7.03,14.27,2.55,4.67,3.53,8.54,6.6,12.57,3.11,4.09,8.84,10.87,13.2,16.79,4.27,5.86,11.52,16.95,15.76,22.23,4.12,5.32,15.08,20.08,19.54,24.37,4.38,4.36,10.85,8.68,15.39,11.52,3.47,3.07,19.05,11.41,24.67,17.44,5.52,6.04,12.5,13.42,19.19,22.03,6.62,8.61,11.65,13.82,16.86,19.12,5.16,5.25,18.69,17.44,28.71,27.8,8.63,8.48,19.1,19.07,25.32,23.73,6.31,4.7,15.39,10.37,16.99,14.04,1.7,3.71,3.94,6.66,7.96,7.07,3.96.34,5.39.96,15-.29,9.59-1.25,16.73-2.75,20.55-2.12,3.82.65,14.56,3.36,18.11,4.68,3.51,1.37,4.76,1.63,6.01,1.63s5.93.18,7.23.76c1.41.45,2.62.71,5.07.58,2.51-.13,9.53-.49,10.85.38,1.37.87,1.37,2.08.49,3.53-.85,1.5-2.86,3.47-1.32,3.38,1.45-.16,2.08-.54,5.15-1.12,3.07-.63,5.25-1.5,6.66-1.68,1.36-.29,2.48-.14,2.95,1.21.49,1.3,1.12,5.14-1.72,7-2.84,1.83-5.34,2.71-7.4,3.07-2.12.38-7.53.47-6.4,1.38,1.09.85,3.31,1.09,7.63.72,4.3-.38,7.74-1.01,9.33-.89,1.61.16,2.98.63,3.18,2.33.31,1.72-.83,6.17-3.31,6.78-2.4.63-6.93,1.88-8.56,1.88-1.74,0-3.25.2-5.75.36-2.41.09-11.29.09-13.1.09s-3.6-.25-1.77,1c1.9,1.25,4.95,2.22,8.05,3.22,3.06.96,6.13,2.08,9.32,3.4,3.25,1.41,3.44,2.39,3.15,3.92-.45,1.7-3.29,4.49-5.97,3.98-2.7-.56-7.99-1.32-10.2-1.83-2.26-.45-9.01-1.86-11.34-2.24-2.33-.33-3.94,0-8.48-1.45-4.58-1.54-8.27-3.35-12.12-3.22-3.8.13-5.64.29-7.09-.29-1.47-.45-1.25-1.09-2.71-.07-1.52.94-.96,1.32-2.46,1.32s-.87-.38-1.94.72c-1.14,1.12-1.52,1.74-3.24,1.74s-3.67-1.05-3.04.38c.63,1.5.13.96,4.76,5.79,4.65,4.83,8.63,5.35,10.07,9.73,1.52,4.45,1.52,7.42.6,10.37-.81,2.97-4.88,4.7-6.33,2.68-1.5-1.95-2.95-4.88-9.28-9.95-6.26-5.08-8.83-6.93-12.05-8.37-3.18-1.5-5.05-2.95-11.07-4.79-6.1-1.83-7.99-3.94-10.49-8.86-2.48-4.92-4.43-7.87-10.58-12.57-6.15-4.67-8.61-5.3-17.11-14-8.48-8.77-33.23-30.33-47.32-38.33-12.55-7.96-24.51-15.12-40.84-27.21-16.37-12.03-19.48-13.64-26.12-17.6-6.13-4.32-12.86-9.75-18.56-17.73-5.46-7.51-9.75-14.38-19.46-23.24-9.75-8.86-18.72-18.74-25.02-27.48-6.28-8.74-13.24-14.4-21.76-21.69-8.48-7.23-11.81-9.33-15.18-12.28-3.31-2.97-3.69-2.97-4.78-2.37-1.12.65-6.44,4.7-9.46,6.78-3.09,2.08-4.2,2.03-7.38,6.78-3.25,4.79-3.71,4.79-5.52,6.66-1.95,1.83-1.68,2.21-2.15,3.55-.49,1.41-4.07,6.82-6.77,9.41-2.68,2.55-3.8,2.91-4.67,4.29-.87,1.34-4.6,5.54-4.6,6.87s-.13,3.2-1.57,4.83c-1.52,1.59-3.44,1.59-3,3.29.51,1.7,1.48,1.7.51,4.79-.94,3.11-2.15,4.94-2.88,5.64-.76.8-1.27,1.3-1.12,2.35.04,1.12,1.5,3.62-.14,5.93-1.74,2.35-3.44,4.34-4.68,5.33-1.27,1-1.92,1.43-2.46,3.29-.63,1.83-3.53,5.88-2.89,6.75.65.87,4.09,4.09,2.03,5.92-2.08,1.9-5.46,3.07-6.3,4.78-.87,1.75-4.68,8.75-3.56,9.79,1.07.96,3.56,3.67,4.07,4.88.45,1.21.32,2.7-.78,3.71-1.09.94-4.29-.14-3.55,1.37.71,1.45,1.61,1.45,1.03,3.2-.65,1.7-.65,2.04,1.05,2.44,1.74.38,3.62,1.72,2.87,2.8-.69,1.12-4.32,2.73-2.87,3.37,1.47.58,4.25,1.7,3.71,3.36-.51,1.56-1.14,1.92.24,2.3,1.34.38,3.47.47,3.15,3.33-.44,2.84-2.77,7.63-2.05,8.09.78.54,4.31,1.25,5.54,4.23,1.25,2.93,2.5,4.67,5.33,7.96,2.77,3.33,3.91,4.45,5.16,5.3,1.21.87,2.57,2.6,4.43,5.23,1.88,2.59,2.21,2.77,2.71,4.63.47,1.86,3.58,5.08,5.77,8.5,2.23,3.45,3.49,5.41,5.32,9.24,1.9,3.82,3.82,6.75,5.19,10.65,1.39,4,1.47,4.58,3.18,8.77,1.72,4.18,2.53,7.13,3.09,8.46.49,1.41-.25,1.74.99,2.66,1.19.76,2.68,1.18,2.51,3.42-.05,2.21-.6,4.54-.67,6.91-.14,2.33-.33,3.55.07,6.49.54,2.99,1.23,10.27,1.52,14.78.29,4.54.76,8.86-.29,13.4-.96,4.58-1.3,7.16-1.95,8.16-.58.99-.72,1.34-.72,3.2s.29,3.42-.22,5.79c-.54,2.37-1.57,2.84-1.81,5.05-.05,2.21-.81,4.03-1.45,5.91-.6,1.86-.6,1.7-.81,3.2-.27,1.47.56,2.55-.9,5.63-1.43,3.11-1.79,3.71-1.37,5.06.49,1.39,1.08,4.18.49,7.22-.54,3.11-1.92,9.91-1.92,11.58,0,1.77.25,4.7-.52,6.08-.67,1.36-1.09.61-.79,2.98.2,2.3.6,2.79.13,6.13-.56,3.33-1.03,11.2-1.03,15.01s-.63,15.12-1.59,20.58c-.99,5.37-2.22,9.32-2.08,11.2.07,1.83.63,3.46.22,5.05-.36,1.57-.63,3.53.74,1.94,1.32-1.57,2.91-3.91,6.37-4.45,3.47-.45,10.29-3.78,13.8-5.63,3.6-1.86,18.12-9.1,26.57-12.19,8.54-3.07,35.72-15.03,46.83-19.32,11.03-4.32,29.09-10.11,34.48-12.32,5.39-2.21,7.71-3.07,10.46-6.95,2.73-3.8,10.18-15.34,16.14-28.27,5.93-12.95,6.58-21.42,10.96-20.91,4.4.45,8.84,3.67,21.18,7,12.32,3.33,25.45,6.87,29.5,7.52,4.07.56,9.26-2.95,12.05-6.66,2.86-3.71,6.78-8.86,8.81-14.4,1.94-5.53,1.25-8.16,3.18-7.63,1.99.51,6.56,2.8,6.89,4.05.36,1.25.49,2.59-.69,3.71-1.25,1.07-10.29,15.01-12.97,19.19-2.71,4.16-3.26,6.91-.96,9.12,2.21,2.21,2.21,3.94,8.21,4.9,6.08.96,15.81,1.72,34.17-.87,18.29-2.57,34.33-5.03,43.47-1.57,9.08,3.4,32.85,14.02,42.58,23.3,9.68,9.21,13.75,14.09,15.3,19.16,1.7,5.08.76,5.41-.67,7.42-1.52,1.99-2.01,2.55-4.07,2.55s-5.66-1.47-5.95-.38c-.2,1.12-3.31,4.79-5.52,4.61-2.21-.25-8.03-3.62-9.73-3.27-1.74.45-5.17.94-6.62.94s-2.37-.16-3.67.67c-1.36.92-4.07,1.29-6.21,1.54-2.08.25-7.74,1.85-13.4,4.92-5.64,3.04-6.62,3.55-11.32,3.55s-5.05-.25-9.6,1.5c-4.58,1.7-15.63,7.53-21.07,8.65-5.39,1.01-11.63,2.3-13.24,2.3s-2.01-.74-2.01.49.29,4.3-2.44,5.3c-2.75.96-4.32,1.7-7.14,1.9-2.86.05-6.17,1.27-8.48,2.04-2.35.72-2.73,2.21-3.89,2.21s-1.77-.45-3.4.85c-1.65,1.37-2.62,1.48-3.44,1.48-.89,0-1.65-.36-2.82.87-1.32,1.21-1.95,1.47-2.84,1.47s-.45-.25-2.21.74c-1.84.96-5.86,2.71-8.01,4.05q-2.28,1.37-3.09,1.5c-.83.13-1.1-.25-3.11,1.74-1.94,1.95-2.57,2.3-3.45,2.3s-1.81.51-3.22,1.63c-1.54,1.09-9.55,4.29-12.88,5.66-14.65,7.16-53.72,21.35-64.94,26.32-11.16,5.06-42.94,19.61-52.51,24.26-9.59,4.72-9.46,4.09-6.66,8.75,2.88,4.67,9.95,14.65,13.42,22.27,3.44,7.71,6.42,17.02,6.57,20.28.04,3.13-.94,7.07-3.45,4.99-2.62-2.12-3.11-2.44-4.56-4.32-1.5-1.83-1.39-2.46-2.33-.99-.99,1.48-4.45,3.58-5.95,3.58s-1.75-.38-3.06-2.46c-1.36-2.12-1.84-5.05-3.85-5.05s-3.38-.65-5.7-1.83c-2.17-1.25-1.77-1.25-3.92-1.25s-3.89-.96-5.66-1.83c-1.7-.83-7.94-2.71-11.52-1.88-3.58.89-5.57.74-8.01-.36-2.46-1.1-.76-2.39-4.27-2.39s-13.8-.71-17.69-.96c-3.76-.2-4.69-.87-7.53-.2-2.77.58-8.34,3.17-13.73,3.82-5.44.56-6.64,1.43-11.22,2.84-4.5,1.3-14.54,4.03-22.29,3.91-7.72-.13-19.46-.58-30.51-8.65-6.06-5.14-10.64-9.91-13.31-14.87-2.71-4.92-2.39-5.05-4.07-5.54-1.75-.51-3.96-1.56-6.82-3.33-3.11-1.72-6.75-1.47-13.98-2.59-7.23-1.09-22.52-3.2-29.9-4.32-7.4-1.09-8.29-1.18-13.2-1.09-4.88.11-23.12,2.98-33.46,3.33-10.4.36-44.37.87-66.64-2.95-21.42-3.38-51.46-8.05-65.5-17-6.39-2.19-25.13-17.11-17.35-50.87,1.36-4.79,7.51-21.78,18.22-38.4,12.07-22.88,39.45-51.95,60.33-70.93,19.86-15.59,35.31-26.92,38.42-29.29,3.07-2.32,3.07-2.7,4.47-3.07,1.28-.38,1.1.51,1.83-1.21.72-1.7,1.56-3.94,3.22-4.58,1.57-.61,3.18.51,3.45-1.18.2-1.77,1.19-2.66,2.19-3.74,1-1.09,4.54-4.41,6.3-6.49,1.75-2.12,3.06-3.98,4.56-4.83,1.45-.87,2.71-1.57,3.94-2.95,1.19-1.3,1.19-3.09,2.41-3.24,1.25-.13,1.99-.13,1.99-1.18,0-1.12,1.25-4.07,2.42-5.91,1.29-1.86,2.52-2.84,1.41-4.2-1.12-1.34-4.72-5.68-3.45-7.89,1.25-2.24.94-2.95.24-3.82-.72-.87-5.43-5.21-3.91-11.96,1.46-6.75,3.29-11.65,4.61-14.02,1.39-2.37,2.01-3.06,1.86-4.18-.13-1.12-.47-3.24-.18-4.45.18-1.19,1.59-2.3,1.43-4.29-.13-1.99-.6-2.42,0-3.71.63-1.25.76-.71.76-2.21s1.12-2.57-1.1-3.04c-2.26-.58-1.7-1.03-4.47-1.5-2.71-.52-5.77,0-5.39-1.86.34-1.84.78-5.41,1.23-7.63.47-2.21,1.1-3.2.85-4.83-.2-1.61-.85-4.07.74-9.1,1.57-5.05,1.45-7.22,1.86-9.62ZM165.49,727.18c1.23-1.16,21.2-12.73,33.7-21.53,11.4-7.29,22.94-15,26.17-17.11,3.24-2.01,4.41-2.62,4.14-1.21-.24,1.34-1.23,13.15-1.23,26.16s1.07,12.48-4.07,16.19c-5.23,3.67-6.6,7.11-10.74,5.73-4.14-1.37-6.95-4.32-25.38-5.06-18.43-.67-25.65-.22-22.59-3.17ZM236.79,118.61c2.44.42,5.37,1.79,4.87,3.24-.61,1.38-.41,2.14-2.62,1.76-2.24-.38-4.63-5.37-2.24-4.99ZM223.08,118.26c.41.47-.24,10.2,1.01,12.17,1.23,1.99,1.12,3.33.11,3.33s-2.59-.63-2.89-5.79c-.45-5.17.04-11.92,1.77-9.71ZM247.74,111.12c.13.87.2,6.49-.9,7.24-1.1.76-2.91,2.5-2.84,1.54.11-1.03.89-4.74,1.88-6.78.96-2.15,1.72-2.62,1.86-1.99ZM237.35,100.41c-.13,5.79,1.43,11.58,1.37,12.73-.14,1.25-.85,2.91-1.68.8-.9-2.12-1.07-6.04-1.07-9.12s1.56-10.2,1.37-4.41ZM347.46,182.03c.45-.13,1.57-1.59,2.46-1.1.83.47,3.6,1.43,4.92,3.45,1.36,1.94,5.46,4.14,3.56,3.76-1.76-.31-4.6-2.21-6.75-3.25-2.13-1.16-4.67-2.75-4.2-2.86ZM348.44,185.21c2.51-.81,9.01,5.17,10.42,6.68,1.3,1.45,2.6,2.84.98,2.42-1.81-.34-2.79-1.81-6.96-4.14-4.18-2.33-5.16-4.68-4.43-4.96ZM386.26,207.15c1.9,2.59,5.06,5.63,6.75,8.29,1.75,2.55,3.62,4.47,1.12,4.25-2.42-.24-7.11-.58-8.34-2.24-1.25-1.57-2.08-2.33-1.76-3.53.36-1.27-.32-1.34-.14-2.62.29-1.21.45-6.76,2.37-4.14ZM376.69,198.12c1.39,1.41,2.93,4.79,3.09,5.79.04.99-.76,1.86-1.41.13-.61-1.7-3.92-7.36-1.99-6.37,1.99.99-.98-.89.31.45ZM374.45,180.43c2.5,2.82,6.01,5.88,9.1,7.65,3.06,1.68,7.27,3.8,4.92,1.3-2.37-2.42-8.84-7.36-10.89-8.09-2.17-.8-5.63-3.71-3.13-.87ZM354.77,193.96c1.43,1.47,5.53,2.82,6.26,3.78.69,1.01,1.74,3.06.09,2.22-1.59-.85-4.7-3.06-5.52-3.93-.83-.87-2.35-3.55-.83-2.08ZM374.79,208.52c1.59,2.9,5.19,4.63,5.79,4.38.63-.25,2.19-.32-.13-2.21-2.37-1.83-6.64-4.07-5.66-2.17ZM361.66,215.27s7.8,6.78,8.23,8.37c.34,1.54.27,4.05-.27,5.28-.49,1.21-1.14,2.1-1.65,1.21-.63-.87-5.61-4.96-5.81-7.25-.27-2.35-.51-7.61-.51-7.61ZM156.88,536.65c.31.47.88,1.97.31,3.83-.56,1.88-1.3,2.21-1.63,4.16-.36,2.04-.49,3.67-.96,3.8-.56.13-1.61.13-1.12-2.42.4-2.5,2.6-10.49,3.4-9.37Z"/>
</svg>