<?xml version="1.0" encoding="UTF-8"?>
<svg id="_レイヤー_1" data-name="レイヤー 1" xmlns="http://www.w3.org/2000/svg" viewBox="0 0 505.71 875.51">
  <defs>
    <style>
      .cls-1 {
        fill: #040000;
      }
    </style>
  </defs>
  <path class="cls-1" d="M303.18,815.57c-.62-.87-1.31-1.6-2-2.33.09,1.18.67,2.06,2,2.33Z"/>
  <path class="cls-1" d="M504.44,849.85c-.44-3.95-5.73-5.99-8.22-8.36-3.92-4.28-8.55-8.73-11.55-13.72-.98-1.63-10.41-16.79-12.69-18.95,11.18,7.23,22.51,19.63,33.74,28-39.81-83.76-98.88-161.23-172.19-218.45,4.91-5.27,8.62-17.84,15.68-7.22,1.95-22.39,16.37-1.55,25.3,3.95.05-6.58,2.52-12.89,4.75-18.97,1.06-2.91,2.18-13.97,4.19-15.76,5.35,15.41,25.53,16.35,25.61,30.81,8.98-7.72,14.11-20.05,12.83-31.86-.67-6.29-3.3-12.31-7.75-16.86-6.95-7.07,1.98-3.78,5.12-2.63,6.94-20.07-.23-40.12-14.08-55.29-6.49-7.11-14.1-13.17-22.23-18.29-6.9-4.35-20.88-9.14-20.8-19.13,8.27,1.45,15.07,6.66,22.44,10.26,8.93,2.85,17,7.73,24.62,13.09,14.46,10.15,24.24,21.95,28.05,39.61,3.46-11.87,5.5-23.08,4.74-35.97-.77-13.22-4.86-26.38-14.86-35.55,5.21,2.81,4.93-1.97,4.51-5.66,2.56,1.23,5.88,1.99,7.43,4.67,9.57-11.62-7.54-22.01-15.69-27.67-5.07-3.52-9.76-8.52-15.24-11.21-4.36-2.14-9.09-3.5-13.96-3.58-2.98-.05-8.57,2.25-11.65,2.04,4.17-.05,7.35-9.39,3.85-12.73-1.48-1.4-15.93-7.02-17.95-5.65,2.36-3.06,27.36-15.31,18.43-22.4-3.99,1.87-8.37,2.8-12.75,3.1-.37.01-9.7-.26-9.49-.47,1.86-1.92,9.16-2.02,11.89-3.09,4.5-1.78,8.68-4.34,12.42-7.4,5.81-4.71,19.34-17.32,15.74-25.94-8.15,6.09-18.42,4.85-28.44,5.07-.67-6.98,16.53-9.04,22.45-12.54,10.97-6.49,19.15-17.01,24.24-28.57,1.84-4.17,5.11-10.46,3.9-15.01-1.28-4.7-13.32,6.81-15.95,8.46-13.18,8.35-27.78,14.04-41.37,21.62,3.17-15.57,25.2-23.44,35.89-33,7.41-6.61,11.34-17.25,13.46-26.69,1.48-6.57,2.12-13.3,2.36-20,.1-2.7.13-5.39.1-8.08-.04-7.85.7-1.59,4.63-5.01-6.55-69.15-40.79-129.93-70.68-188.06,5.63,22.37,11.71,44.65,15.51,67.43,2.05,12.36,3.44,24.85,3.68,37.38.21,11.61-5.92,23.8-10.87,34.1-10.74,22.32-25.75,41.52-38.35,62.71-1.63,2.75-4.34,11.38-8.77,10.5-3.78-.75-2.71-4.78-6.95-5.62-3.21,3.77-7.35,3.03-11.34,1.21-5.73-2.62-6.46-2.09-11.99.98.47-5.96-5.11-8.86-9.81-10.88,6.35-.73,11.78.01,11.97-8.16,2.93-11.8,5.12-23.81,5.8-35.96.68-12.32-.27-24.77-3.61-36.67-1.43-9.17-2.02-19.53-7.88-27.21-5.53,7.98-2.27,23.86-3.22,33.25-1.46,14.39-3.56,28.71-6.46,42.88-2.64,12.92-5.96,25.72-10.09,38.26-2.27,6.94-4.81,13.81-7.62,20.56-.92,2.18-8.46,15.09-7.94,16.42-1.6-4.12,1.85-10.48,1.96-14.91.15-6.99-1.33-14.08-4.13-20.48-.43,6.85-4.81,17.77-11.58,18.17,12.5-27.96,2.36-63.72-13.58-87.25-1.09,4.09.81,10.32-.2,15.31.04,1.29.6,6-.53,7.41-.24.3-4.72-15.05-5.18-16.24-4.01-10.06-8.29-20.01-13.08-29.72-10.12-20.53-22.55-40.36-39.28-56.17,5.64,19.49,11.97,38.77,17.78,58.21,5.53,18.44,12.07,40.16,7.63,59.46-18.56-64.58-44.74-135.57-99.65-177.14.75,1.83,22.63,34.8,19.81,36.27-.81.42-4.28-5.43-4.34-5.52-6.3-7.22-11.14-15.72-18.33-22.13-3.98-3.55-8.76-3.31-7.52-8.71,1.27-5.53-5.29-8.51-9.22-11.45C49.71,13.46,28.06,3.59,5.57,0c9.69,8.3,21.37,11.8,29.99,21.68,8.59,9.84,16.48,20.3,23.6,31.25,14.65,22.54,26.05,47.05,35.04,72.35,18.26,51.43,26.84,105.61,35.93,159.21,2.17,12.78,4.35,25.54,6.72,38.29,2.45,13.34,8.3,28.93,7.3,42.42-.8,10.64-9.72,32.86-1.64,41.63,11.94,9.06,22.66,19.68,32.27,31.17,18.5,22.13,33,47.4,45.27,73.42,6.04,12.86,8.44,23.72,4.04,37.63-1.98,6.25-4.75,12.2-7.55,18.1-1.37,2.91-6.18,18.76-8.99,19.53-4.86,1.47-4.74-21.5-11.29-24.04,8.61,19.1-16.81,21.52-30.67,23.55-.59-5.19.28-12.1-3.4-16.1,1.02,26.77-31.08,34.46-42.43,54.62-.9-3.94,1.07-11.81-3.2-13.72-1.44,8.64.24,20.05-7.9,26.22-3.17-6.84-2.53-15.75-6.38-21.39-1.55,29.02-14.18,67.06-46.19,74.4-12.92,17.37-32.7,10.76-49.3,19.24-8.34,4.25-9.78,26.21.2,30.18-2.03-25.2,32.38,2.04,46.6-10.55.41.74-18.21,10.44-19.23,14.71-5.29,13.58,17.5-12.2,16.07-.43-.76,1.15-12.18,21.59-6.15,22.57,2.08.33,3.55-7.85,3.69-8.48,7.48-4.45,15.79-7.1,24-9.84,7.71-2.58,16.46-8.5,24.38-8.15,17.83.76,35.33-4.05,51.06-12.25,7.33-3.82,14.28-8.32,20.86-13.3,3.33-2.51,6.57-5.13,9.71-7.85,2.91,3.53,6.55,6.37,10.53,8.61,13.64,7.72,29.8,9.09,43.77,16.1-7.06,9.3-18.91,12.42-29.62,15.4-5.92,1.66-11.95,3.31-17.44,6.16-6.33,3.29-9.43,7.06-16.51,8.96-2.73.74-7.06,2.57-9.87,2.57.19,2.07-.13,4.17-1.14,6.02-1.95,3.59-5.83,5.68-9.36,7.42-6.8,3.37-16.4,6.93-13.1,16.38,1.94-.84,1.64-3.49,2.25-5.31,2.97-1.02,13.56-5.09,10.24,2.04-1.6,3.42-4.25,5.39-3.52,9.28.73,3.87,1.86,9.88,6.64,10.65-.06-3.35-1.94-6.34-1.71-9.76.32-4.95,2.91-2.79,6.29-3.4,5.33-.96,9.28-4.67,12.47-8.83,5.66-7.39,10.64-17.61,21.6-16.36,2.13,3.38-1.42,14.32-2.73,18.08-1.75,5.02-12.4,3.47-10.82,7.75,21.28,4.28,37.58-22.29,25.93-40.14,13.81-2.12,28.72,8.18,33.33,21.01,1.56-9.94,8.2-9.32,14.22-2.8.83-3.19,1.29-6.36,1.31-9.64,4.77,4.22,5.55,1.79,10.15,1.89,1.23,8.63,5.82,27.44-3.36,32.6-3.71,2.09-8.07,2.59-12.21,3.05-4.1-4.02-9.04-7.34-14.63-8.88-7.61-2.09-15.61-.39-22,4.17-3.36,2.38-6.21,5.45-8.51,8.86-.82,1.21-5.48,12.29-5.76,12.33.49,15.87,9.97,33.62,27.98,28.08-3.29-3.35-17.08-24.55-4.63-25.64,5.57-.49,19.55-.82,24.3,2.09,6.98,4.26,13.24,6.36,21.56,6.33-1.81-20.86,23.71-32.67,37.56-17.89-.31-4.3,6.32-12.86,11.14-12.81,11.34.1-2.71-16.14,6.84-17.8.19,1.72,2.13,1.04,2.67,2.46,9.17,4.25,10.79-23.84,9.67-28.34,12.52,10.18,6.44-18.59,7.71-23.83,15.53,8.58,16.33,38.24,17.39,53.57.55,7.91-3.91,28.37.81,33.13,7.75,7.81,15.91,16.35,26.51,20.14-3.49-12.94-5.51-20.09.46-30.79,4.87,25.13,16.76,51.88,44.78,57.81-.86-5.15-.3-10.47,2.02-15.19,1.15-2.31,2.61-4.39,4.38-6.25-2.01-1.9-3.75-4.04-5.21-6.37-5.32-8.58-5.81-18.96-9.91-28.02,17.87,19.52,16.24,62.07,52.73,64.58-.03-15.45-8.94-29.09-10.63-44.11,9.35,11.83,29.15,16.58,41.89,18.45ZM49.11,719.76c.97,1.27,2.99,1.13,3.92,2.76-8.88,6.57-15.63,6.92-25.5,2.08-8.9-4.35-17.69-7.75-24.22,2.18-6.04-20.43,25.03-18.19,36.07-21.62,2.46-.77,4.9-.67,6.75,2.04-1.3,4.77,1.55,5.5,5.55,7.57,5.67,2.92,14.7,5.72,16.45,12.77-2.31.82-16.7-17.19-22.3-9.33.39,1.39,1.48,1.9,3.28,1.54ZM67.57,712.05c5.8,4.2,5.06-4.26,7.5-4.55,2.6,5.14-4.61,8.91-8.57,5.67-1.8-1.27-2.06-3.63-2.29-5.63,2.33-.64,4.23-1.68,6.22-1.9,2.45.89-5.72,2.01-2.86,6.41ZM48.4,737.79c.71-1.74,7.56-3.15,7.48-1.49-1.73,2.68-4.74,1.29-7.48,1.49ZM61.05,747.13c-2.77.23-5.53.55-8.27.94,1.53-4.32,5.03-8.49,8.3-11.25-1.62,3.26-1.24,7.02-.03,10.31ZM89.37,723.59c.06.03-8.93,9.1-9.87,9.83-4.66,3.52-10.23,5.92-16.17,5.45,1.55-4.34,5.52-6.95,8.52-10.18,1.95-3.59-3.39-4.5-4.07-7.36,1.44.34,2.78.18,4.02-.46.48-.97-4.82-3.78-5.35-4.19,3.95,1.24,8.54.4,10.91-3.27,3.55-5.53,7.95-2.82,14.24-3.66.04,4.8-.79,9.4-2.22,13.85ZM53.79,707.52c-2.8-3.21-1.21-7.27-6.98-4.82,6.58-7.98,16.54-13.67,26.92-14.51,4.53-.36,9.13.26,13.32,2.04,3.11,1.31,6.95,8.13,9.29,8.17-11.97,9.89-30.11-.43-42.54,9.12Z"/>
</svg>