<?xml version="1.0" encoding="UTF-8"?>
<svg id="_レイヤー_1" data-name="レイヤー 1" xmlns="http://www.w3.org/2000/svg" viewBox="0 0 398.78 893.95">
  <defs>
    <style>
      .cls-1 {
        fill: #040000;
        fill-rule: evenodd;
      }
    </style>
  </defs>
  <path class="cls-1" d="M390.91,877.67c-.76-2.87-1.58-5.8-2.39-8.73-2.91-2.29-5.94-4.57-8.85-6.87-5.94-8.09-12.25-16.16-17.64-24.75-2.74-4.44-4.75-9.91-8.22-13.91-8.52-10.11-17.95-18.81-24.79-30.76-5.18-9.19-7.86-20.32-11.88-30.56-5.04-10.22-10.2-20.37-15.26-30.6-2.81-6.45-5.4-13.08-7.53-19.48-.7-4.07-1.35-8.11-2.08-12.1-2.18-7.21-4.44-14.37-6.66-21.48-1.38-2.86-4.33-5-4.64-8.84,1.66.24,1.96.85,2.48,2.06.09,0,.22.02.28.02-.5-2.69-1.02-5.29-1.55-7.91,2.72-6.49,5.45-12.87,8.2-19.27,2.24-.4,2.98-.95,4.5-1.63-.09-.86-.47-1.04-1.07-2.03,1.48-2.01,3.17-2.91,3.19-6.69-.05-1.39-.2-2.78-.24-4.18,1.54-4.98,6.66-8.23,7.87-14.52-1.19-1.69-2.41-3.43-3.56-5.07-.11-.01-.22-.01-.34-.01-1.93,1.06-3.96,2.18-5.92,3.23-3.19.75-6.5-.03-9.33,1.01-2.19-2.09-5.65-2.34-8.04-4.38-1.49-1.23-1.08-3.8-1.92-5.62-1.6-3.6-7.84-4.73-11.72-3.04-3.78-1.8-8.41-10.99-9.06-15.56.2-1.62.43-3.21.67-4.79-1.4-1.69-2.77-3.38-4.16-5.09-2.59-4.4-4.52-12.53-3.69-17.23-3.3-4.19-8.93-13.08-10.91-18.15,0-.86.02-1.69.04-2.56-.86-.98-1.78-.22-2.54-1.65,1.64-1.64,2.59-2.16,2.32-5.09,2.25-.62,4.77-1.02,5.96-2.71.41-.89.79-1.85,1.19-2.74,4.17-1.95,8.33-3.83,12.49-5.77,6.29-3.76,10.53-9.43,16.23-13.77,3.02-2.39,7.64-3.46,9.98-6.56,1.33-1.95,10.07-15.54,10.87-15.88-.23-1.01-.51-2.07-.77-3.09,2.2-2.9,4.43-5.79,6.6-8.66,9.27-11.67,17.21-23.46,23.89-38.11,2.47-4.44,4.86-8.92,7.29-13.36,2.5-8.95,4.93-17.89,7.45-26.83,2.44-8.19,10.92-20.74,9.47-30.84-3.84-27.55-17.07-35.65-30.03-53.29-6.88-9.29-11.14-22.4-16.07-33.47-2.2-3.85-4.39-7.73-6.57-11.58-2.09-6.24-.29-14.37-.2-22.25-.24-15.04-.45-30.17-.7-45.3-1.26-8.15-2.54-16.3-3.78-24.48.41-2.04.81-4.11,1.21-6.13-.33-3.02-.63-6.04-.95-9.04-2.16-6.49-4.3-12.98-6.46-19.5-8.4-26.09-17.55-49.48-27.53-73.48-2.01-4.97-4.41-10.11-5.94-14.52-2.51-7.36-2.51-14.36-6.71-20-1.85-1.49-3.71-2.9-5.58-4.34-1.53-1.84-2.94-4.9-5.22-5.97-2.73-1.29-7.27-.31-9.52-.98-1.05-3.88-2.83-9.05-4.6-12.5-7.38-2.24-3.53-.22-7.47-6.24-.29.05-.58.17-.88.21-5.85,6.08,2.93,27.33.28,37.43-.59,1.23-1.17,2.4-1.8,3.6-.81.3-1.64.53-2.52.8-2.39-1.88-4.5-4.87-8.89-4.06-.22.11-.43.17-.61.3.13,5.22,4.8,8.07,7.72,10.78,1.39,2.13,2.73,4.21,4.09,6.28,4.68,3.79,13.57,6.55,19.85,8.15,9.54,16.43,11.43,37.81,15.35,59.56.61,8.36,1.25,16.74,1.85,25.07,4.31,19.38,18.71,34.91,13.11,59.83-.66-.02-1.31-.02-1.94-.04-5.4-17.3-13.53-33.71-19.99-50.12.37-3.93.86-7.78,1.33-11.74.19-7.93-1.33-16.36-3.61-21.98-3.17-7.83-.81-21.18-9.2-23.73-1.05-3.31-.14-7.84-3.23-9.36-1.04.65-1.73,1.08-2.27,2.22-1.1,3.53,1.42,9.32-.2,12.94-.54.83-.07.46-1.18.83-.11-5.06-.2-16.76-3.64-18.89-1.12.81-3.71,9.95-4.08,12.26-1.32-.75-2-4.11-2.77-5.4-.28-.02-.52,0-.82,0-2.32,3.71-1.83,15.25-.57,19.65-.02.44-.02.79-.02,1.15-.85.19-1.69.35-2.58.52-.18-.01-.35-.01-.52-.01.27,3.01,1.88,3.66,2.68,5.7.99,2.47,1.41,7.53,2.38,10.42,1.1,3.42-.88,6.07.43,8.73,2.88,6,7.46,10.5,9.54,17.58.32,2.77.65,5.41,1.01,8.15,2.25,9.75,5.4,19.66,7.36,29.97-.04,2.62-.09,5.22-.12,7.8.95,5.32,3.37,14.44,1.67,20.29-4.99,1.34-8.68-.73-9.75-4.9-.54-.53-1.13-.95-1.66-1.45-8.03.55-8.39,10.63-14.3,12.99-2.87,1.2-5.56-.81-7.81-1.27-8.09,4.37-18.29,8.42-23.36,15.96-11.82,17.68-2.16,51.88,7.73,63.67,2.76,2.45,5.51,4.94,8.32,7.39,4.36,2.77,17.57,6.24,18.92,10.15.22,4.44.46,8.83.63,13.28,1.41,8.56,3.1,15.79,3.26,24.74-1.15.11-.95.17-1.94-.27.64,3.2,2.76,4.15,2.13,8.14-.76-.17-1.49-.37-2.23-.56,1.84,2.58,5.54,4.22,6.08,7.92-.61.99-1.18,1.87-1.78,2.82,3.22,2.77,5.61,8.73,5.42,14.65-.18.13-.4.19-.56.29-3.76-.41-5.24-2.79-7.56-4.59,2.71,5.89,9.36,5.63,11.03,14.19.09-.33.22-.71.27-1.06.41,0,.76,0,1.19.03,2.36,4.1,6.68,10.58,5.34,14.38-5.87,3.42-23.9,4.26-31.85,5.94-15.28,3.33-39.22,13.51-47.32,23.72-8.24-.92-12.96,1.47-20.01,2.44-.83-.95-1.73-1.63-3.03-2.27-4.08,2.24-9.54,1.68-16.05,1.46-2.12-3.26-4.28-4.56-6.9-7.13.87-4.88,3.42-11.73.85-17.7-1.69-2.09-3.33-4.2-4.96-6.29-3.51-10.97-1.23-17.79-10.62-23.46-5.33-3.27-13.64-1.52-19.91-3.94-3.74-2.6-4.5-10.63-4.25-16.99,4.25-.96,7.92-.03,10.76-2.07,11.52-8.12-4.5-26.06-6.47-34.19-1.99-8.2.93-33.22-11.88-29.34-.97.7-1.91,1.48-2.9,2.2-1.95.7-3.76-.9-5.6.2-.97,1.42-1.92,2.9-2.86,4.45-4.57,4.68-10.42,13.25-12.44,20.01-.1,2.36-.25,4.68-.4,7.03-.81,3.52-2.67,9.26-1.89,13.99.95,6.14,3.11,13.9,1.62,20.86-3.64,16.96-12.73,29.97-16.2,46.99-2.68,1.62-7.08,2.27-9.05,4.58-1.6,1.85-1.66,4.83-2.67,7.32-6.01,14.96-3.58,26.71,1.62,39.36,3.59,8.77,7.95,17.2,14.79,22.72,3.6,2.89,8.28,3.95,13.15,5.53,18.99,6.36,41.56,9.49,62.98,14.26,10.69,2.38,42.41,7.22,46.8,13.13,3.04,4.1,3.56,12.1,5.62,16.98,3.86,9.21,10.54,16.24,15.01,24.33,4.91,8.83,5.9,19.36,11.41,27.23,4.82,6.93,13.53,9.88,19.99,15.23,5.93,4.9,9.2,11.88,13.81,18.19,2.79,3.84,6.35,7.66,9.07,11.69,1.08,2.29,2.17,4.55,3.25,6.83.94.65,1.88,1.29,2.78,1.96,1.65,2.17,2.18,5.27,4.35,6.8,2.27,1.56,3.69,1.9,5.04,4.28,5.44,9.94,8.11,20.65,12.97,31.48.95,2.04,3.1,3.45,3.85,5.97.49,4.19.96,8.43,1.51,12.66,2.86,9.7,4,19.67,8.22,27.94,5.09,9.88,12.47,17.97,19,26.45,12.66,16.47,25.43,32.5,39.16,47.88,4.15,4.55,6.46,9.67,7.56,17.24.94,6.14-1.13,11.45,1.14,16.88,2.5,5.88,8.45,5.68,13.39,9.21,1.98,2.84,4,5.73,6.04,8.52,7.3,9.83,17.56,20.16,32.84,20.52.18-.31.34-.61.51-.85-.02-1.94-.1-3.95-.13-5.88.17-.12.42-.21.58-.3,1.73,1.74,2.11,5.12,2.97,7.65,1.33.48,3.35,1.36,5.04.62.97-.51,1.06-.77,1.44-1.91,2.57-.39,6.15,1.31,8.69-.43.58-.42.24-.04.58-.59,1.53-4.38-5.91-9.88-7.66-13.06ZM232.33,336.8c-.52.1-.95.17-1.43.25-4.08-3.95-10.42-9.55-15.81-11.78.46-1.38.93-2.78,1.42-4.16,1.4.09,2.8.22,4.23.31,4.46,3.71,4.84,7.59,13.62,7.57.4,1.26.76,2.63,1.1,3.95-1.04,1.26-2.1,2.6-3.13,3.85Z"/>
</svg>